<?xml version="1.0" standalone="no"?>
<!DOCTYPE svg PUBLIC "-//W3C//DTD SVG 1.1//EN" "http://www.w3.org/Graphics/SVG/1.1/DTD/svg11.dtd" >
<svg xmlns="http://www.w3.org/2000/svg">
<metadata></metadata>
<defs>
<font id="MinyaNouvelleRegular" horiz-adv-x="968" >
<font-face units-per-em="2048" ascent="1569" descent="-479" />
<missing-glyph horiz-adv-x="616" />
<glyph unicode="&#x28;C&#x29;" horiz-adv-x="1304" d="M53 680q0 202 81 368.5t221 261.5t309 95q175 0 309.5 -110t203 -286.5t68.5 -385.5q0 -304 -157.5 -492t-411.5 -188q-181 0 -324.5 100t-221 268t-77.5 369zM143 670q0 -277 144.5 -453t363.5 -176q146 0 260.5 81t178 225.5t63.5 326.5q0 88 -14 168 q-32 221 -154.5 348t-306.5 127q-114 0 -214 -51.5t-170 -138.5t-110.5 -206t-40.5 -251zM350 635q0 162 90.5 264t237.5 102q107 0 176.5 -44t69.5 -117q0 -44 -30.5 -75.5t-76.5 -31.5q-43 0 -73.5 32.5t-30.5 76.5q0 43 35 67q-54 4 -72 4q-102 0 -161.5 -67.5 t-59.5 -177.5q0 -100 62.5 -185.5t146.5 -85.5q50 0 100 29.5t72 71.5l110 -33q-33 -63 -114.5 -111.5t-161.5 -48.5q-133 0 -226.5 97t-93.5 233z" />
<glyph unicode="&#x28;R&#x29;" horiz-adv-x="1288" d="M53 680q0 202 81.5 368.5t222 261.5t309.5 95q175 0 309.5 -110t203 -286.5t68.5 -385.5q0 -304 -157.5 -492t-411.5 -188q-181 0 -325 100t-222 268t-78 369zM143 670q0 -277 145.5 -453t364.5 -176q229 0 361 176q-66 8 -130 65t-107.5 123.5t-97.5 137.5t-97 98 l-33 -2q0 -133 -8 -217q50 -3 82 -10l-11 -62q-35 5 -100 8l-106 7v65h57q12 0 14 -2q5 48 10 259t9 253q-16 -6 -74 -16l-8 69q93 13 149 13q123 0 213 -45.5t90 -126.5q0 -74 -73 -131.5t-148 -57.5q75 -37 148 -153q129 -199 270 -199q92 189 92 381q0 290 -129.5 466.5 t-345.5 176.5q-114 0 -214.5 -51.5t-171 -138.5t-111 -206t-40.5 -251zM547 834q0 -20 1 -59t1 -58q25 -4 67 -4q69 0 128 32.5t59 85.5q0 47 -53.5 80t-141.5 33h-26q-21 0 -23 -2q-12 -22 -12 -108z" />
<glyph horiz-adv-x="0" />
<glyph horiz-adv-x="2048" />
<glyph horiz-adv-x="616" />
<glyph unicode=" "  horiz-adv-x="616" />
<glyph unicode="&#x09;" horiz-adv-x="616" />
<glyph unicode="&#xa0;" horiz-adv-x="616" />
<glyph unicode="!" horiz-adv-x="464" d="M72 113q0 68 41.5 111.5t107.5 43.5t108 -43.5t42 -111.5q0 -65 -42.5 -114.5t-105.5 -49.5q-69 0 -110 44.5t-41 119.5zM158 369q0 564 59 1044l135 -16q-55 -501 -55 -1028h-139z" />
<glyph unicode="&#x22;" horiz-adv-x="550" d="M76 1268v96l4 16l135 13q-2 -2 -2 -29v-80q0 -138 27 -369l-136 -24q-28 183 -28 377zM334 1249v99q0 12 2 14l137 14q-2 -2 -2 -28v-80q0 -136 27 -371l-136 -25q-28 183 -28 377z" />
<glyph unicode="#" horiz-adv-x="976" d="M68 424v154h192l39 167l-193 -18l-16 154q124 13 250 24q16 60 102 332l148 -51q-61 -174 -88 -273h106q57 174 86 304l152 -33q-57 -229 -74 -279q62 -4 178 -16l-22 -152q-153 14 -207 17l-47 -156l223 10l10 -151l-272 -17q-27 -125 -27 -295h-135q0 162 16 287 l-108 -4q-14 -76 -43 -272l-148 18q9 75 39 250h-161zM414 582l106 6q5 16 20 75.5t25 94.5h-92q-6 0 -12.5 -7t-11.5 -21t-9.5 -27t-9 -34t-6.5 -32.5t-6 -32t-4 -22.5z" />
<glyph unicode="$" horiz-adv-x="937" d="M70 326l118 129q109 -109 211 -115q-8 98 -8 250q-293 115 -293 328q0 116 89 204.5t210 96.5l-14 163l102 7q6 -97 17 -175q67 -3 129 -22l12 127l162 -19q-17 -99 -17 -184q0 -38 5 -88l-150 -55q-53 87 -139 96l-6 -356q352 -113 352 -258q0 -152 -90 -231t-236 -79 q2 -8 2 -65q0 -24 -1 -65t-1 -50l-116 -4q0 5 6 88t6 119q-93 0 -196 49.5t-154 108.5zM260 907q0 -115 135 -159q4 242 4 325q-57 -9 -98 -57.5t-41 -108.5zM496 549q0 -70 14 -252q6 -4 22 -4q74 0 117 36.5t43 84.5q0 82 -196 135z" />
<glyph unicode="%" horiz-adv-x="1239" d="M98 1069q0 124 90.5 202.5t217.5 78.5q118 0 191 -64.5t73 -177.5q0 -142 -76 -236t-199 -94q-126 0 -211.5 84t-85.5 207zM150 47q455 610 782 1333l139 -65q-358 -773 -803 -1368zM246 1057q0 -64 34.5 -100.5t94.5 -36.5q63 0 104 45.5t41 111.5q0 129 -123 129 q-60 0 -105.5 -45t-45.5 -104zM598 240q0 121 87 201.5t218 80.5q120 0 192 -64t72 -177q0 -146 -75.5 -238t-198.5 -92q-127 0 -211 84.5t-84 204.5zM743 229q0 -62 34.5 -99.5t94.5 -37.5q64 0 105 45.5t41 114.5q0 127 -125 127q-59 0 -104.5 -45.5t-45.5 -104.5z" />
<glyph unicode="&#x26;" horiz-adv-x="1150" d="M61 225q0 283 273 609q-82 146 -82 262q0 104 66 169.5t169 65.5q87 0 141 -50.5t54 -135.5q0 -133 -160 -322q97 -155 221 -313l40.5 81t33 65t23.5 46.5t20 42.5t14.5 34t15.5 39t15 42l146 -49q-66 -198 -201 -436q126 -155 280 -266l-116 -142q-43 35 -99 97 t-153 176q-231 -310 -455 -310q-112 0 -179 82t-67 213zM201 242q0 -75 33 -117.5t92 -42.5q161 0 336 285q-50 60 -242 333q-219 -257 -219 -458zM406 1106q0 -49 38 -135q84 106 84 164q0 43 -32 43q-90 0 -90 -72z" />
<glyph unicode="'" horiz-adv-x="296" d="M76 819q10 120 10 570h156q0 -340 -29 -584z" />
<glyph unicode="(" horiz-adv-x="634" d="M172 643q0 518 330 766l92 -123q-272 -190 -272 -629q0 -396 198 -710l-131 -82q-217 337 -217 778z" />
<glyph unicode=")" horiz-adv-x="624" d="M51 -78q129 129 201 327.5t72 397.5q0 428 -273 656l96 118q156 -120 241 -317.5t85 -450.5q0 -254 -82.5 -467.5t-232.5 -371.5z" />
<glyph unicode="*" horiz-adv-x="913" d="M86 397q93 120 160 198.5t141 147.5q-80 90 -272 213l88 129l106 -67q62 -39 101 -78v23q0 144 -13 274l152 16q20 -170 20 -286q0 -13 -1 -35t-1 -33l213 174l97 -121q-6 -4 -277 -225q54 -71 272 -313l-102 -105q-103 99 -209 230q17 -255 17 -336h-154q0 48 -18 340 q-51 -56 -197 -236z" />
<glyph unicode="+" horiz-adv-x="946" d="M102 571l13 158l309 -12q2 2 2 20v54q0 107 -16 208l153 19q19 -133 19 -240q0 -42 -2 -65h141q8 2 22 2h119v-146l-291 -2q-8 -123 -8 -288h-155q0 120 8 292q-2 2 -25 2h-24q-11 0 -50 -3t-71 -3h-68q-30 0 -76 4z" />
<glyph unicode="," horiz-adv-x="442" d="M84 98q0 70 42 120t107 50q74 0 113 -45.5t39 -120.5q0 -208 -266 -325l-29 96q80 6 133 80q-139 18 -139 145z" />
<glyph unicode="-" horiz-adv-x="579" d="M35 612v156h215q15 0 45 2t43 2h211v-139q-47 0 -256.5 -10.5t-257.5 -10.5z" />
<glyph unicode="." horiz-adv-x="456" d="M92 113q0 68 41 111.5t109 43.5q66 0 107.5 -43.5t41.5 -111.5q0 -65 -42 -114.5t-105 -49.5q-70 0 -111 44.5t-41 119.5z" />
<glyph unicode="/" horiz-adv-x="944" d="M43 18q125 129 272 396q34 62 242.5 483.5t255.5 499.5l131 -78q-62 -101 -265.5 -512.5t-234.5 -466.5q-150 -265 -301 -422z" />
<glyph unicode="0" horiz-adv-x="944" d="M70 315q0 137 50.5 249.5t144.5 179.5t214 67q171 0 281 -133.5t110 -339.5q0 -182 -107.5 -294t-283.5 -112q-173 0 -291 107.5t-118 275.5zM217 315q0 -104 65.5 -168.5t168.5 -64.5q121 0 199.5 81t78.5 204q0 116 -69.5 198t-184.5 82q-118 0 -188 -96t-70 -236z" />
<glyph unicode="1" horiz-adv-x="802" d="M49 90q148 29 215 29q64 0 88 -6q0 337 41 645q-112 -37 -272 -37v153q133 0 438 76q-55 -450 -55 -780v-74q91 -8 270 -8v-141q-38 0 -218 7t-218 7q-143 0 -260 -20z" />
<glyph unicode="2" horiz-adv-x="866" d="M70 92q78 98 146.5 185.5t100 129t35.5 46.5q183 257 183 385q0 41 -17 69q-144 -3 -235 -190l-138 71q53 97 166 176.5t211 79.5q160 0 160 -198q0 -176 -152 -387q-31 -38 -125.5 -153.5t-144.5 -178.5q230 -13 580 -57l-17 -150q-473 57 -743 57z" />
<glyph unicode="3" horiz-adv-x="686" d="M68 731v158q57 0 321.5 -21.5t323.5 -21.5q-60 -93 -172 -223l-187 -217h17q110 0 183 -90.5t73 -213.5q0 -152 -120 -277t-323 -192l-47 144q147 49 245.5 145t98.5 205q0 55 -32 90t-84 35q-71 0 -189 -33l-53 86q89 142 315 406q-226 20 -370 20z" />
<glyph unicode="4" horiz-adv-x="880" d="M43 92q368 539 418 1082l153 -15q-53 -536 -381 -1050l31 -3q5 0 16 -1t17 -1q31 0 117 5.5t137 7.5q23 410 24 487l154 -4q-1 -49 -4.5 -110.5t-12 -176t-12.5 -178.5l142 19l24 -152l-178 -25l-10 -237l-146 -6l7 231h-41q-236 0 -402 6z" />
<glyph unicode="5" horiz-adv-x="831" d="M29 -123l127 92q87 -155 243 -155q92 0 165 61t73 154q0 125 -72 192.5t-207 67.5q-108 0 -204 -41l-84 90q102 233 102 471v35h258q18 0 54.5 2t52.5 2h256v-154q-43 0 -207 7.5t-197 7.5h-57q-3 0 -19 -4q-9 -133 -57 -293q83 26 141 26q158 0 274.5 -118.5 t116.5 -272.5q0 -93 -57.5 -180.5t-146 -140t-178.5 -52.5q-195 0 -377 203z" />
<glyph unicode="6" horiz-adv-x="833" d="M53 283q0 262 125 532.5t342 487.5l111 -109q-356 -380 -426 -725q99 141 221 141q146 0 252 -107.5t106 -262.5q0 -149 -107 -262t-257 -113q-162 0 -264.5 118.5t-102.5 299.5zM199 244q0 -94 68 -165t161 -71q88 0 151.5 67t63.5 158q0 94 -64.5 163t-156.5 69 q-94 0 -158.5 -63.5t-64.5 -157.5z" />
<glyph unicode="7" horiz-adv-x="854" d="M55 662v153h199q145 0 532 -6l48 -104q-253 -299 -345 -478q-137 -265 -137 -571h-147q0 278 90 500.5t326 511.5z" />
<glyph unicode="8" horiz-adv-x="944" d="M47 233q0 148 79 266t212 160q-229 79 -229 269q0 95 59.5 176t152 125.5t193.5 44.5q145 0 235.5 -95.5t90.5 -244.5q0 -197 -195 -250q260 -88 260 -367q0 -196 -128 -316t-322 -120q-172 0 -290 96.5t-118 255.5zM207 242q0 -97 68 -154t174 -57q133 0 227 87t94 218 q0 92 -81 172t-175 80q-119 0 -213 -111t-94 -235zM250 942q0 -84 59 -134t150 -50q96 0 166.5 55t70.5 143q0 82 -49.5 129.5t-132.5 47.5q-98 0 -181 -56t-83 -135z" />
<glyph unicode="9" horiz-adv-x="829" d="M55 625q0 152 108 263t259 111q157 0 260.5 -119.5t103.5 -297.5q0 -489 -417 -899l-107 110q313 322 373 604q-94 -143 -221 -143q-148 0 -253.5 109.5t-105.5 261.5zM195 633q0 -97 64 -165.5t159 -68.5q93 0 157 65t64 159q0 92 -66.5 162.5t-160.5 70.5 q-88 0 -152.5 -67.5t-64.5 -155.5z" />
<glyph unicode=":" horiz-adv-x="462" d="M84 113q0 68 41 111.5t108 43.5t108.5 -43.5t41.5 -111.5q0 -66 -41.5 -115t-105.5 -49q-69 0 -110.5 44.5t-41.5 119.5zM84 627q0 67 41 111t108 44t108.5 -44t41.5 -111q0 -66 -41.5 -115t-105.5 -49q-68 0 -110 46.5t-42 117.5z" />
<glyph unicode=";" horiz-adv-x="473" d="M84 98q0 70 42 120t107 50q74 0 113 -45.5t39 -120.5q0 -208 -266 -325l-29 96q80 6 133 80q-139 18 -139 145zM104 627q0 67 41 111t109 44q65 0 107 -44t42 -111q0 -65 -42 -114.5t-105 -49.5q-69 0 -110.5 46t-41.5 118z" />
<glyph unicode="&#x3c;" horiz-adv-x="796" d="M68 575l616 457l86 -127q-255 -215 -491 -323q204 -106 450 -334l-92 -107z" />
<glyph unicode="=" horiz-adv-x="827" d="M98 657v154h631v-154h-631zM117 315v154h631v-154h-631z" />
<glyph unicode="&#x3e;" horiz-adv-x="776" d="M76 905l88 127l614 -457l-571 -434l-90 107q233 227 448 334q-242 114 -489 323z" />
<glyph unicode="?" horiz-adv-x="784" d="M63 1067q116 324 361 324q143 0 235.5 -67.5t92.5 -180.5q0 -119 -84.5 -222t-202.5 -133q-146 -39 -146 -182q0 -98 87 -176l-99 -96q-117 114 -117 266q0 222 232 299q77 26 127.5 85.5t50.5 133.5q0 133 -172 133q-118 0 -162 -69q-12 -20 -59 -170zM184 113 q0 68 42 111.5t110 43.5q64 0 105.5 -43.5t41.5 -111.5q0 -65 -42.5 -114.5t-102.5 -49.5q-70 0 -112 44.5t-42 119.5z" />
<glyph unicode="@" horiz-adv-x="1413" d="M41 575q0 148 59.5 293.5t157.5 256.5t234.5 180t281.5 69q170 0 306.5 -63.5t215 -180.5t78.5 -268q0 -126 -44 -251t-126 -210.5t-178 -85.5q-73 0 -129.5 54t-79.5 135q-41 -85 -111 -138t-149 -53q-115 0 -176.5 64t-61.5 180q0 101 47.5 204t126.5 170.5t162 67.5 q63 0 103 -22l18 88l150 -35q-39 -133 -39 -309q0 -258 127 -258q65 0 115 56t75 142.5t25 184.5q0 186 -123 287.5t-332 101.5q-170 0 -305 -95t-210 -262.5t-75 -377.5q0 -157 96.5 -246.5t260.5 -89.5q177 0 340 102l73 -123q-188 -133 -397 -133q-229 0 -372.5 155.5 t-143.5 409.5zM453 557q0 -102 104 -102q77 0 134 84t57 184q0 49 -26 95t-63 46q-44 0 -93.5 -54.5t-81 -127t-31.5 -125.5z" />
<glyph unicode="A" horiz-adv-x="1402" d="M37 -18l141 -2q27 0 29 2q34 113 169 450.5t199 462.5q44 101 140 276q-70 9 -330 9v151q28 0 164 -6t166 -6q111 0 157 12l197 -626q112 -374 164 -637q110 10 250 10v-148h-580v152q93 0 184 -16q-7 33 -21 103t-25.5 124t-24.5 104q-73 -20 -197 -20q-26 0 -146 3 t-143 3q-43 -91 -165 -414q170 -10 372 -10v-147q-64 0 -351 4t-349 4v162zM596 539q6 0 100 -4.5t123 -4.5q75 0 162 17q-12 52 -86 295.5t-82 292.5q-16 -78 -112.5 -321t-104.5 -275z" />
<glyph unicode="B" horiz-adv-x="1189" d="M55 1348q199 24 377 24q518 0 518 -201q0 -96 -82.5 -185.5t-201.5 -139.5q30 12 90 12q158 0 260 -114t102 -287t-96.5 -306t-261 -203.5t-369.5 -70.5q-106 0 -233 19l22 143l103 -14q6 396 6 575q0 282 -15 623l-200 -29zM428 594q0 -107 10 -576q228 10 382.5 116.5 t154.5 248.5q0 173 -76 269t-211 96q-118 0 -260 -80v-74zM428 1243q2 -23 2 -74v-342q140 72 239 163.5t99 158.5q0 98 -227 98q-31 0 -113 -4z" />
<glyph unicode="C" horiz-adv-x="1245" d="M68 584q0 121 29 239.5t83.5 219t126.5 178t163.5 121.5t188.5 44q122 0 244 -67l-2 111h156q-2 -2 -2 -35v-43q0 -4 -2 -17t-2 -30v-66q0 -55 8 -141l-137 -21q-9 76 -64.5 116t-148.5 40q-110 0 -204.5 -50.5t-157.5 -135t-98.5 -193t-35.5 -225.5q0 -167 66.5 -303.5 t185 -214.5t264.5 -78q221 0 412 176l104 -113q-233 -217 -428 -217q-344 0 -546.5 187.5t-202.5 517.5z" />
<glyph unicode="D" horiz-adv-x="1280" d="M66 -59l38 147l144 -41q33 199 33 490q0 78 -8.5 380t-8.5 353l-133 -6v153q34 0 204.5 8.5t215.5 8.5q327 0 495 -165t168 -493q0 -184 -62.5 -348t-171 -282.5t-262 -187.5t-327.5 -69q-154 0 -325 52zM395 23q117 5 240 65t219 151.5t157.5 212t61.5 238.5 q0 176 -28.5 290t-96.5 185.5t-172.5 101t-265.5 29.5h-68q-22 0 -24 -2v-16q0 -76 7 -364.5t7 -348.5q0 -331 -37 -542z" />
<glyph unicode="E" horiz-adv-x="1077" d="M51 96q95 15 219 19v51q0 107 9.5 519.5t9.5 522.5v47l-139 -12l-11 154q205 18 402 18q260 0 491 -26q-20 -117 -20 -281h-144l-2 90q0 8 6 68q-117 6 -233 6q-61 0 -197 -4v-437q157 7 203 7q0 58 10 190l154 -16q-8 -164 -8 -295q0 -109 6 -197l-154 -6q-6 74 -6 174 l-205 -8l-16 -272q-12 -138 -12 -269v-26l186 -11q169 -9 184 -8q37 0 107 4q-21 175 -21 230h144q0 -36 11 -187t11 -182h-65q-53 0 -255 3t-235 3q-249 0 -413 -22z" />
<glyph unicode="F" horiz-adv-x="1155" d="M49 1415q237 27 584 27h201q35 0 95.5 -2t84.5 -2q75 0 104 2v-107q0 -152 21 -262l-162 -24v106q0 79 -5 108t-24 29h-205q-76 0 -180.5 3t-136.5 3l4 -448h248v209h153v-576h-153v217h-238v-551h19q31 0 149.5 -4t139.5 -4v-147q-384 0 -623 -23l-14 154l174 16 q0 73 8 350t8 334q0 241 -33 467l-192 -26z" />
<glyph unicode="G" horiz-adv-x="1429" d="M68 659q0 147 40 288.5t107.5 249t163 173.5t199.5 66q154 0 321 -138l23 166l151 -24q-9 -64 -18.5 -131.5t-12.5 -88.5t-6 -52t-3.5 -50.5t-0.5 -56.5h-139q-3 94 -85.5 152.5t-195.5 58.5q-180 0 -286.5 -139.5t-106.5 -358.5q0 -176 62.5 -336.5t172.5 -260 t236 -99.5q230 0 363 328l4 -3l-2 230q-154 -21 -312 -21v156q238 0 660 78l27 -141l-222 -43q0 -47 -9 -271t-9 -270q0 -45 4 -123h135v-154l-285 4q3 246 23 363q-50 -119 -152.5 -190.5t-216.5 -71.5q-291 0 -460.5 193.5t-169.5 516.5z" />
<glyph unicode="H" horiz-adv-x="1388" d="M76 41q6 0 34 1t93 3.5t135 5.5q-8 230 -8 340q0 367 45 828q-2 -2 -17 -2h-43q-104 0 -233 24l31 152q156 -33 411 -33q-8 -80 -45 -569q144 3 514 28q22 228 25 541q110 0 313 18l10 -139l-184 -14v-47q0 -151 -17.5 -430t-35.5 -482l-17 -203q153 17 242 17v-148 q-107 0 -389 -30q0 310 43 780q-24 -10 -56.5 -15.5t-55.5 -7t-71 -3.5t-71 -3l-252 -14v-125q0 -8 -2 -26t-2 -25v-125q0 -236 31 -434l-66 2q-42 1 -192.5 -5t-169.5 -5v145z" />
<glyph unicode="I" horiz-adv-x="667" d="M59 57l64 2q12 0 46 -3.5t56 -2.5h15q23 377 47 1217q-119 -21 -217 -21v158h553v-137q-102 0 -181 8q-4 -121 -25 -630t-24 -611q2 -2 29 -2h151v-154q-238 7 -256 8l-258 15v153z" />
<glyph unicode="J" horiz-adv-x="964" d="M33 211q0 180 71 338l138 -57q-66 -157 -66 -285q0 -178 162 -178q307 0 307 688q0 40 -8 238t-8 239v63q0 19 2 21l-211 20l22 152q178 -29 531 -29v-141h-189q-4 -74 -4 -125q0 -41 4 -223.5t4 -222.5q0 -440 -108.5 -633t-341.5 -193q-305 0 -305 328z" />
<glyph unicode="K" horiz-adv-x="1386" d="M53 -59v153h195q0 6 -1 16t-1 13v94q0 66 10 349t10 345q0 213 -22 359l-181 4v156q32 0 200.5 -6.5t207.5 -6.5q60 0 150 4l14 -151q-58 -4 -80 -4q-81 0 -154 12q17 -99 17 -234q0 -128 -19 -327l619 567q-29 -6 -121 -13t-137 -7v153h88q0 -3 487 -12 q-90 -93 -633 -608q106 -12 168 -203l103 -354q71 -185 205 -185q57 0 57 99q0 6 -1 17t-1 17h149q0 -132 -51.5 -211t-142.5 -79q-175 0 -279 200q-55 139 -139 373q-73 199 -176 199q-21 0 -23 -2l-188 -183q-2 -2 -2 -22v-62q0 -101 12 -307q41 -12 105 -12h106l-14 -143 q-76 8 -187 8q-35 0 -179 -3t-171 -3z" />
<glyph unicode="L" horiz-adv-x="1116" d="M55 113q28 -7 66 -7q3 0 59 3.5t82 3.5h19v47q0 141 -15.5 578t-15.5 513h-33q-90 0 -141 4l8 154q78 -4 123 -4q38 0 211.5 6t214.5 6v-153q-86 0 -230 -9q0 -165 6.5 -596t12.5 -546q439 31 504 34q-23 112 -23 252h144q0 -195 43 -401q-89 6 -185 6 q-64 0 -377.5 -20.5t-400.5 -20.5h-59z" />
<glyph unicode="M" horiz-adv-x="1648" d="M59 -55v143l258 25q-20 600 -20 710q0 249 20 428q-36 -8 -96 -8q-10 0 -42 3t-62 3h-49v156h407q194 -560 334 -997q5 20 184 514q140 390 140 469l454 -43l-18 -154q-11 2 -51.5 7.5t-106.5 15t-139 22.5l2 -1145q105 17 295 17h45l35 -150q-35 -11 -249 -22.5 t-272 -26.5l5 1032q-45 -95 -119.5 -311t-138 -413.5t-72.5 -219.5h-70q-9 60 -27 140.5t-35.5 147.5t-50 179.5t-49.5 170t-57.5 188.5t-52.5 171v-116q0 -166 -4 -514t-4 -398q-37 0 -199 -12t-195 -12z" />
<glyph unicode="N" horiz-adv-x="1525" d="M29 66q74 8 106 8q71 0 158 -17q0 110 12 523t12 495v176q-129 6 -204 6v140q10 0 30 -1t29 -1q53 0 158.5 5.5t128.5 6.5q253 -516 364 -712.5t273 -430.5q8 156 8 342q0 450 -49 797q12 -1 123.5 -11.5t207.5 -18t140 -7.5v-152q-120 0 -301 31v-1286h-138 q-108 218 -317 559q-264 424 -328 547q-20 -184 -20 -424v-346q2 -31 2 -86v-297q-20 0 -138.5 9t-146.5 9q-51 0 -90 -8z" />
<glyph unicode="O" horiz-adv-x="1427" d="M55 684q0 149 51.5 282.5t140 229.5t213.5 152.5t267 56.5q192 0 340.5 -104t228.5 -284.5t80 -406.5q0 -296 -173.5 -481.5t-450.5 -185.5q-198 0 -357.5 96t-249.5 265.5t-90 379.5zM201 705q0 -167 69 -305.5t194 -220t279 -81.5q220 0 352 151t132 386 q0 273 -144 446.5t-370 173.5q-107 0 -201.5 -40.5t-163 -112.5t-108 -175t-39.5 -222z" />
<glyph unicode="P" horiz-adv-x="1058" d="M61 -70v154h181v149q0 601 -21 1006h-149v152q26 0 182.5 7t196.5 7q260 0 416.5 -111t156.5 -295q0 -126 -72.5 -232t-190 -165t-249.5 -59q-82 0 -135 12q9 -151 18 -465l254 4v-153q-52 0 -296 -5.5t-292 -5.5zM358 1059q0 -167 9 -346q66 -15 125 -15q173 0 282 78 t109 207q0 266 -402 266h-96q-27 0 -27 -190z" />
<glyph unicode="Q" horiz-adv-x="1419" d="M49 684q0 202 84.5 368t230 259.5t320.5 93.5q190 0 346.5 -106t244 -283.5t87.5 -384.5q0 -345 -213 -549q37 -305 135 -305q56 0 102.5 105t57.5 243l151 -14q-12 -134 -57.5 -246.5t-115.5 -180t-150 -67.5q-101 0 -171.5 100.5t-92.5 266.5q-172 -82 -330 -82 q-182 0 -327 107.5t-223.5 285.5t-78.5 389zM201 674q0 -164 63 -305.5t177 -227.5t253 -86q149 0 291 95q-13 113 -54 186.5t-85 73.5q-66 0 -119 -158l-145 57q89 238 266 238q92 0 165.5 -76.5t100.5 -191.5q96 148 96 360q0 121 -35.5 225.5t-93 176.5t-130.5 123.5 t-149 75.5t-149 24q-130 0 -234 -78t-161 -212.5t-57 -299.5z" />
<glyph unicode="R" horiz-adv-x="1288" d="M53 -23v154h41q56 0 139 -6q19 156 19 496v143q0 284 22 510q-147 -29 -184 -35l-22 154q178 26 374 26q343 0 549.5 -106.5t206.5 -284.5q0 -100 -69.5 -188.5t-182.5 -146t-248 -79.5q66 -15 119 -151l82 -240q22 -65 42.5 -93t55.5 -28q121 0 121 242q0 17 -1 59 t-1 48h148v-74q0 -225 -61 -324.5t-206 -99.5q-149 0 -221 170l-98 311q-72 170 -225 170h-23q-16 0 -18 -2q0 -264 -25 -491q167 -20 211 -27l-25 -137q-105 21 -260 24zM401 1032q0 -34 5.5 -141t5.5 -117q88 -16 161 -16q196 0 330.5 80t134.5 196q0 112 -137 180 t-348 68q-59 0 -123 -6q-29 -82 -29 -244z" />
<glyph unicode="S" horiz-adv-x="1089" d="M59 410l134 59q38 -180 141 -279.5t250 -99.5q126 0 220.5 76t94.5 186q0 137 -186 238l-344 176q-189 124 -189 311q0 134 103.5 225t259.5 91q145 0 239 -82l-16 166h154q0 -30 5 -204t5 -214h-154q0 90 -63 146.5t-164 56.5q-94 0 -157.5 -52t-63.5 -133 q0 -38 15.5 -73t49.5 -67.5t68 -58.5t91 -57t97 -51t108 -52t103 -50q189 -127 189 -316q0 -114 -64 -208.5t-172 -147.5t-235 -53q-200 0 -342 127.5t-177 339.5z" />
<glyph unicode="T" horiz-adv-x="1243" d="M51 913q19 117 19 449q17 2 500.5 23t637.5 47v-547h-145v309q0 47 -2 76q-178 -4 -402 -19v-24q0 -517 43 -1125q121 11 216 11v-142q-34 0 -200 -4t-206 -4q-124 0 -203 8l35 150q16 -3 100.5 -7t112.5 -8q-51 868 -51 1149l-297 -16q8 -73 8 -156q0 -109 -14 -192z " />
<glyph unicode="U" horiz-adv-x="1306" d="M45 1286v154q38 0 236 9t235 9v-139l-147 -4q-31 -465 -31 -565q0 -670 360 -670q316 0 316 694q0 41 -9.5 260t-9.5 271l-207 6v153q52 0 261.5 -14.5t234.5 -15.5v-138h-139v-65q0 -61 9 -268t9 -248q0 -399 -112.5 -594t-352.5 -195q-260 0 -381.5 204t-121.5 642 q0 107 8 260l12 260z" />
<glyph unicode="V" horiz-adv-x="1333" d="M31 1264v153q18 0 131 3t145 3q185 0 295 -39l-41 -133q-72 29 -143 29h-23q-20 0 -22 -2q177 -653 221 -1184q151 783 344 1227l-213 4l4 154q331 -15 592 -21l-4 -143l-207 4q-112 -193 -178 -426q-1 -5 -33 -131.5t-65 -255.5t-76.5 -279t-73.5 -227h-184 q-51 261 -129 637q-79 370 -154 631z" />
<glyph unicode="W" horiz-adv-x="1689" d="M16 1286v154h119q215 0 334 35l35 -138l-172 -39q138 -558 194 -1093q57 519 293 1167h68q9 -288 53 -647q2 -18 13.5 -93.5t34 -228t46.5 -321.5q0 -10 50 217.5t103.5 527.5t59.5 461l-198 -2v154q51 0 313.5 6t312.5 6v-154l-284 -4q-22 -328 -101 -694 q-55 -233 -178 -680h-141q-65 180 -113 516q-5 35 -12 100.5t-19.5 193t-23.5 231.5l-98 -500q-60 -284 -136 -492h-116q-46 150 -152 701.5t-123 617.5z" />
<glyph unicode="X" horiz-adv-x="1343" d="M37 -8l4 153l149 -6q131 166 410 703q-182 361 -324 456l-170 -20l-14 156q231 24 561 24v-139q-94 0 -176 -4q19 -24 40 -55.5t45 -75t39 -71.5t43.5 -83.5t37.5 -73.5q22 27 115 175t118 178q-64 3 -141 12l21 154q143 -17 241 -17q176 0 279 23l28 -138 q-119 -23 -217 -28q-241 -227 -387 -469q264 -546 346 -744h246v-147h-207q-202 0 -432 16l17 154l206 -16q-23 62 -56.5 143t-97.5 231t-99 234q-4 -9 -45 -95.5t-82 -171t-89.5 -180.5t-76.5 -143l123 -4l-5 -146q-147 3 -450 15z" />
<glyph unicode="Y" horiz-adv-x="1404" d="M25 1239v152q381 0 542 34l27 -145q-125 -23 -191 -29q34 -41 161 -234t163 -235q113 191 272 514q-68 4 -208 31l28 152q155 -35 266 -35q93 0 283 45l37 -143q-82 -26 -236 -54q-20 -40 -186 -323q-119 -180 -161 -321.5t-42 -334.5q0 -103 8 -207q0 3 25 3h25 q50 0 188 -23l-27 -141q-68 14 -137 14q-42 0 -212 -14.5t-206 -14.5v152q124 0 191 6q-12 172 -12 238q0 164 26 327q-242 396 -440 594z" />
<glyph unicode="Z" horiz-adv-x="1130" d="M41 1350q91 0 513 14t513 14l23 -137q-431 -467 -816 -1077q84 8 201 8q211 0 428 -25q-6 60 -41 263l148 34q1 -2 19.5 -98t45 -216.5t45.5 -180.5q-287 67 -581 67q-244 0 -433 -49l-24 125q380 692 807 1131q-88 -15 -287 -15q-20 0 -70 1t-79 1l-220 -2q5 -34 5 -75 q0 -43 -19 -213l-137 10q10 65 10 119q0 173 -51 301z" />
<glyph unicode="[" horiz-adv-x="696" d="M139 1374h160q194 0 279 23l34 -150q-115 -22 -331 -30q0 -3 7.5 -91.5t17.5 -224.5t20.5 -289t18 -312.5t7.5 -266.5q122 -4 180 -4q62 0 164 4v-176q-252 24 -495 24q0 131 -31 745t-31 748z" />
<glyph unicode="\" horiz-adv-x="819" d="M16 1315l129 80q326 -494 674 -1422l-143 -55q-322 868 -660 1397z" />
<glyph unicode="]" horiz-adv-x="684" d="M33 1262l20 151l553 -53q-102 -184 -102 -844q0 -435 41 -655q-46 0 -255 -13.5t-255 -13.5v148q62 0 342 20q-31 245 -31 506q0 338 51 731q-130 3 -364 23z" />
<glyph unicode="^" horiz-adv-x="935" d="M43 674q277 161 489 571q50 -149 173 -371t231 -354l-125 -61q-217 270 -293 545q-154 -319 -397 -463z" />
<glyph unicode="_" horiz-adv-x="1314" d="M-8 -195q112 0 660 7.5t663 7.5v-158q-114 0 -657.5 -5t-665.5 -5v153z" />
<glyph unicode="`" horiz-adv-x="524" d="M59 1405l134 104q79 -132 138.5 -216t135.5 -160l-88 -82q-97 86 -168.5 164.5t-151.5 189.5z" />
<glyph unicode="a" d="M37 236q0 148 141 223l262 100q142 53 142 146q0 63 -38 100t-100 37q-79 0 -133.5 -53t-54.5 -130v-18q0 -12 2 -14l-156 -13v31q0 84 54 160t137.5 120t169.5 44q270 0 270 -400q0 -27 -5 -143.5t-5 -140.5q0 -54 24 -141t58 -87q37 0 49 142h123q0 -107 -48.5 -190 t-129.5 -83q-60 0 -108 48t-60 128q-65 -170 -236 -170q-87 0 -170 41t-135.5 112.5t-52.5 150.5zM188 229q0 -60 63.5 -103.5t149.5 -43.5q90 0 135.5 59.5t55.5 202.5l4 186q-11 -41 -123 -92q-173 -81 -186 -90q-99 -58 -99 -119z" />
<glyph unicode="b" horiz-adv-x="1036" d="M23 -63v149q15 0 92 -9t94 -9l14 2v116q0 677 86 1024q-2 -2 -18 -2h-21q-45 0 -161 29l32 149q102 -30 232 -30q37 0 119 4q-28 -148 -97 -651q127 157 269 157q97 0 178.5 -75t126.5 -194.5t45 -252.5q0 -123 -50 -226.5t-140 -165t-199 -61.5q-99 0 -168 52.5 t-88 144.5v-164h-17q-36 0 -169.5 6.5t-159.5 6.5zM379 422q0 -385 194 -385q146 0 223.5 93t77.5 267q0 135 -70 228.5t-181 93.5q-135 0 -189.5 -67t-54.5 -230z" />
<glyph unicode="c" horiz-adv-x="909" d="M37 432q0 241 128 394t337 153q153 0 250.5 -68t97.5 -172q0 -70 -42 -114.5t-110 -44.5q-64 0 -106.5 47t-42.5 114q0 70 51 99q-49 8 -100 8q-144 0 -231 -103.5t-87 -261.5q0 -96 39.5 -188.5t109.5 -152.5t150 -60q74 0 145.5 42t100.5 105l156 -49 q-52 -96 -163.5 -167.5t-227.5 -71.5q-93 0 -178 40.5t-145.5 107.5t-96 157t-35.5 186z" />
<glyph unicode="d" horiz-adv-x="1069" d="M37 383q0 124 48.5 236.5t136.5 183.5t192 71q90 0 164 -61t104 -156q18 185 18 525v26q-134 3 -217 21l25 151q88 -16 311 -16h66q-105 -592 -105 -1065q0 -211 78 -211q66 0 96 100l123 -65q-11 -70 -67.5 -123t-124.5 -53q-120 0 -189 166q-19 -50 -117.5 -108 t-168.5 -58q-167 0 -270 122t-103 314zM193 399q0 -134 75.5 -217.5t190.5 -83.5q61 0 121.5 60t68.5 121q15 128 15 159q0 104 -81 199.5t-180 95.5q-55 0 -104.5 -50t-77.5 -127t-28 -157z" />
<glyph unicode="e" horiz-adv-x="913" d="M70 492q0 125 58 236t161.5 179t226.5 68q147 0 250 -105.5t125 -275.5l-649 -223q25 -102 108.5 -177t181.5 -75q125 0 205 129l127 -47q-119 -224 -329 -224q-120 0 -228 73t-172.5 192.5t-64.5 249.5zM213 473l258 94q84 30 260 78q-6 82 -71 136.5t-154 54.5 q-119 0 -196 -94.5t-97 -268.5z" />
<glyph unicode="f" horiz-adv-x="722" d="M61 94l187 17l-17 600h-133v153l129 -2q-8 55 -8 113q0 446 373 446q190 0 190 -164q0 -66 -40.5 -109.5t-104.5 -43.5q-61 0 -104.5 39.5t-43.5 95.5q0 38 15 59q-69 -10 -107.5 -97.5t-38.5 -209.5q0 -77 13 -131q132 -6 192 -6q13 0 28 1t17 1v-139h-168q-39 0 -59 -4 l33 -602h178v-142q-352 -11 -516 -28z" />
<glyph unicode="g" horiz-adv-x="862" d="M45 506q0 149 97 253.5t245 104.5q91 0 186 -30q62 53 166 210l111 -104q-112 -78 -160 -186q98 -91 98 -224q0 -249 -229 -313q89 -18 141 -77t52 -150q0 -76 -35 -144t-92 -114.5t-129 -73.5t-146 -27q-107 0 -187.5 56t-80.5 137t74.5 127.5t201.5 46.5v-119 q-11 8 -49 8q-34 0 -60 -18t-26 -39q0 -68 144 -68q100 0 178 68t78 160q0 125 -156 194q-40 -4 -59 -4q-153 0 -258 93t-105 233zM174 508q0 -85 79 -142t177 -57q100 0 161.5 57.5t61.5 153.5q0 90 -71.5 145.5t-180.5 55.5q-100 0 -163.5 -58t-63.5 -155z" />
<glyph unicode="h" horiz-adv-x="1136" d="M41 98q108 18 235 21q0 60 12.5 374.5t12.5 383.5q0 223 -25 374h-217v138h357q18 -173 18 -383q0 -121 -2 -191q57 95 148 158t163 63q110 0 175 -102.5t65 -280.5q0 -74 -39 -542q35 -2 66.5 -4t52 -3.5t35.5 -2.5t22 -2l8 -1l-24 -135q-82 4 -121 4q-97 0 -195 -8 q54 335 54 694q0 236 -133 236q-65 0 -152.5 -77t-130.5 -169q-10 -215 -10 -356q0 -13 1 -38t1 -38l2 -90h203v-137h-125q-254 0 -441 -21z" />
<glyph unicode="i" horiz-adv-x="655" d="M45 788v136h361q0 -257 12 -785q12 0 35 1t36 1q54 0 152 -4l12 -131q-89 -3 -278.5 -17.5t-286.5 -17.5v138q139 4 193 12q-3 143 -8.5 365t-6.5 302h-221zM104 1227q0 67 42 111t108 44t109 -44.5t43 -110.5t-43.5 -115t-106.5 -49q-69 0 -110.5 44.5t-41.5 119.5z" />
<glyph unicode="j" horiz-adv-x="614" d="M-94 -225l112 80q21 -51 62.5 -84t87.5 -33q98 0 154.5 130.5t56.5 348.5q0 81 -17 266l-26 265q-92 -5 -123 -5l-154 2v138h76q4 0 17 -2t28 -2h64q158 0 237 26q0 -50 16.5 -314t16.5 -325q0 -667 -356 -667q-135 0 -252 176zM160 1227q0 66 41.5 110.5t105.5 44.5 q68 0 110 -44t42 -111q0 -70 -42 -114t-110 -44q-64 0 -105.5 44.5t-41.5 113.5z" />
<glyph unicode="k" horiz-adv-x="1105" d="M55 1208v138q29 0 175 7t173 7v-692l275 241q-49 6 -146 6v136h140q10 0 30 1t29 1q126 0 244 -23q-13 -9 -245 -225t-322 -281q346 -132 698 -487l-96 -94q-247 241 -609 444q-18 -70 -18 -184v-99q0 -34 3 -76.5t3 -52.5q-188 52 -291 52v139h33q63 0 121 -10 q14 304 14 798v265q-132 -11 -211 -11z" />
<glyph unicode="l" horiz-adv-x="667" d="M49 98q109 17 236 21q0 56 10 375.5t10 398.5q0 201 -20 358h-217v138h356q18 -175 18 -392q0 -85 -11 -441t-11 -435h211v-137q-381 0 -565 -21z" />
<glyph unicode="m" horiz-adv-x="1683" d="M37 799l16 135q183 -25 346 -25q-18 -89 -18 -227q45 103 148 180.5t214 77.5q91 0 141 -67t50 -183q61 115 149.5 179.5t190.5 64.5q246 0 246 -332q0 -129 -31 -278l-57 -271q158 0 206 10q4 -10 4 -51q0 -47 -6 -82q-33 0 -188 -8t-186 -8l77 336q43 215 43 336 q0 190 -143 190q-89 0 -176.5 -67.5t-108.5 -145.5q-11 -41 -35.5 -234.5t-37.5 -236.5q79 0 225 -55l-47 -129q-127 47 -232 47q-60 0 -84 -12q82 332 82 569q0 301 -135 301q-65 0 -138.5 -59.5t-121 -140t-47.5 -140.5v-31q0 -79 8 -180l10 -174h183l14 -145h-504 l-10 147l180 -8q-16 480 -16 692q-71 3 -211 25z" />
<glyph unicode="n" horiz-adv-x="1132" d="M55 844v139l101 -2q71 -1 153 9.5t97 10.5q0 -13 5 -79t5 -91v-30q46 99 145.5 167t188.5 68q108 0 172.5 -103t64.5 -280q0 -21 -37 -542l183 -13l-25 -135q-82 4 -123 4q-88 0 -194 -8q55 323 55 694q0 236 -133 236q-62 0 -135 -54t-122.5 -131t-49.5 -139 q0 -49 10 -235.5t10 -216.5q14 -2 168 -35l-33 -135q-104 28 -459 28v138l185 2q0 11 -2 113t-4 263t-2 316q0 35 2 53q-193 -12 -226 -12z" />
<glyph unicode="o" horiz-adv-x="989" d="M66 428q0 219 131.5 360.5t349.5 141.5q180 0 281.5 -133.5t101.5 -358.5q0 -221 -114.5 -350t-309.5 -129q-202 0 -321 129t-119 340zM201 422q0 -138 81 -232t212 -94q151 0 231 94.5t80 260.5q0 156 -78 246.5t-209 90.5q-140 0 -228.5 -104t-88.5 -262z" />
<glyph unicode="p" horiz-adv-x="944" d="M27 758v135q25 0 142 13.5t140 13.5v-142q80 183 238 183q159 0 258.5 -125.5t99.5 -307.5q0 -242 -107 -386t-286 -144q-136 0 -203 129v-471h-272v137h135v979q-59 -14 -145 -14zM309 254q77 -123 195 -123q116 0 190 106t74 257q0 148 -64 233.5t-178 85.5 q-91 0 -151.5 -69t-65.5 -169v-321z" />
<glyph unicode="q" horiz-adv-x="966" d="M53 532q0 98 33 181t85.5 136t116 82.5t126.5 29.5q154 0 237 -183v142q23 0 139 -13.5t144 -13.5v-135q-89 0 -146 14q-4 -78 -4 -129q0 -30 2 -102.5t2 -112.5v-231q0 -28 -4 -162.5t-4 -165.5q0 -137 62 -137q32 0 47 75l10 105l156 -25q-28 -162 -72 -228.5 t-127 -66.5q-223 0 -223 265q0 24 18 270q-67 -129 -202 -129q-183 0 -289.5 145t-106.5 389zM193 494q0 -155 73.5 -259t190.5 -104q115 0 194 123v276q0 137 -59 210t-160 73q-113 0 -176 -85.5t-63 -233.5z" />
<glyph unicode="r" horiz-adv-x="784" d="M35 803l18 135q146 -20 269 -20l4 -121q22 61 98 103t162 42q190 0 190 -197q0 -77 -37.5 -122t-107.5 -45q-63 0 -113.5 41.5t-50.5 99.5q0 42 37 94q-69 -4 -118.5 -72t-49.5 -147q0 -130 29 -498q58 0 184 -6l-17 -151q-34 3 -118 6t-127 6l-244 12l8 135l168 -14 q0 60 -11 346t-11 352z" />
<glyph unicode="s" horiz-adv-x="811" d="M33 244l135 28q10 -103 77.5 -163t170.5 -60q95 0 159 51t64 136q0 84 -139 114q-246 50 -260 56q-142 59 -142 217q0 122 85 211.5t200 89.5q95 0 170 -78l-12 223h135q0 -24 -4 -126.5t-4 -123.5q0 -121 18 -180l-92 -31q0 79 -51 126.5t-131 47.5q-77 0 -125.5 -35 t-48.5 -108q0 -42 35.5 -72t103.5 -45q244 -59 260 -65q139 -65 139 -236q0 -128 -114 -215.5t-261 -87.5q-152 0 -249 86t-119 240z" />
<glyph unicode="t" horiz-adv-x="745" d="M23 836v153q16 0 38 1t31 1q10 0 28 -1t25 -1q9 231 9 422h153q0 -208 -14 -432q126 -14 272 -14v-142q-144 0 -280 11q-3 -83 -7.5 -163.5t-7 -122.5t-2.5 -54q0 -449 174 -449q59 0 97.5 46.5t38.5 109.5q0 75 -56 190l144 35q49 -134 49 -227q0 -125 -81 -218.5 t-202 -93.5q-303 0 -303 627q4 107 14 332q-9 0 -48.5 -5t-55.5 -5h-16z" />
<glyph unicode="u" horiz-adv-x="1091" d="M25 936q8 2 18 2h63q29 0 167 -4t169 -4v-154h-118q0 -10 -3.5 -97t-3.5 -167v-193q0 -92 60 -149t153 -57q185 0 185 399q0 24 -5 134t-5 134l-119 8l10 156q208 -26 424 -26v-152h-135q-23 0 -25 2q-2 -4 -2 -41v-276q0 -11 -4 -53.5t-4 -78.5v-92q0 -54 25 -97.5 t53 -43.5q41 0 71 80l119 -25q-22 -99 -74 -154t-122 -55q-74 0 -119 61t-45 150q-18 -88 -86.5 -136t-167.5 -48q-148 0 -242 92t-92 234l2 501l-16 2q-24 0 -123 -6z" />
<glyph unicode="v" horiz-adv-x="1130" d="M2 893q248 16 547 16v-153q-33 -2 -66 -2q-43 0 -86 6q3 -11 112 -288.5t126 -375.5q5 78 49 257t87 332t44 163q-82 0 -192 -8v153q63 6 217 6q167 0 282 -6v-153q-7 0 -22 -1t-23 -1q-32 0 -106 4q-86 -275 -264 -877l-140 -20q-150 475 -334 817q-17 -1 -91 -9.5 t-128 -13.5z" />
<glyph unicode="w" horiz-adv-x="1419" d="M2 885l553 47l10 -154l-207 -20q69 -144 111 -320q31 -141 66 -332q61 415 176 787l110 -14q152 -357 207 -746l41 346q25 218 64 340h-172v156q40 0 229.5 -10.5t226.5 -10.5v-137h-133q-44 -138 -92 -438q-19 -118 -36.5 -219t-28 -158t-11.5 -65l-145 12 q-46 169 -90.5 324t-57.5 201.5t-25.5 108t-25.5 154.5q-28 -192 -74 -393l-92 -389l-123 8q-122 448 -290 782l-179 -16z" />
<glyph unicode="x" horiz-adv-x="1103" d="M10 49l133 19q55 77 109.5 143.5t115 134t78.5 88.5q-120 145 -292 266l-93 -16l-24 154l469 43l8 -140l-158 -22q32 -32 61.5 -64t68 -75t51.5 -58q43 41 137 120t127 108l-127 -9l8 144h412l-4 -144l-109 4q-208 -171 -367 -321q30 -37 65 -86.5t84.5 -122t82.5 -119.5 l153 2l27 -137l-469 -20v153l115 -2q-87 153 -154 238q-21 -27 -87 -107.5t-107 -132.5l118 8l17 -147l-420 -55z" />
<glyph unicode="y" horiz-adv-x="1089" d="M2 965q125 15 510 26l6 -155q-13 0 -37 1t-35 1q-36 0 -102 -4q34 -95 135.5 -313t155.5 -316q143 280 203 538l-146 7v153q44 0 258.5 -5t263.5 -5v-154l-213 2q-195 -491 -290 -657q-127 -224 -244.5 -333t-235.5 -109q-65 0 -107 45t-42 110q0 69 42.5 113.5 t108.5 44.5q56 0 91.5 -30.5t35.5 -80.5q0 -16 -2 -22q146 99 203 254q-180 318 -383 751q-19 -1 -74.5 -6.5t-85.5 -7.5z" />
<glyph unicode="z" horiz-adv-x="911" d="M43 96l635 654l-438 -11v-239h-140l-30 364h802l-22 -139l-588 -598h438v156l136 26l26 -332h-811z" />
<glyph unicode="{" horiz-adv-x="712" d="M59 694v146q178 0 220 145l47 281q53 149 256 149q47 0 129 -10l-23 -154q-43 9 -80 9q-121 0 -159 -95q-11 -21 -39 -204q-24 -139 -99 -205q148 -98 148 -230q0 -29 -34 -144t-34 -142q0 -123 322 -138l-11 -155q-462 24 -462 268q0 31 28.5 162t28.5 166 q0 148 -238 151z" />
<glyph unicode="|" horiz-adv-x="419" d="M133 1354h154q0 -124 13 -737t13 -738h-143q0 123 -18.5 733t-18.5 742z" />
<glyph unicode="}" horiz-adv-x="587" d="M59 1329q146 88 242 88q141 0 141 -274q0 -15 -2 -56.5t-2 -72.5v-49q0 -189 80 -189q3 0 31 4l39 -141q-164 -43 -164 -170q0 -42 31.5 -174.5t31.5 -149.5q0 -88 -62 -159.5t-151 -71.5q-41 0 -186 20v152q16 0 92 -10t94 -10q25 0 42.5 25t17.5 54q0 41 -34 173.5 t-34 144.5q0 94 117 205q-88 79 -88 272q0 23 5 121t5 119q0 33 -4 73q4 0 4 7q0 10 -35 10q-12 0 -133 -76z" />
<glyph unicode="~" horiz-adv-x="1095" d="M45 526q27 111 114.5 188t178.5 77q50 0 104.5 -27t96.5 -59.5t101.5 -59.5t117.5 -27q61 0 182 111l119 -96q-56 -65 -139.5 -110.5t-155.5 -45.5q-45 0 -91 19.5t-85 46.5t-76.5 54.5t-78.5 47t-77 19.5q-66 0 -117 -55.5t-67 -131.5z" />
<glyph unicode="&#xa1;" horiz-adv-x="425" d="M72 985q0 76 41 120t110 44q63 0 105.5 -49t42.5 -115t-42 -110t-108 -44q-65 0 -107 43.5t-42 110.5zM158 729h139q0 -525 55 -1026l-135 -18q-59 480 -59 1044z" />
<glyph unicode="&#xa2;" horiz-adv-x="903" d="M31 647q0 218 106 365t285 176q-2 106 -2 250h86q0 -140 2 -244q149 -4 243.5 -72t94.5 -168q0 -70 -42 -114.5t-110 -44.5q-64 0 -106.5 46t-42.5 113t49 101q-18 2 -50.5 4t-35.5 2q10 -600 10 -762q66 11 122.5 50t80.5 93l158 -47q-49 -89 -150 -158t-209 -79 q2 -80 2 -187h-82q0 109 -2 187q-172 20 -289.5 162.5t-117.5 326.5zM176 698q0 -138 76 -257t184 -142l-12 756q-115 -26 -181.5 -123.5t-66.5 -233.5z" />
<glyph unicode="&#xa3;" horiz-adv-x="1005" d="M33 113q28 -7 61 -7q2 0 50 3.5t73 3.5h19v98q0 51 -5 301q-2 -2 -16 -2h-92v154h110q14 374 110 551.5t298 177.5q274 0 274 -336q0 -148 -67 -328l-121 55q61 158 61 277q0 186 -147 186q-132 0 -202.5 -151t-76.5 -430q14 2 41 2h183v-140q-58 0 -228 -10v-51 q0 -14 2 -16l-2 -293q0 -31 2 -45q364 29 457 34q-18 87 -18 222v30h129q0 -104 12 -198l25 -203q-83 6 -166 6q-61 0 -342 -20.5t-359 -20.5h-55z" />
<glyph unicode="&#xa4;" horiz-adv-x="1159" d="M27 209l168 164q-58 113 -58 254q0 152 66 272l-142 150l119 100l123 -127q127 108 315 108q157 0 254 -102q71 75 127 152l123 -95q-38 -51 -168 -188q47 -109 47 -258q0 -158 -59 -270l119 -117l-103 -102l-106 102q-108 -94 -274 -94q-170 0 -285 94l-156 -154z M272 623q0 -138 81 -233t212 -95q152 0 233 94.5t81 261.5q0 155 -78.5 245.5t-208.5 90.5q-141 0 -230.5 -103t-89.5 -261z" />
<glyph unicode="&#xa5;" horiz-adv-x="1267" d="M31 1239v152q344 0 489 34l27 -145q-138 -26 -176 -29q252 -362 291 -549q6 26 15.5 55t18.5 54t25.5 65t26.5 64.5t34 77.5t36.5 80t44 96t46.5 102q-51 4 -188 31l29 152q137 -35 235 -35q97 0 258 45l29 -143q-70 -24 -209 -54q-34 -82 -90.5 -188t-100.5 -183.5 t-85.5 -181.5t-57.5 -202h254l-4 -107h-264q-2 -18 -3.5 -62t-4.5 -71h290v-107h-286q0 -15 1 -102t1 -100l-144 -6v208h-258v107h256q0 131 2 133h-276v107h285q0 103 -47 216t-102 189t-130.5 171.5t-99.5 133.5z" />
<glyph unicode="&#xa6;" horiz-adv-x="419" d="M133 1354h154q0 -75 8 -551l-150 -19q-12 484 -12 570zM156 465l147 22q2 -98 4.5 -238t4 -231t1.5 -139h-143q0 46 -2 131.5t-6 224.5t-6 230z" />
<glyph unicode="&#xa7;" horiz-adv-x="978" d="M55 45l152 33q12 -116 87.5 -188t192.5 -72q103 0 174.5 62t71.5 157q0 39 -30 66.5t-82.5 43.5t-106.5 26.5t-120 23t-105 26.5q-160 54 -160 240q0 82 45.5 157t130.5 111q-168 64 -168 236q0 133 94.5 231t225.5 98q111 0 188 -86l-14 246h151q0 -26 -4 -139t-4 -137 q0 -132 21 -197l-103 -35q0 91 -57 148t-148 57q-86 0 -140 -43.5t-54 -126.5q0 -93 153 -127q242 -54 293 -74q156 -70 156 -258q0 -77 -47.5 -143t-118.5 -100q162 -67 162 -258q0 -94 -61 -172t-157 -120t-202 -42q-173 0 -281.5 93.5t-134.5 262.5zM287 481 q0 -50 44 -90.5t138 -62.5q14 -2 43 -2q114 0 171.5 61.5t57.5 153.5q0 103 -217 149q-67 -3 -115 -22.5t-73.5 -50.5t-37 -64.5t-11.5 -71.5z" />
<glyph unicode="&#xa8;" horiz-adv-x="843" d="M113 1225q0 56 34 93.5t89 37.5t90.5 -37.5t35.5 -93.5q0 -54 -35.5 -94.5t-88.5 -40.5q-58 0 -91.5 36.5t-33.5 98.5zM487 1225q0 56 34 93.5t89 37.5t91 -37.5t36 -93.5q0 -54 -36 -94.5t-89 -40.5q-58 0 -91.5 36.5t-33.5 98.5z" />
<glyph unicode="&#xaa;" horiz-adv-x="614" d="M53 946q0 81 88 133l138 51q31 12 50 31t19 37q0 30 -17.5 48t-45.5 18q-39 0 -65.5 -25.5t-26.5 -62.5v-11q0 -2 14 -16l-119 -8v26q0 73 64.5 128t140.5 55q158 0 158 -224q0 -16 -3.5 -77.5t-3.5 -75.5q0 -25 10.5 -68t22.5 -43q10 0 19 76h84q0 -68 -28 -119t-79 -51 q-30 0 -55 19t-35 55q-46 -70 -127 -70q-75 0 -139 52.5t-64 121.5zM158 942q0 -27 30.5 -47.5t73.5 -20.5q84 0 90 132l2 69q-7 -6 -24.5 -15t-24.5 -13l-102 -48q-45 -30 -45 -57z" />
<glyph unicode="&#xab;" horiz-adv-x="1323" d="M25 565l503 373l93 -131q-188 -147 -383 -236q159 -81 337 -231l-100 -117zM686 575l504 373l92 -131q-185 -145 -383 -235q159 -81 338 -232l-100 -117z" />
<glyph unicode="&#xac;" horiz-adv-x="946" d="M102 571l13 144h747v-17q-5 -361 -28 -585l-138 14q8 126 11 442z" />
<glyph unicode="&#xad;" horiz-adv-x="579" d="M35 612v156h215q15 0 45 2t43 2h211v-139q-47 0 -256.5 -10.5t-257.5 -10.5z" />
<glyph unicode="&#xaf;" horiz-adv-x="1030" d="M113 1178v165q190 0 402 2.5t394 2.5v-150q-73 0 -396 -10t-400 -10z" />
<glyph unicode="&#xb0;" horiz-adv-x="688" d="M70 1143q0 126 73.5 202t194.5 76q119 0 199.5 -73.5t80.5 -188.5q0 -144 -78 -242t-202 -98q-117 0 -192.5 91.5t-75.5 232.5zM186 1124q0 -71 42.5 -121.5t111.5 -50.5q74 0 118 58.5t44 144.5q0 64 -40.5 103.5t-105.5 39.5q-75 0 -122.5 -49.5t-47.5 -124.5z" />
<glyph unicode="&#xb1;" horiz-adv-x="946" d="M94 -23l12 144h748v-144h-760zM102 571l13 158l309 -12q2 2 2 20v54q0 107 -16 208l153 19q19 -133 19 -240q0 -42 -2 -65h141q8 2 22 2h119v-146l-291 -2q-8 -123 -8 -288h-155q0 120 8 292q-2 2 -25 2h-24q-11 0 -50 -3t-71 -3h-68q-30 0 -76 4z" />
<glyph unicode="&#xb2;" horiz-adv-x="561" d="M70 999q146 182 193 256q59 93 59 142q0 24 -19 24q-53 0 -100 -102l-92 49q29 57 93.5 104.5t119.5 47.5q98 0 98 -119q0 -101 -84 -213q-18 -23 -40.5 -52.5t-31 -41t-21 -26.5t-21 -24.5t-19.5 -19.5q95 -5 303 -33l-10 -98q-273 31 -422 31z" />
<glyph unicode="&#xb3;" horiz-adv-x="460" d="M70 1401v106q35 0 186 -13t186 -13q-16 -17 -33.5 -38.5t-32.5 -41.5t-50 -65.5t-68 -88.5q58 -6 95.5 -57t37.5 -117q0 -84 -69.5 -156t-186.5 -110l-31 98q80 27 134.5 77t54.5 103q0 26 -14 42t-39 16q-36 0 -105 -17l-37 58q67 104 162 209q-152 8 -190 8z" />
<glyph unicode="&#xb4;" horiz-adv-x="524" d="M59 1133q77 77 137 161.5t138 214.5l133 -104q-80 -111 -151.5 -189.5t-168.5 -164.5z" />
<glyph unicode="&#xb6;" horiz-adv-x="1124" d="M37 1006q0 182 110.5 290.5t294.5 108.5q12 0 155 -7t218 -7h262v-136l-110 5q-3 -118 -30.5 -774.5t-29.5 -757.5l-127 16q2 65 16 361t26 602t16 546q-16 -1 -79.5 -4.5t-123.5 -5.5q-14 -308 -14 -1503l-138 6q2 79 4.5 272.5t4.5 350.5t4 200q-37 -12 -97 -12 q-144 0 -253 130.5t-109 318.5zM170 989q0 -130 61.5 -203t182.5 -73q49 0 90 12q4 230 4 338q0 188 -21 188h-65q-138 0 -195 -63.5t-57 -198.5z" />
<glyph unicode="&#xb7;" horiz-adv-x="456" d="M92 672q0 68 41 111.5t109 43.5q66 0 107.5 -43.5t41.5 -111.5q0 -65 -42 -114.5t-105 -49.5q-70 0 -111 44.5t-41 119.5z" />
<glyph unicode="&#xb8;" horiz-adv-x="442" d="M84 -258q0 48 36.5 79.5t94.5 31.5q63 0 96 -28.5t33 -78.5q0 -147 -231 -225l-23 65q69 6 113 56q-119 12 -119 100z" />
<glyph unicode="&#xb9;" horiz-adv-x="524" d="M57 1006q81 16 164 16q3 168 21 315q-55 -14 -144 -14v104q78 0 258 46q-30 -261 -30 -465q37 -2 147 -2v-101q-26 0 -126 5t-122 5q-87 0 -147 -14z" />
<glyph unicode="&#xba;" horiz-adv-x="626" d="M68 1106q0 124 74 203.5t196 79.5q102 0 159.5 -74.5t57.5 -200.5t-64 -198t-174 -72q-115 0 -182 72.5t-67 189.5zM162 1104q0 -70 40.5 -118t106.5 -48q77 0 118.5 48.5t41.5 131.5q0 79 -40 125.5t-105 46.5q-71 0 -116.5 -52t-45.5 -134z" />
<glyph unicode="&#xbb;" horiz-adv-x="1261" d="M43 352q75 61 176 129t166 101q-145 67 -332 198l94 129l451 -334l-471 -358zM674 362q75 61 176 129t166 101q-141 65 -332 199l94 129l451 -334l-471 -359z" />
<glyph unicode="&#xbc;" horiz-adv-x="1122" d="M55 -8q456 611 783 1335l102 -31q-353 -770 -801 -1368zM55 825q86 17 164 17q3 168 21 315q-55 -14 -144 -14v104q82 0 258 45q-30 -261 -30 -465q37 -2 147 -2v-100q-26 0 -126 5t-122 5q-87 0 -147 -14zM602 158q163 240 211 467l102 -19q-47 -217 -178 -430 q105 0 144 8q10 177 10 262l104 -4q0 -5 -1 -67.5t-5 -98.5l-8 -83l74 12l18 -103l-98 -16l-8 -127l-101 -4l6 125q-176 0 -235 2z" />
<glyph unicode="&#xbd;" horiz-adv-x="1120" d="M55 842q81 16 164 16q3 169 21 316q-59 -15 -144 -15v105q82 0 258 45q-30 -261 -30 -465q37 -2 147 -2v-101q-26 0 -126 5.5t-122 5.5q-82 0 -147 -15zM76 -8q453 607 782 1335l103 -31q-353 -770 -801 -1368zM633 98q146 182 193 256q59 93 59 142q0 24 -19 24 q-53 0 -100 -102l-92 49q29 57 93 104t120 47q98 0 98 -118q0 -101 -84 -213q-18 -23 -40.5 -52.5t-31 -41t-21 -26.5t-21 -24.5t-19.5 -19.5q95 -5 303 -33l-10 -98q-273 31 -422 31z" />
<glyph unicode="&#xbe;" horiz-adv-x="1089" d="M55 -8q456 611 783 1335l102 -31q-353 -770 -801 -1368zM125 1217v106q35 0 186.5 -13.5t186.5 -13.5q-27 -29 -185 -233q58 -6 95.5 -57t37.5 -117q0 -84 -69.5 -156t-186.5 -110l-30 98q80 27 134 76.5t54 103.5q0 26 -14 41.5t-39 15.5q-40 0 -105 -16l-36 57 q70 108 161 209q-171 9 -190 9zM569 141q163 240 211 467l103 -18q-47 -217 -178 -430q104 0 143 8q10 177 10 262l105 -4q-1 -14 -1.5 -46.5t-1.5 -62.5t-4 -57l-8 -84l74 12l18 -102l-98 -16l-8 -127l-100 -4l6 124q-148 0 -236 3z" />
<glyph unicode="&#xbf;" horiz-adv-x="774" d="M45 -111q0 114 81 215t204 138q149 44 149 186q0 97 -86 174l96 96q119 -113 119 -266q0 -223 -233 -299q-77 -27 -126.5 -86t-49.5 -131q0 -135 170 -135q55 0 81.5 5t53 31t43 70t41.5 133l143 -55q-117 -323 -358 -323q-146 0 -237 67t-91 180zM313 920q0 65 42.5 114 t105.5 49q68 0 109.5 -46t41.5 -117q0 -67 -42 -112.5t-107 -45.5t-107.5 45.5t-42.5 112.5z" />
<glyph unicode="&#xc0;" horiz-adv-x="1402" d="M37 -18l141 -2q27 0 29 2q34 113 169 450.5t199 462.5q44 101 140 276q-70 9 -330 9v151q28 0 164 -6t166 -6q111 0 157 12l197 -626q112 -374 164 -637q110 10 250 10v-148h-580v152q93 0 184 -16q-7 33 -21 103t-25.5 124t-24.5 104q-73 -20 -197 -20q-26 0 -146 3 t-143 3q-43 -91 -165 -414q170 -10 372 -10v-147q-64 0 -351 4t-349 4v162zM487 1772l134 104q80 -133 139 -217t135 -160l-88 -82q-96 86 -167.5 165t-152.5 190zM596 539q6 0 100 -4.5t123 -4.5q75 0 162 17q-12 52 -86 295.5t-82 292.5q-16 -78 -112.5 -321t-104.5 -275z " />
<glyph unicode="&#xc1;" horiz-adv-x="1402" d="M37 -18l141 -2q27 0 29 2q34 113 169 450.5t199 462.5q44 101 140 276q-70 9 -330 9v151q28 0 164 -6t166 -6q111 0 157 12l197 -626q112 -374 164 -637q110 10 250 10v-148h-580v152q93 0 184 -16q-7 33 -21 103t-25.5 124t-24.5 104q-73 -20 -197 -20q-26 0 -146 3 t-143 3q-43 -91 -165 -414q170 -10 372 -10v-147q-64 0 -351 4t-349 4v162zM578 1505q76 76 135 160t139 217l133 -104q-81 -112 -152 -191t-167 -164zM596 539q6 0 100 -4.5t123 -4.5q75 0 162 17q-12 52 -86 295.5t-82 292.5q-16 -78 -112.5 -321t-104.5 -275z" />
<glyph unicode="&#xc2;" horiz-adv-x="1402" d="M37 -18l141 -2q27 0 29 2q34 113 169 450.5t199 462.5q44 101 140 276q-70 9 -330 9v151q28 0 164 -6t166 -6q111 0 157 12l197 -626q112 -374 164 -637q110 10 250 10v-148h-580v152q93 0 184 -16q-7 33 -21 103t-25.5 124t-24.5 104q-73 -20 -197 -20q-26 0 -146 3 t-143 3q-43 -91 -165 -414q170 -10 372 -10v-147q-64 0 -351 4t-349 4v162zM444 1503q85 84 147 160.5t128 183.5h123q66 -107 127 -183.5t145 -160.5l-88 -78q-130 111 -246 248q-111 -131 -248 -248zM596 539q6 0 100 -4.5t123 -4.5q75 0 162 17q-12 52 -86 295.5 t-82 292.5q-16 -78 -112.5 -321t-104.5 -275z" />
<glyph unicode="&#xc3;" horiz-adv-x="1402" d="M37 -18l141 -2q27 0 29 2q34 113 169 450.5t199 462.5q44 101 140 276q-70 9 -330 9v151q28 0 164 -6t166 -6q111 0 157 12l197 -626q112 -374 164 -637q110 10 250 10v-148h-580v152q93 0 184 -16q-7 33 -21 103t-25.5 124t-24.5 104q-73 -20 -197 -20q-26 0 -146 3 t-143 3q-43 -91 -165 -414q170 -10 372 -10v-147q-64 0 -351 4t-349 4v162zM373 1497q20 89 84 151t129 62q35 0 72.5 -19t65 -41.5t66 -41.5t76.5 -19q34 0 123 84l103 -90q-42 -53 -106 -91t-116 -38q-37 0 -77 20t-69 44.5t-63.5 44.5t-60.5 20q-37 0 -67 -40t-41 -95z M596 539q6 0 100 -4.5t123 -4.5q75 0 162 17q-12 52 -86 295.5t-82 292.5q-16 -78 -112.5 -321t-104.5 -275z" />
<glyph unicode="&#xc4;" horiz-adv-x="1402" d="M37 -18l141 -2q27 0 29 2q34 113 169 450.5t199 462.5q44 101 140 276q-70 9 -330 9v151q28 0 164 -6t166 -6q111 0 157 12l197 -626q112 -374 164 -637q110 10 250 10v-148h-580v152q93 0 184 -16q-7 33 -21 103t-25.5 124t-24.5 104q-73 -20 -197 -20q-26 0 -146 3 t-143 3q-43 -91 -165 -414q170 -10 372 -10v-147q-64 0 -351 4t-349 4v162zM481 1573q0 56 34 93.5t89 37.5t91 -37.5t36 -93.5q0 -54 -36 -94.5t-89 -40.5q-58 0 -91.5 36.5t-33.5 98.5zM596 539q6 0 100 -4.5t123 -4.5q75 0 162 17q-12 52 -86 295.5t-82 292.5 q-16 -78 -112.5 -321t-104.5 -275zM856 1573q0 56 34 93.5t89 37.5t91 -37.5t36 -93.5q0 -54 -36 -94.5t-89 -40.5q-58 0 -91.5 36.5t-33.5 98.5z" />
<glyph unicode="&#xc5;" horiz-adv-x="1402" d="M37 -18l141 -2q27 0 29 2q34 113 169 450.5t199 462.5q44 101 140 276q-70 9 -330 9v151q28 0 164 -6t166 -6q111 0 157 12l197 -626q112 -374 164 -637q110 10 250 10v-148h-580v152q93 0 184 -16q-7 33 -21 103t-25.5 124t-24.5 104q-73 -20 -197 -20q-26 0 -146 3 t-143 3q-43 -91 -165 -414q170 -10 372 -10v-147q-64 0 -351 4t-349 4v162zM578 1651q0 95 60.5 153t160.5 58q96 0 162.5 -56t66.5 -143q0 -111 -64 -185.5t-165 -74.5q-98 0 -159.5 69.5t-61.5 178.5zM596 539q6 0 100 -4.5t123 -4.5q75 0 162 17q-12 52 -86 295.5 t-82 292.5q-16 -78 -112.5 -321t-104.5 -275zM682 1636q0 -50 32 -86.5t85 -36.5q57 0 91 41t34 103q0 46 -31.5 74t-79.5 28q-58 0 -94.5 -34.5t-36.5 -88.5z" />
<glyph unicode="&#xc6;" horiz-adv-x="1794" d="M37 63l418 35q122 653 284 1092l-411 -16v172h1323l45 -408l-135 -70l-54 340l-442 -28v-512l233 6l-45 246l150 36l80 -655l-137 -25l-35 256l-258 -12v-397l571 18l-35 254l152 21l39 -471l-871 -19v574l-233 -58l-133 -555l-506 23v153zM711 614l192 39v527l-26 2z " />
<glyph unicode="&#xc7;" horiz-adv-x="1245" d="M68 584q0 121 29 239.5t83.5 219t126.5 178t163.5 121.5t188.5 44q122 0 244 -67l-2 111h156q-2 -2 -2 -35v-43q0 -4 -2 -17t-2 -30v-66q0 -55 8 -141l-137 -21q-9 76 -64.5 116t-148.5 40q-110 0 -204.5 -50.5t-157.5 -135t-98.5 -193t-35.5 -225.5q0 -167 66.5 -303.5 t185 -214.5t264.5 -78q221 0 412 176l104 -113q-233 -217 -428 -217q-344 0 -546.5 187.5t-202.5 517.5zM541 -258q0 48 36.5 79.5t94.5 31.5q63 0 96 -28.5t33 -78.5q0 -146 -232 -225l-22 65q68 6 112 56q-118 12 -118 100z" />
<glyph unicode="&#xc8;" horiz-adv-x="1077" d="M51 96q95 15 219 19v51q0 107 9.5 519.5t9.5 522.5v47l-139 -12l-11 154q205 18 402 18q260 0 491 -26q-20 -117 -20 -281h-144l-2 90q0 8 6 68q-117 6 -233 6q-61 0 -197 -4v-437q157 7 203 7q0 58 10 190l154 -16q-8 -164 -8 -295q0 -109 6 -197l-154 -6q-6 74 -6 174 l-205 -8l-16 -272q-12 -138 -12 -269v-26l186 -11q169 -9 184 -8q37 0 107 4q-21 175 -21 230h144q0 -36 11 -187t11 -182h-65q-53 0 -255 3t-235 3q-249 0 -413 -22zM360 1823l134 104q80 -133 139 -217t135 -160l-88 -82q-96 86 -167.5 165t-152.5 190z" />
<glyph unicode="&#xc9;" horiz-adv-x="1077" d="M51 96q95 15 219 19v51q0 107 9.5 519.5t9.5 522.5v47l-139 -12l-11 154q205 18 402 18q260 0 491 -26q-20 -117 -20 -281h-144l-2 90q0 8 6 68q-117 6 -233 6q-61 0 -197 -4v-437q157 7 203 7q0 58 10 190l154 -16q-8 -164 -8 -295q0 -109 6 -197l-154 -6q-6 74 -6 174 l-205 -8l-16 -272q-12 -138 -12 -269v-26l186 -11q169 -9 184 -8q37 0 107 4q-21 175 -21 230h144q0 -36 11 -187t11 -182h-65q-53 0 -255 3t-235 3q-249 0 -413 -22zM438 1544q76 76 136 161t139 216l133 -104q-81 -111 -152.5 -190t-167.5 -165z" />
<glyph unicode="&#xca;" horiz-adv-x="1077" d="M51 96q95 15 219 19v51q0 107 9.5 519.5t9.5 522.5v47l-139 -12l-11 154q205 18 402 18q260 0 491 -26q-20 -117 -20 -281h-144l-2 90q0 8 6 68q-117 6 -233 6q-61 0 -197 -4v-437q157 7 203 7q0 58 10 190l154 -16q-8 -164 -8 -295q0 -109 6 -197l-154 -6q-6 74 -6 174 l-205 -8l-16 -272q-12 -138 -12 -269v-26l186 -11q169 -9 184 -8q37 0 107 4q-21 175 -21 230h144q0 -36 11 -187t11 -182h-65q-53 0 -255 3t-235 3q-249 0 -413 -22zM276 1563q85 84 147 160.5t128 183.5h123q66 -107 127 -183.5t145 -160.5l-88 -78q-130 111 -246 248 q-114 -134 -247 -248z" />
<glyph unicode="&#xcb;" horiz-adv-x="1077" d="M51 96q95 15 219 19v51q0 107 9.5 519.5t9.5 522.5v47l-139 -12l-11 154q205 18 402 18q260 0 491 -26q-20 -117 -20 -281h-144l-2 90q0 8 6 68q-117 6 -233 6q-61 0 -197 -4v-437q157 7 203 7q0 58 10 190l154 -16q-8 -164 -8 -295q0 -109 6 -197l-154 -6q-6 74 -6 174 l-205 -8l-16 -272q-12 -138 -12 -269v-26l186 -11q169 -9 184 -8q37 0 107 4q-21 175 -21 230h144q0 -36 11 -187t11 -182h-65q-53 0 -255 3t-235 3q-249 0 -413 -22zM299 1647q0 56 34 93.5t89 37.5t91 -37.5t36 -93.5q0 -54 -36 -95t-89 -41q-58 0 -91.5 37t-33.5 99z M674 1647q0 56 34 93.5t89 37.5t91 -37.5t36 -93.5q0 -54 -36 -95t-89 -41q-58 0 -91.5 37t-33.5 99z" />
<glyph unicode="&#xcc;" horiz-adv-x="667" d="M59 57l64 2q12 0 46 -3.5t56 -2.5h15q23 377 47 1217q-119 -21 -217 -21v158h553v-137q-102 0 -181 8q-4 -121 -25 -630t-24 -611q2 -2 29 -2h151v-154q-238 7 -256 8l-258 15v153zM133 1827l133 104q79 -131 139 -216t136 -161l-88 -81q-97 86 -168.5 164.5 t-151.5 189.5z" />
<glyph unicode="&#xcd;" horiz-adv-x="667" d="M59 57l64 2q12 0 46 -3.5t56 -2.5h15q23 377 47 1217q-119 -21 -217 -21v158h553v-137q-102 0 -181 8q-4 -121 -25 -630t-24 -611q2 -2 29 -2h151v-154q-238 7 -256 8l-258 15v153zM199 1546q76 76 135 160t139 217l133 -104q-81 -112 -152 -191t-167 -164z" />
<glyph unicode="&#xce;" horiz-adv-x="667" d="M27 1563q84 83 145.5 160t128.5 184h123q66 -107 127 -183.5t145 -160.5l-88 -78q-130 111 -246 248q-114 -134 -247 -248zM59 57l64 2q12 0 46 -3.5t56 -2.5h15q23 377 47 1217q-119 -21 -217 -21v158h553v-137q-102 0 -181 8q-4 -121 -25 -630t-24 -611q2 -2 29 -2h151 v-154q-238 7 -256 8l-258 15v153z" />
<glyph unicode="&#xcf;" horiz-adv-x="667" d="M51 1642q0 56 34 94t89 38t91 -38t36 -94q0 -54 -36 -94.5t-89 -40.5q-58 0 -91.5 36.5t-33.5 98.5zM59 57l64 2q12 0 46 -3.5t56 -2.5h15q23 377 47 1217q-119 -21 -217 -21v158h553v-137q-102 0 -181 8q-4 -121 -25 -630t-24 -611q2 -2 29 -2h151v-154q-238 7 -256 8 l-258 15v153zM426 1642q0 56 34 94t89 38t91 -38t36 -94q0 -54 -36 -94.5t-89 -40.5q-58 0 -91.5 36.5t-33.5 98.5z" />
<glyph unicode="&#xd0;" horiz-adv-x="1253" d="M47 -59l39 147l145 -41q31 219 31 569q-126 -4 -151 -4v156h149q-12 380 -12 502l-135 -6v153q35 0 205 8.5t214 8.5q329 0 496.5 -164.5t167.5 -493.5q0 -184 -62.5 -348t-170.5 -282.5t-261.5 -187.5t-328.5 -69q-155 0 -326 52zM377 23q118 5 241.5 65t219.5 151.5 t157.5 212t61.5 238.5q0 175 -28.5 289.5t-97 186t-173.5 101t-266 29.5q-91 0 -93 -2v-16q0 -120 13 -506h213v-139q-31 0 -211 -8q0 -391 -37 -602z" />
<glyph unicode="&#xd1;" horiz-adv-x="1525" d="M29 66q74 8 106 8q71 0 158 -17q0 110 12 523t12 495v176q-129 6 -204 6v140q10 0 30 -1t29 -1q53 0 158.5 5.5t128.5 6.5q253 -516 364 -712.5t273 -430.5q8 156 8 342q0 450 -49 797q12 -1 123.5 -11.5t207.5 -18t140 -7.5v-152q-120 0 -301 31v-1286h-138 q-108 218 -317 559q-264 424 -328 547q-20 -184 -20 -424v-346q2 -31 2 -86v-297q-20 0 -138.5 9t-146.5 9q-51 0 -90 -8zM449 1538q20 89 84 151t129 62q35 0 72.5 -19t65 -41.5t66 -41.5t76.5 -19q34 0 123 84l102 -90q-42 -53 -105.5 -91t-115.5 -38q-37 0 -77 20 t-69 44.5t-63.5 44.5t-60.5 20q-37 0 -67.5 -40t-41.5 -95z" />
<glyph unicode="&#xd2;" horiz-adv-x="1427" d="M55 684q0 149 51.5 282.5t140 229.5t213.5 152.5t267 56.5q192 0 340.5 -104t228.5 -284.5t80 -406.5q0 -296 -173.5 -481.5t-450.5 -185.5q-198 0 -357.5 96t-249.5 265.5t-90 379.5zM201 705q0 -167 69 -305.5t194 -220t279 -81.5q220 0 352 151t132 386 q0 273 -144 446.5t-370 173.5q-107 0 -201.5 -40.5t-163 -112.5t-108 -175t-39.5 -222zM518 1819l133 104q79 -131 139 -216t136 -161l-88 -82q-96 86 -167.5 165t-152.5 190z" />
<glyph unicode="&#xd3;" horiz-adv-x="1427" d="M55 684q0 149 51.5 282.5t140 229.5t213.5 152.5t267 56.5q192 0 340.5 -104t228.5 -284.5t80 -406.5q0 -296 -173.5 -481.5t-450.5 -185.5q-198 0 -357.5 96t-249.5 265.5t-90 379.5zM201 705q0 -167 69 -305.5t194 -220t279 -81.5q220 0 352 151t132 386 q0 273 -144 446.5t-370 173.5q-107 0 -201.5 -40.5t-163 -112.5t-108 -175t-39.5 -222zM547 1546q76 76 135 160t139 217l133 -104q-81 -112 -152 -191t-167 -164z" />
<glyph unicode="&#xd4;" horiz-adv-x="1427" d="M55 684q0 149 51.5 282.5t140 229.5t213.5 152.5t267 56.5q192 0 340.5 -104t228.5 -284.5t80 -406.5q0 -296 -173.5 -481.5t-450.5 -185.5q-198 0 -357.5 96t-249.5 265.5t-90 379.5zM201 705q0 -167 69 -305.5t194 -220t279 -81.5q220 0 352 151t132 386 q0 273 -144 446.5t-370 173.5q-107 0 -201.5 -40.5t-163 -112.5t-108 -175t-39.5 -222zM399 1528q85 84 147 160.5t128 183.5h123q66 -107 127 -183.5t145 -160.5l-88 -78q-130 111 -246 248q-111 -131 -248 -248z" />
<glyph unicode="&#xd5;" horiz-adv-x="1427" d="M55 684q0 149 51.5 282.5t140 229.5t213.5 152.5t267 56.5q192 0 340.5 -104t228.5 -284.5t80 -406.5q0 -296 -173.5 -481.5t-450.5 -185.5q-198 0 -357.5 96t-249.5 265.5t-90 379.5zM201 705q0 -167 69 -305.5t194 -220t279 -81.5q220 0 352 151t132 386 q0 273 -144 446.5t-370 173.5q-107 0 -201.5 -40.5t-163 -112.5t-108 -175t-39.5 -222zM375 1561q20 89 84 151t129 62q35 0 72.5 -19t65 -41.5t66 -41.5t76.5 -19q34 0 123 84l103 -90q-42 -53 -106 -91t-116 -38q-37 0 -77 20t-69 44.5t-63.5 44.5t-60.5 20 q-37 0 -67 -40.5t-41 -95.5z" />
<glyph unicode="&#xd6;" horiz-adv-x="1427" d="M55 684q0 149 51.5 282.5t140 229.5t213.5 152.5t267 56.5q192 0 340.5 -104t228.5 -284.5t80 -406.5q0 -296 -173.5 -481.5t-450.5 -185.5q-198 0 -357.5 96t-249.5 265.5t-90 379.5zM201 705q0 -167 69 -305.5t194 -220t279 -81.5q220 0 352 151t132 386 q0 273 -144 446.5t-370 173.5q-107 0 -201.5 -40.5t-163 -112.5t-108 -175t-39.5 -222zM444 1632q0 56 34 93.5t89 37.5t91 -37.5t36 -93.5q0 -54 -36 -94.5t-89 -40.5q-58 0 -91.5 36.5t-33.5 98.5zM819 1632q0 56 34 93.5t89 37.5t91 -37.5t36 -93.5q0 -54 -36 -94.5 t-89 -40.5q-58 0 -91.5 36.5t-33.5 98.5z" />
<glyph unicode="&#xd7;" horiz-adv-x="946" d="M150 846l114 108l221 -217q117 113 179 217l127 -88q-15 -22 -31.5 -45t-29 -39t-33 -40.5t-30.5 -36t-34.5 -39.5t-32.5 -37l209 -187l-98 -108l-217 194q-110 -110 -201 -209l-115 105q88 98 205 211q-34 33 -114.5 102t-118.5 109z" />
<glyph unicode="&#xd8;" horiz-adv-x="1404" d="M37 684q0 197 86.5 362t242 262t345.5 97q131 0 233 -45q8 19 39 70l133 -78l-43 -68q287 -230 287 -674q0 -295 -175.5 -481t-453.5 -186q-194 0 -348 86q-13 -16 -37 -41.5t-33 -36.5l-98 100q27 24 55 62q-121 122 -177 257t-56 314zM182 705q0 -280 183 -463 q81 129 158.5 273.5t224.5 453.5q26 50 66.5 136t57.5 120q-74 30 -178 30q-220 0 -366 -158t-146 -392zM481 156q104 -58 246 -58q218 0 349.5 151t131.5 386q0 162 -50 283t-157 231q-223 -469 -321.5 -655t-198.5 -338z" />
<glyph unicode="&#xd9;" horiz-adv-x="1306" d="M45 1286v154q38 0 236 9t235 9v-139l-147 -4q-31 -465 -31 -565q0 -670 360 -670q316 0 316 694q0 41 -9.5 260t-9.5 271l-207 6v153q52 0 261.5 -14.5t234.5 -15.5v-138h-139v-65q0 -61 9 -268t9 -248q0 -399 -112.5 -594t-352.5 -195q-260 0 -381.5 204t-121.5 642 q0 107 8 260l12 260zM367 1819l133 104q80 -133 139 -217t135 -160l-88 -82q-96 85 -167 164t-152 191z" />
<glyph unicode="&#xda;" horiz-adv-x="1306" d="M45 1286v154q38 0 236 9t235 9v-139l-147 -4q-31 -465 -31 -565q0 -670 360 -670q316 0 316 694q0 41 -9.5 260t-9.5 271l-207 6v153q52 0 261.5 -14.5t234.5 -15.5v-138h-139v-65q0 -61 9 -268t9 -248q0 -399 -112.5 -594t-352.5 -195q-260 0 -381.5 204t-121.5 642 q0 107 8 260l12 260zM543 1559q76 76 135.5 160t138.5 216l133 -104q-81 -111 -152 -189.5t-167 -164.5z" />
<glyph unicode="&#xdb;" horiz-adv-x="1306" d="M45 1286v154q38 0 236 9t235 9v-139l-147 -4q-31 -465 -31 -565q0 -670 360 -670q316 0 316 694q0 41 -9.5 260t-9.5 271l-207 6v153q52 0 261.5 -14.5t234.5 -15.5v-138h-139v-65q0 -61 9 -268t9 -248q0 -399 -112.5 -594t-352.5 -195q-260 0 -381.5 204t-121.5 642 q0 107 8 260l12 260zM350 1587q85 84 147 160.5t128 183.5h123q66 -107 127 -183.5t145 -160.5l-88 -78q-130 111 -246 248q-111 -131 -248 -248z" />
<glyph unicode="&#xdc;" horiz-adv-x="1306" d="M45 1286v154q38 0 236 9t235 9v-139l-147 -4q-31 -465 -31 -565q0 -670 360 -670q316 0 316 694q0 41 -9.5 260t-9.5 271l-207 6v153q52 0 261.5 -14.5t234.5 -15.5v-138h-139v-65q0 -61 9 -268t9 -248q0 -399 -112.5 -594t-352.5 -195q-260 0 -381.5 204t-121.5 642 q0 107 8 260l12 260zM362 1667q0 56 34 93.5t89 37.5t91 -37.5t36 -93.5q0 -54 -36 -94.5t-89 -40.5q-58 0 -91.5 36.5t-33.5 98.5zM737 1667q0 56 34 93.5t89 37.5t91 -37.5t36 -93.5q0 -54 -36 -94.5t-89 -40.5q-58 0 -91.5 36.5t-33.5 98.5z" />
<glyph unicode="&#xdd;" horiz-adv-x="1404" d="M25 1239v152q381 0 542 34l27 -145q-125 -23 -191 -29q34 -41 161 -234t163 -235q113 191 272 514q-68 4 -208 31l28 152q155 -35 266 -35q93 0 283 45l37 -143q-82 -26 -236 -54q-20 -40 -186 -323q-119 -180 -161 -321.5t-42 -334.5q0 -103 8 -207q0 3 25 3h25 q50 0 188 -23l-27 -141q-68 14 -137 14q-42 0 -212 -14.5t-206 -14.5v152q124 0 191 6q-12 172 -12 238q0 164 26 327q-242 396 -440 594zM608 1575q76 76 136 161t139 216l133 -105q-80 -111 -151.5 -189.5t-168.5 -164.5z" />
<glyph unicode="&#xde;" horiz-adv-x="1128" d="M104 1249v158h553v-137q-105 0 -184 8v-143h57q256 0 415 -110t159 -296q0 -126 -72.5 -232.5t-189.5 -165.5t-248 -59q-60 0 -137 15l10 -193h254v-153q-51 0 -294.5 -5.5t-293.5 -5.5v152l180 2q4 76 4 215q0 181 -1 410t-1 297q0 142 4 264q-119 -21 -215 -21z M453 684q0 -125 6 -242q44 -12 112 -12q173 0 282.5 77.5t109.5 205.5q0 268 -402 268h-74q-28 0 -28 -2q-6 -206 -6 -295z" />
<glyph unicode="&#xdf;" horiz-adv-x="909" d="M96 1118q0 363 293 363q217 0 217 -172q0 -34 -55 -227.5t-55 -245.5q0 -63 38 -139t92.5 -145t109 -135.5t92.5 -130t38 -108.5q0 -151 -301 -295l-65 140q200 90 200 178q0 41 -92 141q-151 159 -204.5 261.5t-53.5 232.5q0 5 53.5 184t53.5 233q0 90 -68 90 q-153 0 -153 -260q0 -175 81 -546q52 -238 52 -277q0 -142 -150 -342l-121 92q88 113 110.5 154.5t22.5 95.5q0 72 -53 307q-82 376 -82 551z" />
<glyph unicode="&#xe0;" d="M37 236q0 148 141 223l262 100q142 53 142 146q0 63 -38 100t-100 37q-79 0 -133.5 -53t-54.5 -130v-18q0 -12 2 -14l-156 -13v31q0 84 54 160t137.5 120t169.5 44q270 0 270 -400q0 -27 -5 -143.5t-5 -140.5q0 -54 24 -141t58 -87q37 0 49 142h123q0 -107 -48.5 -190 t-129.5 -83q-60 0 -108 48t-60 128q-65 -170 -236 -170q-87 0 -170 41t-135.5 112.5t-52.5 150.5zM188 229q0 -60 63.5 -103.5t149.5 -43.5q90 0 135.5 59.5t55.5 202.5l4 186q-11 -41 -123 -92q-173 -81 -186 -90q-99 -58 -99 -119zM242 1366l133 104q79 -132 138.5 -216 t135.5 -160l-88 -82q-96 86 -167 164.5t-152 189.5z" />
<glyph unicode="&#xe1;" d="M37 236q0 148 141 223l262 100q142 53 142 146q0 63 -38 100t-100 37q-79 0 -133.5 -53t-54.5 -130v-18q0 -12 2 -14l-156 -13v31q0 84 54 160t137.5 120t169.5 44q270 0 270 -400q0 -27 -5 -143.5t-5 -140.5q0 -54 24 -141t58 -87q37 0 49 142h123q0 -107 -48.5 -190 t-129.5 -83q-60 0 -108 48t-60 128q-65 -170 -236 -170q-87 0 -170 41t-135.5 112.5t-52.5 150.5zM188 229q0 -60 63.5 -103.5t149.5 -43.5q90 0 135.5 59.5t55.5 202.5l4 186q-11 -41 -123 -92q-173 -81 -186 -90q-99 -58 -99 -119zM242 1081q76 76 135 160t139 217 l133 -104q-81 -112 -152 -191t-167 -164z" />
<glyph unicode="&#xe2;" d="M37 236q0 148 141 223l262 100q142 53 142 146q0 63 -38 100t-100 37q-79 0 -133.5 -53t-54.5 -130v-18q0 -12 2 -14l-156 -13v31q0 84 54 160t137.5 120t169.5 44q270 0 270 -400q0 -27 -5 -143.5t-5 -140.5q0 -54 24 -141t58 -87q37 0 49 142h123q0 -107 -48.5 -190 t-129.5 -83q-60 0 -108 48t-60 128q-65 -170 -236 -170q-87 0 -170 41t-135.5 112.5t-52.5 150.5zM133 1063q85 84 147 160.5t128 183.5h122q66 -106 127.5 -183t145.5 -161l-88 -78q-130 111 -246 248q-111 -131 -248 -248zM188 229q0 -60 63.5 -103.5t149.5 -43.5 q90 0 135.5 59.5t55.5 202.5l4 186q-11 -41 -123 -92q-173 -81 -186 -90q-99 -58 -99 -119z" />
<glyph unicode="&#xe3;" d="M37 236q0 148 141 223l262 100q142 53 142 146q0 63 -38 100t-100 37q-79 0 -133.5 -53t-54.5 -130v-18q0 -12 2 -14l-156 -13v31q0 84 54 160t137.5 120t169.5 44q270 0 270 -400q0 -27 -5 -143.5t-5 -140.5q0 -54 24 -141t58 -87q37 0 49 142h123q0 -107 -48.5 -190 t-129.5 -83q-60 0 -108 48t-60 128q-65 -170 -236 -170q-87 0 -170 41t-135.5 112.5t-52.5 150.5zM106 1130q20 89 84 151t129 62q29 0 58.5 -12.5t54.5 -30t50.5 -35t56 -30t61.5 -12.5q34 0 123 84l102 -90q-42 -54 -106 -92t-115 -38q-37 0 -77 20.5t-69 44.5t-63.5 44.5 t-60.5 20.5q-37 0 -67.5 -40.5t-41.5 -95.5zM188 229q0 -60 63.5 -103.5t149.5 -43.5q90 0 135.5 59.5t55.5 202.5l4 186q-11 -41 -123 -92q-173 -81 -186 -90q-99 -58 -99 -119z" />
<glyph unicode="&#xe4;" d="M37 236q0 148 141 223l262 100q142 53 142 146q0 63 -38 100t-100 37q-79 0 -133.5 -53t-54.5 -130v-18q0 -12 2 -14l-156 -13v31q0 84 54 160t137.5 120t169.5 44q270 0 270 -400q0 -27 -5 -143.5t-5 -140.5q0 -54 24 -141t58 -87q37 0 49 142h123q0 -107 -48.5 -190 t-129.5 -83q-60 0 -108 48t-60 128q-65 -170 -236 -170q-87 0 -170 41t-135.5 112.5t-52.5 150.5zM147 1192q0 56 34 93.5t89 37.5t91 -37.5t36 -93.5q0 -54 -36 -94.5t-89 -40.5q-58 0 -91.5 36.5t-33.5 98.5zM188 229q0 -60 63.5 -103.5t149.5 -43.5q90 0 135.5 59.5 t55.5 202.5l4 186q-11 -41 -123 -92q-173 -81 -186 -90q-99 -58 -99 -119zM522 1192q0 56 34 93.5t89 37.5t91 -37.5t36 -93.5q0 -54 -36 -94.5t-89 -40.5q-58 0 -91.5 36.5t-33.5 98.5z" />
<glyph unicode="&#xe5;" d="M37 236q0 148 141 223l262 100q142 53 142 146q0 63 -38 100t-100 37q-79 0 -133.5 -53t-54.5 -130v-18q0 -12 2 -14l-156 -13v31q0 84 54 160t137.5 120t169.5 44q270 0 270 -400q0 -27 -5 -143.5t-5 -140.5q0 -54 24 -141t58 -87q37 0 49 142h123q0 -107 -48.5 -190 t-129.5 -83q-60 0 -108 48t-60 128q-65 -170 -236 -170q-87 0 -170 41t-135.5 112.5t-52.5 150.5zM188 229q0 -60 63.5 -103.5t149.5 -43.5q90 0 135.5 59.5t55.5 202.5l4 186q-11 -41 -123 -92q-173 -81 -186 -90q-99 -58 -99 -119zM240 1262q0 95 60.5 153t160.5 58 q96 0 162.5 -56t66.5 -143q0 -111 -64 -185.5t-165 -74.5q-98 0 -159.5 69.5t-61.5 178.5zM344 1247q0 -50 32 -86.5t85 -36.5q57 0 91 41t34 103q0 46 -31.5 74t-79.5 28q-58 0 -94.5 -34.5t-36.5 -88.5z" />
<glyph unicode="&#xe6;" horiz-adv-x="1370" d="M39 61q0 113 105 222.5t350 205.5q4 58 4 78q0 75 -18 126.5t-44 51.5q-33 0 -58 -9.5t-54.5 -38t-58 -89t-56.5 -153.5l-139 57q71 200 171 299.5t187 99.5q78 0 133 -87.5t64 -213.5q64 96 132 164.5t130 103t113.5 49.5t99.5 15q98 0 156.5 -61t58.5 -154 q0 -72 -45 -128t-134.5 -96.5t-206.5 -69t-278 -50.5q-12 -59 -12 -104q0 -115 57.5 -178.5t171.5 -63.5q94 0 181.5 59t121.5 174l134 -57q-62 -158 -195 -233q-153 -84 -291 -84q-192 0 -291 196q-56 -106 -145.5 -171.5t-169.5 -65.5q-81 0 -127.5 56.5t-46.5 149.5z M180 53q0 -59 45 -59q48 0 92.5 30t79 81t60.5 107.5t45 119.5q-141 -46 -231.5 -131.5t-90.5 -147.5zM705 518q105 19 185.5 39t148 45.5t103.5 57t36 67.5q0 76 -97 76q-110 0 -196 -72t-180 -213z" />
<glyph unicode="&#xe7;" horiz-adv-x="909" d="M37 432q0 241 128 394t337 153q153 0 250.5 -68t97.5 -172q0 -70 -42 -114.5t-110 -44.5q-64 0 -106.5 47t-42.5 114q0 70 51 99q-49 8 -100 8q-144 0 -231 -103.5t-87 -261.5q0 -96 39.5 -188.5t109.5 -152.5t150 -60q74 0 145.5 42t100.5 105l156 -49 q-52 -96 -163.5 -167.5t-227.5 -71.5q-93 0 -178 40.5t-145.5 107.5t-96 157t-35.5 186zM338 -258q0 48 36.5 79.5t94.5 31.5q63 0 96 -28.5t33 -78.5q0 -147 -231 -225l-23 65q69 6 113 56q-119 12 -119 100z" />
<glyph unicode="&#xe8;" horiz-adv-x="913" d="M70 492q0 125 58 236t161.5 179t226.5 68q147 0 250 -105.5t125 -275.5l-649 -223q25 -102 108.5 -177t181.5 -75q125 0 205 129l127 -47q-119 -224 -329 -224q-120 0 -228 73t-172.5 192.5t-64.5 249.5zM213 473l258 94q84 30 260 78q-6 82 -71 136.5t-154 54.5 q-119 0 -196 -94.5t-97 -268.5zM332 1354l133 104q80 -133 139 -217t135 -160l-88 -82q-96 85 -167 164t-152 191z" />
<glyph unicode="&#xe9;" horiz-adv-x="913" d="M70 492q0 125 58 236t161.5 179t226.5 68q147 0 250 -105.5t125 -275.5l-649 -223q25 -102 108.5 -177t181.5 -75q125 0 205 129l127 -47q-119 -224 -329 -224q-120 0 -228 73t-172.5 192.5t-64.5 249.5zM213 473l258 94q84 30 260 78q-6 82 -71 136.5t-154 54.5 q-119 0 -196 -94.5t-97 -268.5zM293 1104q76 76 135 160t139 217l133 -105q-81 -111 -152 -189.5t-167 -164.5z" />
<glyph unicode="&#xea;" horiz-adv-x="913" d="M70 492q0 125 58 236t161.5 179t226.5 68q147 0 250 -105.5t125 -275.5l-649 -223q25 -102 108.5 -177t181.5 -75q125 0 205 129l127 -47q-119 -224 -329 -224q-120 0 -228 73t-172.5 192.5t-64.5 249.5zM201 1083q84 83 145.5 160t128.5 184h123q66 -107 127 -183.5 t145 -160.5l-88 -77q-129 110 -245 247q-108 -128 -248 -247zM213 473l258 94q84 30 260 78q-6 82 -71 136.5t-154 54.5q-119 0 -196 -94.5t-97 -268.5z" />
<glyph unicode="&#xeb;" horiz-adv-x="913" d="M70 492q0 125 58 236t161.5 179t226.5 68q147 0 250 -105.5t125 -275.5l-649 -223q25 -102 108.5 -177t181.5 -75q125 0 205 129l127 -47q-119 -224 -329 -224q-120 0 -228 73t-172.5 192.5t-64.5 249.5zM213 473l258 94q84 30 260 78q-6 82 -71 136.5t-154 54.5 q-119 0 -196 -94.5t-97 -268.5zM213 1202q0 56 34 93.5t89 37.5t91 -37.5t36 -93.5q0 -54 -36 -94.5t-89 -40.5q-58 0 -91.5 36.5t-33.5 98.5zM588 1202q0 56 34 93.5t89 37.5t91 -37.5t36 -93.5q0 -54 -36 -94.5t-89 -40.5q-58 0 -91.5 36.5t-33.5 98.5z" />
<glyph unicode="&#xec;" horiz-adv-x="655" d="M45 788v136h361q0 -257 12 -785q12 0 35 1t36 1q54 0 152 -4l12 -131q-89 -3 -278.5 -17.5t-286.5 -17.5v138q139 4 193 12q-3 143 -8.5 365t-6.5 302h-221zM63 1397l134 104q80 -133 139 -217t135 -160l-88 -82q-96 86 -167.5 165t-152.5 190z" />
<glyph unicode="&#xed;" horiz-adv-x="655" d="M45 788v136h361q0 -257 12 -785q12 0 35 1t36 1q54 0 152 -4l12 -131q-89 -3 -278.5 -17.5t-286.5 -17.5v138q139 4 193 12q-3 143 -8.5 365t-6.5 302h-221zM150 1110q76 76 135 160t139 217l133 -105q-81 -111 -152 -189.5t-167 -164.5z" />
<glyph unicode="&#xee;" horiz-adv-x="784" d="M31 1079q84 83 145.5 160t128.5 184h123q66 -107 127 -183.5t145 -160.5l-88 -78q-126 108 -245 248q-111 -131 -248 -248zM119 788v136h360q0 -213 13 -785q12 0 35 1t36 1q54 0 152 -4l12 -131q-89 -3 -278.5 -17.5t-286.5 -17.5v138q138 4 192 12q-2 121 -7.5 351.5 t-6.5 315.5h-221z" />
<glyph unicode="&#xef;" horiz-adv-x="743" d="M53 1225q0 56 34 93.5t89 37.5t91 -37.5t36 -93.5q0 -54 -36 -94.5t-89 -40.5q-58 0 -91.5 36.5t-33.5 98.5zM106 788v136h361q0 -257 12 -785q13 0 36 1t36 1q53 0 151 -4l13 -131q-89 -3 -278.5 -17.5t-286.5 -17.5v138q138 4 192 12q-2 121 -7.5 351.5t-6.5 315.5 h-222zM428 1225q0 56 34 93.5t89 37.5t91 -37.5t36 -93.5q0 -54 -36 -94.5t-89 -40.5q-58 0 -91.5 36.5t-33.5 98.5z" />
<glyph unicode="&#xf0;" horiz-adv-x="886" d="M59 268q0 165 114 282.5t271 117.5q134 0 238 -152q-44 218 -180 432q-142 -66 -209 -88l-60 154q60 20 175 69q-82 108 -183 215l117 119q133 -139 221 -268q34 13 75 30t65.5 27t39.5 15l58 -142q-51 -16 -156 -65q98 -157 148.5 -343t50.5 -356q0 -197 -111.5 -324.5 t-279.5 -127.5q-108 0 -200 57.5t-143 150.5t-51 197zM211 262q0 -98 67 -170t164 -72q100 0 173 76t73 176q0 97 -70.5 168.5t-166.5 71.5q-101 0 -170.5 -73.5t-69.5 -176.5z" />
<glyph unicode="&#xf1;" horiz-adv-x="1132" d="M55 844v139l101 -2q71 -1 153 9.5t97 10.5q0 -13 5 -79t5 -91v-30q46 99 145.5 167t188.5 68q108 0 172.5 -103t64.5 -280q0 -21 -37 -542l183 -13l-25 -135q-82 4 -123 4q-88 0 -194 -8q55 323 55 694q0 236 -133 236q-62 0 -135 -54t-122.5 -131t-49.5 -139 q0 -49 10 -235.5t10 -216.5q14 -2 168 -35l-33 -135q-104 28 -459 28v138l185 2q0 11 -2 113t-4 263t-2 316q0 35 2 53q-193 -12 -226 -12zM256 1163q20 89 84 151t129 62q35 0 72.5 -19t65 -41.5t66.5 -41.5t77 -19q33 0 122 84l103 -90q-42 -53 -105.5 -91t-115.5 -38 q-37 0 -77 20t-69.5 44.5t-64 44.5t-60.5 20q-37 0 -67 -40t-41 -95z" />
<glyph unicode="&#xf2;" horiz-adv-x="989" d="M66 428q0 219 131.5 360.5t349.5 141.5q180 0 281.5 -133.5t101.5 -358.5q0 -221 -114.5 -350t-309.5 -129q-202 0 -321 129t-119 340zM201 422q0 -138 81 -232t212 -94q151 0 231 94.5t80 260.5q0 156 -78 246.5t-209 90.5q-140 0 -228.5 -104t-88.5 -262zM252 1343 l133 105q80 -133 139 -217t135 -160l-88 -82q-96 86 -167 164.5t-152 189.5z" />
<glyph unicode="&#xf3;" horiz-adv-x="989" d="M66 428q0 219 131.5 360.5t349.5 141.5q180 0 281.5 -133.5t101.5 -358.5q0 -221 -114.5 -350t-309.5 -129q-202 0 -321 129t-119 340zM201 422q0 -138 81 -232t212 -94q151 0 231 94.5t80 260.5q0 156 -78 246.5t-209 90.5q-140 0 -228.5 -104t-88.5 -262zM383 1081 q76 76 135 160t139 217l134 -104q-81 -111 -152.5 -190t-167.5 -165z" />
<glyph unicode="&#xf4;" horiz-adv-x="989" d="M66 428q0 219 131.5 360.5t349.5 141.5q180 0 281.5 -133.5t101.5 -358.5q0 -221 -114.5 -350t-309.5 -129q-202 0 -321 129t-119 340zM180 1059q85 84 147 160.5t128 183.5h123q66 -107 127 -183.5t145 -160.5l-88 -78q-130 111 -246 248q-111 -131 -248 -248zM201 422 q0 -138 81 -232t212 -94q151 0 231 94.5t80 260.5q0 156 -78 246.5t-209 90.5q-140 0 -228.5 -104t-88.5 -262z" />
<glyph unicode="&#xf5;" horiz-adv-x="989" d="M66 428q0 219 131.5 360.5t349.5 141.5q180 0 281.5 -133.5t101.5 -358.5q0 -221 -114.5 -350t-309.5 -129q-202 0 -321 129t-119 340zM174 1102q20 89 84 151t129 62q35 0 72.5 -19t65 -41.5t66.5 -41.5t77 -19q34 0 123 84l102 -90q-42 -53 -105.5 -91t-115.5 -38 q-37 0 -77 20t-69.5 44.5t-64 44.5t-60.5 20q-37 0 -67 -40t-41 -95zM201 422q0 -138 81 -232t212 -94q151 0 231 94.5t80 260.5q0 156 -78 246.5t-209 90.5q-140 0 -228.5 -104t-88.5 -262z" />
<glyph unicode="&#xf6;" horiz-adv-x="989" d="M66 428q0 219 131.5 360.5t349.5 141.5q180 0 281.5 -133.5t101.5 -358.5q0 -221 -114.5 -350t-309.5 -129q-202 0 -321 129t-119 340zM201 422q0 -138 81 -232t212 -94q151 0 231 94.5t80 260.5q0 156 -78 246.5t-209 90.5q-140 0 -228.5 -104t-88.5 -262zM227 1182 q0 56 34 93.5t89 37.5t91 -37.5t36 -93.5q0 -54 -36 -94.5t-89 -40.5q-58 0 -91.5 36.5t-33.5 98.5zM602 1182q0 56 34 93.5t89 37.5t91 -37.5t36 -93.5q0 -54 -36 -94.5t-89 -40.5q-58 0 -91.5 36.5t-33.5 98.5z" />
<glyph unicode="&#xf7;" horiz-adv-x="946" d="M102 571l13 144h747v-144h-760zM330 268q0 69 40.5 112.5t108.5 43.5q66 0 108 -44t42 -112q0 -65 -42.5 -114.5t-105.5 -49.5q-70 0 -110.5 44.5t-40.5 119.5zM354 1032q0 69 41 112.5t109 43.5q66 0 107.5 -44t41.5 -112q0 -65 -42 -114.5t-105 -49.5q-70 0 -111 44.5 t-41 119.5z" />
<glyph unicode="&#xf8;" d="M49 428q0 223 131.5 362.5t349.5 139.5q114 0 197 -53q8 9 40 51.5t36 48.5l112 -51q-14 -16 -53 -67.5t-47 -67.5q52 -64 75 -166t23 -187q0 -220 -115 -349.5t-311 -129.5q-134 0 -225 49l-112 -119l-82 64q13 11 56 62.5t52 60.5q-127 147 -127 352zM184 422 q0 -136 82 -240q69 94 217 321t162 247q-62 38 -143 38q-142 0 -230 -102.5t-88 -263.5zM362 117q58 -21 115 -21q144 0 226.5 93.5t82.5 261.5q0 126 -57 217q-233 -384 -367 -551z" />
<glyph unicode="&#xf9;" horiz-adv-x="1091" d="M25 936q8 2 18 2h63q29 0 167 -4t169 -4v-154h-118q0 -10 -3.5 -97t-3.5 -167v-193q0 -92 60 -149t153 -57q185 0 185 399q0 24 -5 134t-5 134l-119 8l10 156q208 -26 424 -26v-152h-135q-23 0 -25 2q-2 -4 -2 -41v-276q0 -11 -4 -53.5t-4 -78.5v-92q0 -54 25 -97.5 t53 -43.5q41 0 71 80l119 -25q-22 -99 -74 -154t-122 -55q-74 0 -119 61t-45 150q-18 -88 -86.5 -136t-167.5 -48q-148 0 -242 92t-92 234l2 501l-16 2q-24 0 -123 -6zM274 1382l134 105q80 -133 139 -217t135 -160l-88 -82q-97 86 -168.5 164.5t-151.5 189.5z" />
<glyph unicode="&#xfa;" horiz-adv-x="1091" d="M25 936q8 2 18 2h63q29 0 167 -4t169 -4v-154h-118q0 -10 -3.5 -97t-3.5 -167v-193q0 -92 60 -149t153 -57q185 0 185 399q0 24 -5 134t-5 134l-119 8l10 156q208 -26 424 -26v-152h-135q-23 0 -25 2q-2 -4 -2 -41v-276q0 -11 -4 -53.5t-4 -78.5v-92q0 -54 25 -97.5 t53 -43.5q41 0 71 80l119 -25q-22 -99 -74 -154t-122 -55q-74 0 -119 61t-45 150q-18 -88 -86.5 -136t-167.5 -48q-148 0 -242 92t-92 234l2 501l-16 2q-24 0 -123 -6zM426 1096q76 76 135 160t139 217l134 -105q-80 -111 -151.5 -189.5t-168.5 -164.5z" />
<glyph unicode="&#xfb;" horiz-adv-x="1091" d="M25 936q8 2 18 2h63q29 0 167 -4t169 -4v-154h-118q0 -10 -3.5 -97t-3.5 -167v-193q0 -92 60 -149t153 -57q185 0 185 399q0 24 -5 134t-5 134l-119 8l10 156q208 -26 424 -26v-152h-135q-23 0 -25 2q-2 -4 -2 -41v-276q0 -11 -4 -53.5t-4 -78.5v-92q0 -54 25 -97.5 t53 -43.5q41 0 71 80l119 -25q-22 -99 -74 -154t-122 -55q-74 0 -119 61t-45 150q-18 -88 -86.5 -136t-167.5 -48q-148 0 -242 92t-92 234l2 501l-16 2q-24 0 -123 -6zM188 1106q85 84 147 160.5t128 183.5h123q66 -107 127 -183.5t145 -160.5l-88 -78q-130 111 -246 248 q-111 -131 -248 -248z" />
<glyph unicode="&#xfc;" horiz-adv-x="1091" d="M25 936q8 2 18 2h63q29 0 167 -4t169 -4v-154h-118q0 -10 -3.5 -97t-3.5 -167v-193q0 -92 60 -149t153 -57q185 0 185 399q0 24 -5 134t-5 134l-119 8l10 156q208 -26 424 -26v-152h-135q-23 0 -25 2q-2 -4 -2 -41v-276q0 -11 -4 -53.5t-4 -78.5v-92q0 -54 25 -97.5 t53 -43.5q41 0 71 80l119 -25q-22 -99 -74 -154t-122 -55q-74 0 -119 61t-45 150q-18 -88 -86.5 -136t-167.5 -48q-148 0 -242 92t-92 234l2 501l-16 2q-24 0 -123 -6zM233 1225q0 56 34 93.5t89 37.5t91 -37.5t36 -93.5q0 -54 -36 -94.5t-89 -40.5q-58 0 -91.5 36.5 t-33.5 98.5zM608 1225q0 56 34 93.5t89 37.5t91 -37.5t36 -93.5q0 -54 -36 -94.5t-89 -40.5q-58 0 -91.5 36.5t-33.5 98.5z" />
<glyph unicode="&#xfd;" horiz-adv-x="1089" d="M2 965q125 15 510 26l6 -155q-13 0 -37 1t-35 1q-36 0 -102 -4q34 -95 135.5 -313t155.5 -316q143 280 203 538l-146 7v153q44 0 258.5 -5t263.5 -5v-154l-213 2q-195 -491 -290 -657q-127 -224 -244.5 -333t-235.5 -109q-65 0 -107 45t-42 110q0 69 42.5 113.5 t108.5 44.5q56 0 91.5 -30.5t35.5 -80.5q0 -16 -2 -22q146 99 203 254q-180 318 -383 751q-19 -1 -74.5 -6.5t-85.5 -7.5zM563 1047q77 77 137 161.5t138 214.5l133 -104q-80 -111 -151.5 -189.5t-168.5 -164.5z" />
<glyph unicode="&#xfe;" horiz-adv-x="1058" d="M94 -207h135q0 30 -1 87.5t-1 84.5q0 930 82 1245q-2 -2 -18 -2h-21q-45 0 -161 29l32 149q102 -30 232 -30q37 0 119 4q-28 -148 -97 -651q127 157 269 157q97 0 178.5 -75t126.5 -194.5t45 -252.5q0 -123 -50 -226.5t-140 -165t-199 -61.5q-99 0 -168 52.5t-88 144.5 v-164h-2v-268h-273v137zM379 422q0 -385 194 -385q146 0 223.5 93t77.5 267q0 135 -70 228.5t-181 93.5q-135 0 -189.5 -67t-54.5 -230z" />
<glyph unicode="&#xff;" horiz-adv-x="1089" d="M2 965q125 15 510 26l6 -155q-13 0 -37 1t-35 1q-36 0 -102 -4q34 -95 135.5 -313t155.5 -316q143 280 203 538l-146 7v153q44 0 258.5 -5t263.5 -5v-154l-213 2q-195 -491 -290 -657q-127 -224 -244.5 -333t-235.5 -109q-65 0 -107 45t-42 110q0 69 42.5 113.5 t108.5 44.5q56 0 91.5 -30.5t35.5 -80.5q0 -16 -2 -22q146 99 203 254q-180 318 -383 751q-19 -1 -74.5 -6.5t-85.5 -7.5zM334 1225q0 56 34 93.5t89 37.5t91 -37.5t36 -93.5q0 -54 -36 -94.5t-89 -40.5q-58 0 -91.5 36.5t-33.5 98.5zM709 1225q0 56 33.5 93.5t88.5 37.5 t91 -37.5t36 -93.5q0 -54 -35.5 -94.5t-88.5 -40.5q-58 0 -91.5 36.5t-33.5 98.5z" />
<glyph unicode="&#x152;" horiz-adv-x="2007" d="M86 549q0 264 154 555q182 344 422 344q216 0 389 -330l-2 176h-41v154h180q298 0 762 -27q-78 -141 -78 -411h-148q0 14 -1 44.5t-1 47.5q0 93 13 182q-27 0 -225 6t-253 6h-51v-452l252 10q-5 30 -41 152l146 49q65 -195 65 -316q0 -60 -29 -258l-137 23q6 52 6 207 q-48 -7 -260 -21l2 -518q154 -5 537 -49q33 197 33 276h145q0 -37 -20.5 -216.5t-20.5 -223.5q-379 48 -546 56q-87 5 -167 5q-73 0 -110 -2q12 40 12 99q0 14 -2 55.5t-2 52.5q-253 -397 -530 -397q-135 0 -240 99.5t-159 262.5t-54 359zM238 489q0 -136 35.5 -245.5 t110.5 -177.5t179 -68q112 0 220.5 77.5t176.5 199.5t68 245q0 209 -48 380.5t-138.5 273.5t-206.5 102q-115 0 -207.5 -113t-141 -292t-48.5 -382z" />
<glyph unicode="&#x153;" horiz-adv-x="1316" d="M43 465q0 59 15 124t44 125.5t68.5 109.5t92.5 78.5t110 29.5q200 0 266 -154q57 90 146 149.5t184 59.5q47 0 87.5 -25t69.5 -65t56 -104t46 -126.5t40 -148.5q-73 0 -301.5 -9t-245.5 -9q4 -94 37.5 -186.5t86.5 -152t109 -59.5q106 0 179 228l147 -47 q-43 -139 -85.5 -211.5t-89.5 -97.5t-122 -25q-117 0 -211 85t-154 236q-105 -266 -272 -266q-82 0 -152.5 65.5t-110.5 171.5t-40 224zM182 465q0 -84 14.5 -152.5t50 -115.5t87.5 -47q89 0 154 122t65 285q0 126 -41.5 182t-138.5 56q-40 0 -86 -60.5t-75.5 -138.5 t-29.5 -131zM739 653l320 6q-41 189 -90 189q-168 0 -230 -195z" />
<glyph unicode="&#x178;" horiz-adv-x="1404" d="M25 1239v152q381 0 542 34l27 -145q-125 -23 -191 -29q34 -41 161 -234t163 -235q113 191 272 514q-68 4 -208 31l28 152q155 -35 266 -35q93 0 283 45l37 -143q-82 -26 -236 -54q-20 -40 -186 -323q-119 -180 -161 -321.5t-42 -334.5q0 -103 8 -207q0 3 25 3h25 q50 0 188 -23l-27 -141q-68 14 -137 14q-42 0 -212 -14.5t-206 -14.5v152q124 0 191 6q-12 172 -12 238q0 164 26 327q-242 396 -440 594zM391 1667q0 56 34 93.5t89 37.5t91 -37.5t36 -93.5q0 -54 -36 -94.5t-89 -40.5q-58 0 -91.5 36.5t-33.5 98.5zM766 1667q0 56 34 93.5 t89 37.5t91 -37.5t36 -93.5q0 -54 -36 -94.5t-89 -40.5q-58 0 -91.5 36.5t-33.5 98.5z" />
<glyph unicode="&#x2c6;" horiz-adv-x="788" d="M59 1145q85 84 147 160.5t128 183.5h123q66 -107 127 -183.5t145 -160.5l-88 -78q-130 111 -246 248q-111 -131 -248 -248z" />
<glyph unicode="&#x2dc;" horiz-adv-x="849" d="M66 1163q20 89 84 151t129 62q35 0 72.5 -19t65 -41.5t66 -41.5t76.5 -19q34 0 123 84l102 -90q-42 -53 -105.5 -91t-115.5 -38q-37 0 -77 20t-69 44.5t-63.5 44.5t-60.5 20q-37 0 -67.5 -40t-41.5 -95z" />
<glyph unicode="&#x2000;" horiz-adv-x="976" />
<glyph unicode="&#x2001;" horiz-adv-x="1952" />
<glyph unicode="&#x2002;" horiz-adv-x="976" />
<glyph unicode="&#x2003;" horiz-adv-x="1952" />
<glyph unicode="&#x2004;" horiz-adv-x="650" />
<glyph unicode="&#x2005;" horiz-adv-x="488" />
<glyph unicode="&#x2006;" horiz-adv-x="325" />
<glyph unicode="&#x2007;" horiz-adv-x="325" />
<glyph unicode="&#x2008;" horiz-adv-x="244" />
<glyph unicode="&#x2009;" horiz-adv-x="390" />
<glyph unicode="&#x200a;" horiz-adv-x="108" />
<glyph unicode="&#x2010;" horiz-adv-x="579" d="M35 612v156h215q15 0 45 2t43 2h211v-139q-47 0 -256.5 -10.5t-257.5 -10.5z" />
<glyph unicode="&#x2011;" horiz-adv-x="579" d="M35 612v156h215q15 0 45 2t43 2h211v-139q-47 0 -256.5 -10.5t-257.5 -10.5z" />
<glyph unicode="&#x2012;" horiz-adv-x="579" d="M35 612v156h215q15 0 45 2t43 2h211v-139q-47 0 -256.5 -10.5t-257.5 -10.5z" />
<glyph unicode="&#x2013;" horiz-adv-x="929" d="M35 610v152h198q15 0 41 3t39 3h580v-137q-43 0 -428.5 -10.5t-429.5 -10.5z" />
<glyph unicode="&#x2014;" horiz-adv-x="1341" d="M29 627v141h420q28 0 86 2t83 2h703v-127q-78 0 -636.5 -9t-655.5 -9z" />
<glyph unicode="&#x2018;" horiz-adv-x="395" d="M45 1202q0 210 266 324l29 -92q-79 -9 -133 -84q139 -21 139 -144q0 -74 -41.5 -123t-109.5 -49q-71 0 -110.5 46t-39.5 122z" />
<glyph unicode="&#x2019;" horiz-adv-x="376" d="M37 1335q0 72 42 122t109 50q70 0 111 -46t41 -122q0 -208 -270 -325l-29 94q82 9 133 84q-137 18 -137 143z" />
<glyph unicode="&#x201a;" horiz-adv-x="382" d="M47 98q0 70 42.5 120t107.5 50q73 0 112 -45.5t39 -120.5q0 -208 -266 -325l-29 96q80 6 133 80q-139 18 -139 145z" />
<glyph unicode="&#x201c;" horiz-adv-x="788" d="M45 1202q0 210 266 324l29 -92q-79 -9 -133 -84q139 -21 139 -144q0 -74 -41.5 -123t-109.5 -49q-71 0 -110.5 46t-39.5 122zM440 1202q0 210 267 324l28 -92q-79 -9 -133 -84q139 -21 139 -144q0 -74 -41.5 -123t-109.5 -49q-71 0 -110.5 46t-39.5 122z" />
<glyph unicode="&#x201d;" horiz-adv-x="753" d="M37 1335q0 72 42 122t109 50q70 0 111 -46t41 -122q0 -208 -270 -325l-29 94q82 9 133 84q-137 18 -137 143zM414 1335q0 72 42 122t109 50q70 0 111 -46t41 -122q0 -208 -271 -325l-28 94q82 9 133 84q-137 18 -137 143z" />
<glyph unicode="&#x201e;" horiz-adv-x="768" d="M47 98q0 70 42.5 120t107.5 50q73 0 112 -45.5t39 -120.5q0 -208 -266 -325l-29 96q80 6 133 80q-139 18 -139 145zM430 98q0 70 42.5 120t107.5 50q73 0 112 -45.5t39 -120.5q0 -208 -266 -325l-29 96q80 6 133 80q-139 18 -139 145z" />
<glyph unicode="&#x2022;" horiz-adv-x="768" d="M68 649q0 95 40.5 180t115 138t163.5 53q132 0 226 -111t94 -260q0 -155 -93.5 -262.5t-226.5 -107.5q-89 0 -163.5 53t-115 137.5t-40.5 179.5z" />
<glyph unicode="&#x2026;" horiz-adv-x="1656" d="M100 113q0 68 41 111.5t109 43.5q66 0 107.5 -43.5t41.5 -111.5q0 -65 -42 -114.5t-105 -49.5q-70 0 -111 44.5t-41 119.5zM684 80q0 69 41 112.5t109 43.5q66 0 107.5 -44t41.5 -112q0 -65 -42 -114.5t-105 -49.5q-70 0 -111 44.5t-41 119.5zM1245 121q0 68 41 111.5 t109 43.5q66 0 107.5 -43.5t41.5 -111.5q0 -65 -42 -114.5t-105 -49.5q-70 0 -111 44.5t-41 119.5z" />
<glyph unicode="&#x202f;" horiz-adv-x="390" />
<glyph unicode="&#x2039;" horiz-adv-x="661" d="M25 575l503 373l93 -131q-185 -145 -383 -235q156 -80 337 -232l-100 -117z" />
<glyph unicode="&#x203a;" horiz-adv-x="630" d="M43 352q75 61 176 129t166 101q-145 67 -332 198l94 129l451 -334l-471 -358z" />
<glyph unicode="&#x205f;" horiz-adv-x="488" />
<glyph unicode="&#x20ac;" horiz-adv-x="1234" d="M18 373l39 153h101v19q0 40 10 125h-145l36 155h136q52 248 189.5 404.5t315.5 156.5q107 0 281 -67l35 106l141 -6q-11 -29 -33 -89t-33.5 -91.5t-24 -74t-17.5 -72.5l-134 -13q1 10 2.5 18.5t2.5 12.5t1.5 7t0.5 5q0 53 -58.5 82t-120.5 29q-136 0 -251.5 -109 t-174.5 -299h615l-70 -155h-573q-4 -54 -4 -68q0 -42 6 -76h508l-70 -153h-397q151 -340 426 -340q196 0 372 176l95 -113q-211 -217 -387 -217q-516 0 -660 494h-160z" />
<glyph unicode="&#x2122;" horiz-adv-x="1691" d="M70 1049q12 83 12 262q19 2 278 14.5t342 24.5v-320h-108v197q-57 0 -174 -6q0 -242 22 -555q29 2 111 2v-107h-94q-32 0 -76 -1t-55 -1q-35 0 -125 4l24 113q78 -7 105 -8q-25 383 -25 553l-117 -7q0 -10 1.5 -31.5t1.5 -31.5q0 -22 -9 -119zM811 530v109q52 0 131 10 q-10 328 -10 350q0 79 8 201q-10 -2 -29 -2q-32 0 -54 1t-31.5 2t-10.5 1v113h240q10 -40 28.5 -97.5t32 -97t48.5 -137t50 -141.5q11 32 53.5 139.5t68 190t26.5 139.5l270 -27l-12 -113q-98 11 -152 21l2 -549q37 6 136 6h34l27 -108q-13 -3 -143.5 -13.5t-163.5 -19.5 l10 481q-26 -62 -81 -232t-66 -198l-62 -2q-14 94 -117 449q0 -41 2.5 -196.5t2.5 -266.5q-22 0 -120 -6.5t-118 -6.5z" />
<glyph unicode="&#xfb01;" horiz-adv-x="1378" d="M61 94l187 17l-17 600h-133v153l129 -2q-8 55 -8 113q0 446 373 446q190 0 190 -164q0 -66 -40.5 -109.5t-104.5 -43.5q-61 0 -104.5 39.5t-43.5 95.5q0 38 15 59q-69 -10 -107.5 -97.5t-38.5 -209.5q0 -77 13 -131q132 -6 192 -6q13 0 28 1t17 1v-139h-168q-39 0 -59 -4 l33 -602h178v-142q-352 -11 -516 -28zM768 788v136h360q0 -213 13 -785q13 0 36 1t35 1q54 0 152 -4l12 -131q-89 -3 -278.5 -17.5t-286.5 -17.5v138q139 4 193 12q-3 143 -8.5 365t-6.5 302h-221zM827 1227q0 67 42 111t108 44t108.5 -44.5t42.5 -110.5t-43 -115t-106 -49 q-69 0 -110.5 44.5t-41.5 119.5z" />
<glyph unicode="&#xfb02;" horiz-adv-x="1476" d="M61 94l187 17l-17 600h-133v153l129 -2q-8 55 -8 113q0 446 373 446q190 0 190 -164q0 -66 -40.5 -109.5t-104.5 -43.5q-61 0 -104.5 39.5t-43.5 95.5q0 38 15 59q-69 -10 -107.5 -97.5t-38.5 -209.5q0 -77 13 -131q132 -6 192 -6q13 0 28 1t17 1v-139h-168q-39 0 -59 -4 l33 -602h178v-142q-352 -11 -516 -28zM858 98q109 17 236 21q0 56 10 375.5t10 398.5q0 201 -20 358h-217v138h356q18 -175 18 -392q0 -85 -11 -441t-11 -435h211v-137q-382 0 -566 -21z" />
</font>
</defs>
</svg>
