<?xml version="1.0" standalone="no"?>
<!DOCTYPE svg PUBLIC "-//W3C//DTD SVG 1.1//EN" "http://www.w3.org/Graphics/SVG/1.1/DTD/svg11.dtd" >
<svg xmlns="http://www.w3.org/2000/svg">
<metadata>
This is a custom SVG webfont generated by Font Squirrel.
Copyright   : Digitized data copyright Intecsas 1994 All rights reserved EraserDust is a trademark of Intecsas which may be registered in certain jurisdictions
</metadata>
<defs>
<font id="EraserDustRegular" horiz-adv-x="216" >
<font-face units-per-em="1024" ascent="819" descent="-205" />
<missing-glyph horiz-adv-x="263" />
<glyph horiz-adv-x="0" />
<glyph horiz-adv-x="263" />
<glyph unicode=" "  horiz-adv-x="263" />
<glyph unicode="&#x09;" horiz-adv-x="263" />
<glyph unicode="&#xa0;" horiz-adv-x="263" />
<glyph unicode="!" horiz-adv-x="281" d="M241 639l-24 26l-5 -8l5 -15l12 -4l-11 -21l14 -2l1 -8l-12 -33q-9 0 -12.5 -2t-8.5 -5l1 -5l-7 -19l3 -6l17 18l2 -10l-29 -118l2 -10l-4 -29q0 -5 6 -17l-11 -23l13 -9l-9 -12l-11 6l-7 -8l15 -12l9 -60l-31 -21l-7 13l-4 -4l-9 15l-11 -8l3 10q0 1 -3 6l-3 1l-9 -12 q-5 30 -11 50q6 0 8 2t5 3l-4 16l8 7l-9 20l-27 -48v3l-26 25q0 -2 14 -35l-7 -3l-5 10q-3 4 -18 19l3 36l5 -1l14 13l-7 38l-10 -12l1 24l7 -5l18 3l5 9l-17 3v3l15 22l-8 10h-11l-2 13l32 85l-3 16l39 108l36 21l15 -13l8 3l2 -5l-4 -13l36 -10v6l6 7h2zM140 670l-3 7v-3 l-12 -22v-1h6zM208 593l-8 13l-7 -7l6 -6l-12 -8zM187 512l-11 10l-3 -36l11 15zM111 368h-26l-10 -3l5 -14l17 13l5 -4zM176 356l-11 2l-7 -8l1 -4zM173 282v13l-4 -5zM59 440h-5v11l5 -2v-9zM99 282l-9 8h9v-8zM166 140l-1 -53q-5 -3 -15 -7h4l8 -8l-3 -13l-20 -37l-8 9 l-16 -2q-5 4 -8 6q-2 3 -7 4l-7 -12h-1v4l-17 25l15 23l-10 16v6l12 13v19l-8 10h-24l-1 5l22 7l-4 18l24 5zM111 70v13h-1l-10 -10l1 -2zM90 66h-4l-3 -9v-4z" />
<glyph unicode="&#x22;" horiz-adv-x="317" d="M172 546l-5 -9l-9 11l-10 -18l-6 28l-3 -32l-41 -46l-4 13l-17 5l-19 -25l-19 16l54 61l-7 15l-4 -2l-30 38l-11 6l17 5l4 6l-6 11l-11 -6h-1l-1 15l13 53q7 -1 12 2q5 4 14 9l13 -17l5 2l13 -29l35 -33zM66 644v11l-7 -11h7zM102 585l-10 10l-9 -7v-9zM307 525l-6 -7 q-7 8 -12 8q-6 0 -10 -8l-3 -7l-44 -49l-3 -1l-18 19l-18 -24q-2 16 -6 14q-3 -2 -5 -2q-3 0 -8 5l54 61l-8 14l-4 -3l-35 53h2l10 -4l4 7l-7 9l-11 -5h-1l-1 16l13 53q7 -2 12 2t14 9l13 -17l5 2l13 -29l36 -33zM200 627v11l-6 -11h6zM239 567l-11 7l-10 -4v-9zM46 666 l-16 -12l2 14l8 7zM146 663l-2 -15l-5 -6l-8 7l1 5zM177 647l-14 -9l3 13h4zM279 631l-6 -7l-8 10l1 4l12 -4z" />
<glyph unicode="#" horiz-adv-x="566" d="M538 751l-7 -54l-13 3l4 -16l-15 4l6 -17l-14 -5l-20 -104l-15 12l-11 -66l36 5l18 -10l1 -6l-20 -39l6 -12l-47 -6v-2l4 -18l-4 -17l6 -20l-20 -84l34 -14q2 1 7 7t9 6l20 -15l-19 -38l6 -13l-58 -6l-34 -76l-19 -53l8 -21l-17 -42l-20 -65l-19 -21l-26 17l-33 -17l-1 4 l9 23l-5 5l26 101l-1 8l42 133l-17 9l-53 -7l-17 6l-21 -7v2l-7 5l-29 -20l15 -5l-33 -11l5 -32l-44 -186l-19 -21l-26 17l-33 -17l-1 4l9 24l-5 4l26 101l-22 -26l26 52l26 83l-1 4l-52 -3l-77 8l20 16l-5 21l27 16l-16 23l7 3q0 -10 6 -10.5t7 -0.5l44 30l37 -34l18 27 l-13 15v1l8 19l5 50l16 38l-5 9l-77 -16l-56 2v22l-3 21l25 16l-7 14l52 35l40 -39l18 27l25 -13l19 72l-10 -8l19 46l14 9l-4 30l12 -2l-2 22l18 6l-11 23l32 73l10 -15l28 42h2l18 -9l7 4l12 -33l-44 -124l-19 -30l-24 -93l5 -11l12 9l54 -4l9 -1l33 13l31 -11l5 78 l15 -18l2 63l9 -18l5 52l18 2l-10 23l32 75l9 -15l28 40h2l18 -7l7 3zM207 556l-13 -11l-6 -28l5 2zM120 443l-11 12l-7 -11l15 -5h2zM376 427l-10 13l-57 -2l-10 7l-28 -7l-12 6l-14 -12v1l-14 11l-27 -149l16 22l8 -14l16 5v-14l66 -3l31 -33l1 2l20 40l-17 75l7 5l15 -7 v2zM58 432l-17 12l-16 -16l7 -7zM116 230l-11 11l-7 -11l15 -6h2zM54 218l-16 12l-16 -17l19 -8zM178 211l-7 7v-12l7 4v1zM596 474l-18 -3l-21 3l-3 -15l12 -12l-39 2l-20 28l58 9l-8 17zM600 288l-17 -24l-9 -8l-18 -33l-1 -1q-6 19 -6 20v-1l-26 -12q-7 4 -13 17 q-5 14 -8 17l13 34l14 -16l11 11l17 2l-3 -11z" />
<glyph unicode="$" horiz-adv-x="435" d="M381 205l-15 -67l-60 -26l-18 -28l-12 -9l-3 33l-33 -91v-6q1 -3 16 -24l-4 -14l-21 -28l10 -15q0 -7 -2.5 -11.5t-6.5 -11.5l-49 32l14 41l-10 16l8 26l-4 43l-23 9l-17 -6l-90 58l-11 -11l-30 73l5 25l13 -20q8 19 12 25l16 -10l39 22l13 -56l-7 -8l39 -14l41 11l-4 28 l16 79l-9 -3l-47 19l-59 29l-41 57l3 23l7 -1l5 18q-2 0 -9 -5q-6 -4 -8 -4t-2 1l15 38l34 4l3 23l23 20l12 -3l46 13l-3 11l18 52l9 13l-3 24l6 13l7 1l51 -47l-21 -28l10 -15l15 5l43 -13l15 8l47 -74l-45 16l-10 -4l-15 3l-48 -13l26 -38l18 -18l-18 -12l-14 -34l-9 6 l-3 -39l26 -16l5 5l17 -9l62 -69l17 -1zM206 329l-4 67l-12 -25l6 54h-2l-39 -26l-13 5l1 -5l-13 -35l10 -18l18 3l33 -22zM252 417h-7l-5 -19l6 -8h4l-1 10zM311 206l-8 20l-44 23l-14 -48l14 -19zM225 177l-15 -3l-11 12l5 -27zM87 166v8h-7zM180 554l-14 -29l-19 20 l12 12l10 -11zM88 226l-30 4v8l11 6zM416 205l-18 -51l-11 16q8 25 7 56l10 -7z" />
<glyph unicode="%" horiz-adv-x="855" d="M608 529l-46 -67l12 -7l-27 -28l-42 -69l-16 -10l-27 -66l-21 -38l-4 16l-81 -167l-11 -8l-8 -22l-18 -7l-82 -145l-8 -3q-3 6 -2 10q2 4 3 9l-6 3l-15 -22q-5 0 -6.5 2t-3.5 5l3 15q0 1 -1 5l-33 -5l2 32l12 -8l32 60l56 68l-16 -2l74 81l-3 10l-24 -4l2 -9l-10 -20 l-18 4l1 6l42 34l6 34l17 31l19 43l6 2l11 -11l17 36l-10 9v2l145 189l-1 26l3 16l-48 56l-15 11q-7 5 -26 10l-12 -5q-19 3 -23 2l-48 -37l-5 -23l3 -8l-5 -13v-13l21 -4l-1 -8l4 -34l11 -13q5 -6 3 -14q-2 -7 -4 -19l-4 -3l-16 15l-7 -6l3 -13l-7 -8q9 -3 17 -7q1 0 5 3 l-18 -54q1 -3 -1 -16l-10 19v-2l-15 -17l-5 -26l-18 15l-7 -6l13 -18l-7 -23l-8 17l-22 -26l-10 12l-10 -35l-10 7l-24 -12l1 5l-20 14l-4 -11l-27 13l-15 -8l-44 13l-39 28h-2l-33 20l16 1l-21 24l-18 80l2 25q0 2 -1 5t-2 3q0 1 1 2q5 1 12 6l-2 15l13 24l-1 -21l14 7 l17 48l21 10l-1 8q9 12 14 13q6 1 10 2l9 -3l19 15l-3 5l10 12l-3 6q1 -1 4 -1q12 0 50 10l-1 -9q2 -3 3 -6t7 -3v26l8 -2l7 -15q6 8 22 36l17 -6l20 4l10 -2l52 29l12 1l57 -3l34 4l71 -32l5 1l45 -25l13 -25h2zM324 605v7l-17 11zM322 522l-19 7l4 6l-43 38q2 8 -8 23 l-9 2l-12 -25l-7 23l-4 1l-13 -10l4 -1l-10 -13q14 -8 15 -13l-9 -6l-12 7l-31 -26l-44 -51l1 -7l-7 -51l-6 6l-3 -21l6 -41l10 4l10 -15l-2 -6h-4l7 -18l8 13l3 -1l10 -30l7 21l10 -15l18 7h4l18 -13l32 28l9 13l2 -23l9 5v26q2 3 3 5l2 3v1q1 -5 4 -7l13 13v8l17 118z M550 591l-1 6h-5v-11zM122 526l-22 4l6 -22l4 14zM366 505l-6 17l-19 -2zM131 507l-10 7l-5 -13zM76 475l-15 14l2 -13l1 -10q0 -4 10 -23l-2 10zM95 480v4h-2zM51 454l-5 6l-4 -4l4 -9zM332 442l-6 1l-9 -14zM474 419l-15 -3v1l-15 -24h4zM323 402l-9 7l-10 -3l-5 -13z M352 396l-5 5l-10 -14zM133 608l-10 -15l-5 3v1l3 13l-5 5l2 5zM376 570l-7 -13l-1 4v1l1 4zM847 203l-4 -25l-4 -1l-16 13h-1l-3 -18l-6 -7l19 -8l3 3l-21 -70l-9 21v-1l-9 -13q-4 -7 -6 -13l-4 -18h-1l-18 14l-7 -5l14 -20l-6 -21l-9 16l-22 -25l-8 10l-13 -34l-9 7 l-22 -10l1 4l-19 13l-8 -11l-25 12l-13 -6l-46 10l-37 30l10 10l-29 6l1 6l-21 22l-19 83l1 31h4l6 5l-3 16l14 24l15 -19v3l15 50l23 9l-1 10l12 12l-1 -5l7 -5l3 10l9 -3l19 16l-2 5l9 11l-2 6l11 15l7 -24q8 16 20 30l13 -13v-8q2 -2 3 -5q2 -2 8 -2v25l8 -3v-3l20 -34 l2 10l-8 24l15 25l17 -6l8 2v-20l15 -13v2l-8 16q16 15 18 15l4 -6h-1l-4 -7l1 -11h2l13 12l-2 -8l30 -28l-5 -12h8l11 5v-4l-2 -22l2 -10l-5 -11l1 -16l20 -4l-1 -7l5 -33v-1l-15 2l-15 -4q3 0 28 -20h2v7h12zM711 371l-4 2v-8zM780 253q-17 6 -20 6l6 5l-22 62l-4 1 l-25 -1l-9 2l-13 -24q-2 9 -3 17q0 5 -7 6l-13 -10q1 0 1 -1q0 -4 -7 -12q14 -10 15 -14l-10 -6l-12 7l-28 -27l-43 -56l-7 -51l-8 8l-2 -19l6 -45l11 4l8 -13l-2 -5h-3l3 -19h1l11 12l3 -1l9 -29l9 20l9 -15q21 7 23 7l16 -12q8 0 20 9q13 10 18 10q4 0 8 -4l3 22l5 10 q2 5 3 5l3 -3l13 13v10l18 115zM582 262l-8 4l-8 -11v-7zM813 245l-13 19v-14l10 -6zM580 232v13l-5 -13h5zM565 226l-12 -11l4 -5zM536 205l-14 16l4 -24q0 -4 9 -20l-3 8zM513 184l-1 3l-6 3l-2 -4l3 -8zM801 162l-10 15h-8v-4zM791 135q-4 3 -20 13l16 -22l4 6v3z M810 128l-6 5l-9 -13zM587 60v1h-8l-3 -5l4 -6zM594 338l-5 -8q-11 -2 -7 11l-7 5l4 2zM843 297l-6 -24l-12 19l7 8h2zM528 271l-11 -7q-1 6 -1 7l1 16z" />
<glyph unicode="&#x26;" horiz-adv-x="504" d="M481 190l-22 -53l6 -17l-12 -22l-1 3l3 16l-5 6l-24 -35l-7 4l-21 -14q-4 -2 -16 -20l-21 3l-15 -11l-10 2l-51 -27l-25 6l-7.5 -7.5t-21.5 -7.5l5 14l-8 8l-20 -19q-6 11 -7 20q-1 4 -7 3l-14 -22q-11 5 -16 6q-4 1 -6 2l-12 33l-11 -23l-13 27l-16 -15l-2 6l8 24 q-8 11 -22 21l-3 -20l-21 28q16 -4 17 -4l4 16l-7 8l-8 -2l-22 25l-27 15l10 11h14l10 -19l5 32l-24 19l-1 5l10 14l5 38l5 -1l18 26l5 2l17 -13l3 29l20 30l1 -3l-6 -19l11 -6l32 50v-4l11 -23q9 26 13 35h-2l-22 28v2l-15 27l-10 -5l4 -14l-4 -28l-18 74l-9 -14l-3 39 l26 83l-6 6l-17 -21l-9 6l18 76l22 -15l60 72l8 -4l19 9l8 -4l51 35l-23 64l8 30l13 5l5 -3v-1l-5 -21l9 -15l6 12q3 6 21 25h18l-2 -16l10 -58l-26 -45l12 -8l14 2l10 -10l15 3l58 -48l16 -49l-21 -41l-7 13l-32 -13l-1 6l27 29l-8 4l-6 -2l-52 47l-6 -1l-23 16l-34 1 q-26 -8 -38 -19q-3 1 -8 1q-6 0 -10.5 -11t-4.5 -14q1 -2 -5 -7q-5 -5 -22 -36t-17 -55q0 -16 3 -28t14.5 -29.5t14.5 -19.5l61 -48l26 16l7 -15l15 11l42 -12l11 3l38 -36l-29 -57h-2l-16 -9l-6 1l-14 24l-12 -22l-49 26l-23 -6l-12 2q-5 0 -23.5 -5.5t-28.5 -16.5 q-31 -12 -46.5 -35t-15.5 -50q0 -33 40.5 -64t48.5 -32l31 -3q30 6 62.5 19.5t49.5 33.5l17 4l30 29l10 -12l17 45l9 -6l17 3zM152 608l-15 -5l-12 -24l10 -5l6 24zM81 226l-2 6h-3l-16 -17l8 -9h2zM165 111h-7v-20zM39 111l-14 -10l-2 36l10 -8zM371 -55l-3 -12l-60 -59 l-25 -16l1 -8l-5 -16l-28 25l9 5l-5 14l-11 -7l-2 11l15 34q7 12 7 22l-4 21q0 2 7 5q7 2 7 14l8 -3l18 16l-4 16l23 1l17 -4l12 12l19 -35zM360 -52l-2 19l-12 -18zM314 -145l-8 -20h-3v28h8z" />
<glyph unicode="'" d="M172 546l-5 -9l-9 11l-4 -14l-14 31l3 -46q-21 -18 -29 -27q-7 -8 -19 -13l-18 19l-29 -16q1 0 1.5 -1t0.5 -2q-1 0 -11 10l54 61l-7 15l-4 -2l-31 32h22l-12 21l15 6l-20 7l-11 -6h-1l-2 16l14 51h4l22 12l13 -17l5 2l13 -29l35 -33zM108 650l-10 12l-7 -8zM66 644v11 l-7 -11h7zM104 589l-3 21l-13 -2l-4 -9zM44 663l-14 -9q1 14 10 27zM154 637q-16 5 -23 12l-1 14z" />
<glyph unicode="(" horiz-adv-x="315" d="M336 649l-29 -21l18 -16l10 -41l-20 18l-10 -22l-21 11l-33 3l-29 -18l-16 8l4 -19l-43 -81l1 -8l-15 -62l3 -16l-28 -85q8 -27 18 -42l-10 -39l12 -14l4 -32l-7 -27l10 -20l40 -13l36 -30l13 6l6 -11l13 11l30 -29l14 7q4 -17 16 -48l-10 -11l-77 17l-9 -5l18 -19l-6 -1 l-41 24l-13 -9l-19 5l-14 -8l1 6l-39 14q-47 55 -59 71l3 23l-17 10l-10 25l4 35l-7 20l6 3l13 -9l3 9l-20 37l-8 23l22 -16l14 32l-8 55l2 27l5 -4l5 7l-7 17l4 7l20 -19h2l9 21l-7 39l4 15l-12 8v2l11 -1l19 13v4l-15 11l-9 -20l-4 13l36 76l-13 8l43 25l-18 11l11 4 l-3 29l18 14l15 -10l7 7v13l15 -1l11 6v20l20 -28l8 15l-2 8l12 -3l39 23l8 -8q1 -2 1 -3v-2l-2 -2h2l32 -20l7 4zM287 677l-1 2h-7l-5 -19zM250 660l-9 9v-9h9zM163 610v14l-11 5zM72 212l-4 4l-5 -8l5 -1zM59 182h-13l-2 -12l6 -7zM71 146v13h-8l5 -14zM159 45l-19 11 q2 -12 7 -25zM209 41l-14 6l-1 -3l1 -3l11 -6zM306 30l-8 5l-5 -1v-11zM59 426l-3 -6h-4v20zM41 112l-6 -25l-7 6zM74 62l-18 -6v19z" />
<glyph unicode=")" horiz-adv-x="343" d="M329 282q-11 -16 -26 -27l-16 16l-20 -12l11 -3q6 -1 17 -10l-45 -34l11 -37l-11 -13l8 -20l-9 -12l-17 3l-7 -17l-5 1l-25 -20l-4 -22l-5 -1l-18 5l-8 -9l3 -8l-5 -15l-29 -15l-43 16l-9 -1l-34 -39l-11 11l-13 -7l13 24l-16 11l14 28l-12 4l31 8l-2 13l29 -5l41 24 l-14 8l41 26l-1 11l19 -2l7 29l-11 14l42 44l1 36h-2l-8 6l6 60l12 26l-9 38l-20 45l13 11l-32 3l26 8l-17 7l-50 9l15 5q1 3 1 4q-4 5 -7 10l-8 -6l-17 21l2 8l23 3l-3 6l-16 -3l-59 21l-28 -6l-12 7l5 20l-10 70l16 8l-11 37q2 3 14 -13l8 8l13 -26l9 4l23 -7l9 6l2 -15 h-2l-3 -5q5 -2 11 -2q5 0 9 2l-9 26l6 1l19 -15v-8l15 -27h3l1 21l7 11l17 -14q10 5 13 5q7 0 9 -13l2 -24l8 -8q7 11 10 18t4 7h9l-3 -9l17 -31l-7 -12l17 -13l1 -8l-2 -21l11 -15l12 14l-4 23l-14 15l7 15l15 -14l28 -144l-6 -11l14 -25l-8 -9l-11 -41l18 -44l-4 -19l5 -8 l10 8zM51 652l-14 4l-3 -1l4 -20h5zM129 595v3l-3 3zM209 569l-6 31l-22 -11q15 -20 28 -20zM261 488l-8 24l-11 -52l19 11v17zM278 411l-10 36l-7 -27l17 -12v3zM257 266l-7 3v-13zM60 38l-9 6l-4 -1v-11zM72 694l-9 -9q-6 0 -7 2t-1 7q0 6 3 7.5t4 1.5zM327 377 q1 -12 1 -14l-5 -46h-6v34l-6 26h16zM299 204l-27 -5l-11 8l25 6h7zM300 163l-6 1l-22 -16v15l18 32l-1 -8z" />
<glyph unicode="*" horiz-adv-x="509" d="M414 486l-16 -36l5 -15l-56 -13l59 -104l-17 8l-40 -22l-17 10q-16 -6 -22 -14q0 -2 -0.5 -1.5t-2.5 6.5l-1 6l-6 18l-4 -11l-9 26l-28 -31l27 53l-30 -4l-32 -16l8 -19l-35 -14l10 -15l-16 -8l-52 37l23 66l-91 -11l-30 11l15 20l-3 26l20 20l-18 29l11 4h10l-4 -16 l13 5l24 39l31 -48l7 39l23 -4l-16 12q-5 6 -8 9t-5 10l9 28l-9 6l-13 -2l-4 9l63 33l45 -83l-5 49l54 74l12 -8l34 -43l20 10l9 -19l-10 4l-5 -8l20 -48l-57 -3l15 -19q4 -4 9 -7l15 -9l15 12h1l26 -20l2 11l11 3zM293 616q-5 10 -6 16q-1 7 -2 7t-4 -1l-12 -15l11 -12z M278 564l-10 10l-12 -8l13 -4zM155 419l-17 2l-9 14l-4 -13l10 -6zM193 430l-20 -23l15 7zM344 404l-31 20h-5v-2l27 -19zM90 408l-13 14l-15 -16l14 3l5 -18zM358 375l-15 7l-6 10l-13 -16v-1h34zM266 379l-13 8l-3 -6zM175 631q-6 -12 -7 -13q-3 0 -11 -12l-24 19l-15 -15 l-1 7q6 11 8 18q3 7 11 12l9 -3l5 -15h2l20 9zM470 455h-17l-17 4l-3 -18l23 -11l-28 4l-11 15l3 4l-7 11l28 11l-5 20zM501 474l-15 -14l-6 15h12l7 7l1 -1zM174 269l-19 -9l-15 3l-7 11l11 13l-19 15l9 7h10l16 -5l-6 -20l2 -11zM142 234l-13 -19l-7 27z" />
<glyph unicode="+" horiz-adv-x="509" d="M288 525l-24 -6l-5 4l-12 -7l-10 29l-20 -6l27 21l12 -5l-3 -16l21 -2h2zM418 387l-15 -37l6 -14l-108 -20l13 -10h29q-6 -11 -28 -35l16 -66l-13 -62l-20 16l-25 -2l-20 19l-22 -21l-13 2l2 12h1q5 0 7.5 1.5t5.5 3.5l-2 5l-36 35l44 31l-34 13l17 20l-14 16l-9 -18 l-26 20l-65 -14l-64 12l16 20l-3 26l20 19l-19 25q12 9 22 13q0 -3 -4 -7q-3 -4 -3 -6q0 -3 3 -6q12 4 15 10q8 13 24 30l29 -45l16 35l18 -18l22 18l-6 7q2 7 16 34l-12 12v1l21 28l-16 9v2l19 16l38 -15l15 5l20 -103l4 -9l17 24q6 -2 35 -20l12 16h1l27 -18l8 11l4 1z M143 322l-9 14l-4 -12l10 -8h2zM183 325l-14 5l-8 -28zM94 308l-12 16l-14 -18l18 -14zM200 290q-8 10 -13 18v-14zM322 297l-18 -11h14zM311 258l-22 24l-16 -12zM297 240v1l-6 1l-15 -10l13 -5zM322 183l-18 10l-15 -14l17 -14zM511 382l-8 -10v2l-17 22l24 -14h1z M463 369l-5 -13l-18 3l-2 -18l17 -18l-19 10q-3 2 -14 16l3 4l-8 12l29 11l-6 19z" />
<glyph unicode="," d="M172 -3l-5 -8l-9 10l-11 -24l4 34l-14 -31q-9 -26 -15.5 -33.5t-26.5 -14.5l-18 21l-18 -26l-3 3l20 38l-13 -2l-5 -15q-3 -11 -5 -10q-1 0 -7 -1l-6 6l53 59l-7 15l-4 -3l-29 41q-3 6 -6 9q-2 3 1 4l10 -6l4 9l-6 8l-26 3l12 8q14 53 19 52l21 13l13 -19l5 2l13 -28 l35 -33zM103 114h-5l-7 -8v-1zM66 97v12l-15 -14zM87 37v2h-4v-8zM48 129l-18 -24l2 15h4zM155 93l-16 1l-8 7q1 4 15 22q9 -17 9 -30z" />
<glyph unicode="-" horiz-adv-x="509" d="M399 251l-14 -37l5 -14l-115 -22l-8 9l-21 -7l-10 7l-18 -9l1 1l-5 8l-24 -25q0 -7 -2.5 -11t-7.5 -11q-2 1 -8 6t-16 14l-66 -15l-63 13l16 20l-3 26l19 19l-8 6q-4 2 -11 16q0 -2 1 -2t5 2t6 2q3 0 5 -4q13 3 17 10q7 14 20 32l33 -48l15 34l19 -17l29 25l4 -11l32 17 l13 -23l6 -1l27 18l3 -11l6 -1l17 16l35 -17l12 10v3h1l26 -24l10 13v3l4 1zM162 182l-37 4l-9 14l-4 -13l10 -7zM76 173l-13 14l-14 -16l19 -15zM193 174l-24 -2v-14q1 1 12 7t12 9zM473 257l-11 -18h-11q-1 12 -5 31l11 -11zM500 246l-7 -20l-9 10l-21 -10l23 38l6 -18h8z M445 228l-6 -8l-17 3q-1 -25 -7 -24q-13 14 -17 29l30 12l-6 19z" />
<glyph unicode="." d="M172 14l-5 -9l-9 11l-13 -2l-20 12l34 9l-20 -1l-45 7l-12 -7l-29 41l-19 4l14 8l10 -5l16 6l-12 1l-6 9l-17 2v15l17 47l3 -15l23 25l13 -16l5 2l13 -30l35 -33zM66 114v12l-7 -12h7zM100 55l-13 2h-4v-10zM47 133l-17 -9l2 13l9 8zM156 134q-13 -18 -17 -21l-8 7l-3 14 l11 3z" />
<glyph unicode="/" horiz-adv-x="566" d="M561 725l-29 -29l12 -11l-57 -88l-22 -9l-47 -81l-11 7l-12 -33l-14 -8l20 57l-97 -178l-13 -37l-21 -23l-2 -26l-21 -8l1 -7l-34 -21l-30 -64l-42 -73l-16 -5l-13 -40l-32 -29l-6 -16l-7 -2l-3 5l3 14l-8 5l-16 -24h-6l-6 7l3 18l-1 4l-36 -5l-1 2l17 22l-3 4l59 86 l24 43l82 84l-3 12l-36 -34l-1 -8q-1 -3 -15 -20l-12 1l2 16l35 46h13l9 11l-10 3l14 32l-9 -6l43 49l13 35l13 -11l19 38l-11 9v3l55 68l5 13l25 26l-1 11l77 81l1 8l-4 18l55 58l8 -17l37 28l20 -14l4 1l32 19zM323 532l-13 -10l-2 -12l14 5z" />
<glyph unicode="0" horiz-adv-x="596" d="M572 354l-23 -11v-10l-42 -108l-21 20l1 -11l-76 -61l-1 40l-8 -39l-27 -38l-19 20l-19 -35l-18 35l-6 -44l-17 -21q-9 0 -27 9l-53 -28l-46 22l-11 -2l-11 -10l-21 12l-12 -3l-28 32l-12 -12h-8l3 12l-36 28q-19 82 -19 130q0 23 3.5 52t6.5 35t23 34q20 29 27 56 q15 57 50 115l11 -24l9 11l-3 22l4 11l13 2l65 57l7 -11q3 14 16 31l8 -22l25 10l33 -38l6 6l-2 8l2 5l56 -39l8 -3l18 18l20 -33l22 11l17 -41l-13 -2l4 -11l-12 -21l6 -1l24 9l14 -12l20 5l9 10l12 -53l-3 -14l11 -11l17 11l14 -49l-11 -24l10 -32l8 3zM339 269l36 39 q13 23 24 51.5t11 45.5q0 26 -17 52l-27 41q0 2 1 4q2 2 2 3q0 4 -22 23.5t-43 31.5l-16 -5l-39 -66l-12 7l8 -33l-8 -14l-35 15l3 -21l-21 -6l19 -31l-1 -8l-29 -73l-10 -15l3 -23l-10 -17h3l8 -31l-8 -46l10 -3q4 -2 22 -17l73 35l68 62zM437 466l-13 -3l1 -14l10 -12z M417 291v50l-7 -26l4 -24h3zM144 232l-13 48q1 -9 -1 -14q-11 -22 -11 -29l2 -10zM337 208v9h-2l-10 -9h12zM496 559l-4 -22h-9v36z" />
<glyph unicode="1" horiz-adv-x="286" d="M232 681l-25 -177l8 -20l-11 -35q-1 -18 0 -49q2 -30 -7 -58q-8 -28 -8 -54q0 -11 3 -31t3 -34q0 -11 -5 -23l-13 -37l8 -25l-25 -151h-25l-6 24l-4 -27l-40 16l9 15l-37 -4l-6 15l6 22l6 96l-5 13q5 14 13 21l-8 16l35 48q-8 11 -28 30q-1 -6 17 -32l-4 -13l-30 14l2 47 l22 29l-5 17l-12 7l8 17q-17 35 -17 57q0 31 26 60q-1 4 -1 24q0 30 25 85l-19 28l17 51q4 17 15 17l19 -2q11 0 18 17l32 -17l5 1l25 21zM120 468l-7 25l-9 -15l12 -14zM86 392l-24 15l-5 -4l11 -11l15 -3z" />
<glyph unicode="2" horiz-adv-x="574" d="M548 62l-112 -39l-18 4l-321 -65h-36l-23 4q20 69 106 150l-2 9l23 37l71 64l75 127q9 52 21 77t12 43q0 7 -3 17q-2 11 -2 18q0 17 19 46l-22 23l4 9l-44 29l-16 -7l-65 -71l-28 -61l3 -16l-76 -20l-22 3l-39 29l73 96l64 66l96 28l93 -11l47 -36l17 7l12 -25 q0 -5 -9 -23l13 -27l26 12h3l9 -17l-9 -37l-26 -13l10 -22l-1 -8l-28 3l12 -62l-5 -22l-7 1l-35 -16l41 -18v-3l-59 -45l-18 -9l32 -19l2 -4l-12 -13l-34 -14l12 -25l-26 -43l-43 -20l3 -14l-20 -5l14 -17l-11 -35l4 -9l83 14l-26 8l63 34l14 -1l92 38h19l-4 -12l9 -41 l-23 -15l-18 6l-8 -6zM291 109q-7 6 -23 10l14 -27l1 12zM208 67q-7 6 -23 10l14 -27l1 12z" />
<glyph unicode="3" horiz-adv-x="579" d="M553 567l-4 -15l-33 -69l-40 -46l-4 -35q-6 -9 -8 -15q-2 -5 -7 -5q-4 3 -8 5q-3 2 -2 5l16 35l-2 8l-34 -49l3 -11l42 -26l15 7l24 -31l30 -19l-9 -6l-5 -13l13 -30l-17 -11l-4 -25l-12 34h-10v-21l19 -65l-52 -66l-26 -28l-13 9l-19 -3l-12 -36l-12 23l-6 -12l3 -19 l-26 -19l-26 24l19 -4l-22 19l-37 -57l-18 16q-3 2 -27 -14l-14 6l-25 26l2 -19l-28 30l-16 -33l-8 22l5 34l-26 20l-7 -10l7 -24l-8 -12l-55 74v2l-19 34l-15 -9l-5 8l8 21l-4 9l50 70l19 -5l29 -100l142 -65l75 62l30 135q-7 7 -10 12t-11 5l-41 -28l-13 6l-36 -35l-15 -5 l-38 22l-25 -21l-3 24l-13 2l-6 11l6 23l52 20l22 40l65 61l3 1l22 -5l7 23l24 39l-4 13l11 10l18 -21l10 35l17 30v12l-18 3l-12 -14l4 27l23 61l-3 13l-14 -10l-39 14l-28 -6l-168 -88l2 -7l-21 -13v-9l-41 -41l-34 11l-9 -10l-10 42l10 72l19 4l10 -22l-3 -31l3 -5l20 12 q-5 10 -9 15t-4 7q0 1 1 8l8 -2l2 2l-11 23l36 19h12l13 -11l5 1l12 46h2l20 -17l33 27l-10 8l11 6h9l20 -17l6 13l-4 18l10 11q-1 -6 2 -10q4 -4 8 -11l4 1l17 -16l8 7l3 36l24 -7h5l8 16l21 -19l28 3l85 -46l14 3l44 -52l-1 -9zM447 592l-17 1l5 -19zM458 544l-11 -7 l5 -12zM95 519l-26 18v-5l6 -16h12zM504 489v11l-4 3l-13 -10l7 -7zM462 462l-12 5l2 -23zM424 362l-13 7h-9l4 -24zM377 326l-12 -7l4 -6zM424 301l-9 22h-6l-5 -20l2 -8zM481 281l-15 19h-1l-4 -9zM421 276q-3 1 -16 -1q-12 -2 -13 -2l14 -6q-2 -4 -2 -5l2 -7l4 -1 q12 17 11 22zM451 248l-9 -8l-3 15q-4 -13 -9 -34l13 6zM85 152l-6 6l-8 -10l1 -5l7 -1q4 4 6 10zM39 544h-13v13l9 1q4 -3 4 -6v-8zM169 285l-22 -17l-3 6l11 20z" />
<glyph unicode="4" horiz-adv-x="591" d="M564 368l-30 -37l-12 6l-19 -12l-9 27l-45 -47l-17 8l10 -57l-10 -40l4 -32l-4 -91l-8 -70l-30 -23l-14 15l-19 -11l-8 7l17 20l-41 -24l-8 22l-17 -6l13 22q-8 23 -8 36q0 15 4 30q-4 9 -4 21q0 20 17 50l-4 55l9 47l-12 5l-29 -3l-200 -62l-15 1l-7 -5l-22 24l-8 -19 l-20 37l35 37l-7 14l59 98l-1 8l36 50l-3 14l23 20v3l22 73l15 21l49 -10l4 -18l-17 -69l-38 -107l-45 -88l15 -4l98 33h6l81 55q-2 16 -2 28q0 15 9 32q10 17 10 42q0 7 -2 18l-3 9l-2 66v64l12 -10l23 7l13 -10l58 -25l-3 -34l4 -80l-12 -60l9 -83l9 30l21 -1l-18 18 l48 -15l16 4l13 -23l9 6zM494 602l-1 -16l-20 -27l8 43h13z" />
<glyph unicode="5" horiz-adv-x="571" d="M612 647l-9 1l-37 -27h-11l-156 8l-7 -8l-95 3l-9 16q0 6 4 9q5 3 8 7l10 17h-15l42 28l32 -12l10 2q4 0 19 10l12 -1l9 -1q4 -1 16 -8l19 3q17 -9 25 -8l53 9l29 -12l9 2l42 -25v-13zM468 345l-10 -30l-30 -3l13 -25l-6 -53l-14 -4q2 -13 4 -15q7 -7 7 -15l-44 -23 l-40 -49l-20 -31l-3 14l-72 -50l-50 -9l15 20q-18 -11 -30 -21l-23 15l-32 -5l-43 20l-8 16l-10 -3l-14 31v9l16 4l60 -26l24 16l-3 -13l123 96l70 93l8 33l-23 70l-76 -41l-88 -56l5 28l-21 -26l-10 -20l-13 -2l-15 11l-18 -2l-12 13l9 75l8 -1l15 30l-4 13l13 35l-2 9 l30 83l3 29l-4 72l1 19l12 -29l5 14q2 8 9 15l32 -13l2 14l49 -8q0 -9 7 -44l-13 -25q-7 1 -11.5 -4.5t-4.5 -12.5l9 -29l-6 -13l-16 -11l14 -38l-24 -38l18 -8l36 5l19 10l22 -4l16 5l30 -28l12 7l38 -27l3 5l-4 13l3 6l47 -66l-6 -22l3 -23zM258 623l-10 18h-4v-6z M443 381l-12 10l-3 -12l14 -17zM266 544l-17 -19l-1 9z" />
<glyph unicode="6" horiz-adv-x="674" d="M666 294l-4 -34l-45 -106q0 -7 -1.5 -9.5t-3.5 -5.5l-16 19l-73 -78l-13 21l-122 -87l-23 -3q-13 -10 -19 -11l-24 12q-8 -7 -26 -11l-54 19l-20 -6l-40 24l-13 -10l-6 6l4 15l-11 11l-19 -7l-9 4l1 2l-7 11l-18 -11l-32 59l-16 -7l-10 28l5 43l-4 20q-9 -21 -12 -31 l-8 55l5 66l-10 3q0 77 3 96l10 64l8 -63l37 89l-2 18l20 -6v4l19 51h26l20 41h21l-1 -3l7 -11l25 46l9 -6l22 19l17 -24l22 45l6 -17l38 45l18 -28h6l2 9l-4 21l2 7l7 -2l24 10l9 -4l-1 -5l10 -14h4v9l1 7q1 2 9 14l34 -13l13 8l25 -7l50 4l36 -22l12 4l50 -26l21 -31 l-20 -11l-32 4l-17 -5l-59 12l-93 5l-130 -70l-56 -43l-83 -104l-6 -94l-9 -2l16 -32l54 56l14 -3l42 11l19 13l22 -2l143 44l73 -35l26 6l56 -21v-4l33 -31l-3 -13q7 0 10 -3t9 -8zM225 572v10l-7 -10h7zM156 538l-21 -9h-2v-9zM78 388l-2 55l-6 -45zM163 426l-3 9v-13z M49 350l-6 7l-8 -9l11 -8h1zM514 218l-52 89l-18 -2l-115 -32l-47 -36l3 -35l-12 -37l-13 3l-5 -7l-5 38l-18 -8l-17 14l-16 -31l-12 14h-6l22 -77l12 22l24 -22l68 -37l61 3l30 16zM523 292l-7 13l-2 -13h9zM109 279v5l-15 16l4 -21h11zM56 267v33h-8l-8 -14l15 -20z M637 253l-3 11l-35 -50l-1 -8l22 -22l-11 29l22 5zM178 253l-21 -5l8 -11zM181 241l-18 -15l5 -3zM152 214l-17 -9v-3h8zM75 171l-5 13v-13h5zM548 150l-8 24l-10 -28h11z" />
<glyph unicode="7" horiz-adv-x="458" d="M446 644l-48 -49l9 -32l-10 -54l-14 27l-9 -60l-16 -12l3 -11l-20 -68l-45 -130l3 -19l-32 -115l2 -21l-54 -97l-33 21l-15 -24l-24 48l-19 -18l-6 13l-13 -4h-3l-6 18l6 43l41 33l114 373l39 93v7l-23 8l-53 -10l-91 2l-8 5l-51 -11q-30 15 -38 25l16 7l-26 32l22 27 l10 -4l57 20l19 -11l25 3l15 -9l27 15l33 -19l22 12l24 -9l14 7l19 -10l25 4l19 -10l15 19l30 -26q6 1 8 3q3 3 8 7q12 -23 16 -23l8 7zM429 638h-20l-11 -7l13 -6zM259 115l-6 14l-10 -4l5 -14l9 -7z" />
<glyph unicode="8" horiz-adv-x="585" d="M574 221l-57 -103l-4 -1l-14 12l-4 -1l-22 -38q-6 -1 -7 -1t-6 5q-4 5 -11 11l-7 -3l-15 -27l-10 7l-15 -21l-20 4l-11 -18l-17 4l-73 -31l-24 -16l-16 28l-19 -32l-17 1l-64 11l-40 16l-48 35l-6 -1l-15 13l-17 85l40 87l50 66l30 33l-3 10l-19 12q-3 -18 -8 -22l-5 1 l-28 33l-6 14l15 4v2l-6 11h-2l-12 -9l8 35l1 -4l2 15q2 8 11 23l6 -1l16 6l-13 16l13 27l-5 10l46 67l13 -30l40 91l14 -6l34 34l10 -6l27 12l2 -19l6 -8h3l32 43l31 -40l23 24l-1 -24l12 -16l9 16l31 -25l44 -10l30 -62l23 16l10 -58q-32 -65 -42 -98t-12 -34.5t-12 -1.5 l-40 -27l10 27l-4 1l-35 -39l71 -24l36 -35q-4 -16 -9 -30l5 -5l25 31l40 -53zM427 496l-6 47l-40 53h-45l-58 -44q-3 -2 -18 9l-27 -32l-31 -87l12 -48l8 13l39 -23l23 14l53 14l71 59zM477 519l-28 -1l6 -12l11 -3zM483 453l-19 -9l11 -40zM383 388l-16 -9l-11 -18l11 -5z M395 356l-6 9l-4 -1v-15h7zM174 362l-6 2l-3 -16zM449 218l-81 66l-14 -4l-36 7l-18 -17h-7l-33 14l-4 -29l-23 5q-5 1 -19 10l-35 -40l-8 17l-6 -16l3 -22l-12 1l9 -19l-19 -68l88 -62l79 45l20 -1l99 73zM204 273l-25 -7l-16 1l11 -8v-6zM464 183v10l-3 7l-6 -17h9z M132 131l-4 35l-15 -38l9 -1z" />
<glyph unicode="9" horiz-adv-x="559" d="M534 450q-6 -11 -8 -20q-1 -4 -8 -5l-24 18l-8 -11v-11l33 -24l-19 -60l3 -14l-13 -17l11 -34l-15 -17l-3 35l-10 2l-20 -53l20 -14l-26 -47h-3l8 32l-10 -10l-10 5l-5 -26l-14 -9l20 3l17 -9v-14h-13l-17 7l-14 -37l1 -9l6 2q3 -7 5 -11q3 -4 2 -10l-14 -2q-9 -1 -13 -4 l-14 -9l-39 -91l-26 11l-44 -59l-15 6l-76 -28l-76 49l-3 17q7 -3 33 7q13 -8 23 -9l45 31l-5 15l18 -8l132 223l48 107l-52 5q-2 0 -9 4l-36 -15l-26 -2l-8 30l-36 -32l-14 -4l-49 41l-19 -11l-45 24l-30 20l10 26l-10 13l-16 -26l-16 42l-16 -12l-13 48l7 47l31 62l13 -20 l18 37l14 -7l48 42l17 -6l50 20l9 13l-1 -5l22 -22l92 32l17 -17l34 12h2l71 -34l16 6l7 -3l2 -9l-22 -30q-14 0 -19 3q-10 5 -61 5l-6 13q-35 -3 -71.5 -11t-66 -20.5t-48 -29.5t-41.5 -57l12 -45l19 -38l12 5l53 -33l21 9l10 -17l16 11l30 -11l11 26l16 -11l29 17l14 -7 l9 17l13 -18l5 1l6 39l-57 114l15 34l18 -16l31 3h2l18 -17l7 1l8 7l36 -59l-17 -25l30 -53l19 7zM461 281l-18 -3l-3 -10l12 -9zM224 -45l-20 7l-8 -9l3 -1zM510 509l-15 -2l8 13zM493 218l-13 9l6 18z" />
<glyph unicode=":" d="M181 291l-5 -9l-9 11l-12 -2l-21 11l34 9l-20 -1l-45 7l-12 -7l-29 41l-19 4l14 9l11 -6l15 7l-11 1l-6 9l-18 2v14l18 47l3 -14l22 25l13 -17l6 2l12 -30l36 -32zM75 390v12l-6 -12h6zM110 332l-14 2h-4v-10zM56 410l-17 -10l2 14l9 8zM165 411q-13 -19 -17 -22l-8 7 l-3 15l11 3zM172 14l-5 -9l-9 11l-13 -2l-20 12l34 9l-20 -1l-45 7l-12 -7l-29 41l-19 4l14 8l10 -5l16 6l-12 1l-6 9l-17 2v15l17 47l3 -15l23 25l13 -16l5 2l13 -30l35 -33zM66 114v12l-7 -12h7zM100 55l-13 2h-4v-10zM47 133l-17 -9l2 13l9 8zM156 134q-13 -18 -17 -21 l-8 7l-3 14l11 3z" />
<glyph unicode=";" d="M181 291l-5 -9l-9 11l-12 -2l-21 11l34 9l-20 -1l-45 7l-12 -7l-29 41l-19 4l14 9l11 -6l15 7l-11 1l-6 9l-18 2v14l18 47l3 -14l22 25l13 -17l6 2l12 -30l36 -32zM75 390v12l-6 -12h6zM110 332l-14 2h-4v-10zM56 410l-17 -10l2 14l9 8zM165 411q-13 -19 -17 -22l-8 7 l-3 15l11 3zM172 -3l-5 -8l-9 10l-11 -24l4 34l-14 -31q-9 -26 -15.5 -33.5t-26.5 -14.5l-18 21l-18 -26l-3 3l20 38l-13 -2l-5 -15q-3 -11 -5 -10q-1 0 -7 -1l-6 6l53 59l-7 15l-4 -3l-29 41q-3 6 -6 9q-2 3 1 4l10 -6l4 9l-6 8l-26 3l12 8q14 53 19 52l21 13l13 -19l5 2 l13 -28l35 -33zM103 114h-5l-7 -8v-1zM66 97v12l-15 -14zM87 37v2h-4v-8zM48 129l-18 -24l2 15h4zM155 93l-16 1l-8 7q1 4 15 22q9 -17 9 -30z" />
<glyph unicode="&#x3c;" horiz-adv-x="467" d="M456 685h-26l-127 -136l-42 -66l-48 -40l-54 -107l28 -5l-5 -5l13 -26l-8 -5l46 -36l108 -181l-4 -27l5 -17l-26 18l-7 -9l19 -11l21 -23l11 3q4 2 4 0t-5 -10l3 -20l-20 10q-12 -18 -18 -20l-48 40l3 12l-14 23q-11 0 -13.5 2t-8.5 15q-6 14 -14 28l-51 26l-31 35l16 12 l-48 45l-3 -5l9 -19l-12 5l-17 32l5 5l-5 23l11 11l-49 66l-7 -10l7 -24l-2 -3l-52 40l-3 29l18 33l18 -5l19 13l-18 14l45 79l43 51l11 8l12 -14l23 22l-14 2l2 11l55 64l18 32l21 10l-4 -12l43 28l-28 -2l34 24l15 -6q31 6 55 18l29 -11l31 20v-32l3 -10l5 24zM324 701 l-3 2l-25 -16l13 -2zM258 548v22l-16 -15l2 -8zM121 509l-38 -29v-4l32 18zM232 476h-2l-14 -5l-8 -10l12 -2zM132 461h-7l-20 -24l6 -12zM224 246l-8 13l-16 7l21 -20h3zM258 74l-3 14l-12 4h-3l17 -24zM313 526l-22 -10l9 13zM135 174l-2 -19l-13 15zM303 -33l-8 -6l-7 12 l6 3z" />
<glyph unicode="=" horiz-adv-x="509" d="M413 387l-15 -37l5 -14l-114 -22l-8 10l-22 -8l-10 8l-18 -10l1 1l-5 9l-23 -26v-4l-10 -18q-2 1 -8.5 6t-16.5 14l-66 -14l-63 12l16 20l-3 26l20 19l-7 30v-1l5 -10l6 2l34 35l29 -42l16 35l18 -18l30 25l3 -11l33 17l12 -23l6 -1l28 18l3 -11l5 -1l17 16q8 -3 35 -17 l12 11v2h1l26 -24l10 13v4l4 1zM138 322l-9 14l-4 -12l10 -8h2zM178 325l-4 1l-6 -2l-12 -22zM89 308l-12 16l-15 -18l19 -14zM187 300l-5 8v-14l5 3v3zM459 365l-6 -9l-18 3q-2 -20 -3 -23l-4 -1l-11 14l3 4l-8 12l29 11l-6 19zM506 382l-8 -10v2l6 8h2zM413 238l-15 -38 l5 -15l-114 -20l-8 9l-22 -9l-10 8l-18 -8l1 1l-5 7l-23 -26v-4l-10 -17q-2 0 -8.5 5.5t-16.5 14.5l-68 -14l-61 11l16 21l-3 25l20 21l-7 28v-2l6 -9l5 1l34 37l29 -42l16 34l18 -17l30 23l3 -8l33 15l12 -22l6 -1l28 16l8 -9l17 14l35 -16l12 10v1h1l25 -22l11 17h2z M138 171l-9 14l-4 -12l11 -7h1zM178 173l-2 2l-20 -24zM89 159l-12 14l-15 -17l18 -15zM187 150l-5 9v-16l5 3v4zM459 214l-6 -9l-18 5q-2 -21 -3 -25l-4 -1l-11 15l3 4l-8 11l29 11l-6 21zM507 221v-2l-9 3v2l5 6h3z" />
<glyph unicode="&#x3e;" horiz-adv-x="467" d="M456 360l-3 -29l-53 -40l-1 3l8 24l-9 10l-49 -66l11 -11l-5 -23l6 -5l-17 -32l-12 -5l9 19l-3 5l-48 -45l15 -12l-31 -35l-51 -26q-8 -14 -14 -28q-5 -13 -8 -15t-14 -2l-13 -23l2 -12l-47 -40q-6 2 -17 20l-22 -10l3 20q-4 7 -4 10q0 1 1 1l13 -4l22 23l18 11l-7 9 l-25 -18l5 17l-3 27l106 181l46 36l-7 5l12 26l-5 5l29 5l-54 107l-49 40l-41 66l-127 136h-26l22 36l6 -24l3 10v32l30 -20l30 11q24 -12 54 -18l16 6l33 -24l-27 2l44 -28l-5 12l20 -10l19 -32l55 -64l2 -11l-14 -2l22 -22l12 14l12 -8l43 -51l45 -79l-19 -14l20 -13l17 5 zM157 687l-25 16l-3 -2l14 -16zM211 555l-16 15v-22l14 -1zM370 476v4l-38 29l6 -15zM245 461l-8 10l-15 5h-2l12 -17zM347 437l-19 24h-7l21 -36zM253 266l-16 -7l-9 -13h3zM213 92h-2l-13 -4l-3 -14l1 -6zM162 516l-23 10l14 3zM333 170l-14 -15l-2 19zM165 -27l-7 -12 l-7 6l8 9z" />
<glyph unicode="?" horiz-adv-x="336" d="M309 528l-7 -21l-6 1l-8 -6l7 -14h11l1 -5l-14 -11l-4 4l-14 -27q12 -14 12 -17q0 -1 -3 -4t-6 -9l5 -6l-42 -37l-12 6l-15 -23q6 -1 8 -1q5 0 11 9l5 -2l1 -4l-9 -17q-2 -4 -9 -9l-8 4l-40 -46l-6 18l-3 -20l-16 -7l5 -12q-16 -10 -29 -17l15 -5l-19 -23l-1 -7l62 -62 l-11 -18h-4l-55 20l-23 31l-1 -19l-67 49l8 29l9 -3l26 24l-7 11l-28 -14l28 48l34 13l-3 7l5 22l26 -13l-1 -17q-15 -13 -16 -13l11 -6l14 22l-1 21l-24 13l16 19l8 -5l23 43q2 -9 4 -9q3 0 7 -10l-4 -14l6 -7l24 26l-16 -5l-12 20l4 33l16 -7l-2 20q13 14 21 30l4 -16 l12 29l12 14l-12 9l5 8l6 -2l25 33l-27 15l-7 -15l-9 11l-8 -6l-7 12l-6 -26q-9 5 -6 20l-5 3l-7 -25l-11 7l-31 -18l-11 5l-8 -11l-39 51l-17 -8v12l5 9l8 -3l37 14l40 27l34 -1l100 -34l20 -25zM248 541l-16 -4v-10l9 -4zM248 438l-7 9v-11h7v2zM270 423q-1 17 -2 17 l-5 -7zM275 407l-18 13v-14zM190 340v9h-8v-9h8zM95 292l-13 -22l-12 -6h16zM140 284l-7 7l-10 -18h10zM85 210l-27 8l-10 -7l27 -10zM232 562l-14 3l8 14zM314 456l-12 9l4 9zM152 238l-12 -23l-6 13zM173 14l-8 -14h-2l-59 25l-21 -11l-3 8l10 17l-21 4v2l6 8l-16 6l27 16 l4 -5v-11l29 6l29 -6l20 -23l-3 -5z" />
<glyph unicode="@" horiz-adv-x="911" d="M903 381l-13 -40l-117 -140l-14 -7l25 -12l-53 -44l8 -34l-29 -11l-80 -108l-4 9l4 21l-10 11l-34 -37l-22 26l-25 -24l-11 9l-25 -16l-8 5q-2 2 -30 8l-11 -11l-75 10l-34 16l-38 29l-11 -7l-28 48l1 34l9 15l11 -7l23 17l9 -2l35 29l29 -17v21l11 11l16 -3l9 15l18 -14 l36 51l-8 -39l16 -12l14 29l-22 69l8 25l-11 31l3 14l-9 3l-34 -19l-8 3l-99 -107l-12 -7v2l13 40l-20 4l-15 -39l-11 16l1 42l-18 14v3l17 28l14 -9l37 48l-21 2l22 20l13 -29l86 83l5 -18l13 -11l3 10q-10 20 -10 36l15 -5l28 26l24 -19l39 -41l-1 -43l5 -36l9 3l17 -22 v-12l-13 -11l-21 -25l10 -11l24 2l15 -34l3 -97l21 -58l149 189l-1 2l31 101l5 34l9 27l-78 93l-56 -27l6 18l-38 31l5 10l41 3l-7 10l-30 -4l-104 33l-102 -31l-15 8l-59 5l-55 -27l-135 -100l2 -16l-29 -92l5 -23l-49 -134l15 -40l18 -26l-19 -60l25 -23l5 -44l-13 -46 l154 -93l170 8l32 -2l78 24l-7 7l25 3l17 22l71 18l2 -11l47 22l-30 -62l-29 8l-9 -11l4 -9l-10 -19l-40 -19l-68 20l-11 -1l-54 -50l-117 21l-10 -6l23 -24l-8 -1l-61 30l-17 -9l-31 7l-19 -5l-112 76l-66 73l4 28l-28 14l-13 30l6 43l-11 28l10 3l19 -12l5 11l-30 47l8 17 l11 -9l24 41l-13 71l2 32l9 -6l7 8l-10 22l5 9l33 -22l13 23l-10 50l6 19l-19 11l45 23l-18 22l-23 -9l20 33l9 -14l23 16l-4 13l93 109l24 -13l14 24l19 -1l16 8v27l32 -37l8 27l15 -3l63 29l34 -21l27 -22l97 42l4 -18l-9 -9l32 3l-15 32l37 -18l24 -41l8 8l-2 17l10 13 l27 -17l18 6l36 -36h-1l-17 -11l11 -10l25 32h10l-5 -13l26 -37l-10 -16l17 -17l24 31l22 -18zM542 92l-20 52l-70 -18l-19 -45l-2 35l-15 -22l-18 9l-16 -8l78 -36l36 29l13 -4l-3 -22v-2z" />
<glyph unicode="A" horiz-adv-x="596" d="M568 -32l-16 -24l-11 28l-22 -24l-10 -3l-34 43l-10 78l-4 -24l-37 61l-44 84l-6 -1l-21 13l-20 -4l-49 7l-24 -7l-5 13l-47 -93l-9 21q4 -2 5 -2q3 6 6 9v2l-16 38l14 16l-3 9q-7 1 -11 -5t-15 -16l5 -18l-11 -53l18 -30l-35 -82l-14 12l-28 -14l-14 8l-8 -12h-5v20 l-12 -18l-24 26l17 12l-20 30l23 32l10 -7h2l9 15l-14 35q0 3 1 5t-1 2l34 68l-16 29l4 13l-19 30l2 7l17 -4l29 37v11l4 1l15 -4l14 27q-8 23 -12 30q-3 8 -3 13v15l11 -4q4 0 4 1l2 4l-8 14l20 17l-25 17l5 38h6q7 -7 7 -15l30 12q4 9 12 10l-14 7l-19 -10l-5 2l6 37 l-3 15l5 2l10 -8q-3 -6 -3 -10t8 -12l8 25l-10 35l8 17v7l-7 10l-10 -14l-1 11l54 57l7 11l26 -3l29 -18l13 3v-2l-7 -12l22 -28l-10 -47l32 -41l-3 -19l25 -80l4 3l-4 -17l10 -46l-6 -19l23 -59l15 9h3l1 -9l-20 -33l21 -3l38 -36l14 15l34 -44v-5l-32 26l-15 -11l14 -23 l-8 -9h-6v4l-5 13h-7l-2 -9l14 -23l3 3l9 -9l-6 -19l8 -11l10 19l31 -60l-8 -7l47 -64q-1 -13 4 -24t12 -36zM266 659q-15 -3 -22 -11l11 -10zM217 644l-3 3l-8 -9l3 -5h3zM257 504v24h-3l-24 -24l1 -3l-3 -11l6 -4zM365 417l-3 21l-21 61l-8 -10l10 -27l-4 -9l22 -36h4z M196 476l-11 13l-3 -1v-18zM334 294l-41 123l-20 41l-14 -33l1 -5q8 -5 15 -8q4 -1 4 -10l-24 -5q-3 -3 -4.5 -5t-1.5 -5q2 -2 14 3l5 -8l-23 -17l15 -18l-18 -11l15 -9l-18 -15v-4l13 -25h13l65 -15zM244 437l-21 13l-13 -11l22 -3zM211 394l-1 12l-7 6l-8 -16l13 -9z M371 391v6l-4 2l-6 -5l1 -3h9zM223 339l-4 6l-9 -8zM159 327l-19 -27l10 -14h2v2zM177 221l-12 9l-6 -5l7 -11q9 -1 11 7zM143 195v21h-6l-5 -8l1 -13h10zM118 179l-4 28l-12 -21q3 -3 4 -7q2 -3 8 -4zM173 171l-14 10v-38h6zM220 157l-5 20l-7 -8zM115 115v14l-3 1l-7 -13 v-2h10zM143 68l-6 41q1 -8 -4 -20t-5 -18l1 -6zM130 380q-2 -5 -2 -14q0 -7 -3 -8l-4 14l5 15zM400 361l-2 -3l-4 15h1zM78 162l-19 -1h-3l9 8zM50 129h-3v11h3v-11zM57 113l-1 -4h-13l2 12zM43 35l-9 -10l-7 6l10 8zM195 35l-8 -23l-4 10zM46 17l-7 -10v-1l-4 -4h-3v8z" />
<glyph unicode="B" horiz-adv-x="504" d="M487 578l-3 -13l-18 -5l10 -14l-3 -7l-12 4l-9 -9l19 -22l-63 -50l-4 -13l11 -2l-33 -26l-12 17l-5 -1l-9 -11h-7l1 15l-18 -2l-2 -9q10 -26 14 -28l12 13h9v-5l-21 -41l17 -24l15 45h14l14 -71l-2 -16l9 -12l8 36l13 12q8 0 20 -9l-17 -29l2 -28l14 -12l-17 -27 q17 -2 25 6l9 -17q-9 -28 -38 -56l-3 11l5 32l-17 12l-18 -23q1 -6 5 -8q5 -1 13 -7l-22 -47l8 -17l-14 -23l-2 7l5 26l-11 10l-30 -31v-7l-13 -52l-11 20l-11 -20l-7 7l-25 -29l-9 2l-48 -30l-8 14l8 5l-14 8l-24 -17l-5 28l-6 2l-24 -8q-10 17 -17 22q-6 -7 -17 -13 l-19 29l-11 -13l2 -16l-9 -11q-10 25 -22 39l-7 -1q-7 -12 -7 -17q0 -3 2 -4l-10 11l-4 30l14 21v21l-9 16h-11l11 17l-11 59l17 22l11 45l-14 14l8 15l-14 36l9 17l-2 1l-12 -4q0 11 3 11l11 17l-8 19l14 28l-12 19l-14 -4l21 34l-9 13l-2 41l2 16l-3 28l19 61l7 -6l39 29 l19 -12l27 24l14 -7l31 27l13 -5l5 5l18 -7l-2 -7l22 -12h3l7 10l-22 16l18 -4l15 5l18 -6v-21l7 -2l31 24l17 -12l33 4l-25 -14l28 -10l10 4l50 -33l52 -47v-9l-6 9l-6 -2l-26 21l-12 -5l15 -43zM270 687l-1 7h-6v-10h2zM329 677v13h-16l-3 -6q6 -3 9 -6q3 -2 4 -2z M313 644l-4 18v-18h4zM339 507v27l-50 81l1 -7l-4 -4l-23 18l-12 -7l-38 23l-4 1q-10 -11 -24 -16l-33 23l-27 -36l3 -10l-5 -26l2 -9l21 35l9 -12l-14 -17l18 -37l-17 -14l26 -28l-3 -31l26 -25l-4 -13l30 16l20 15l-4 -14l36 34l-4 -15l18 14l3 -47q10 12 20 17l3 9l-7 9 q-4 5 -6 16l21 42l9 -16zM408 625v2l-9 2v-12h2zM365 622l-4 5l-8 -21h5zM411 598l-8 8h-2l-4 -28l3 -1l11 6v15zM391 549l-3 16l-6 -12v-8zM411 562l-12 -6l3 -12zM372 535l-1 14l-7 -10h-3v-9h7zM124 521l-10 13l-4 -7l9 -9l5 1v2zM397 507v2l-4 4l-6 -6h10zM112 495 l-1 10h-9v-8l7 -8h1zM142 472l-8 12l-14 -24v-2l13 -19h2l-3 27zM372 475v1l-4 7l-10 -16zM97 462h-6l3 -8zM161 412l-13 7l-5 -9l3 -6zM351 227l-4 13l1 9l-19 64l-17 -3l-20 7q0 7 3 14l-4 1l-22 -15l-32 32l-11 -6l15 -7l-20 -7l-5 6l4 30l-7 17l6 17l-2 3l-15 -21 l11 -29q-22 -9 -31 -16l-10 24l-14 -15l6 -13l-22 -31l30 -4v-10q-14 -8 -17 -9l15 -20l-7 -31q2 -10 8 -19l-11 -25l9 -11l-12 -11q-1 -2 10 -25l-3 -24l1 -7l9 5l4 -25q16 -14 28 -14q62 0 133 103l-1 8zM300 392l-16 -10l2 -7zM132 375v15h-7zM85 388l-5 2h-5l-8 -10 l3 -5h14v10zM117 346v6l-12 4l-1 -3zM84 345h-3l-5 -10l4 -8zM361 308l-5 16l-7 -11l9 -12zM128 303h-8l-3 -22h8zM91 264l-3 33h-7v-4l-4 -30l7 -15zM388 282q0 5 -4 6t-6 4l-10 -5v-16zM152 229l-10 19h-3l7 -19l-18 -15l-3 -28l14 -38l3 19l-10 17zM91 157l-8 12l-13 -23 v-4h18zM165 93l-11 11l-7 -16zM91 101l-19 -18l3 -10q6 0 10 4t6 24zM437 665l-6 -2l-27 17h11zM452 360l-9 -2v10h1zM47 288l-9 -15l-4 14zM471 264l-16 4l11 15l5 -10v-9zM447 148l-12 -8l-6 16h8zM379 60l-14 13l14 4v-17z" />
<glyph unicode="C" horiz-adv-x="719" d="M705 131l-9 -13l4 -13l-37 -69l-16 3l8 6l-13 10l-32 -20q0 -9 3 -11l-14 -2l-12 11l-26 -17l-10 4l-9 -20l-33 20l-29 -19l-69 10l-17 16q-10 -27 -12 -27l-81 39l-37 41l-14 -10l-3 8l-21 -7l-7 10l-84 30l6 15l-30 56l-18 -14l2 -22l-2 -9l-23 48l17 17l-33 6l-1 10 l6 40l-15 28l4 12l-1 15l-14 15l5 25l-4 8l-26 -35l-3 11l20 49l9 -1l6 29q17 22 23 39l-11 9l-14 -3l38 46q-2 9 -2 15q0 10 5 10l22 -44l22 30q-1 21 -8 37l5 10l8 -16l19 -27l30 48l-17 17l6 1l21 -18l15 29l5 -12l5 11l-3 18l10 10l4 -39l17 26l10 -1l25 14l-3 12l29 17 l6 -17l10 5l4 23h2l14 13l29 -10l19 29v-12l7 -14l16 13l21 -14l6 1l38 37h4l16 -34l13 14l19 -12l14 4l4 -8l-19 -39l6 -3l15 2l3 -7l-23 -19h-9l-10 12l-20 -12l-51 17l-65 -11l-33 -26l-11 5l-12 -6l2 -26l-11 5l-43 -46l-8 5l-23 -44l-13 7l-5 -16l-10 -9q-4 -4 -16 -27 l-12 3l-16 -46l3 -20l-14 -71q7 -23 17 -36q-6 -16 -6 -18q0 -7 16 -12q17 -5 24 -12.5t14 -27.5q8 -20 14 -24.5t14 -4.5q7 0 11 2l104 -74l1 9l13 3l103 -34l41 5q18 2 34 10t32 8q8 0 17 -1l35 63l10 4l30 32l-1 6l13 -1zM480 667l-14 16l-2 -9l13 -8zM93 455h-10l7 -5z M79 400v1l-12 -11h8zM154 366q-2 -4 -5 -4q-5 0 -12 12l7 -21v-17l8 7zM100 325q-9 -5 -23 -11l16 -1zM83 227v7h-6v-10zM678 146l-6 4l-10 -16l3 -8l9 -4l3 11zM678 97v7l-8 5h-2v-4l8 -8h2zM419 67l-5 7q-11 -5 -20 -14l5 -2zM323 59l-7 11l-3 -1v-13h5zM293 658l-15 6 l7 7l4 -1zM48 244l-10 6l-4 13h14v-19zM123 129l-15 -7l12 18h3v-11z" />
<glyph unicode="D" horiz-adv-x="606" d="M599 341l-11 -7q2 -19 -21 -52l2 -22l-4 -12l-2 16l-7 6h-2l-32 -65l-27 -27l-11 -33l-44 12l-2 -37l-13 -27h-3q-9 11 -21 30l-23 -52l-20 11l-19 -20l-30 7l-18 -19l-47 8l-23 9l-16 -11l16 -42q-11 0 -15 2.5t-4 11.5q-4 1 -5 1t-4 -3q-3 -2 -8 -4v-14l-8 8q-2 4 -7 3 l-12 -19v31l-10 13l-24 -13l-9 1l-23 18l-4 -13l-9 7l-7 -10l-4 7l13 12l-16 33l3 7l-3 36l-5 16l16 12l7 -7l6 11l-19 17l-14 -6l10 25l-11 4l6 11l-6 32l5 13l-3 11l8 15l-2 19l24 28l-4 9h-11l5 37l-7 28l3 8l-4 19l18 8l14 39l-3 15l-19 25l32 64l-8 5l-31 -22l-20 47 q14 1 20 5l-36 24l11 14l18 -17h3l24 53l19 -9l35 7l12 -2l31 12l16 -21l9 29l46 -27l8 -1l35 6l20 -16q5 -2 27 2l12 -7l-1 -16l14 -4l-1 -6l16 -21l16 12l-4 15h4l11 -6l-2 -8l16 -21l11 3l38 -30l-2 -11l2 -16h9l16 9l5 -2l-7 -12l16 -11l-8 -5l45 -64l-8 -14 q-5 -7 -7 -15l-3 -21l16 -30l3 16l-6 17l14 -6l-3 -20l12 -32q4 1 5 1t2 -5q2 -4 5 -9l-7 -6zM266 670l-33 14l29 -26zM152 678l-26 -5v-8zM443 306l-8 43l5 24l-4 39l-37 84l3 11l-23 16l-48 71l-107 43l-40 -8l-19 12v-3l-19 -41l4 -4l9 5l6 -8l-4 -22l-13 19l-13 -10v-18 l16 6l16 -10l13 42l16 -3l-7 -24h2l11 8l7 -13l-13 -10l12 -12l-2 -27l8 -73q-18 -14 -19 -16l7 -10l3 4h2l10 -7l1 -16l-10 -22l-15 9l29 -71l-15 -35l3 -19l-2 -52l-15 -11l16 -44l12 -25l16 6l9 -1l71 15l18 -2l74 70l10 -6h2v2l17 50l-13 18zM425 245h-4v10h4v-10z M135 632l-6 6l-6 -13l3 -4zM95 624v8l-7 1v-9h7zM447 600l-26 10l4 -12v-1h6zM84 593l-16 4l3 -16zM385 594h-16l3 -9zM455 569l-2 9q-5 1 -8 2.5t-8 4.5l6 -20h7zM522 476l-6 4h-4v-2l7 -11l3 7v2zM173 477l-8 -13l5 -5zM193 449l-8 12l-3 -12h11zM173 388l-12 25v-18z M456 397l-9 11l-7 -15l11 -15zM165 365v16l-7 -11v-2l4 -4zM567 332l-12 22l-7 -4l-1 -16l7 -15zM213 301l-8 26h-3l-11 -6l11 -15zM98 311h-6l-14 -15l14 -13h3zM531 293l-6 7l-3 -2l6 -7zM199 259l-17 16l2 -9l-4 -27l9 -16l1 18zM118 241v7l-14 9l-9 -9v-3zM181 216 l-5 13q-5 -8 -25 -21l12 -7h2v2zM115 194l-14 29l-3 -10zM503 189l-6 12l-5 -13zM193 157l-17 6l-6 -1l-3 -8l11 -10l4 1zM428 120l-9 6h-1l7 -11zM135 101l-15 14l-2 -15h17v1zM369 108l-4 5l-7 -10l4 -10l7 7v8zM92 93l-5 20h-4v-10zM343 97q-8 8 -18 9l-8 -7l6 -12h4z M199 79l-6 18h-8v-7zM199 46l-10 33l-7 -14l3 -31zM61 675l-6 -6h-8v4zM36 574l-6 8l6 15v-23zM579 433l-5 -8l-9 14l5 20zM551 227l-8 -22h-12l17 31z" />
<glyph unicode="E" horiz-adv-x="598" d="M563 148l-1 -47l-7 -3l-4 21q-6 7 -9 11q-2 5 -7 4l-6 -19l-5 -1l-36 18l6 -14l-24 -17l-23 24l-7 -7l-22 -41q-15 22 -21 26q-2 0 -4 -1t-3 -4l-15 -38l-10 6v2l3 13l-3 6l-16 -34l-15 6l-28 -6l-67 -53l-46 9l-30 1l-5 12l-18 -17l-40 28l-13 -21h-4l-31 26l-8 -5l-6 7 l5 20l12 -7l5 21v8l-32 29l-10 16l18 -6l7 11l-11 59l11 27l-15 20l21 41l-14 15l16 20l-3 26l20 19l-21 33h13q0 -15 31 -15l-17 19l-14 34l15 14l16 -36l8 7l4 43l-7 6q-14 -3 -16 -2l33 59l-7 18l5 4l18 -21l10 35l-2 53l-17 28l-18 -7l-14 3l-8 17l-9 -5l-15 36l2 9 l10 5l-1 -5l15 -18l15 10v8l56 -35l4 -5l38 39v17l26 -45l15 17l-6 18l21 5v-8l4 -7l33 16l12 -7l9 6l30 -23l26 28l10 -16l7 11l37 -18l28 23l12 -11l21 6l14 -26l6 10l21 -9q3 -1 14 -13h-24l-12 -8q4 -11 12 -30l-35 25l7 -21l-17 -6l-23 14l-8 -14l-151 4l-29 -62 l-11 -40l-21 -5l10 -16l-34 -90l3 -11l32 17l20 -24l27 18l3 -11l5 -1l18 16l6 -11l28 -6q5 5 8 7t3 6h1l27 -24l4 34l14 -29l11 -8l-16 -38l5 -14l-114 -22l-10 10l-20 -8l-9 8l-18 -10v1l-5 9l-23 -26l2 -22l-10 -96l8 -37l-15 -21l1 -4l28 -15l26 8l61 35l7 -2l38 21 l9 -2l133 40l22 -1l19 -18l11 4zM137 653l-25 24l17 -34zM204 662l-15 -9l2 -7zM244 634q-22 -15 -26 -19l21 -1zM206 567q-15 26 -21 31l-29 24l-10 -5l18 -22l9 3l-6 -13l10 4l8 -14zM183 560l-7 14l-10 -13l-4 -31zM158 508l-3 16q-1 7 -9 19v-24zM140 480l-7 -9l5 -14z M157 430l-10 33l-6 -25zM134 322l-10 14l-4 -12l11 -8h2zM84 305l-13 19l-1 -15l8 -15zM190 285q1 3 -7 6q-7 3 -10 7v-14zM146 291l-6 3l-3 -8h1zM88 252v18l-17 -20zM113 218l-13 -8v-2l6 -7zM100 118h-9v-7zM265 101l-4 15l-22 -15l11 -8l7 1zM268 57v13l-10 5h-1v-2 l8 -16h3zM518 690h-9v9h2l7 -3v-6zM459 378q-4 -14 -12 -22l-17 3l12 -30l-14 16l-4 -10l-13 14l4 4l-7 12l29 11l-7 19zM500 382q0 -3 -19 -26l-9 22l11 -3zM324 37l-5 -7h-6l10 15z" />
<glyph unicode="F" horiz-adv-x="601" d="M589 615l-10 -4q-20 14 -25 17l-1 -14l-1 -11q0 -4 -9 -19q-3 13 -9 21l-42 -37l-12 6l-25 -10l-12 4l-16 -7l-99 10l-28 -6l-17 8l-30 -12l-12 21l-19 -14l-15 20l3 -19l-17 -24l-14 -3l-3 -24l2 -13q1 -6 3 -7h5l37 -20l-16 -10v-2l7 -6l9 6v-23l-6 4h-3l-12 -41 q2 -6 2 -11q1 -4 7 -5l13 12l29 -18l14 19h3l21 -12l28 5l29 -12l13 25l8 -2v-18l10 -10q3 12 6 17l12 -4l42 24l22 -24l10 4l3 -18l-8 -47l-3 -1l-21 25l-62 -32l5 -19l-6 -4h-26l20 10l-1 13l-16 -6l6 20l-9 12l-27 -13l-33 -43l3 26l-11 -7l-15 -28l-46 16h-2l-8 -45 l20 -93q-17 25 -26 41l-3 -37l-5 23l-18 -20l34 -29l14 7v-32l13 -20l10 2l6 -29l-21 -10l-11 -25l-20 5l-29 -11l6 -14l-22 9l-11 -10l-33 19q-2 -20 -7 -31l-19 76v27l18 -33l-13 62l6 26l-16 19q0 9 8 18l-7 30l1 40l-16 35h-2l-21 -7v13l-6 9l-12 -22v24l-14 -2l-10 31 l5 10q1 0 13 -3l6 22l65 21l-2 23l16 -3l3 9l-14 29l24 204l18 -3l17 28l8 -4l36 13q10 -23 19 -50h2l10 9l-4 24l21 -19l31 7l3 15l18 -38l33 20l9 -2l-1 -6l32 -12l13 19l5 -1l18 -21l31 22l15 -8l1 13l12 -6l-1 -15l5 -10l14 7q6 -10 17 -15l23 30zM214 634l-11 21l-12 3 h-4v-11zM453 628q0 3 -18 19l-7 -36v-1h11zM543 628l-5 12h-12l-1 -5l12 -9zM202 574l-9 12l-16 -30l13 12zM200 473v2l-5 13l-21 -3l17 -12h9zM202 436l-6 15h-5l-18 -40zM63 307q-8 40 -9 40l-10 -19l11 -9zM211 273l-29 27v-7l14 -12l-15 -5l10 -27h9zM159 286v10l-9 4 h-3zM168 221l-26 28l-3 -12h2l11 2l7 -7l-12 -33l12 -10zM169 156l-15 13h-7v-7zM141 88q-15 18 -16 18l-5 -5v-13h21zM234 83l-16 11v-1l-10 -25q1 -7 16 -23l-3 20zM136 69v2l-3 8l-14 -14zM601 631l-43 13l43 -4v-9zM205 528l-5 -19l-5 7l8 16zM520 384h-14l-14 -9l-6 9 l32 30l2 -18v-12zM354 331l-5 -18l-20 -12l-13 3zM239 225l-9 12h9v-12z" />
<glyph unicode="G" horiz-adv-x="636" d="M645 300l-4 1l-23 -15h-3l-7 16l-26 -16l9 -17l-3 -6l-19 1q-15 -17 -21 -28l14 -54l-1 -26l-3 -2q-1 0 -2.5 2t-3.5 5v14l-6 9l-21 -11l27 -45q-3 -5 -11 -24v21l-13 8l-10 -13l10 -4l-22 -22l17 -5l-20 -36q-2 11 -7 24l11 6l-12 8l-22 -39l-62 -33l7 18l-10 1l-26 -31 l-5 -1l7 21l-20 -7l-17 -19h-11l-50 3l-31 -6l-84 33l-83 73l-28 46h19l-43 91l-5 16l15 15l-6 21l-9 -19v45l15 -19l3 27q-6 0 -7 3q-2 8 -8 17l26 22l28 53l-22 14l-6 15l15 -6l8 8q8 -15 18 -42l-1 18l4 10l-9 27l2 8h1l10 -12l3 1l10 35l26 -47l4 -1l9 6l-15 41l25 21 l8 -6l6 8l-4 17l2 6l-22 9v36l14 -5l8 4l-1 4l9 7l8 -12l4 1v15l-15 44l2 1l17 -4l6 3l2 -8l-7 -28l7 -12l18 28l-1 13q-2 7 -5 13l-10 17l3 14l15 -34l13 39l10 -11l22 9h2v-11l5 -11l23 10l-4 13l9 20l15 -19l7 -2l28 9l13 -12l-6 -21l6 -11l24 11l-11 12q2 5 3 8q1 4 6 4 l29 -27l12 8l12 -15q-10 -16 -15 -29q-2 -7 -11 -6l-29 -22l2 -7l-11 -23l-6 20l-12 1l-8 -14l-5 22q15 9 30 7l5 3l-31 22l-42 -40l-13 5l-15 -48l1 -9l-42 -71l-12 -26q-10 0 -11.5 -0.5t-7.5 -11.5q-5 -11 -23 -33q10 -16 17 -16q2 0 4 3l-12 -29l-10 4l-5 -1l-3 -3 l14 -71q-28 -14 -41 -24l14 -4l38 -94l-4 -33q-2 -1 -3 -1t-1 3l1 16q0 11 -4 17l-27 36l-5 -9l8 -22q1 -3 16 -17v-17l-13 4l16 -21h3l21 -22l9 6l49 -29l74 -8l76 33l36 73l20 57l-25 25l-22 31l-6 -11l9 -8l-12 -12l-57 15l-9 -6h-12l-7 13l-43 -15l-9 30l-19 -6h-22 l11 26l6 2l16 -5l36 15l-29 -5l36 27l10 -4l26 8l12 -7l18 10l-10 3l6 11h2l27 -25l5 18l24 4l19 -22l8 4v12l11 6l8 -7l-9 -14l12 -7l3 1l5 16l43 -4l18 6l18 -1zM272 649v11l-10 8l-6 -5zM440 651l-3 7l-23 -15zM306 617v15l-12 -10l1 -5h11zM216 516l-6 4l-2 -1l6 -7z M121 424l-10 8v-26zM168 348l-5 9l-8 -4l2 -10v-3l5 -5l4 1zM139 318v9l-6 12l-2 -7l5 -17zM88 288l-23 14l1 -23l5 -1l17 8v2zM147 245l-26 12h-6q8 -6 23 -34zM505 233q-15 13 -19 23l-8 -11l8 -8zM137 205l-12 36l-7 -23zM175 148l-14 26l-1 -16v-7zM190 615l-3 -5l-6 10 l5 6l2.5 -2.5t1.5 -8.5zM442 594l-20 -15v9h3l13 13h2zM145 528l-9 -16l4 11q-6 24 -9 24q-1 0 -1 -2l1 8zM81 482l-9 -26l-7 11v10l3 12zM50 387l-6 -6h-1v11h2z" />
<glyph unicode="H" horiz-adv-x="595" d="M581 652l-7 -11l-2 -67l-22 -51l-1 -7l10 -55l-13 -31l6 -27l-9 -13l6 -54l-19 -41l12 -14l-27 -13l7 -19h2l10 8l6 -12l-19 -28l15 -64l-8 -53l10 -6l8 3l1 -12l-19 -38l-36 25l-28 -12l-6 16l-18 -18l-18 24l4 32l-7 19l-8 -11l-5 6l9 12l-7 6l-25 -25l9 -16l-3 -5 l1 -12l25 -19l-9 -7l-34 49l8 35l-4 10h-8l10 18l-11 38l9 17q-5 9 -5 10h1l6 1l10 9l1 4l-6 7l-18 -3q-3 18 -9 25l-19 -11l-3 1l3 10l-7 7l-7 -17l-29 1l-107 -10q-7 -6 -12 -8q-4 -2 -3 -6l10 -8l20 -60v-16h-2l-13 -7l4 -6l-9 -14l3 -5l17 13l3 -7l-8 -24l6 -10l-18 -3 v-9l18 -3v-5l11 -39l-2 -12l13 -18l-17 -11l-9 5v2l9 3l-5 15l-5 1l-13 -24l-15 18l-7 -7q0 -1 1 -3q2 -1 2 -2q0 -2 -9 -13q-4 -1 -24 22l-6 1l-23 -18l-12 8l-24 47l-7 -19l-21 31l7 11q-1 6 3 10q4 5 10 16q0 4 -15 22l13 9q-1 -6 1.5 -9t5.5 -6l2 11l-9 48q8 21 8 22 l-11 20h-8l-8 10q-6 1 -11 -3l4 49l4 -27l8 19l8 -25l22 35l-25 20h-2l-8 -8l-3 4l22 43v5l-11 40l21 11l-3 8l15 23l-10 9l-5 -1l-18 13l28 71v5l-18 27l1 6l20 29v6l-13 11l18 45l-15 24v3h4l31 -3l17 3l34 -15l16 4v-7l9 -57l-3 -15l10 -17l-1 -12h-9l-4 4l-12 -11 l26 -34l-1 -6l-11 8h-2l-1 -5l18 -43l-2 -7l10 -16l-2 -28l-19 18l-22 -29l9 -17l15 24l4 -1l3 -7l-9 -18l19 -55l55 11l21 -6l3 8l66 9l21 -9l15 44h12l1 -4l-10 -24l9 -8l23 24q-11 21 -13 32l24 -24l-4 15l13 2l7 -3l6 16l-8 6l-18 -10l-7 6l9 11l13 -4l8 8l-23 38h6 l34 27v3l23 19l-30 6l30 87l-5 8l-15 -6l-7 4l2 22l27 32l-3 7l20 7l3 17l4 1l29 -15l10 9h14l8 -5l-4 -11zM512 672l-1 24l-12 -19zM563 652l-4 12l-18 11l18 -43zM493 640l-12 6l-1 -14l9 -6zM523 627l-11 8l-2 -5l6 -14l6 6zM567 617l-16 -59l11 8zM505 588l-5 22l-3 3 l-2 -1l-13 -22zM494 559l-10 23q-4 -17 -8 -19l7 -5zM182 462v3h-1l-5 -3h6zM534 430q-3 11 -3 25q0 3 -8 4l-11 -7l19 -22h3zM83 390v3h-8l-17 -9zM449 353v5l-5 1l-6 -12zM541 333l-1 18l-12 -10l-2 -10zM409 336l-1 5l-16 -18l16 8zM433 316l-7 12l-3 -4l7 -11zM467 319 l-3 5l-22 -17l2 -3zM402 282l-16 29l-1 -6zM210 285l-8 10v-13h2zM172 282l-9 13v-10l6 -4zM423 270l-8 -15l4 -9zM173 226v15l-23 -8l-7 -1l-12 -9l16 4l18 -4zM419 218l-16 8v-21h12zM507 191l-20 22l-6 -8zM454 202l-4 1l-12 -7l3 -5zM139 173l-15 23l-4 -10l14 -14z M527 161l-1 4l-19 15h-4l13 -38v1zM441 133v2l-3 7v-9h3zM188 112q-21 25 -21 28v-20zM454 115l-5 11l-6 -11l6 -4zM119 119l-3 6h-12l7 -20zM516 116l-7 8l-2 -2l5 -7zM83 95l-5 4v-4h5zM70 89l-18 -13l3 -10zM94 88l-11 -12l5 -45zM167 37l-11 46l-2 1l-3 -4v-1zM438 590 l-18 5l15 23h3v-28zM454 584q-14 -23 -16 -29l-18 19l17 -5q2 9 14 22zM65 574l-4 14h4v-14zM438 509l-3 -8l1 4l-22 25l-6 -3l14 13zM55 499l-8 -16h-4l2 16l7 9zM43 413h-2l-9 7l1 15zM199 372h-4l-5 5l9 13v-18zM47 201l-12 -27l4 -9l-9 10l3 30l6 7zM373 80l-5 -20l1 1 l-9 18l7 2zM418 47l-15 6l14 3h1v-9zM245 47l-7 9h7v-9z" />
<glyph unicode="I" horiz-adv-x="286" d="M257 494l-13 -60l4 -19l-28 -18l10 -9l20 5l4 -12l-9 -35l5 -15l-20 -13l-3 -27l-28 37l-8 -13l14 -35l-10 -18l29 -34q15 -26 17 -37l-11 -7l-12 35l-13 -54l27 -24l-11 -23l-6 1l-27 -27l8 -50l-12 5l-2 -4l18 -38l-23 -33q-7 2 -29 20l-15 -10l-28 29l5 2l17 -4l8 9 l-3 11l10 14l-11 9l-5 -2l-10 -16l-36 65l3 15l-14 145l20 36l-24 36l24 5l7 57l-15 71l8 67l-16 18l-5 -1l-14 39l21 -3l-22 68l7 12l-19 24v47l10 13l-3 -19l5 -11l-1 -21l34 42l16 -20l37 11l17 -11l17 6l26 -7l17 -24l-6 -12l20 -12v-32h-3l-2 -7l16 -48l-27 -34l9 -10 l24 14h1l1 -6l-5 -33zM176 687v7l-11 9l-6 -6l13 -11zM153 542l-23 23l-15 -44l16 26zM252 470l-7 27l-18 12l-6 -15l20 -18zM105 461v10l-11 5h-1l-1 -5l8 -12zM208 464l-15 -12l-11 9v-16l6 -10zM89 246v13h-3v-13h3zM180 85q1 2 -9 23l-3 -20l5 -36zM75 503l-15 26l11 8z M245 170l-4 -15l-3 15h7zM214 -39l-13 9l4 6l9 -7v-8z" />
<glyph unicode="J" horiz-adv-x="489" d="M455 229l-6 -32l2 -10l-10 -10l11 -29l-3 -2l-12 4l-7 -12l20 -19l-1 -7l-20 -23l17 -54l-15 -23l-10 22l-19 -12l12 -15l-3 -5l-21 8l-9 -8l-31 -1l-159 29l-40 45l-20 -6l-42 31l-17 -6l-25 48l-9 -22l-28 22l2 39l21 -8l1 38l90 -65l91 -36l17 2l36 -21l18 3l5 25 l-5 27l9 -5l14 22l-21 59l3 17l-8 19l1 25l9 7l16 -6l8 7l-30 103l8 46l-9 35l24 -30l14 40l-1 11l1 26l-16 -33l-17 -1l-13 27l3 4l17 -14l6 1l22 58l-9 27l-4 33h3l26 -45l20 12l-6 35l-10 20l-20 -12l-4 8l1 9l53 49l9 -3l15 3l11 -8l14 15l18 -92l-8 -93l8 -54l-18 -39 l28 -113l-2 -33l-14 -38zM398 646h-1v14l-12 13zM432 647l-4 17h-7l-13 -13zM385 656l-16 -23l3 -9zM398 591v7h-4zM394 539l-4 10l-5 -3l-16 10l-7 -17l9 -8zM399 488l-14 31h-3v-10zM434 475l-27 2l-38 16l7 -22l19 -5zM318 401l-7 12l-11 -11l13 -8zM382 386l-13 24 l3 -28h9zM417 377h-23l-18 -36l6 -6zM431 292l-6 21l-7 -16l3 -6l6 -1zM372 263l-5 20l-13 3q0 -15 1 -18q5 -12 12 -38zM446 218l-31 38l-7 -34l30 -9q4 2 8 3q4 2 3 2h-3zM356 240l-17 -4l3 -12zM420 210l-23 1l-15 -24l3 -2zM62 148l-18 41v-27l-10 -15zM396 108l-11 20 h-3v-7zM326 101l-9 19l-24 -31zM129 98l-17 10l-12 -9l23 -10zM425 100l-14 -10l8 -32zM302 565q0 -14 -1 -14q-7 -3 -17 -22q0 5 -2 16q-1 11 -1 14z" />
<glyph unicode="K" horiz-adv-x="653" d="M584 765l-22 -21l-5 1l-4 22l2 8l20 -13zM651 687l-24 -28l-12 5q-6 -29 -8 -31l-23 -31l-1 2l12 22l-7 10l-33 -21v-13l-2 1l-7 -8l-6 1l-31 -26l2 -19l-8 -14l-9 22l-44 -56l-60 -45l7 -7l-16 -17l-15 7l-11 -5q-19 -18 -29 -25l3 -9l-6 -6v2l-6 5l-8 -2l5 -8l-14 -14 l-13 8l-6 -1l-9 -27l1 -10l19 -34l13 7l35 -41l35 -74l-7 -20l7 -6l15 6l-1 -9l15 -54l30 -25l-10 -23l17 -4l-1 -3l10 -12l11 3l-27 -16l-4 -30l33 17l4 -16l-4 -8l-16 -9q-7 0 -26 13l-4 12l7 30l-11 12l-20 -22l14 -25l-4 -7l-7 1l-26 -14v3l10 24l-1 6l-21 53l-22 -26 l-13 -39l-8 11l11 30l9 15l-5 7l-4 -2l-27 24l-14 -11l-1 6l6 17l-16 -8l4 21l9 9l-9 13l-28 70h-2l-10 -11l9 -27v-2h-7l1 5l-18 21l13 14l-37 20l2 9l-35 50l-14 -14l2 -21l-6 -15l11 -13l-2 -20h-9l-3 5h-2q-21 -27 -18 -35l13 -41l17 -38l-13 -63l-27 20l-6 9l-23 -5 l-11 7l-23 33l17 19l-1 4l-48 31l2 6l12 8v59l12 -9l10 18l-19 16l8 6l-11 3l3 26l5 -6l-3 -7l6 -3l13 9l1 5l-14 12l7 19l-8 40l16 17l15 -30l8 20l-8 42l4 16l-8 -6l-23 14l12 51l24 16q0 4 -15 16l1 4l9 -4l-1 10l32 71l10 28l8 -2l17 5l-9 -27l30 -4l3 -38l-15 -29 l11 -73l-14 -4q-2 -8 2 -13q5 -4 12 -14l60 40l43 48l32 -12l-9 -11l1 -21l6 -6l28 41v1q-12 1 -14 3l3 7l6 -2l29 17l-27 29l8 -2l12 28l9 -6h2l64 66l17 -9q8 4 8 10q0 4 -3 16l10 6q11 -21 13 -27l23 17q-4 6 -5 8t0 2l13 10l-2 10l14 18l13 -25l36 48l15 -6l-31 -54 l16 -11l16 23l18 -3l18 12l-10 20l10 28l19 9h2v-3l-14 -26l8 -10l18 5l1 -3l-20 -17l10 -10l12 1zM483 588l-12 30l-6 -19l6 -10l-6 -22v-2l15 5zM430 597l-6 13l-6 -13h12zM379 588v7l-6 -5l1 -2h5zM433 559h-9l2 -7zM449 514l-9 22l-10 -33v-14zM103 457l-6 18l-7 -21h13 v3zM82 438v20l-8 4l-4 -4zM214 455l-19 -24l7 -9zM101 435v3h-8v-3h8zM170 408l-1 7v2l-4 3l-5 -19h6zM142 299l-4 7q-5 -12 -11 -17v-8h6l-1 3zM196 281v4l-9 4l-3 -4l6 -7zM73 184l-3 7l-18 -14l4 -23zM396 131l-14 15l3 -14zM326 124l-13 22l-4 -18l4 -19l13 11v4z M349 115v1l-4 1l-8 -12h6zM375 101l-9 8h-4v-19h4zM592 743l-7 -37l-30 -20zM306 537h-8v6h2l6 -3v-3zM61 406l-1 -5l-6 -1l-3 4l1 7zM154 188v-26h-2l-10 19l9 21zM249 146h-2l-9 8l6 16zM30 129l-5 -13l-6 13h11zM370 22h-17l-8 -7l13 26z" />
<glyph unicode="L" horiz-adv-x="503" d="M494 184l-14 -21l5 -4l-35 -18l4 -13l-57 -5l-24 5l-58 -8l6 -7v-1l-28 -11l-24 20l-16 -25l-5 1v1l-7 12l-17 -17l-8 8l-54 -33l-24 14q-4 0 -16 -10l-36 45l-7 -12l4 -10l10 4l1 -3l-1 -6l-28 -15l-20 26q-9 -3 -20 -11h-7l-2 6l28 27l-8 10l-10 -13l-6 19l6 12l21 -12 l5 14l-7 31l7 17l-27 36h2l8 -3q3 -1 20 -18l-4 8l1 10l5 -1l13 22l-10 19l-4 -1l-9 -9l-22 25v4q15 -7 22 -11l8 12l-3 10l15 3q1 6 -6 8q-6 3 -6 14l1 7h30l7 30l-6 3l-15 -8l-7 5q1 2 3 3q2 2 2 3l-1 6l1 12l11 -12q3 0 21 22l11 -4l3 12l-19 10q-2 -1 -5 0q-3 2 -5 2 q-4 0 -8 -5l-23 36h2q7 -6 29 -15l-19 67l19 27l3 -3l-11 -13l3 -7l11 3l7 -9l-7 -19l9 -6l10 45l-7 47l18 -7q4 3 7 5q4 2 4 7l-5 17l3 6l15 -9q6 1 21 30h2l8 16l3 -7l-9 -20l6 -7l32 31l3 -67l-3 -66l-9 -11l6 -19l-5 -9l3 -11l-14 -34l14 -14l-9 -23l6 -39l-29 -39 l16 -18l-11 -43l-11 -13l1 -3l14 -3l-17 -42l-1 -3l9 -13l75 13l221 21zM161 445q-13 -16 -39 -33l29 13zM146 369l-10 16h-3l-5 -18l4 -9zM185 349v9h-6v-15h3zM150 308l-4 5l-3 -9l5 -6zM93 294l-9 9l-7 -6l10 -14zM153 271l-7 11l-3 -18h4zM180 261l-1 6l-4 4l-5 -10 l1 -2h7zM113 227l-27 23l-2 -18l3 -19zM152 163v28l-9 -20v-8h9zM128 188h-7l3 -10l4 8v2zM465 178l-3 6l-6 -7l3 -4zM439 163l-14 10l-9 -3l-1 -4l7 -10l4 -1l12 4zM72 163v10h-2v-10h2zM354 147l-8 9v-17zM402 145l-20 3l-3 -6l16 -11zM133 105l-6 4l-11 -11v-1zM77 572 l-5 -11l-2 11h7zM47 358l-8 -19l-3 17l5 37zM36 308l-11 -4l8 23z" />
<glyph unicode="M" horiz-adv-x="966" d="M939 36l-4 -14l-13 25l-12 -12l-20 12l1 -9l-44 -38l-1 4l14 22l-19 4l17 16l-17 63l-14 -3q-5 -21 -14 -29l-9 22l3 21q7 1 16 -1t12 -2l9 3l-14 20l4 22l-12 18l-15 -47l-23 36l-1 41l-10 42l6 -2l19 13h-5l-29 19v4l16 17l-18 31l2 9l-31 67l6 8l-11 14l5 21l-41 75 l-18 -6l-7 18v-2l-12 -36l22 -13l-39 -59l1 -8h14v-11l-40 -111l8 -7l17 20l11 -33l-10 -17l5 -12l-1 -11l-17 -7l8 -32l-11 -50l-2 14l-5 3l-7 -1l-16 -27l10 -34l-1 -23l5 -27l-7 -9l-25 39h-3l-6 -3l11 -16l-14 -37l-41 22l-10 -7q-11 3 -22 5l-12 -1l-23 9l21 -28l35 6 l9 -1q-1 -7 1 -13q3 -6 1 -13l-17 14l-22 -18l-11 4l-6 -7l-10 7l-14 -4l2 9l-5 4l-14 -10l-26 1l1 16q-15 9 -28 22l8 16l-10 8l4 18l-3 8l-31 44l6 15l-7 4l-7 -8l-13 32l8 17v4l-35 97l8 41l-20 13l-58 117l-9 3l-13 -25l2 -8l-20 -21l-20 8l-17 -23l17 -39h10v26l15 16 l1 -29h2l16 -17l-17 -23q2 -3 3.5 -5t5.5 -2q7 7 9.5 10t3.5 5q-1 0 -3 -2l8 12l4 -14l-8 -41l4 -14l-4 -2l-18 5l-7 -3l13 -21l-13 -13l7 -11l-5 -22l11 -13l-7 -34l-11 -20h-20l-6 -17l31 -36l-8 -17l15 -11l16 17h6l-34 -74l-26 8l-2 -8l-16 14q-5 5 -15 42l-3 -24v-3 l5 -23q-13 -8 -22 -11l-16 22l-21 -13l-13 10l16 12l-12 7l-19 -17l-9 24l9 71l11 -6l9 19l-12 4l9 39l16 17l-17 55l1 12l33 44l-25 31l3 8l17 7v2l-12 43l5 15l44 78l-6 33l2 26l20 50h2l34 -25l4 1l2 13l-9 33l-10 -4l-5 12l22 17q2 -17 12 -33l22 31l3 -7l-4 -17l20 -24 l-3 17l16 -4l13 8l-16 20l41 -29l-1 -5l7 -8l3 15l4 1l12 -12l4 8l-6 17l26 -15l8 4l2 -3l-16 -20l11 -11l24 11l4 20l31 -62l-17 -54l-2 7l6 20l-12 9l-13 -31l1 -33l27 -37l-18 11h-3l-16 -28l16 -12l14 23l37 -27v-2l-7 -8l-26 4l-9 -10l9 -25l19 -3v-16l-27 -26l41 -33 h8l-5 -30q-22 -15 -28 -25l13 4l33 -10q2 0 21 5l8 -27l-30 10l-12 -2l3 -15l-7 -11q-7 10 -10 19q-1 4 -8 3l-6 -9l13 -24l21 -10l13 10l-4 16l1 5l6 2l11 -19l-9 -25l11 -22l15 43l3 -11l-11 -50l-30 -31l18 -14l9 3l12 23l3 1l1 -16l21 -14l14 100l18 55l-8 18l28 43 l-11 14l17 57l34 184l8 -12l-2 19l6 56l-4 27l12 28l12 18l-21 11q16 4 21 6l6 20l24 -25l25 13l4 -1l-8 -9l3 -12l-5 -8l-10 8q-10 -7 -14 -8l43 -45l5 11l-8 24l10 13l22 -40l23 14q-3 9 -11 22v6l3 4l10 -8l18 3l7 -1l-9 -12l48 -54l-3 -16l43 -97h-13v-3l6 -31l-18 -20 l-1 -5l36 -37l-2 -1l-14 5l-5 -13l20 -41l-19 13l-8 -24l2 -2l8 3l25 -10l17 16v-33l-16 -5q6 3 28 -5l-26 -37l37 -54l9 -18l-21 -32l12 -19l19 3l-3 -16l3 -56zM652 647l-25 13l3 -7zM762 630v7h-3zM142 570v15l-8 5h-1v-20h9zM270 573l-24 12l3 -25l-9 -13l10 -17v7z M655 547l-4 30h-8v-4zM686 573l-12 -6l3 -6zM730 564h-9l-3 -21h8l4 8v13zM337 543v9h-8v-4zM807 543v5h-6v-5h6zM780 530v10h-7v-10h7zM225 514l-3 26h-3l2 -8l-12 -29l1 -6l15 -8v25zM177 535l-1 5l-17 -20q1 -3 1 -7q0 -3 6 -3zM136 534l-11 -12h8l3 9v3zM739 526l-9 -16 h7zM313 485l-6 5l-2 -1v-23zM615 471l-6 -18l-16 3l-12 -29l32 20zM771 401q-10 3 -23 11l-6 -22zM123 372l-3 4l-7 -10l3 -7l6 3zM120 286l-15 50v-67zM169 283l-10 26l-6 -13l13 -27zM613 284l-34 9l9 -15zM83 266v1l-4 3l-9 -7l6 -7zM181 240q-8 12 -8 17q0 2 1 3l-12 -1 v-7zM588 252l-4 7l-5 -7h9zM376 252v4l-4 3zM181 184l-14 54q-4 -18 -11 -25l6 -8v-10l-6 -12l16 -11zM620 217l-19 13l-2 -1l-4 -11l15 2zM133 217l-4 6l-4 -6h8zM890 205v12h-6v-12h6zM578 178l-4 27h-4l-8 -30zM804 172v17l-7 -10zM606 169l-14 12l-3 -1v-17l4 -1z M154 139v28h-4l-9 -30zM570 124l-7 28v-39h3zM172 99l-13 27l-12 -10l12 -15zM76 123h-4l-18 -44l7 -16zM110 115v1l-8 4h-2v-9h5zM433 105l-3 6l-9 -10h2zM169 59l-10 8l-3 -24h6zM453 45l-20 -7l4 -8zM837 601l-11 -35v28zM413 476h-7v64zM867 464l-10 -28h-3v22zM708 402 l-33 -5h-1l-5 24l27 37l4 -9l-17 -13l4 -7l-3 -13zM250 390l-16 5l12 8h4v-13zM239 369q2 -5 2 -12q0 -6 -12 -6l-7 39zM877 352h-5v10h5v-10zM447 300l-4 -2l-22 20l9 25zM521 297l-13 -18v18h13zM454 284l-3 -28l-9 10zM233 257l-8 -10l-4 4l1 21zM222 193l-19 -23l7 23 h12zM919 178l-3 -27l-12 11zM638 114v-1h-4l-18 9l11 14zM212 131l-8 -15l-5 7l1 10l10 3zM897 8l-4 -6l-3 7h7v-1z" />
<glyph unicode="N" horiz-adv-x="680" d="M653 492q-1 -6 -2 -6l-9 4q-4 2 -24 20l-12 -13l6 -4l12 7l6 -26l-14 2l-10 -10l15 -44v-2l-13 -25l7 -10l21 12h2l-26 -28q-12 4 -14 4t-2 -8l5 -20l3 -1l13 8l4 -7l-15 -16l15 -37l-20 -11l-5 -10l3 -15l-30 -47l3 -10l-20 -27l3 -12l-8 -39l12 -19l34 85v-20l-28 -62 l-24 -80l2 -32l-27 19l-32 -12l-24 10l-1 6l4 23l-9 11v68l11 13l-7 9l-15 -15l-12 38l2 5l-20 12l-42 83l-113 177l-12 -12l4 10l-12 31l-16 -45l-21 -30l4 1l24 -24l12 8l-1 22l6 15l4 -18l-12 -49q-10 -7 -16 -9t-6 -5v-5l-5 -17l7 -9l12 1l-8 -30l-49 -91l4 -32l-14 -51 l18 -59l-9 -26l15 -4l-3 -19l-21 44l6 17l-9 7l-15 -5l-11 -32l-26 -31l-10 5h-15v13l-4 9h-2l-12 -10l-5 3q-8 -1 -9 -6q-1 -10 -6 -21l-5 10l25 43v2l-9 6l-26 -24l-5 1l-2 9l22 26l-19 19l7 9l7 -5l5 4l-9 26l7 23l-1 16l19 35l7 33l-16 -32l27 149l15 11l-3 6l23 20 l-20 3v18l20 3l-12 27l9 38l13 17l-1 5l-12 3l20 47l-9 28l7 34h4l12 5l-8 16h-11v6l-6 34l3 17h11l11 -14l18 14h6l-7 -16l18 -41l7 -7l8 21q0 15 -8 20h2l14 -14l13 -39l-6 -15l4 -2l16 12l20 -36l40 13l14 -27l-7 -16l37 -21l37 -63l2 29q8 -15 10 -27l-13 -22l7 -10 l11 9l2 -17q1 -11 5 -16l9 -16l11 8l7 -5l-2 -21l7 -77l1 -6l19 17l-14 53h17l9 -21l-4 -34l3 -16l-15 7v-3l4 -34l21 -9l5 1l6 11l-7 18l28 16l-6 11l-10 -5l5 50l13 -18l4 1l3 7l-13 30l4 12l-2 15l6 47l8 10v91l13 91l-13 80l10 16l-10 25l28 -34l8 3v-21l25 -16l5 -14 l4 1q1 30 2 31h6l25 -56l-3 -25l-5 30l-1 -33l9 -27h2l16 8l7 -13v-18l-10 5l17 -43l-7 -11zM166 608l-11 23q-1 4 -14 16l6 -14zM183 598l-3 3l-4 -15h2zM606 580v3h-9v-3h9zM189 574l-11 -12l2 -7zM622 560l-5 5l-9 -8l9 -2zM633 528l-3 9h-9l-1 -3l9 -7zM185 513l-5 7h-4 l2 -26zM311 503v9h-7v-9h7zM134 475q-15 -24 -23 -45l13 17zM147 459v10l-9 -8l2 -3zM184 451l-9 16l-6 -25v-2h3zM334 466h-10v-7h7zM210 443l-3 16l-11 -31h7zM608 423l-7 7l5 -14zM154 413l-14 12l7 -17zM210 358v11h-7v-11h7zM181 348l-1 5l-6 1l-16 -20l2 -7zM212 281 l-16 61l-7 -34l6 -30l10 -2zM582 327l-10 11l6 -15zM98 284v2l-5 26l-5 -23v-5h10zM602 299l-18 12l-3 -8l17 -11zM166 139l-1 11q0 6 -3 9l-6 11l3 21l-11 14l13 36l-5 43l-10 -24l6 -38l-23 -26l25 -2l1 -5l-10 -11l-1 -7l10 -19l-16 -11l-5 2l-5 -9l12 -32l15 10l-21 13 l7 7l15 -5zM184 267l-6 14v-25h6v11zM473 205v13h-3v-13h3zM528 182l-8 14v-16zM463 148v42l-6 -21l3 -21h3zM89 144l-10 19l-9 -23h18zM490 85l-30 26l15 -32h9zM549 106l-30 -13l-9 -9q1 -2 1 -4q1 -1 5 -1zM154 75l-14 12v-12h14zM120 63v7h-4zM79 63v4l-3 3zM520 49v1 q-5 -2 -31 -9l23 -3zM500 24l-4 2l-23 -12l24 2zM663 685l-19 -11l-15 2l-15 -13q8 18 19 28zM643 635l-5 19h5v-19zM270 611l-13 -6l-11 30zM645 412l-23 -10l17 29l1 -1zM218 191l-3 -9h-3l3 12zM154 -11l-6 6h6v-6zM505 -8l-11 -29h-5v7z" />
<glyph unicode="O" horiz-adv-x="597" d="M330 694q-4 -6 -4 -19q-11 10 -12 19l-22 13l30 -4zM577 266l-16 -11l-9 16h-6l-20 -12l17 -4v-5l-35 -36l12 -39l-12 -13l8 -20l-9 -12l-17 3l-6 -17l-4 1l-29 -42l-7 -1l-18 5l-7 -9l3 -7l-5 -16l-29 -15l-43 16l-9 -1l-35 -39l-78 17l-8 -5l15 -19l-6 -1l-39 24 l-12 -9l-16 4l-18 -7l1 6l-39 14l-58 71l3 22l-18 11l-10 25l5 35l-8 20l7 3l12 -9l3 9l-20 37q4 10 9 10q3 0 6 -3l14 33l-8 56l1 25l5 -4l3 1l2 5l-6 17l4 8l20 -19h2l8 21l-7 38l5 16l-14 8v2l12 -1l20 12l-1 5l-15 11l-8 -20l-4 13l32 47l36 118l5 2l15 -10l8 7v13 l15 -1l8 26l23 -28l8 15l-2 8l10 -3l41 23l20 -17h2l18 -18l10 4l22 -7l10 6l2 -15l-8 3l2 -9l-13 -14q26 11 33 15l-9 26l7 1l19 -15v-5l18 -30v21l7 11l22 -13l9 4l24 -30l-3 1l-10 -8l16 -10l9 27h6l-3 -10l18 -30l-8 -12l17 -13l1 -8l-2 -21l11 -15l12 14l-5 23l-13 15 l6 15l16 -14l28 -144l-6 -11l14 -25l-8 -9l-11 -42l16 -44l-3 -17l6 -9l10 8zM262 680v1h-7l4 -6zM290 654v6l-6 16l-3 -1l3 -21h6zM238 660l-11 9v-9h11zM151 610v14l-12 5zM470 597l-23 11l-2 -6l14 -19zM388 595v3l-3 3zM459 285l-8 6l3 24l-57 169l-18 13l15 6l1 3 l-7 11l-9 -6l-15 21l2 8l22 3l-3 6l-16 -3l-77 21l-22 11l-31 3l-29 -18l-55 -92l1 -8l-18 -61l4 -17l-27 -85q9 -27 19 -42l-10 -39l12 -14l3 -31l-6 -28l49 -33l126 -26l27 8l93 96zM520 487l-9 25l-10 -52l19 11l-8 7zM537 411l-10 36l-7 -27l17 -12v3zM516 266l-8 3v-13 zM58 212l-3 4l-5 -8l5 -1zM38 163v4l-5 4l-1 -1zM58 146v13h-8l5 -14zM195 39l-13 8l-1 -3q2 -2 13 -9zM136 44h-7l4 -3zM315 24l-9 5l-5 -1v-13zM46 426l-3 -6h-4v20zM586 369l-4 -52h-5v34l-7 26h15zM556 203l-26 -4h-7l22 14h7zM557 163l-5 1l-22 -16v15l18 32l-1 -7z M23 87l-8 6h8v-6zM47 56l-14 22l12 11z" />
<glyph unicode="P" horiz-adv-x="689" d="M670 502l-48 -72h-2l-16 2l-11 -8l3 -8l-7 -9l-9 17l-12 -4l9 -20l-5 -7l-38 -21l-63 -24l-13 -10h-43l-19 8l-18 -18l-28 23l-11 -20l-10 7l-18 -3l-9 4l3 14l-7 9l-17 -23h-2v2l-22 17l-11 -2l-3 5l10 8l-2 10l15 36h1l18 6l6 -6l32 22l1 -30l136 20l25 16l12 -6h2 l-2 12l14 33l4 -1l12 35l-48 73l-13 -4l-14 19l7 16l-7 5l-8 -11l-14 -4l-66 22l-25 -3l-37 16l-4 -7l-45 4l-45 -4l-32 -17l1 -9l-10 -56l10 -21q6 -12 6 -28l-7 -29l2 -20l-15 -60l8 -22q-2 -10 -13 -31l1 -6l18 -8l-13 -41l4 -46l-9 -32l5 -12l-8 -35l-12 -133l-1 -1 l-10 13l-15 -42h-13l-12 -9l-14 21l-35 -14l-10 4l-4 34h-5l-7 12l9 20l10 -32h8l4 -16l33 53l-3 17l-38 -2l4 -17l-11 17l45 34v2l-6 7l-28 -4l25 30l9 -9l11 6v3l-43 22l19 18l-12 37l2 10h14l9 7q-26 23 -30 28l-5 -3l-7 6l15 17l-10 36l14 19l37 -27l8 27h-8l-20 -5 l-13 34l-11 -3l7 58l23 -20l4 13l-1 18l-12 16l7 38l10 9l-1 4l-16 8l13 38l-10 18l-28 3l14 27l-6 9l7 16l-7 21l16 11l25 -3l17 10l161 31l33 -8l32 6l13 5l150 -30l23 3l17 -17l-6 -7l-12 4l-6 -5l56 -29l5 5l-9 11l21 -13v-5l46 -54l31 -51zM475 673v3h-22l14 -11z M438 624v8l-53 11l-17 -5l24 -8zM105 604l-23 -10l12 -1l11 9v2zM593 552l-37 33l25 -34zM638 516l-5 3l-11 -10h4zM552 501v4l-4 1l-21 -10l7 -9zM523 466v9h-7zM642 471h-2l-11 -9l4 -8h1zM126 449h-8l5 -12zM160 428v9l-3 1l-11 -10h14zM79 303v5h-9l7 -12zM561 676 l-6 -10l-7 6l6 5zM625 607l-19 17l19 -3v-14zM666 571v-4l-40 29l25 -2zM70 547v-1l-21 -12l-3 12l14 18zM53 501h-8l8 25v-25zM56 478l-11 6h11v-6zM46 407l-12 -26l-9 16zM40 306l-15 6v5l12 10zM44 223l-7 -18l-3 9zM53 153h-3v10h3v-10z" />
<glyph unicode="Q" horiz-adv-x="869" d="M501 681l-6 -11h-12v22l7 1zM859 41l-32 -45l-6 -20l-25 10l-18 -27l-48 -12l11 -10l-26 5l8 10l-21 -1l-3 -14l-9 6l-12 -13l-80 22l-185 125l-39 -43l-70 -23l-10 9l-24 -18l-21 -2l-23 25l-21 -29l-43 34l-14 -10l-6 26q-1 4 -11 20l-11 -32l-60 75l-10 -4l-3 5l7 12 v2l-27 66l-13 6l1 42l19 21l8 47l-10 30l21 104l29 68l55 81l8 7l21 -8l27 32h13l7 -8l10 19l22 -1l28 27h11l8 -8l17 13l-1 4l16 9l37 -26l13 5l23 -8l29 5v3l-11 8l10 7l28 -25l18 25l40 -16l11 4l80 -61v-4l21 -43l-2 -8l19 -53l-5 -14l9 -33l-10 -14l21 -18l-17 -47 l13 -10l4 1v3l18 20v-4l-37 -71l4 -17l-17 -47l-25 -5l4 -14v-15h-2l-9 -4l2 -10l-41 -48l16 -20v-16l19 6l53 -61l-17 -5l11 -12l-3 -19l9 -7l6 23h3l24 -19l13 19q6 -19 13 -28l18 15q3 2 27 -15l85 53zM534 628l-19 -17l7 -11zM613 547q-1 3 -12 15h-3l-1 -16l5 -14z M534 416v16q-9 58 -38.5 94t-64.5 36q-10 0 -17 -1t-14 -4l-14 -6l-34 -7l-14 -8l-21 4q-21 -15 -29 -14l-31 5l-8 -1l3 -11l-93 -44q-28 -48 -36.5 -83.5t-8.5 -107.5q0 -47 8.5 -77t31 -58t52.5 -44t33 -15l59 13l33 15l17 -12l-3 18l7 11l-13 34l-31 14l-19 24l11 17 l-13 3l-28 40l22 3l-16 8l23 14q9 -13 12.5 -17.5t4.5 -5.5l18 -7l-10 46l4 17l5 1l13 -29l11 18l115 -78l22 35l16 -9l27 79l-17 11v2l7 13l-1 6l7 32l-13 16l7 6zM242 523q-9 15 -20 21l-4 -3l2 -22zM623 506l-11 10l-7 -7v-3h18zM559 354q-5 26 -8 27l-3 -9zM631 329 l-10 7l-5 -24h7l8 14v3zM564 310l-35 15l-1 -4l17 -24l-4 -15zM57 224l-13 14l-22 -37l18 3zM545 150l-2 12l-25 -24l19 -22zM464 86l-44 -3l11 -12zM44 435l-3 -26h-7l3 34zM673 394l-8 15l4 7zM19 294l-4 -10l-2 21zM33 157l-1 -7l-23 24l1 6zM886 34l-37 -20l28 42l9 -15 v-7z" />
<glyph unicode="R" horiz-adv-x="720" d="M654 458l-3 -11l-13 -8l3 -17l-6 -9l7 -18l-3 -18l-8 -6l-6 12l5 29l-10 9l-34 -63l-14 7l-32 -38l-2 20l-8 9h-2l-102 -55l-9 -8l-13 11l-39 -25l-12 -3l-19 17l6 8l-37 7l7 9l-8 19l7 10v19l17 -6l44 12l20 -15h4l23 25l24 -9l12 31l12 -6l27 28l9 -6l7 6l-15 20l1 6 l12 -1l19 11l-17 11l10 13l-12 30l2 8l-14 4l1 8l-11 44l-6 -1l-88 47l-7 -3l-14 6l-31 -27l-7 1l-26 24l-27 -11l-5 10l-50 -46h-8l-3 12l22 50l-2 12l14 7l12 -4l9 27l11 2l33 -18l6 15v4l-14 9l7 6l17 -10l7 16l41 -18l10 18l5 -20q1 -3 11 -13h3l23 28q21 -4 24 -6 t15 -5l-37 -24q21 7 29 12l39 -14l8 2l67 -71l2 14l22 -33l8 2l24 -65v-3l-17 -3l-7 -9l19 -12v13l21 4l-4 -10zM443 691l-11 5l-11 -13l12 1zM496 617l-12 26l4 8l-12 13l-7 -19l4 -7l9 -1zM508 615l-1 39l-10 -10zM616 530l-19 16h-9l1 -8l-15 -38zM552 530v16h-9z M564 493q-18 8 -22 15.5t-5 9.5l-1 -26zM610 482q-17 -11 -19 -16h6zM628 466v9h-8zM567 415l-11 22l-9 -26l1 -7h12zM347 315l-8 6h-2v-12h5zM564 607l-26 38l18 -11v-1zM214 278l-19 -44l2 -17l-19 -94h-2l-4 23q-12 -31 -12 -43l11 -9l24 9l6 -48l-6 -23l-64 -25l-19 4 l-29 -3l26 33l-11 6h-1l-37 -39l-4 -1l-1 27l-11 -4l3 19l-6 11l-21 -10l-1 1l15 30l-4 7l-4 -1l-7 9l27 35l-2 8l22 25l-9 10l11 8l-14 15l5 24l-15 17l13 52l11 19l9 -8l7 30l-4 11l-11 1l-17 -16l-1 12v10q-1 4 -7 16l16 4l-4 8l17 22h2l12 5l-10 17l-9 -2l-11 45h2 l18 24l-6 12q0 8 10 8q7 0 6 7l-20 -4q4 6 30 32l-5 9l-7 -1l-20 13l12 35v39l13 1l53 -8l36 -45l-5 -28l9 -10l-15 -12l14 -13l5 -20l-9 -42l25 -76l-21 -38q11 -16 13 -26l-19 -34l11 -11l22 8zM109 532l-6 5l-11 -11q0 -2 4 -3q4 0 4 -3zM95 465l-6 10l-17 -28l1 -7l6 -1 l13 14zM89 371l-18 14l-3 -7l15 -22zM163 358h-11v-9h8l3 6v3zM181 307l-21 -6l7 -15zM84 271l-13 22l6 -21l-20 -17l6 -2l20 13zM182 230v17l-14 20l10 -37h4zM178 187l-6 3l-5 -8h9zM89 163l-2 15l-10 -22l3 -10h7zM68 100l-8 11l-6 -11l3 -6zM114 96l-9 6l-7 -5l14 -14v8 zM194 72l-22 11l-6 -5l1 -2zM65 79l-10 -11l1 -19zM352 597l-5 -13l-13 -5l-4 14zM687 413l-13 -24l-17 15l18 15zM18 314l-18 -7l13 29h2zM322 299l-39 -13l-5 8zM407 282h-22v4l15 7zM648 39l-1 -16l-51 -23l-22 8l-110 79l-79 33l-51 58l-43 40l6 7l20 -22q-2 21 -9 29 l1 6l21 -13l20 17l33 -8l-31 2l13 -18l19 7h4l13 -22l10 4l47 -33l-1 -4l27 -20l16 28l-1 -16l12 -42h1l8 19l45 -21l1 -1l-13 -20l10 -9l9 1l34 -3l14 8q6 -2 9 -2q4 0 7 3q4 3 6 4l-7 -16l-13 3l-6 -3l10 -14l-3 -21l9 -13l10 12zM286 238v-2l-6 -9l-7 11h13zM699 72 l-12 7l-22 -4l-8 1l-3 22l45 -15v-11zM416 72l-9 -4l-6 4l7 17zM697 63l-10 -13l-4 15zM687 25l-8 -2q1 2 -19 17l13 9zM211 3l-34 12l26 15z" />
<glyph unicode="S" horiz-adv-x="573" d="M483 702l-24 -16l18 21zM562 139l-12 18l-30 -59l-4 13l-16 -28l-108 -61l-11 12l4 4l-5 7l-41 -42l-27 12l-24 -13l-7 16l-10 4l-35 -22l-56 26l-14 -4l-5 16l13 44l27 21l68 -9l159 26l16 19l10 -3l4 18l-43 78l-18 -33l-67 40l-4 1l-13 -11l-56 26l-12 -13l2 13 l-77 46l-24 -5l-4 1l-42 65l-8 -17l5 -12l-14 4l-27 16l-4 58l-33 -3l-5 30l29 30l-12 14l-21 -20l-8 24v2l13 -3l19 8l9 16l14 -8l10 15l-16 19l5 39h13l3 -22h17l12 -8l12 41l20 -11h-8l-3 -8l15 -18v-60l41 43l-5 4l-15 -7h-2l-13 37l3 12h10l1 5l-4 18l3 8h6l-1 -5 l10 -15l5 -1l13 14l-6 16l11 13l20 -6l3 -7l-13 -9l-3 -14l11 -1l41 24l-23 26l-13 -2l-3 5l43 24l4 -8l-8 -18l14 -6l40 48l12 -13l-4 18l12 -1l31 -39q7 24 17 39l5 -26l7 -2l26 30l5 -1l-7 -15l9 -10q5 1 30 14l57 -10l6 -21q0 -4 -10 -22l26 -17l-10 -1l-38 4l-27 -8 l-10 12l-45 -29h-2l-6 21l4 15l7 -7l11 24l-12 6l-16 -1l-19 -22l3 -27l-20 -20l-18 20l-13 -25l-16 13h-2q-4 -20 -7 -30l-7 17h-2l-93 -78l-17 1l-12 -52l6 -26l105 -70l30 -15l13 -16q2 -4 13 -8l17 9l19 -22l19 13l58 -20l20 -20l54 -45v-6l11 -44l10 29zM453 666 l-12 -10v-13h3zM351 643l-9 15q-23 -13 -27 -17zM113 511l-10 5h-11l17 -8zM83 495l-3 3l-21 -22zM160 430l-18 31l17 -44zM60 436l-4 17h-6v-4zM76 353v41h-4l-6 -26zM237 22l-6 4l-4 -11h6zM546 678l-14 -20l8 21h5zM543 643v-2l-3 -7l-18 2zM562 610l-10 7l7 7l3 -3v-11z M39 543l-8 -12l-4 12h12zM142 30l-9 10l9 8v-18z" />
<glyph unicode="T" horiz-adv-x="629" d="M618 628l-54 -56l-6 -1l-14 2l-5 -9l-13 -4l-6 18l-31 -20l-29 3l-24 -9h-15v12l-8 2l-47 -21l-14 3l-7 -14l7 -8l-2 -13l4 -36l-14 -24l25 -49l4 -51l-29 41l-6 -15l15 -26l-11 6l4 -23l17 -39l-11 -13l-8 -84l25 -49l-6 -1l-20 34l9 -34l-17 25l48 -142l-27 37l-25 -47 l-14 12l-7 -2l-10 7l-20 -11l-8 4l-21 37l-11 -5v-30h-3l-20 31l6 14l-6 31l-25 21l-6 -8l-4 4l11 26l-12 58l14 30l-7 7l-13 -7l10 21l-13 50l3 14v34l7 37l-7 46l3 44l6 19l-2 7l30 -5l8 15l-51 24l-109 -11l-30 18l-17 17l50 43l12 -5l44 14l10 9l11 -4q4 -1 19 -14 l104 30v3l-7 21l11 6l15 -18l8 6l17 -18l16 21l33 -31l8 31l34 -17l-3 -13l7 -32l-7 -16l9 -6l11 28l-3 10l11 32l11 -4l27 47l23 -17l-1 6l20 24l8 -25l20 4l24 -32q4 3 7 5q3 3 6 3l26 -48l8 11l-10 19v51zM548 613l-24 19h-2v-8l19 -17h2zM483 624l-4 1l-8 -10h9l3 7v2z M284 488l-10 22l-2 -27h9l-1 1zM236 494l-16 -27l13 -17l1 6zM198 493l-10 -18l3 -4zM306 480v3h-10l-18 -13zM313 432h-10v-7h6l4 6v1zM214 378l-15 -7v-10h2zM328 258l-5 5v-11zM325 229l-2 7l-17 -34zM230 144l-9 -11l7 -9zM347 82l-16 -2l-4 -42zM375 152l-4 -24l-2 5z M184 75h-6l6 28v-28zM390 96l-9 -41v32z" />
<glyph unicode="U" horiz-adv-x="683" d="M653 425l-6 -3l-23 9l-4 -65l-13 -8l-36 -85l10 1l12 -14l-2 -26l-31 24l-5 23l-3 -24l8 -30l-17 -10l-26 -37l3 -3l-16 -27l-28 -21l-12 2l13 17l-6 10l-53 -78l-8 46l-34 -72l-19 14q-14 -4 -26 -6q15 -17 16 -20l-14 1l-6 -5l2 -12l-37 -26l-18 22l-11 3l-15 -21h-3 l-20 21l-1 5l17 12l-11 6l-28 -35l-43 25v16l-13 3l-27 -3l-22 17l1 6l-40 74v4l2 7l-5 21h-11l1 10l-10 60l11 34l-15 30l15 85l-2 19h12l9 7l-20 23l2 7l14 -4l31 21l-5 15l18 73l-5 69l5 38l20 -17l-7 -11l3 -2q3 -2 27 17l96 -45l-3 -22l-8 4l-15 -20l2 -9l-12 -33v-61 l-27 26l-6 -12l13 -10l-1 -14l7 -15l11 5l3 -13v-13l-9 -12l-8 8l-32 -94l12 7l-2 -30l6 -1l13 31l7 -11l-1 -7l-13 -32l-11 9h-1l-11 -38l7 -21l23 33l23 -9l-9 -11l5 -15l-20 18l-6 -6l29 -28l-2 -8l-32 21l-5 -9l10 -15l-22 -63l9 -6l10 1l6 21h7q3 -21 8 -34l22 22 l47 -49l3 6q-9 14 -11 26l34 -2l57 28h4l39 25l16 46l54 41l-25 22l37 34v2l-16 24l11 27l-2 22l6 15l1 -26l19 31l-15 8l-1 6l9 39l-8 39l4 47l-20 42l5 14l-47 67l2 12l13 -1l6 16l32 -33l8 3l26 -14l11 13l9 -20l12 10l-7 21l29 -34l-16 -8l1 -4l43 -17l-10 -6l9 -31 q-19 -17 -20 -20l7 -8l11 5l25 -21l-7 -19q0 -23 7 -37l-13 -44l10 -13l36 53h7l-11 -41zM525 607v1l-8 5l-9 -17h6zM575 602l-1 5l-4 1l-19 -15h10zM156 564v1h-9v-15zM580 537l-14 -30l5 -21zM122 466v17l-7 -12l3 -5h4zM144 440h-3l-11 -8l1 -6h2zM76 421v9h-4v-9h4z M588 392v11l-6 10h-2l-3 -5zM147 399l-11 9h-1l3 -19q-13 -20 -14 -25l18 -22l1 10l-3 29zM594 354l-16 -6l-9 -60zM559 351l-20 2l3 -11zM138 263l-9 4h-2v-12zM525 221l-20 29l-5 -9l22 -20h3zM135 221l-8 13l1 -10l-13 -23zM508 196l-19 -14q2 -5 8 -11l11 20v5zM318 45 l-17 -2l3 -16zM480 687h-9v12h2l7 -3v-9zM630 590l-13 -13l-7 2l-7 13l-2 45l-17 46l26 -41zM58 570l-9 -5l-11 9l2 10l-15 36v4zM92 615l-4 -10l-4 2l4 9zM26 562l-1 -12l-3 -4l-7 7l7 21zM88 537l-16 -66l-11 35l4 10l4 -1l9 11l-3 8l9 22zM651 516v-4l-9 -5h-1v34z M645 408l-18 -32l7 42zM208 374l-23 8l17 10zM613 278v3l-16 26l11 11zM558 199l-7 -25h-12l18 27zM218 163l-10 20l10 -12v-8zM497 133l-10 -19h-3v10z" />
<glyph unicode="V" horiz-adv-x="744" d="M722 632l-3 -15l-12 4l-5 -8l3 -10l-6 -5h-1l-11 -13q3 -10 3 -15l-14 16l-25 -20l5 -24l-12 -13l20 -28l-15 -21h-5l9 23l-4 8l-17 1l-4 -30l-9 -16q-5 -8 -4 -19l8 -54l-7 -21l-26 -14l11 -31l-4 -2l-16 15l-2 -14l4 -7l-4 -16l-20 -10q-3 -2 -25 15l9 -16l27 -21 l-48 -62l9 -12l-6 -7l-16 7l-2 -31h-3l-5 -15l5 -16l15 16l-19 -38l-16 25l-7 -46l-9 -5l-10 1v3l9 9l-6 9l-17 -3l-19 23l13 -39v-9l-3 -3l-5 15l-19 10l-23 -49l-19 24l-4 -8l3 -9l-19 12l-5 -14l13 -21l-42 -15l-10 3l11 13l-7 11l-11 -5l-15 21q-4 -28 -10 -34l-41 65 l13 -7l3 3l-4 13h1l11 13l-10 13l-25 -26l-24 59l3 13l-11 20l7 7l-12 16l-14 -11l10 52l-69 124l-51 136l-26 57l-22 39l-3 26l10 -2l6 22l17 -2l-11 17q5 -2 21 -4l17 20l20 -26l13 10l-9 19l4 9l14 -13l7 5l2 -20l22 23l-2 -10l3 -24l-21 -12q-4 -3 -14 -15l10 -19l24 29 l12 3l5 -1l-4 -8l15 -20l-3 -13l4 -22l-9 -16l8 -15l7 1l29 -29l-18 -38l8 -31l21 18l4 18l11 7l12 -39l-19 8l-4 -1l-7 -8l19 -18l7 4l20 -21l-6 -6l-10 6l2 -9l-32 -35l14 -10l17 16l11 -9l-11 -18l12 -10l3 1l26 31l-1 -11l13 -73l6 -11l-3 -14l8 -15v-26l-11 8l-7 -13 l27 -28l9 9l18 50l1 -36l11 -25l-7 -24l7 -22l15 15l13 -29l14 20l-9 12l4 20l60 65l12 9l-2 7l5 35l-3 19l19 26l11 24l-3 43l23 94l9 1l10 -5l5 17l-15 10l26 56l18 -13l10 4l2 -5l-10 -18l1 -1v1l-6 8l-12 -32l17 -19l26 54l-16 33l8 19l5 -1l-3 -13l6 -26l21 80 q5 -15 5 -28l1 -21l20 27q-5 7 -9 9q-3 3 -2 7l16 16l6 -7l9 7l-6 4l2 7l29 -25l7 7v-20l14 7l4 8zM660 653l-6 4l-8 -1l9 -9zM157 589l-19 45l-5 -33l-9 -6zM674 597l-14 16l-8 -29zM634 554l-2 5l-8 -11h2zM178 527l-17 23l-5 -2v-2zM592 528l-22 -27l4 -19zM187 507l-9 3 h-2l-3 -5l6 -9zM613 497l-1 1l-6 -1v-9zM555 480l-7 10l-10 -12l10 -16zM180 486l-29 -40v-4h8zM609 458l-3 8h-5zM601 451h-19l12 -21h3zM565 432l-14 19l3 -21l4 -2l7 2v2zM608 412l-7 12l-8 -28l1 -9h7zM582 392v3l-34 23l-13 -7l-9 6l-8 -6l-18 4l15 -18l16 7zM132 395 l-6 8l-13 -4l14 -18zM539 361v12h-4v-12h4zM529 355l-10 14l-10 -11l3 -13l4 11zM240 340l-8 6l-8 -6h16zM504 340l-16 -3l6 -7zM283 325l-3 15l-10 -15l5 -25zM525 326v8l-14 -6l1 -2h13zM493 308v1l-7 3l-11 -6l1 -12zM513 298l-1 8h-3v-12zM223 275l-9 -12l3 -7zM519 268 l-7 6l-19 -18l-5 3l-7 -7l3 -7zM293 252l-2 19l-8 -6l4 -12l-12 -8l6 -5l2 1zM471 229l-17 19l1 -4l-17 -17v-7l3 -4l20 15l9 -7zM302 213l-7 3v-14h3l4 9v2zM481 213l-4 1l-15 -2q0 -2 5 -6q6 -3 6 -5zM227 204l-10 6l-6 -8l1 -5l9 -3zM336 177l-7 20l-20 -26l5 1l15 -4z M493 174v8l-9 2zM478 153l-20 21l7 -16q1 -3 11 -12zM332 143l-11 12l-20 4q23 -16 29 -16h2zM408 139l-9 -10v-1l4 -4zM360 118l-5 11l-3 -1l-1 -8l6 -7zM275 123l-5 5v-12zM385 81l-2 22l-3 -22h5zM270 82l-11 21l1 -26l10 1v4zM181 679l-15 -12l-4 6l5 10zM683 548l-3 -1 l-5 5v11l8 -12v-3zM675 530l-3 -19h-7l-10 17zM441 294l-11 -15l5 32zM370 35l-21 -32l-15 9zM298 15l-8 -5l-4 1l5 8h2z" />
<glyph unicode="W" horiz-adv-x="741" d="M655 684l-7 -40l-7 12q2 12 10 36zM707 658l-4 -7l-18 -11q11 -13 9 -25l-7 -66l-10 3l-6 -13l3 -22l-8 -14l-18 3q-3 0 -21 -18q9 -20 37 -54l-3 -10q-2 -4 -16 -20l23 -8l-24 -15l-44 -64l-11 -5l21 -63l-30 24l-9 -11l1 -18l9 -11q-15 -53 -18 -76l-5 8q5 9 -28 30h-2 l-7 -7l16 -20v-2h-8l-4 -3l25 -21l-4 -18l3 -9h-3l-19 14h-2l-4 -27l-10 13l-34 -36l-15 23l-5 1l-40 -31l-20 15l-9 -1l-36 43l-25 86l-14 89l-5 1l-30 -10v-4l23 -24v-1l-18 -20l-18 4l-13 -16l20 -10l8 8l10 -5q6 -3 10 -9l11 -15q-12 9 -15 9q-1 0 -1 -1t1 -3l-3 -9 l-3 -1q-10 16 -17 18v-1q-1 0 -3 -5l-7 -11v-8l8 -20l-5 -42l-6 9l4 19l-7 14l-12 -3l6 18l-19 -13l5 -16l-10 -9l19 -33l-5 -18l-19 15l-2 -21l3 -40l-5 -26v-6l-27 -54l-5 -1l-19 7l-8 -4l10 -13l-33 -22l-13 14l-19 -3l-10 3h2l8 12l-11 7l-6 13l-31 36l-18 142l1 72 l20 63l-15 20l4 38l13 10l-13 9l6 13l-1 5l-14 32l5 46l-1 13l-8 25l8 58h33l6 -11l60 -28l3 -65l-9 -10l11 -20l-2 -7l11 -29h-14q-2 -6 -2 -7t2 -5q2 -3 3 -7h1l20 15l-21 -59l-9 -17l6 -26l-4 -11v-2l14 -22l-41 -53l31 -61v-2l-14 15l-5 -20l5 -13q8 6 24 10l10 -10 l-3 16l17 82l11 9l-21 24l18 8l7 -5l19 24l-5 39l25 38l-11 32l3 22h5l5 -14l19 -15l17 22l-12 14l-9 -19l-6 12l32 57h8l5 -50l20 19l-6 44h-2l-32 8q-1 11 -14 34l4 9l12 -14l33 8l3 8l-8 15l-10 -10l-6 19l6 19l31 -27l-2 -11l2 -27h2l14 22l-19 54l1 7l37 -23l-3 -9v-13 l8 -4l20 19l8 -2l25 -35l8 4l8 -25l-8 -67l-6 -12l23 -17l-5 -24l-12 -9l-17 -54l11 -18l-14 -12l10 -6l18 -32l-17 -33l12 -19l-3 -31l17 -41l5 12l-3 15l8 -8l28 38v5l13 42l18 38l17 75l49 119l-3 20l22 44v2l3 15l-12 7l17 42l10 2l1 22l-5 11l6 23l-4 11l8 7l20 -4 l16 -30v-6l-3 -3l8 -9l20 62h16v-2zM660 585l-29 37l11 -28l15 -10zM684 588l-1 3h-2l-4 3l-8 -10l12 -22zM387 535l-4 7v-13l4 3v3zM362 509l-5 12l-5 -21h1l9 7v2zM327 451v9q-12 28 -20 38l1 -31l15 -17zM354 474v10l-4 4h-1v-8zM101 482v2h-7l-16 -22zM410 471v6l-6 3 l-11 -6l7 -3h10zM68 455v9l-3 5l-9 -8l6 -11zM571 438l-22 -41l12 -11h2zM137 367l-8 58l-1 -41zM103 421l-16 -10v-8h6zM604 344l-18 21l6 -28l9 -6zM145 359l-19 -6v-3l16 -13zM300 336l-22 10h-5l23 -23zM268 301l-2 7l-6 -4zM578 294l-15 1v-8h2zM128 278l-8 3l-8 -8 l14 -6l2 7v4zM268 267v6l-5 5v-11h5zM123 244l-13 5v-10h10zM357 237l-23 3l6 -19zM403 222l-8 17l-12 -21l13 -11zM259 219l-12 10h-4l-14 -18l1 -14zM372 169l-15 3l-2 -19zM204 148v9l-6 3l-8 -8l1 -4h13zM115 119l-19 36h-6l7 -17zM89 125l-14 18h-5l5 -28zM110 109v1 l-13 7l-4 -5l7 -12zM79 88l-26 26l7 -37l17 6zM142 80l-12 18l-4 -1l6 -11l-8 -35l2 -8zM211 34l-14 34l-12 -9zM199 29l-10 14l-27 -42l8 -3l21 10zM124 29l-20 -15h-1l7 -13zM728 606l-4 -8l-3 4v16zM713 575l-3 -5l-2 14h5v-9zM251 473l-5 -40h-14l-2 5l9 24l-7 9l14 21z M159 312l-8 -4h-3v7h2zM169 289v-2l-6 -5v19zM197 289v-7h-2v11zM455 211q-12 -3 -16 -3v14zM464 80q-8 -12 -9 -13l-6 8l13 12zM197 -77l-9 20l3 8l6 -10v-18z" />
<glyph unicode="X" horiz-adv-x="548" d="M496 68l-18 -38l-34 -12v-11l-11 9l-32 -15l-30 27q-2 9 -12 37l-2 -16l-21 16l1 14l-24 46l-5 -5l3 -11l-3 -8l-38 55l15 -4l-12 21l7 6l1 -14l10 -6l14 27q-6 10 -22 21l-20 -6v4l-18 3l1 7l-25 30l-32 -26l5 -8l-20 -38l-37 -50l6 -12l-20 -21l-5 -15l-32 -31l-4 24 l-8 -10h-11l-1 -15l-6 -8l-9 3l7 9l-16 9l-13 -9h-2v21l22 9h-17l19 15h-14l-5 8l14 33l13 -20l13 37l-9 1l27 37l8 7l-4 15l15 24l8 -5h1l3 22l8 -2l14 46l20 -9l-11 14q21 19 21 21l-8 10l4 10l17 -17l7 28l-11 6q-2 16 -8 22q-18 18 -45 81l-39 91l-27 43l3 5l-10 18 l32 5q30 -16 37 -17l21 15l10 -11l7 12l7 -34l9 8l7 -22l6 22l11 -11l13 -39l-4 1l-13 -13l63 -58l22 53l2 15l43 41l-18 -4l26 44q5 8 12 27l7 -23l10 9l9 32l7 -4l20 15l3 -6l-10 -24q12 -5 15 -5q5 0 6 6q2 7 8 17l-3 9l36 29q0 -8 11 -14l-17 -9l2 -8v-13l-8 -8l-11 19 l-2 -8l9 -17l-24 -51h-12l-7 -3l5 -13l-50 -100l-19 -20l-8 6l-4 -21l-26 -54l26 -47l12 -37l3 2l7 -2l-10 -15l10 -16h1l7 17l23 -28l37 -59l3 -35l63 -62l-2 -11zM154 573l-2 4l-10 -9l6 -6zM196 547l-18 5l4 -9zM237 471l-11 14l-3 -7l3 -17l4 -1zM210 461l-13 5l-12 -5 l22 -10zM268 458v4l-12 1l-9 -5h21zM205 438l-9 7l1 -17h7zM177 307l-8 -23l3 -3zM269 248v1l-6 3l-13 -14h11zM313 230v4l-16 14l4 -18h12zM182 203v11h-8v-2zM133 205l-19 -14l-2 -17zM103 160l-1 24l-15 -28h-2l-8 -18l12 6zM341 142l-1 16l-7 6l-7 -2zM308 138v2l-8 12 l3 -8l-17 -3zM319 148h-4v-8l4 6v2zM334 134h-8v-8h3l5 7v1zM420 122l-3 3l-4 -11h7v8zM120 101l-15 -9l-9 -21l15 16zM430 74l-4 16l-5 3h-1l-8 -10zM413 75l-10 7l-15 -9l-1 -3l10 -5zM402 34l-8 8l-9 -4l14 -6l3 1v1zM261 173l-12 11l4 11zM84 33l-28 -10l19 21zM385 12 l-1 -12l-15 18zM477 7l-4 -4l-7 7l7 7l4 -3v-7z" />
<glyph unicode="Y" horiz-adv-x="543" d="M529 644l-35 -61l3 -11l-22 -42l3 -10l-35 -48l19 6l-22 -25l-15 -4l5 -17l-36 -81l-26 -48l-26 -79l-11 14l-12 -44l-13 2l7 -12l-22 -48l-24 -68v-17l-35 -46l-20 28l-11 -17l-10 3l8 -14l-3 -5l-24 25l-27 -9l1 17l-15 -24l-7 8l3 17l42 25l-26 31l20 26l-2 12l44 86 l19 69l-29 9l-7 1l-20 42l4 13l-20 10l-17 50l-37 86l14 -1l-61 78l-17 56l45 57l35 -31l-6 -10l23 -12l-7 -18l2 -17l6 15l24 -41l35 -73l-3 -20l6 -2l21 9l-2 -13l29 -74l-15 -14l25 -24l8 -21l18 58l28 -34l9 14l-29 32l26 19l24 31h-21l7 15l14 11l-7 5l29 45l-4 12h14 l-1 -12h8l-1 -17l6 15q3 7 5 26l-10 4l19 20l-6 33l19 13q4 3 9 13l-23 3l10 12l8 -3l38 29l11 -2zM178 504l-12 26l-15 -8zM470 514l-8 15h-6l4 -12zM219 415l-17 25l-6 25l-6 -14l6 -19zM292 329l-11 13l-12 -8l17 -12zM234 253v7l-7 3v-10h7zM218 178l-15 -8l-7 -27z M182 129l-4 8l-11 -29l14 5zM144 52l-13 -4v20z" />
<glyph unicode="Z" horiz-adv-x="656" d="M622 92l-21 -80l-19 25v11l-17 -14l7 -16l-4 -6l-25 25q-8 0 -6 -13l-38 -24l-1 6l16 31l-10 3q-36 -29 -38 -28l-4 22l-13 -12q-1 -5 -8 -6q-6 -1 -8 -8l-18 41l-25 -14l-8 7q-16 -15 -23 -23q-6 -7 -10 -8q-3 -1 -7 -3l-7 11l-22 -4l-11 7l-12 -22l-18 25l-11 -11 l-29 13l-14 -12l-21 20l-58 -28l-11 2l-2 16q-1 9 -5 15l-12 16l-21 -14v2l-5 9l-20 -22v6q0 6 3 9l-20 9q2 7 -2 10q-3 3 -2 7l13 1l15 -18l5 17l-5 16l-26 3l-6 18l15 12l44 64l2 18l15 -17l15 -4l-20 25l15 11h37l-1 -5l24 -23l10 16l-25 20l33 54l-15 17l7 11l13 -9 q11 3 18 10q7 8 25 23q-5 6 -3 13l42 35q-2 9 -14 33l3 7l12 10l-4 20l10 8v-24l6 -17l21 59l28 43l24 12l9 -12l2 11l-6 38l7 20l21 13l-9 16l-8 1l-9 -10l-14 7l-32 -21l-10 2q-6 0 -18 -5t-18 -3l-25 18q-8 -9 -21 -21l-17 6l-12 -10l-12 4l-16 32l-6 -27v-2l-27 -7 l-65 52l13 51l7 -1l-6 -27l9 -8l8 8l-3 13l35 25l13 -11l13 16l9 -12l188 12l15 -2l53 10l28 -11l22 9l17 -6l27 3l2 -9l-10 -23l23 3l10 -9l3 -11l-6 -19l-10 22l-7 -16l4 -37l-20 -29l2 -9l-31 -36l-5 -1l-23 8l-8 -10l19 -12l-30 -50l-9 13l-4 -1l-22 -43l6 -8l-39 -67 l-5 1l-15 -14l3 -8l-16 -29l-49 -64v3l-10 20l-9 -10l3 -13l-65 -104l-5 7l-12 -15l1 -29l256 6l33 -18l54 3l49 14l8 -9l18 4zM421 631l-22 13l-18 -6q5 -4 7 -7q2 -2 5 -2l20 -5zM522 596l-25 -25l20 2zM375 389l-8 5h-5l3 -19zM240 300l-16 -17l3 -8zM125 49l-4 39h-1 l-9 -16zM289 41l-17 8v-11l10 -12zM268 379l-18 -11l-1 6l18 20zM237 336v-1l-15 -17l8 27zM175 267l-5 -4l-9 9l9 7q1 -2 2 -3q2 -1 3 -9zM148 252l-3 -12h-8l-3 6l6 17zM112 0l-17 34l17 -12v-22zM382 3l-7 9l7 13v-22zM541 0l-15 3l6 11z" />
<glyph unicode="[" horiz-adv-x="315" d="M336 649l-29 -21l18 -16l10 -41l-3 -6l-17 13h-31l-33 3l-29 -18l-55 -92l1 -8l-15 -62l3 -16l-28 -85l18 -64l-10 -145l12 -42l4 -31l-7 -27l50 -34l33 -12l31 2l19 -1l-10 -38l11 -30l-9 -11l-10 3l-12 -6l-12 5l-9 -4l18 -20l-6 -1l-42 25l-12 -7l-19 4l-14 -8l1 6 l-39 12l-59 73l3 22l-17 10l-10 25l4 34l-7 20l7 3l12 -8l3 19l-20 169l14 20l14 32l-8 55l2 27l11 -18v14q-1 7 -8 24l4 7l20 -19h2l9 21l-7 39l4 15l-12 8v2l11 -1l19 13v4l-15 11l-9 -20l-4 13l33 47l41 120l15 -10l7 7v13l14 -1l12 6v20l20 -28l8 15l-2 8l12 -3l39 23 l20 -17q6 0 9 -5q4 -5 12 -13l7 4zM283 684l-16 -3l15 -23v15zM302 654v6l-6 16l-3 -1l-7 -31zM250 660l-9 9v-9h9zM163 610v14l-11 5zM84 53l-12 22q-4 -16 -9 -22l-11 -5l19 -1zM55 24l-10 -9h-1l6 -7zM71 -9v12h-8l5 -13zM209 -114l-14 8l-1 -5l12 -9zM167 -128l-25 17 l-1 -14zM59 426l-2 -4q0 -2 -5 -2v20zM42 -55l-2 -23l-12 18zM72 -89l-16 -10v18z" />
<glyph unicode="\" horiz-adv-x="566" d="M577 25l-35 24l24 -37l-12 -19l-17 25l-7 -17l-15 24l-7 -6l11 -12l-8 -18l-33 48l-19 7l-43 60l-23 63l-14 -3l-31 54l-17 53l-17 -2l-43 83l-16 19l19 13l-14 1l-26 33l6 8l-24 18l-46 68l14 5l-29 5l-28 36l10 7l-17 5l6 14l-30 20l26 2l-29 20l-35 8l12 13l18 -6 l-48 45l14 5l-41 34l7 17l24 6l12 -26l22 -12l-16 22l15 4l37 -28l8 17l55 -58l-5 -18l14 -4l11 -30l15 -2l53 -75l15 -28l28 -37l-13 -3l52 -51l-21 3l30 -19l-5 -7l33 -40l17 -47l-13 -5l33 -7l44 -74l-5 -12l-9 17l-18 4l4 12l-35 34l23 -46l48 -39l-4 -15l24 6l12 -45 l59 -86l-3 -5l13 -7zM240 556l-8 17l-9 1l3 -15zM253 541l-9 7l-11 -12zM267 510l-14 24l-13 -16l23 -8h4zM379 350l-9 7l-11 -12zM393 319l-14 24l-13 -15l23 -9h4z" />
<glyph unicode="]" horiz-adv-x="316" d="M272 498l-6 -3l-13 9l-3 -18l21 -172l-5 -24l-9 5l-15 -33l8 -56l6 -18l-7 -14l-8 10l-22 2l26 -23l-4 -8l-20 18l-9 -3l-1 -16l7 -40l-4 -15l12 -10l-27 3q6 -14 12 -31l8 20l5 -13l-33 -45l-40 -121l-17 9l-7 -6v-14l-15 3l-10 -7v-21l-21 30l-8 -16l3 -8l-10 3 l-41 -23l-21 16h-2l-17 19l-8 -4l-11 27l27 21l-17 15l-10 41l3 6l28 -1l19 -11l33 -4l30 19l55 92l-1 9l17 60l-4 16l27 86l-18 65l10 142l-13 43l-4 28l3 37l-46 27l-33 12l-32 -2l2 18l-30 23q11 31 19 39l10 -3l12 6l13 -5l7 5l-17 19l7 1l40 -24l12 7l21 -4l-2 -13 l13 14l40 -11l59 -72l-3 -23l17 -10l9 -25l-4 -35zM159 669l-12 13l-11 -16zM106 669l-12 9l-1 -4v-1l-25 -17l25 6zM238 555l-5 13l-4 -1v-12h9zM257 543l-7 8l-2 -17l8 -12zM248 511l-10 18l-5 -23l-4 -3l4 -5zM148 -70l-11 18v-14zM17 -122l-3 34l-15 -7v-6l6 -16z M34 -123l-11 26l3 -25v-1h8zM60 -111v10h-10zM253 650l-5 -25l-7 32zM272 620l-20 -24l8 37zM279 285l-16 -13v10zM255 153l-6 -35l-6 15l2 12z" />
<glyph unicode="^" horiz-adv-x="398" d="M393 615l-2 -9l-16 5l-17 -12l8 -32l-18 -43l-34 58l-1 -24l-8 16l-11 -10l-10 16l-16 -7l-42 42v3l-16 42l-22 -15l-23 -22l-3 -23l-19 -30l-60 -47h1l21 45l-27 -32l-17 -14l-38 38q2 18 16 41h11l9 -17l8 10l-8 9q0 17 6 15l33 21l38 76l9 -1l17 23l50 20l44 -73 q-3 19 -6 32l7 6l40 -10l4 8q10 -12 13 -25l-14 1l-1 -6q8 -23 15 -36l25 -4l11 5l18 -18l-17 8l-9 -10l41 -12zM136 646l-11 12l-5 -3l4 -10l8 -1zM154 623l-6 7l-15 -1l18 -22zM306 615l-15 14l-5 -11zM335 589l-7 7l-5 -4l4 -15zM93 655l-13 -16l-6 11l2 4z" />
<glyph unicode="_" horiz-adv-x="509" d="M534 -67l-16 -36l1 -22q-152 -16 -244 -14l-8 9l-22 -8l-9 7l-37 -22q5 12 15 22l-58 -27l-63 14l-4 -15l-29 25l12 -23l-92 25l15 13l-7 15l6 16l-8 17l12 10l-13 16l15 -2l14 -12l-5 -16l38 21l47 -16l48 13l19 -8l29 26l4 -10l57 5l-25 -11l19 -2l27 18l9 -11l17 15 l3 -12l70 -19l47 13l27 -7l32 21l22 -13l2 19l18 -12z" />
<glyph unicode="`" horiz-adv-x="292" d="M279 563l-19 -31l-4 27q-4 -8 -15 -36l-16 28l-7 -19l-40 27l9 11l-18 -6l-75 53v16l-16 -6l-10 9v2l9 18l-18 -4l-15 8l16 37l-19 12l-1 24l12 -17l33 -16l17 8l21 -21l9 4l-2 -13l37 -29l15 2l-18 -14q19 0 35 7l4 -30l1 -5q1 -3 14 -20l-4 16l23 5l12 -22l4 11l25 -34 zM77 722l-6 -8l-6 5l5 5z" />
<glyph unicode="a" horiz-adv-x="449" d="M449 10l-20 2l-37 -23l-4 9l3 17l-10 11l-33 -37l-21 26l-27 -24l-10 9l-25 -16l-10 7h-2l-25 6l-12 -11l-76 10l-34 16l-36 29l-12 -7l-27 48l1 34l6 15l12 -7l25 17l8 -2l35 29l29 -17l6 10l-6 11l12 11l15 -3l23 25l5 -24l36 51l-12 -32l23 14l-12 -25l9 -8l12 28 l-20 69l8 26l-12 31v11l4 3l-10 3l-34 -19l-9 3l-98 -107l-11 -7l-1 3l4 12v2l-9 6l-4 -6l-18 17l14 15l-8 11l-16 -25l4 29l-17 15v2l17 29l14 -9l36 48l9 5h2l-1 -4l4 -8l88 83l5 -19l11 -10l3 11l-8 12v23l14 -5l41 29l-11 -18l22 -4l37 -41l-1 -39l6 -40l10 3l17 -22 v-12l-13 10v-21l-22 -25l11 -11l18 3l6 -1l16 -26l-2 -8l6 -39l-2 -58l21 -58l5 -1l10 25l24 -28l-2 -18l9 25l5 -15l19 -27l-8 -8zM276 267l-5 11q-12 -20 -11 -27l15 12zM289 223l-10 -15l3 -9zM266 178l-15 -13l4 -9zM304 92l-19 52l-71 -18l-18 -45l-16 5l-2 8l-11 -2 l-6 11l-17 -8l44 -21l22 -21l12 6l36 29l3 -9l10 5l2 -5l-14 -13l9 -6zM281 110l-6 -9l-4 1l-1 4l9 6zM74 123l-14 -28l-22 9l-1 -19l14 -18l15 23zM299 484l-9 -18l-4 8zM334 367l-11 -3l1 28zM474 55l-5 -10q-2 -4 -20 -22l8 24l-6 13l13 10z" />
<glyph unicode="b" horiz-adv-x="422" d="M407 194l-1 -9l-10 -44l-13 -14l-8 7l-41 -93l-17 7l-66 -33l-15 11l-19 -25l-3 21l-7 -14l-16 10l-13 -17l-31 9l-16 -12l-17 17l-4 1l-20 -15l-24 29l-28 -27l-19 45l12 31l15 -1l10 10l-12 39l3 10v2l11 58l-3 14l8 67l-2 73h-7l-1 8l3 6l-22 74l2 19l11 -12l-4 -11 l18 -45l10 -4l5 4v5l-45 110l10 13q4 5 4 10l-2 15l7 27l-3 46q25 23 32 34q8 11 10 12t12 1v-25l16 30l11 -35l16 20l-5 11l27 22l19 -22l-5 -26l11 -16l-9 -128q-8 -4 -10 -6l10 -12l-2 -45l1 -91l18 -2l13 6l44 -16v-6l10 -17l34 7l16 -7l9 -12l23 -7l24 -27l21 -17z M86 641l-18 -16l-5 -36l21 37zM177 521v31l-11 -18zM69 537l-21 -25l4 -9l14 15zM103 473l-16 28l-3 -12l17 -24zM128 475h-16l8 -17zM104 382l-15 31l-4 -18l18 -19zM144 376v14h-2l-8 -4zM83 372l-10 -10l3 -1h1zM181 312l-7 6l-10 -4q-3 2 -5 4t-9 3l-6 -4l24 -31z M294 212l-5 15l-20 -20l-10 12l-21 38v-16l-11 -3l-36 26l-17 -38l-7 -8l5 -19l-6 -126l15 -6l-3 12l67 35l-2 8l13 18l7 -6l26 71zM378 215l-9 10l1 -2l-9 -19v-3h11zM87 169l-11 27l-7 -56l3 -24zM306 186l-10 -13l4 -13zM391 156l-6 12l-10 -5l-1 -2l6 -5h11zM142 110 l-2 6l-3 1l-9 -6l3 -18zM8 70l-15 -20l-3 20l10 6zM22 31l-15 -5l-10 11l10 19z" />
<glyph unicode="c" horiz-adv-x="484" d="M464 131q-13 -26 -17 -28l-18 19l3 -18l-40 -26l-16 9l-67 -14l-48 -40l-14 6l-37 -22l-14 9l-13 -15l-42 26l-13 -7l-32 21l-13 -6l-38 47l-9 91l-14 36l3 14h8l7 -20l13 10l-19 25l8 33l7 -1l12 35l12 25l52 45l44 29l-4 11l17 24l61 12l19 -5l18 7l16 -28l17 28 l18 -10l25 4l38 -40l5 -14l-12 -5l23 -8l-17 -60l17 -26l-58 51l19 1l-13 13l-41 21l-46 1l-1 10l-38 -28l-59 -37l-7 -46q-24 -59 -24 -101q0 -37 59 -92l22 4l70 56l40 20l13 -4l69 38l37 -28l-7 -49l12 38zM76 190l-6 29l-10 -35l1 -8zM391 137q-9 -7 -16 -38l14 -10z M349 111v6l-12 -7l-19 -27l26 5zM430 341q-4 -11 -6 -23l-13 7l-1 12l10 9z" />
<glyph unicode="d" horiz-adv-x="439" d="M278 680l-14 1l5 30zM303 656l-24 12l12 10zM251 672v-2l-5 -13l-6 7zM410 78l-12 -59l-26 28l-26 -32l-18 17l-5 -1l-19 -19l-17 14l-32 -10l-13 18l-5 -27l-16 31l-4 -23l-18 28l-18 -12l-8 10l-59 25l-16 -10l-13 58l-29 38l-9 -7l-13 26l1 9l-12 33l15 49l6 -18 q12 4 12 23l35 23l24 21l16 6l36 -8l11 25l44 15l15 -6l16 3v76l-11 183l20 -39l10 7l-10 49l7 48l27 -23l-5 -9l15 -22l12 35l17 -29l1 24l53 -42l-3 -35l8 -23l-2 -15q0 -3 16 -24l-48 -105q4 -4 18 -11l-3 13l19 33l-4 9l11 12l-11 -71l-9 -11q3 -8 2 -14h-8l-9 -93 l6 -39l-3 -17l8 -57l12 -29l-8 -23l8 -9l15 2h4zM367 589l-1 8v1l-6 3v-17h2zM273 549l-9 -14l5 -10zM389 514l-20 25l-3 -24h2l17 -10zM351 493l-2 10q-16 -20 -17 -28l4 -9zM325 477l-19 -2l10 -17zM301 398l-8 4h-2v-15zM368 354l-4 13q-2 6 -11 17v-8zM284 326l-5 3 l-7 -16h-1q-18 13 -27 23l4 -23l11 -6l1 -15zM93 262q-2 3 -2 6t-1 8l-8 -15l-10 -3l13 -16zM269 90l-7 115l6 20l-8 8l2 9l-22 27l-33 -28l-11 4v15l-32 -49l-20 19l-5 -15l30 -63l9 8l11 -28l69 -35l-5 -14zM70 221l-7 25l-7 -19l3 -9h11v3zM355 147l-6 69l-10 -25l14 -57 zM136 181v12l-3 -15zM56 179l-3 11l-15 1l9 -18zM306 127l-8 8l-3 -1l-3 -7l12 -16zM249 643l-7 -26l-5 23zM449 87l-6 -20l-13 19l7 8zM449 56l-8 -7l-29 -12l14 34z" />
<glyph unicode="e" horiz-adv-x="446" d="M422 153l-15 -25l-14 9l-35 -45l-13 6l-20 -31l-57 -44l-4 18l-8 8h-3l-3 -9l9 -31v-2l-15 5l-49 -23l-31 18l13 17l-19 -9l-36 -4l-12 9l-35 67l-7 -2l-29 35v9l15 -13l-2 23l10 23l-13 15l-12 -14v15l-10 -1l14 65l-12 30l12 64l-11 7l25 17l13 26l-7 13v8l16 -4l24 26 l4 -8l-4 -19l11 -8q7 31 16 48l19 -25l18 39l9 -9l24 16l10 -7l15 11l10 -16l12 11l68 -19l32 -14l36 -27l9 6l27 -46l-1 -31l-7 -14l-8 6l-23 -35l-7 2l-33 -40q-6 -1 -21 11l-4 -8l4 -12l-9 -11l-14 2l-8 -13l-18 13l-92 -51v-2l2 25l-10 -11l-12 10l23 -56l-8 -23l40 -2 l1 -29l10 20l8 -2l33 16l8 -2l103 107l12 -7l-14 -7l-10 -15q22 9 23 13l8 -27l3 18l11 4l3 -10l-6 -30l17 -13zM312 327q-34 27 -51 47q-7 8 -24 11l-33 -27l-3 10l-11 -8l-12 2l16 21l-62 -46l12 -27l-3 -43l1 -9l115 32l16 41l19 -17l1 13h19zM205 349l-20 -4l-2 -9 l-15 18h17zM397 370h-4l-9 -14l12 -6zM70 274l-23 28h-2l4 -16q1 -7 10 -24zM95 273l-5 6l-8 -4q-3 -2 -15 -18zM267 244l-16 -3h-1l-2 10l-19 -23l24 4zM156 178l-18 33l-12 -15l8 -10zM157 162l-1 3l-5 2l-10 -9l6 -8zM119 47v9h-15l10 -26zM41 386l-4 -15l4 -13l-17 7 l13 29z" />
<glyph unicode="f" horiz-adv-x="529" d="M516 599q-6 -15 -7 -28q-1 -6 -7 -6l-20 -2l-56 43l2 -7l-4 -4l-23 17l-11 -6l-40 23l-3 1q-11 -11 -23 -17l-33 25l-28 -37l3 -10l-5 -25l2 -10l21 35l8 -12l-20 -23l9 -53l8 5l17 -45l13 -4l19 15q6 -2 34 -16q12 10 11 12l24 -17l5 11h13l14 -21l-15 -37l5 -15 l-115 -21q-2 -8 -4 -12t-3 -11l11 1l-18 -52l10 -13l-18 -24l16 -18l-8 -31q2 -11 8 -21l-11 -24l9 -10l-14 -33l16 1l-10 -26l-2 -34l-17 -5l17 -11l-24 -11l23 -21l-37 8l-21 29l-11 -12l26 -25l-34 -4l-9 25q-5 5 -8 9q-2 5 -3 5q-4 0 -8 -1l-5 -26q-11 8 -11 17l-4 30 l14 20l1 23l-9 15h-11l11 17l-11 59l23 68l-1 12l8 29l-21 23l7 22l-3 29l-13 -19l-22 17l-66 -13l-62 11l17 20l-4 26l19 20l-11 17l5 14q0 -1 1 -1q3 0 12 6l-2 -16l31 42l28 -50l18 36l33 -24l12 24l-1 56l-3 27l20 62l50 54l11 -8l27 15q16 -7 19 -7l20 3l22 -7 q2 5 29 13l-8 -22l20 -11l-1 9h13l-20 15l5 1l33 -9l11 4v-20l7 -2l32 23l16 -12l34 4l-26 -13zM480 663l-14 18l-6 -6l-11 1l13 -9zM418 655l-4 23l-3 -11l-8 7l-6 -6zM469 656l-11 3l-11 -7v-17h4zM502 612l-3 5l-7 -20h5zM261 503l-10 13l-4 -7l10 -9l4 1v2zM265 477 l-16 3v6h-8l-1 -9l6 -5h1zM281 454l-9 12l-14 -24v-3l12 -18h2l-3 28zM234 443h-6l4 -7zM114 411l-10 15l-4 -13l11 -7h2zM154 414l-7 2l-18 -25zM65 397l-13 16l-15 -18l18 -14h1zM299 393l-13 8l-5 -10l3 -5zM163 389l-6 9v-15l6 3v3zM269 357v15h-6zM223 357v13l-8 -4 l-4 6l-6 -11q2 -4 18 -4zM259 359l-11 -8l-4 -17l11 -6zM223 327l-22 10l4 -12q2 -6 13 -17zM223 229l-16 40l11 7l5 23l-27 -17v-20zM267 285h-9l-5 -44l10 21zM289 211l-9 18h-2l6 -17l-17 -16v-29l11 -36l3 17l-5 27zM228 140l-7 11l-14 -21l1 -6h17zM218 55l-4 28 l-6 -18l3 -10h7zM489 434q-4 -15 -12 -23l-15 4l-3 -18l12 -5l-27 -4l-3 15l4 5l-7 12l28 10l-4 21zM529 437v-11l-8 -10l-25 -4l8 17l24 8h1z" />
<glyph unicode="g" horiz-adv-x="503" d="M469 2l-23 -34l10 -13l-4 -13l6 -28l-2 -16l3 -21l-22 -46l-48 -42l-14 9l-27 -24l-13 7l-32 -27l-12 4l-5 -5l-19 7l2 7l-18 1l-6 11l-7 -9l21 -16l-6 -1q-21 0 -43 5v21l-8 2l-32 -24l-16 13l-34 -4l25 13l-36 13l-12 -3l-7 23l56 75l58 -43l-16 24l37 -19l3 -11l13 6 l37 -14l6 -9l10 10l37 23l11 -2l4 8l-8 12l19 20l-8 48l-8 -7l-16 32l3 34l-21 50h1l16 53l-69 -42l-13 6l-36 -20l-13 8l-12 -13l-40 24l-13 -8l-31 21l-13 -5l-35 45l-8 87l-13 35l2 12h7l7 -21l12 10l-12 39l2 16q8 7 9 10q2 7 12 28l9 19l49 44l43 27l-3 10l15 22l58 13 l18 -5l16 7l17 -28l15 28l18 -10l24 4l43 -36q-8 -7 -15 -22l19 -17l10 11l-3 18l11 11l21 -39l7 1q5 7 7 12q2 6 4 6l6 -1l4 -37l-16 -21l10 -38h11l-11 -17l11 -58l-24 -69l9 -60l-5 -9l4 -37l7 -18l-15 -30l13 -17zM348 381l-40 20l-37 11l-8 -1l-36 -26l-47 -40l-15 -40 q-24 -47 -24 -85q0 -41 58 -97l14 3l84 52l21 7l20 -3l-15 21l7 28q0 7 -8 21l11 24l-9 11l13 37l6 52zM335 366l-6 -28l-1 28h7zM422 377l-3 9h-6v-15l3 -13zM422 310l-1 7h-17l-3 -16l8 -10zM365 269l-13 42l-3 -18l12 -20l-21 -44l3 -12l7 -5h2l-6 17l16 17zM76 212 l-4 26l-7 -33l1 -8zM416 197l-8 15l-7 -16l3 -34h7v4zM375 179h-7l-6 -22h10zM340 135l-1 7l-12 -19h3zM417 124l-4 9l-5 -18h3zM386 108l-11 6v-8l10 -3zM425 80l-4 4h-13v-11l5 -3h6zM368 70l-8 14v-14h8zM349 50l-3 5l-15 -3v-3l12 -8zM372 -1v3l-13 18h-2l3 -27l-11 -5 l7 -13zM390 -45l-6 14h-1l-2 -5v-9h9zM383 -68l-10 10l-4 -1l-1 -3l11 -13zM138 -146h-5l-5 -17l3 -4zM197 -201l-18 17l3 -18zM181 -225l-14 9l-4 -1v-13l8 -3z" />
<glyph unicode="h" horiz-adv-x="483" d="M472 121l-29 -32l26 -12l-9 -12l4 -21l-4 -10l-18 4l-11 -8l29 -21v-2l-23 -25l2 -12l-6 -5l-8 12l-12 -2l-41 18l1 3l-7 18l6 8l-10 25l19 11q-4 59 -9 83.5t-16 50.5t-18 53l18 14l-9 1l-14 -2l-38 14l1 6q-25 14 -40 14q-59 0 -82 -54l4 -16l-31 -16l-16 -26l2 -11 l-13 -14l19 -44l16 34l4 -14l-12 -39l7 -23l-18 -27l7 -14l4 4l10 -6l-29 -16l-6 10l-17 -5l-12 -15l8 32l-2 3q-7 -3 -8 -3q-10 0 -13 11l-11 -5l-9 16h-16l-5 23l4 43l-6 25l6 22l-3 37l9 34l-10 25l14 -3l-13 34l9 3l-9 17l6 32l-9 31l3 41l7 -40l1 14q1 6 10 25l-12 80 v23l22 -11l9 8l-24 27l2 9l19 26l-7 7l-19 -7l15 71l11 17l4 31h2l11 8l-11 8l15 12l16 -17l-21 -54l10 -23l-1 22l26 56l22 7l6 -16l-31 -56l2 -12l24 -29l-1 34l6 35l28 -22l-19 -54h2l16 -22l-10 -57l3 -47l-11 -35l-13 -68l64 41l48 20l56 -3l38 -27l-1 -18l9 -13l10 3 l10 -9l-20 -9l7 -14l21 9l32 -47l28 -74q20 -55 20 -82l-18 -3zM158 573l-10 6h-2v-16h5zM97 527l-8 16v-18l4 -1zM146 520v17l-7 -17h7zM66 480v8l-8 5zM92 475l-5 6l-12 4l-3 -23zM146 453v9l-7 -9h7zM150 422l-8 6v-6h8zM336 385q0 23 -21 34q-2 -1 -5 -2q-2 0 -3 -3z M264 400l-8 14l-4 -6l11 -14zM151 404h-15l-4 -23zM215 362l-1 6l-36 -42zM66 340l-15 -3l4 -34l5 25zM289 301l-6 10q-2 5 -12 12h-3l-1 -6l13 -25zM313 287h-9v-8zM173 253l-11 -9q-3 -2 -6 -10l-9 -18l18 7zM120 223v14l-5 -12v-2h5zM82 119l-24 36l-13 -8l22 -21z M128 86v14l-4 1l-13 -15h17zM196 451l-30 -35l2 19l16 18zM38 228l-8 -24l-4 11q0 17 7 26zM70 22l-22 6v1l8 8z" />
<glyph unicode="i" horiz-adv-x="219" d="M139 557l-5 -16l4 -18h-9l-30 14l22 4l-85 108l55 8l21 -19l-20 -2l37 -14l-4 -15zM199 27l-12 -20v-11l-36 14l-58 -18l9 23l-13 -8l-13 32l3 8l-23 22l23 11l-2 7l-21 26l12 38l-14 -17l4 27l-13 42l2 12l-3 29l12 19v9l-7 3l-12 -7l12 59l-4 20l15 38l10 -14l16 19 l-28 8l15 26l-5 3l-16 -10l34 40l18 -11l70 -71l-8 -77l1 -11q0 -4 9 -32l-16 -14l2 -31l16 -62l-7 -11l-15 -3l31 -58zM79 338l-11 20l-10 -10l12 -19l-12 -15l8 -3zM168 253l-1 13l-8 6l-15 -3zM146 236v23l-9 -11l6 -12h3z" />
<glyph unicode="j" horiz-adv-x="247" d="M161 555l-6 -16l5 -18h-10l-39 13l26 5l-103 111l67 8l25 -20l-12 -4l32 -12l-4 -15zM210 2l-5 -32l2 -8l-8 -9l9 -29l-3 -2l-11 3l-6 -9l18 -20l-1 -5q0 -3 -5 -10l-14 -17l18 -51l-15 -21l-11 20q-8 -3 -13 -3q-4 -1 -4 -6l11 -17l-12 -4l-13 8l-9 -8l-98 -6l-129 55 l-12 -3l-26 45l15 35l89 -31l21 3l25 -15l24 7l5 24l-5 25l9 -4l15 21l-22 58l3 15l-8 18l1 25l9 7l18 -7l6 6l-29 102v35l-2 44l19 -29l17 36l-5 15l-12 -12l-14 2l-13 26l4 4l15 -14l-4 17l32 42l-8 25l-3 32h3l24 -45l21 13l-7 32l-11 22l-19 -13l-4 9v10l53 47l24 -1 l10 -7l13 13l18 -85l-9 -94l9 -54l-18 -36l27 -109l-2 -33l-13 -39zM185 420v2l-7 27v-29h7zM156 407v13q-9 6 -30 17zM138 385l-10 8l-1 -33zM164 379l-12 -19l6 -7zM152 303l-4 9l-6 -3l-14 9l-5 -15l7 -7zM147 256l-3 27h-4l-13 -19zM172 245l-9 -2l-35 14l7 -20l19 -6z M79 169l-1 9l-6 3l-12 -12l15 -7zM139 156l-11 22l3 -27h7zM173 146h-21l-17 -35l5 -8zM189 63l-7 20l-7 -14l3 -9h5zM123 47l-8 10h-3l11 -29v19zM203 -9l-31 37l-7 -33l30 -8l2 -13zM105 3l-6 5l-39 -8zM158 -18l-2 3l-16 -23l4 -3zM157 -37l-17 -58v-7l12 11zM86 -122 l-8 19l-20 10zM196 -112l-26 -11l-1 -14zM66 329l-21 -35l-8 14l26 21h3z" />
<glyph unicode="k" horiz-adv-x="493" d="M482 24l-7 -11q-5 -6 -9 -8l-13 -7q-10 2 -15 5q-5 4 -11 8l-4 12l7 30l-12 12l-20 -22l15 -25l-2 -18l-9 12l-11 -20l-15 9q4 10 8 16t1 14l-20 53l-29 -55l-8 -10l-5 10l8 31l10 14l2 16l-12 -10l-27 24l-13 -11l-2 6l6 17l-12 11v2l9 9l-9 13l-26 70h-2l-10 -11l8 -26 v-3q-13 0 -13 15l-11 11l12 14l-36 20l2 9l-35 50l-14 -19l2 -30l-4 -15l8 -22l-1 -27h-7l-8 4q-19 -27 -17 -34l14 -56l16 -43l-13 -70l-32 28l-24 -5l-11 7l-8 23l-15 9l18 32l-1 5l-48 31l1 6l13 8v73l11 -7l9 16l-18 33l9 5l-11 4l2 26l8 -17l3 14l13 -1l-15 14l7 19 l-10 50l18 21l10 -7l9 55l-8 -6l-23 14l12 73l23 33l-2 7l-17 -19l6 33l9 -3l-1 10l30 91l11 26l8 -2l17 5l-9 -26q26 -3 30 -3l3 -49l-15 -39l10 -92l-10 16l10 -68l62 40l42 48l32 -12l-8 -11v-21l6 -6l27 41l1 2h-10l-4 1l5 8l5 -2l28 17l-28 29l8 -2l13 28l25 -7h1l6 8 l1 -2l-6 -24h5l33 -41l-23 -90l-4 -1l-15 7l-23 -21l-4 -12l-14 3l4 -9l-8 -16l-11 15l2 -13h-18l-8 -15l-6 13l-6 -26l1 -11l17 -34l13 7l35 -41l34 -74l-7 -20l8 -6l15 6l-1 -8l16 -55l29 -25l-10 -23l19 -4l-2 -3l9 -12l10 3l-24 -36l28 7zM111 477l-9 20l-5 -22h14v2z M88 438v40l-7 5l-4 -5zM106 438q-9 0 -10.5 -0.5t-2.5 -12.5t-8 -34l19 27zM212 424l-11 7l-7 -8zM186 429l-12 -12l-4 3l-3 -19l11 -9l-3 15l9 8zM144 249q6 10 6 19q0 21 -5 21q-3 0 -6 -9l-6 -7zM212 256l-10 29l-8 4l-4 -4zM77 161l-18 -35l2 -17l13 21zM402 131l-7 25 l-7 -10zM332 126l-13 20l-4 -18l4 -19l12 11zM47 113l-4 11l-7 -6zM355 114l-4 3l-8 -12h6zM381 101l-8 8h-3v-19h3zM347 536l-43 1q0 7 3 7q5 2 23 11zM77 415l-5 -23q-5 4 -8 4l-4 -2q-1 0 -4 3l2 14zM160 117h-1l-11 29l9 25l3 -19v-35zM283 141l-30 5l2 11l14 2zM35 77 l-3 -6l-7 13h10v-7zM379 24l-12 -2q-7 0 -16 -7l14 26z" />
<glyph unicode="l" horiz-adv-x="236" d="M205 41l-17 -22l1 18l-16 -18l4 12l-10 17l-5 -21l-11 17v19l-8 -9q-3 -5 -9 -25l-17 44l-16 -13l-4 -19l-7 -1l-43 43l24 14l-6 9l-6 -1l-20 16l29 4l-8 26l-13 12l-5 17l12 23l57 -70l9 11l-23 15l3 25l-15 -6l-5 47l17 12l-26 63l22 32l-4 4l-24 -9l-9 21l16 -9l29 44 l3 13l-21 28l21 20l-13 10l-14 -4l5 19l-5 48l6 23l-5 14q20 15 26 16l-17 14l10 45l17 7l-26 33l12 5l27 -6l6 19l10 3l33 -20l3 -249l-4 -17l12 -68l-7 -214l8 3zM120 500l-6 5q-2 2 -26 9l26 -27zM120 386h-6l-22 -28l26 16zM97 270l-8 8v-9h8v1zM133 241l-7 16v-16h7z M120 225v12h-9l-1 -6l8 -6h2zM133 121l-10 7v-7h10zM154 103h-11v-20zM103 637l-30 -16v21l19 9zM82 408l-17 19v5l10 2zM85 368l-15 -20l-16 35v11zM75 218l-19 1l-9 22l3 12zM55 129l-28 -1l7 10zM71 22l-24 -7l11 15l-8 6l18 6zM90 22l-8 -31l-5 49z" />
<glyph unicode="m" horiz-adv-x="668" d="M652 151l-11 -74l-19 -36l13 11l10 -1l-8 -22q-4 0 -11 -11q-6 -11 -16 -11q-20 0 -27 8q-7 9 -9.5 11.5t-24.5 8.5l-11 28q6 72 6 101q0 53 -19 85l-9 4l3 21l-4 8l-21 -27l-5 35l20 12l-5 13l-42 -29l-37 12q-2 -1 -3 -1q-3 0 -5 10t-5 7v-30l-19 -24q-5 -38 -5 -60 q0 -42 13 -114q15 -14 15 -25q0 -8 -10 -20q-10 -11 -20 -25l-14 11q-10 8 -23 8l-17 -3q-3 0 -12 4.5t-14 17.5l-4 12l3 14q1 6 2 33l-13 12q7 14 7 23q0 6 -7 14t-8 13t-1 41q0 28 -9.5 34t-25.5 6l13 15q-8 2 -11 7q-3 6 -5 7l-20 -29l-9 33l15 14l-6 12l-39 -34 q0 -7 -1 -9q-17 -29 -17 -49l1 -12l-8 -30q-8 -31 -8 -61q0 -25 19 -72l-24 -44v2q-3 4 -4 6q-1 3 -3 3h-5l-46 14l-19 -6l-4 23q5 8 11 14q6 7 6 15l-4 9l-26 -30l-24 55l18 67l-13 -1q-12 0 -12 11l41 52l-10 18l10 22l9 -38h2l7 18l-8 8q-12 26 -20 32l17 20q-8 21 -8 27 l2 11q0 5 -7 10l-8 -17l-5 28l6 45q4 2 8 2q7 0 37 -10l14 3l16 -23l24 4l8 -42l22 60l5 -22l19 13l15 -24l23 16q5 1 11 -39l31 30l18 -36q6 5 9 9q4 4 5 4t6 -1l2 -39l9 -30l2 30l20 27q-1 13 -1 20t5 10q15 9 33 29l-6 -27l30 29q1 -2 19 -2l31 -27l12 38l-2 -22l22 8 l11 -26l23 13l6 -3l-4 -25q0 -2 3 -13l32 24q9 -1 9 -2t0.5 -10t5.5 -27q15 10 19 8l-6 -54l5 -16l9 28l20 -161l14 8zM72 411l-13 -15q-1 -2 -3 -21l12 14zM189 381q-18 -18 -23 -32l6 -17h1l-2 17zM467 336l-4 22l1 12q0 1 -5 3l-7 -26l3 -6zM480 314l-12 4l-10 -2 q0 -14 9 -16zM206 307l-8 2l-15 -5l6 -10zM66 212l-8 5l-2 -1l-18 -30l21 5zM74 181l-11 -5q-6 0 -6 -20zM72 132q0 21 -4 21l-7 -21h11zM348 368l-17 -31l5 28zM56 336q-5 -13 -6 -29l-7 -9q2 4 -2 20l3 9zM56 238l-8 -9l-11 4l5 14z" />
<glyph unicode="n" horiz-adv-x="454" d="M434 72l-6 -13l-51 -29q-22 17 -43 17q-11 0 -11 19l1 29q0 33 -35 90t-44 100l-16 -29l-13 33l14 13l-8 13l-35 -28q1 -7 -10 -18l16 -7q-2 -4 -10 -6q-8 -1 -9 -3l8 -11l6 -48l-12 -74l37 -64l-25 -52l-44 8l-16 17l-18 -6l-10 34l1 9l14 4l-5 14l-22 -30l-20 35l-15 8 q1 20 3 31l10 48q-4 1 -7 7t-6 6q-2 0 -7 -4q-4 -4 -9 -4l-1 9l35 47l-12 19l7 22l14 -38h2l5 12l-13 37l-11 -1l-10 10l15 16l-23 70l-12 6l9 19q-2 23 9 24l29 -19l12 3l20 -23l23 4l29 -25l24 17l-18 4l18 13l19 -24l19 16l6 -2l10 -16l28 9l24 -36l13 13l4 -1l20 -69v30 q21 -26 36 -95q4 -22 34 -55l12 8l6 -3l-1 -10l8 -42h-14l14 -26h-23l25 -15l-20 -24q11 9 18 9zM70 375l-17 28l-10 -9l9 -2v-13zM179 371l-12 -16l-5 9l-15 3l14 -18q3 -4 5 -17h1zM194 301l-6 12l-14 -5l9 -15zM181 194q2 7 -13 32v-18l10 -29zM75 212l-7 5l-2 -1l-1 -13 l6 -12zM175 160l-3 11l-19 18q10 -20 20 -50zM323 175l-10 12l3 -28zM92 137h-2l-8 -5l-6 -21zM56 323l-15 -25q-3 18 -6 24l7 15q9 0 14 -14zM62 237l-19 -4l3 14q4 -5 8 -7q4 -1 8 -3z" />
<glyph unicode="o" horiz-adv-x="499" d="M485 254l-11 -36l-19 18h-2l-6 -9l4 -15l-9 -9l23 -10l-12 -14l8 -26q-14 -26 -18 -43l-11 23l-17 -23l-7 -31l-23 17l-9 -8l17 -22l-9 -29l-10 22l-28 -33l-11 13l-14 -41l-13 8l-28 -13l-23 21l-8 -13l-32 15l-18 -8l-57 15l-49 36h-3l-19 20l1 7l-27 29l-21 101l9 22 l-10 21l14 6l-4 19l17 30l18 -21l20 64l28 13l-2 12l15 15l9 -12l4 12l11 -3l25 19l-3 6l11 13l-3 8l14 19l4 -16l-8 -11l8 -5q-2 1 4 9.5t27 30.5l10 -17l7 2v-11q7 -11 11 -11l1 32l10 -3l25 -46l4 13l-9 29l16 31l23 -16l10 12v-29l19 -12v2l-11 20l7 22l20 -12l-6 -10 l3 -10l11 14l5 -11l37 -34l-6 -16q9 0 13.5 2t10.5 5l-3 -33l3 -12l-6 -15l1 -19l32 2l-8 -13l5 -45l-16 3l-21 -8l37 -24v10h17zM319 464l-18 -2v-10zM409 426h-11l3 -9zM392 311l-23 6l6 9l-26 72l-6 2l-19 -11l-21 11l-14 -28l-9 26l-5 1l-17 -12l5 -2l-13 -13l17 -11 l3 -6l-11 -7l-14 8l-38 -30l-50 -69l-10 -63l-8 10l-3 -26l7 -51l14 6l10 -17l-6 -6l4 -23l17 14l13 -35l9 24l11 -19l26 9l21 -14l51 35l4 -19l4 18q2 11 5 17l9 17l16 6v11l21 141zM447 306l-4 8l-18 -3l12 -9zM92 255l-16 18l5 -23l-2 -11l12 -22zM62 227l-7 9l-4 -6 l5 -9zM426 223l-22 -6v-3l14 -2zM414 166l-7 6l-1 -7l3 -9zM382 165v4h-6l-12 -12zM438 158l-8 4l-11 -16zM167 77l-12 1l-11 -12l6 -11zM165 421l-12 -19l-7 4v3l4 14l-8 7l4 5zM482 374l-33 -27l-3 6l15 18zM78 345l-10 -15l-8 14l7 24z" />
<glyph unicode="p" horiz-adv-x="407" d="M386 229l-13 -41l-1 -5l-18 -1l10 -8l-62 -62l-37 -9l-20 -28l-40 -12l-20 14q-3 2 -22 4l7 -46l11 -192l-19 37l-10 -6l11 -47l-7 -44l-25 20l4 10l-14 20l-11 -34l-16 29l-1 -23h-5l-45 39l9 22l-3 41l-11 52l25 56l11 36q-36 -47 -31 -60l-10 -10l16 67l29 34l-22 -13 l-15 145l3 27l-5 82l-4 11l17 37l-22 -16l4 37l-7 -15l-2 17l10 56l25 -26l23 29l26 -34l-4 20l18 17l15 -13l30 10l13 -17l8 9l12 -13l4 21l17 -25l16 10l63 -30l14 7l14 -55l25 -34l8 6l14 -25v-8zM280 221l-8 15l-22 90l-9 -8l-11 27l-63 32l3 13l-14 -6l-6 -146l-7 -30 l8 -13l-11 -9l42 -25l32 26l10 -3v-15l21 36l12 13l21 -13zM134 348l-11 16l-2 -15l8 -7h3zM77 263l-16 79l-2 -23l7 -92zM368 289l-12 29l-8 -19zM357 210l-6 14h-9l-13 -17l20 -6zM344 188l-6 10q-15 -10 -19 -15l6 -4zM178 93l-13 25l-23 -30l5 -3l13 8h-2l12 -7zM135 33 v13l-9 -10l7 -3h2zM121 -36l-9 17l-19 -32zM95 -33l-20 -10l5 -18zM63 -95v20l-15 28l8 -55zM160 -91l-4 10v-10h4zM70 -154v18l-10 3l-8 -18zM187 -189l-12 -11v33zM144 -215l-8 -10l-13 18zM182 -212q-10 -8 -21 -9l6 13z" />
<glyph unicode="q" horiz-adv-x="429" d="M534 -128l-27 -47l-12 3l-31 -39l-41 -15l-19 1l15 13l-40 -10l-21 10l2 -12l-22 4l-1 26l-16 -31l-18 43l-13 -5q-12 23 -19 43l7 23l-21 -7l19 27l-8 44l14 -13l-14 37l14 -7l-13 85l-18 3l-14 -6l-69 11l23 10l-11 20l-36 -8l-47 6l30 4l-35 17l-26 28l-7 15l-12 -15 l-1 23l-14 51l11 43l23 45l8 -36l36 134l5 -23l60 48l20 2l18 -11l19 26l-6 -21l18 25l14 -21l14 17l33 -10l18 13l19 -39l2 20q-1 6 -4 16l28 -31l26 28l12 -61l-3 -18h-17l-10 -9l15 -36l-6 -22l-10 -79l2 -19l-8 -59l2 -65l10 39l14 -47l-19 -6l9 -11l12 -53l-12 13 l1 -15l17 -48l-13 -19l-5 -33l17 -17l12 10l5 -10l99 44zM292 171l-13 45l7 139l-17 7l3 -12l-69 -36l1 -13l-13 -41l-9 32l-25 -83l-5 -7l5 -17l15 5l38 -57l-6 29l17 -8l38 -29l19 50l-3 11zM325 317l-2 17l-14 -17l3 -7q2 -1 13 7zM361 286l-2 24l-15 -74l12 -34zM67 239 l-7 20l-12 -16l14 -16q2 7 5 12zM163 248l-18 -8l2 -15zM81 181l-1 17h-10l-10 -30l12 -20zM103 130l-10 26v-20l-19 -3l25 -6zM292 55l-22 35l-17 -29l8 -7l5 17q10 -7 17 -22zM302 28l-19 1l-1 -14zM329 -47q-9 10 -12 23l-9 -17zM310 -56l-17 29l-2 -10l17 -28zM384 -74 l-3 9l-8 -9q-5 -6 -7 -11l-4 -14zM310 -85l-21 -3l-1 -7q0 -3 -9 -17l13 4l-5 -21zM315 -182q-3 16 -13 40v-20l-9 -6zM377 -185l-21 18l-10 -37l14 16zM260 -7l-5 -19l-16 27l2 10z" />
<glyph unicode="r" horiz-adv-x="342" d="M335 315l-38 -4l19 -7l-10 -3l1 -8l-19 -18l-43 25l3 -14l-3 -5l-27 25l13 12l-7 16l-54 -23l8 -7l-3 -46l13 -32l-16 -89l39 -62l-20 -52l2 29l-19 -19l-35 5l-24 -7l-12 45l1 7l13 5l-5 14l-18 -5l1 -16l-5 -9l-33 61l15 -8l-4 69l-6 25l-14 -19l-2 11l24 44l-9 18 l7 22l26 -35l3 6l-13 32q-17 8 -28 18l14 17l-8 64l-8 -9q-4 -4 -9 -20l-7 59l-15 -15l8 22l-5 12l20 -1l7 -9l41 -1l21 -22l21 4l18 -9l13 25l6 -20l18 12l18 -24l27 15l10 -37l26 29l24 -35l15 11h2zM166 327l-5 21v10l-10 11v-29l14 -13h1zM201 329l-10 3l-19 -1l8 -8z M89 198l-12 31l-7 7l-2 -2l7 -24zM182 222l-10 8l-2 -4l3 -20zM84 190l-5 4l-1 -30zM96 145l-4 11l-8 -6l-1 -13zM48 325l-5 -9l-5 13l1 16h6zM51 260l-1 -9h-5l3 13z" />
<glyph unicode="s" horiz-adv-x="480" d="M465 430l-16 -54l-31 -26l-105 22l-18 10l-15 -9l-70 -11l-21 -22l-11 3l2 -47l13 -20l9 29l6 -14l20 -5l17 7l52 -19v-7l8 -20l33 9l10 -12l44 -20l26 -31l21 -2v-12l18 -46l-13 -13l5 -12l-21 -27l-10 8l-33 -20l-16 -21l-11 10l-65 -28v-12l-21 14l-21 -31l-4 25l-8 3 l-18 -7l-11 -21l-25 11l-16 -15l-21 21l-5 1l-22 -18l-32 34l-31 -31l-12 71l2 20l21 -1l11 10l-4 13l60 -19q7 2 21 13l25 -14v1l-3 -12q29 12 34 10l47 -12l14 4l-1 8l16 24l13 -9l4 14l21 3l-26 17l-26 44v-19l-12 -4l-44 34l-6 -5l-50 15l-3 -9l-59 59l-13 64l-10 -45 l-32 85l29 -42l22 92l4 -16l21 37l34 10l34 -3l34 14l13 -16l-5 -4l8 -9l49 46l33 -16l28 16l10 -20l10 -3l37 25l38 -32l14 6zM416 456h-8l-5 -6l7 -6zM156 216q-2 31 -6 52l-15 -2zM208 256l-8 9l-19 -13h-1l-9 15l-6 -4l26 -39l-5 21l19 4zM418 151l-8 20l-13 -16l5 -15 h12zM349 120l-3 17l-20 -18zM437 115l-15 19q-2 -6 -3 -8t-2 -5l6 -6h14zM171 80l-3 8h-3l-10 -8l1 -20zM495 428v-2l-21 -18l14 32zM67 374l-2 -3l-12 4l1 1l3 19zM36 80l-17 -24l-5 24l13 8zM22 34l-15 4l2 20z" />
<glyph unicode="t" horiz-adv-x="494" d="M484 459l-14 -36l5 -15l-111 -21l-10 9l-20 -8l-9 7l-28 -14l3 -11l-8 -33l5 -14l-19 -15l-3 -26l-28 35l-7 -11l14 -35l-10 -16l28 -33q12 -27 15 -37l-20 15l-4 -40l27 -23l-11 -22l-7 1l-24 -27l5 -46l1 -2l-11 5l-2 -4l17 -37l-20 -32l-11 4l-9 14l-11 -7l-26 27l4 2 l18 -5l7 10l-3 12l10 13l-11 7l-5 -2l-10 -14l-34 62l3 15l-16 65l1 74l20 36l-25 37l8 -1l40 38l-17 -6l-28 18l-28 -1l-35 -13l-61 12l16 19l-3 25l18 19l-13 22l7 10l4 -14l15 -6l32 49l27 -48l20 34l14 -11l20 46l-16 17l-4 -1q-14 24 -13 32l14 74l-15 28l2 9l-7 27 l5 13h5l16 -34l21 37l6 -20l5 12l10 -12l17 6l25 -7l16 -22l-6 -14l21 -9v-33l-3 -9l13 -44l-26 -28l9 -14l24 15l1 -8l-5 -33l13 -19l11 11l19 -21l26 16l9 -10l16 14l34 -16l11 10v2l25 -22l11 13zM224 666v8l-10 9l-6 -6l14 -11h2zM227 518l-20 34v-14zM312 467l-20 5 l-17 22l-7 -16l13 -1l6 -15zM191 447v9l-10 6h-1l-1 -6l7 -11zM241 424v20l-11 3v-16l7 -10zM130 390l-16 5l-9 16l-4 -13l21 -19zM154 398l-12 10l-11 -31zM68 384l-14 14l-19 -23l23 -7zM170 386l-12 4v-16zM165 239v11l-2 14l-10 -19zM238 89l-7 1l-7 -6l14 -16v21z M164 507l-13 -6l-4 11zM302 165l-4 -15l-3 15h7zM272 -38l-13 9l4 6l9 -7v-8z" />
<glyph unicode="u" horiz-adv-x="425" d="M419 296l-3 -1l-16 4l-6 -44l-18 -56l6 1l8 -26l-24 17l5 -22l-11 -7l-11 -26l-18 -32l-6 -1l-10 8q-15 -28 -24 -41l-12 17l-6 -25l-11 6l-4 -15l-12 2l-5 -11l45 4l-24 -17l-2 6l-30 -7l10 -1l-25 -16l-8 24l-20 -24l-14 14l10 9l-6 4l-10 -5l-7 -20l-27 15l-1 9l-6 2 l-21 -4l-13 10l-33 68l-7 4l-8 42l4 16l-11 21l6 44l-4 18l13 6l-12 13l1 5l7 -2l19 16l-4 8l8 35l-8 60l3 19l12 -9l2 -9l13 12l68 -22l2 -15l-5 2l-6 -9q-4 -4 -5 -11q0 -7 -2 -17l3 -41l-17 15l-4 -12l9 -1l4 -18l6 4l5 -17l-19 -39l-6 -27l17 8l4 -7v-2l-5 -23l-20 -24 l2 -7l13 22l10 -11l-9 1l-4 -4l21 -19v-3l-23 13l-2 -6l7 -10q-5 -26 -8 -34l5 -3l10 15h6l5 -20l10 8l31 -20l11 35l-14 -14l-4 14l51 23l-8 -16l31 28l32 41l-16 14h17l9 19l-11 17l2 30l4 10l2 -18l9 18l-8 8l-1 7l2 27l-6 17l4 33l-47 85l14 -6l3 9l13 -29l15 12l15 -7 l8 9l6 -11l6 5l-5 13h1l19 -18l-31 -9h21l29 -9l-2 -6l3 -18l-26 -14l15 3l5 -6l6 3l16 -11l-2 -10q0 -16 6 -26l-6 -25l7 -10l-2 -15q10 23 12 33q2 11 3 12.5t12 6.5q0 -4 -5 -27zM337 399l-12 9l-7 -14zM101 357l-1 10l-11 4l8 -24zM378 349l-10 13l-8 -14l4 -17zM86 294 v10q-3 -6 -23 -28zM343 280l-5 11l4 -10zM380 272l-1 9l-5 5l-2 -4zM105 218v37l-7 3h-1l-4 -28zM349 162l-13 18l-2 -6l13 -12h2zM109 169l-7 1h-2l1 -8zM109 144l-8 6l-6 -21v-1zM340 146l-10 -10l3 -20zM244 66l-25 -25l10 -3zM394 396l-6 -7l-6 6l4 11l-25 48l20 -24z M42 354l-7 -3q-2 6 -19 34v1zM59 385l-3 -25l-8 24zM37 333q-19 5 -22 10l3 13zM61 335l-6 -42l-9 24q8 17 12 32zM416 281l-8 -36l-5 19zM154 241l-14 -7l8 18zM402 205l-4 -25l-9 30zM372 152l-4 -16l-8 -1zM350 114l-14 -22l-21 -3l17 9z" />
<glyph unicode="v" horiz-adv-x="408" d="M389 388l-47 -39v-11l-18 4l-13 -26l18 -56h-2q-8 5 -20 28l2 -13l1 -11q0 -5 7 -19l-19 -17l25 -15l-6 -36q-4 4 -6 33l-7 -20l-26 -11l-6 -14l6 -2l18 10l5 -2l-8 -16l5 -35l-5 -2l-10 8l3 14l-16 -17l11 -32l-9 -16l16 4l-8 -23l10 4l-72 -45l13 -21l-25 4l-27 17 l-12 -4l-14 20l20 -5l-20 26l8 46l13 -2l-43 41l2 17l-10 65l-32 3l14 6l5 18l-11 44l6 18l-22 57l-4 -25l-13 17l-15 -3l32 43l-17 2l-36 41l-11 -14v15h1l5 17l43 -15l-10 16l-22 2l24 10h2l19 -25l12 12l-8 17l3 8l14 -12l8 4l1 -17l21 22l-2 -10l3 -25l-16 -9 q-7 -5 -18 -17l3 -11l8 -7l22 29l15 1l-4 -7l16 -20l-5 -29l31 -109l19 -39l29 28l-10 8l19 3l-31 12l17 7h1l12 11l-21 -5l-4 7q11 6 23 18l-16 18l18 9l-14 10h2l24 11l1 9l-12 19l16 -3l6 17l-12 -3l3 18l14 15l9 -7l-19 23l22 -5l26 -25l7 7l18 -10l35 4zM331 379l-2 14 l-8 -1l-8 7l1 -46zM121 289l-9 22l-1 -26l4 -2zM281 288v1l-14 5l-4 -7l1 -9l7 -7zM147 198l-9 24l4 10l-24 34h-2l22 -79zM255 248l-6 10h-4l-17 -17zM292 196v19l-12 -6l9 -14zM260 180l-15 5l3 10l-7 5l-15 -20l-7 2v-22l18 18zM315 460l-20 -4l-9 9l11 5zM169 458 l-14 -15l-4 9l5 9zM88 308l-17 19l13 -4zM362 319l-7 -7q-4 -3 -9 -18q-4 7 -8 23z" />
<glyph unicode="w" horiz-adv-x="615" d="M600 377l-6 -8l-38 -29l-6 -23h-9l-13 -32l11 -39l-16 2l-4 -4l8 -15l-19 -14l22 -14l-3 -35l-13 13l-26 -10l-4 -13l5 -3l22 8l-3 -48l-4 -2l-22 5l10 -31l-8 -15l8 -17l8 3l-54 -61l-16 2q-9 1 -15 5l-18 12l-12 -3l-1 3l6 11l-19 25l9 42l-4 8l-25 28l2 16l-10 61v1 l-11 12l-5 -3l4 15l-4 60l-4 2l-5 -47l-4 -1l-11 4h-1l-2 -5l7 -13l-18 -15l23 -14l6 -35q-15 9 -24 13l-26 -10l-2 -13l4 -3l21 8l-5 -34l3 -14l-4 -2l-11 9l8 8l-3 4l-16 -16l9 -32q-7 -16 -7 -23l5 -7h1l9 2h2l-49 -51l-6 -10l-15 2q-9 1 -16 5l-19 12l-12 -1l6 12 l-18 23l-12 60l16 -8l-26 28l2 10l-19 65v1l-30 6l13 4l4 14l-10 41l6 17l-22 50l21 18l-26 -11l18 30l-16 3l-35 38l-10 -13v14l5 15l16 -19l12 23l-18 -1l24 10l19 -23l12 10l-9 15l4 8l11 -10l8 4l2 -17l20 21l14 -26l-19 -4l-3 -5l8 -13l10 4l4 -1l-4 -8l15 -17l-5 -28 l16 -15l32 -124l18 30l-16 19l20 5l3 11l-10 -5l-4 8q10 4 21 15l-15 16l18 10l-14 9h1l39 8l-12 27l23 13l-10 11l15 17l6 -7l3 17l22 -11l9 9l59 -18l-6 -30l32 -118l17 -36l19 34l-18 15l24 16l8 18l-14 16l16 10l-6 20h1l23 10l-10 28l-2 1l23 11l-10 14v1l14 13l7 -6 l3 16l25 -22l7 6l18 -9l32 3zM548 368l-9 13h-2l-7 -38zM319 354l-10 14l1 -6l-6 -30zM126 244l-15 26l-5 26l-4 -32zM492 268v2l-12 8l-4 -9l1 -9l6 -5zM271 268l-12 10l-2 -7l1 -11l6 -5zM368 186l-11 24l4 8l-24 32l3 -20l18 -54zM136 182l-9 25l4 8l-20 33h-2l2 -20 l17 -55zM250 215l-3 18l-6 -9v-5zM471 215l-5 9l-4 -5zM503 184v19l-14 -6l12 -14zM284 184v19l-14 -6l12 -14zM459 171l-3 16l-21 -16l2 -21zM242 184l-5 3l-21 -16v-21h2l21 21v2zM485 40l-3 12l-15 15l10 -35zM238 30l-10 25l-10 -8v-3zM265 40l-3 4h-3l-4 -9l3 -3z M515 444l-4 -5l-7 10l5 1zM304 431l-3 -4l-8 7l5 1zM387 430l-14 -12l-3 5l4 9zM168 430l-13 -12l-4 6l5 8zM92 289l-12 -3l-2 14zM558 291l-5 -13l-3 6l3 9z" />
<glyph unicode="x" horiz-adv-x="430" d="M418 29l-27 -32l-42 -8v-12q-12 9 -32 13l-13 -20l-31 28l9 28l-23 -7l-33 73l-13 3l-31 -12l9 39l-29 -39l-6 -17l-9 15l-11 -26v-14l-10 17l-17 -5l20 -21l-36 -33l-3 24l-22 -18l2 -7l-4 -8l-10 3l6 8l-15 10l-14 -9h-2v21h2l5 14l62 92l13 4v26h9l20 24l-8 11l3 11 l19 -18l6 28l-9 6v19q-26 81 -63 118t-53 116l15 -4l3 16l38 -17q9 6 14 10q6 5 15 7l4 -6l19 -27l2 -16l37 -28l-17 -13l63 -56l22 52l23 35v8l15 -15l3 1l8 32l7 -4l22 15l3 -6l-10 -24l16 -4l9 31l20 12l12 -29l-7 -6l-12 18l-3 -7l10 -18l-26 -50h-9l-16 -7l1 -7 l-15 -42l-44 -88l33 -27l11 -37h10l-10 -16l10 -17h1l7 19l56 -78l-2 -10zM145 432l-20 7l-5 -9l12 -5zM173 412l-22 1l5 -6zM278 407l-22 -26l-15 -34l21 27zM210 335l-10 14l-4 -7l4 -18l3 -1zM182 324l-12 5l-11 -5l21 -11zM241 319v6l-13 1l-9 -7h22zM184 303l-14 -9v-3 h7zM145 143l-12 17l-12 -13zM332 127q-7 -4 -30 -8l25 -7zM242 110l-6 5l-13 -14h11zM286 93v4h-13v-4h13zM324 91l-3 4l-6 -12h9v8zM330 56v4l-5 5h-1v-9h6zM315 45v1l-8 6l-15 -9l-1 -4l10 -5zM336 48h-5v-9zM305 5l-9 7l-7 -3l12 -9l4 2v3zM234 36l-4 -6l-8 18l4 9z M26 -3l-11 5l7 22zM410 -23l-33 -3h-1l-5 6l10 5z" />
<glyph unicode="y" horiz-adv-x="518" d="M511 362l-42 -58l2 -8l-22 -51l-37 -50l-1 -8l-7 1l-14 -12l4 -14l-44 -79l-31 -47l-32 -75l-8 14l-18 -52l-34 -46l-27 -66l-41 -59l-18 29v-13l-3 -9l8 -16l-25 24l-24 9l-19 -22l-7 8l6 17l43 22l-23 32l23 25l-1 9l50 85l27 66l-36 14l-17 41l5 15l-14 39l-3 -9 l-14 33l-25 104l-4 -16l-10 11l5 18l-49 145l24 14l63 -15l12 -39l-9 -20l28 -44l29 -68l-5 -26q5 -1 17 -8l11 12l-4 -17l22 -71l-15 -13l30 -48l20 57l27 -36l10 12l-26 34l29 18l24 27l-20 2l23 26l-7 5l30 46l1 8l12 -1l12 -13l3 5l-7 18l22 26l-4 30l25 15l-10 19l2 8 l11 -4l38 24l12 -2zM157 276l-5 16q-8 -13 -8 -21zM441 248l-9 7h-5l3 -13zM203 173l-17 7l-4 22l-6 -17l3 -15zM266 63l-10 10l-1 -20l5 -1zM208 0l-4 18q-8 -26 -8 -32l1 -23zM193 -74l-14 -12l-2 2l-10 -15l10 -3zM142 -143l-8 23l-8 -12l4 -16zM95 -203l-14 -4l2 19z " />
<glyph unicode="z" horiz-adv-x="539" d="M518 42l-13 -31l-19 1l-13 -5l-9 25l-27 -2l-18 -15l-40 12l-17 -7l-11 4l-23 -4l-19 10l-14 -14l-29 17l-30 -23l-11 15l7 16l-16 6l-27 -9l-4 -12l30 -24l-7 -2l-31 16l-15 -16l-11 -1l-51 15l-5 13l-29 -4l-38 22l64 82l24 41l13 -11l4 21l14 -6l8 9l-4 14l32 29 l67 36l41 33l20 25h-40l-10 4l-17 -3l-12 4l7 8l-24 3l-29 -9l-15 6l-6 -1l-14 3l-9 -6l-9 18l-12 -11l-46 40l17 5l-10 15l22 27l-7 14l26 9l43 -16l33 18v-2l-16 -17l18 -6l7 22q7 -8 14 -14l16 6l-1 -9l18 12l7 -5l-24 -34l7 -12l26 22l28 9l-26 3l42 12l25 20l8 -15l7 5 l39 15l-1 -15l15 -2l3 12l6 -7l12 4l8 -9l10 2l8 -2l40 23v-2l19 -34l-11 -4l8 -17l-17 -37l1 43l-28 -64l-49 -64l-49 -36l-10 6l-36 -17l4 -14l-29 -29l-48 -41l33 -27l77 11l35 -7l-6 -16l5 -9l30 30l19 -3l24 -23l8 28l10 -8l21 6l10 -13l-1 -39l-12 -19l13 -13z M428 424l-8 5l-21 -6l-43 7l-13 -2l10 -25l15 6l8 -21l14 15l8 -9v5zM338 421l-9 6l-6 -20l4 -3zM232 415l-11 6l-13 -12l11 -2zM129 391l-17 18l-1 -8v-3l3 -14zM473 378l-14 3l5 -15zM353 366l-16 11l-6 -3v-2l19 -10zM178 362l-10 3l-6 -3v-16zM325 354l-8 8l-5 -4l12 -5 zM327 326l-20 13l-3 -13h23zM420 301v10l-13 -7zM368 263l-18 16l-5 -20zM392 278l-20 -10l4 -5zM248 242l-10 2l-35 -18l26 1zM441 120l-16 8l-5 -8h21zM92 81l-1 34l-10 -15zM259 106l-9 4l-14 -40l11 6l-3 8zM462 88v13l-19 3zM225 94l-2 10l-10 -11l4 -5zM495 94l-24 -2 l2 -8zM336 93l-7 1l-12 -14l9 -12zM473 33l-7 20l-14 -9l7 -8zM416 43l-5 9l-4 -3v-1l9 -7v2zM271 49l-12 3l-9 -14zM358 38l-5 9l-15 -12l4 -3zM104 35l-15 9l-7 -11l11 2h11zM407 23l-12 15h-11zM129 34q-13 -4 -27 -11h16zM165 20l-24 10l-12 -7l9 -15l7 9l16 -9zM273 2 l-23 5l17 4l6 -3v-6zM464 0h-27l-6 7z" />
<glyph unicode="{" horiz-adv-x="343" d="M350 -5l-14 -41l9 -36l-1 -3q-16 15 -33 33l-10 -4l-21 7l-10 -6l-2 24l-16 -5l9 -24l-7 -1l-17 14v8l-19 28v-23l-7 -9l-18 12l-12 -5l-24 31l2 -1l10 8l-7 8l-17 -25h-8l3 10l-16 30l8 13l-6 25l-12 -6l3 22l-11 14l-7 -18l4 -8l-4 -16l12 -8l-8 -16l-20 51l16 15 l-16 19l17 117l9 15l-26 23l-72 40l33 40l8 -5l-5 15l32 1l77 15l-27 26l-9 -8l-4 22l16 11l16 -18l19 13l-16 5l-50 130l12 13q-9 22 -13 37l11 -2v19l10 -13l19 33l31 16l18 -6l19 23l-15 -7l7 16l27 15l44 -16l10 1l33 39l17 -6l7 2l-12 -24l14 -11l-2 -28l-31 -12 l-39 -28l-7 -16l-27 26l-1 -1l-15 -30l-33 -15l-20 -39l30 -48l9 -22l9 6l2 -6l-2 -26l24 -23l-5 -4l-3 -33l7 -24l-111 -46l4 -7l-12 -5l91 -41l-19 -43l-13 -73l6 -14l5 31l9 -22l-14 -24l67 -57l-1 -3l-23 -2l3 -7l18 3l52 -20l35 5l10 -7l-5 -19zM309 687v11 q-14 -7 -19 -16zM135 252l-15 11l-1 -5l9 -33zM156 159l-19 -13v-16l8 -25zM323 -36l-5 21l-12 -14l13 -7h4zM90 566l-17 -31l-10 31l27 16v-16zM97 531l-20 -14h-7l11 15l9 -1h7zM301 -74l-7 -9l-8 9l7 9l7 -1z" />
<glyph unicode="|" horiz-adv-x="268" d="M201 663l-16 -62l14 -21l-8 -69l3 -53l-9 -37l-9 -108l14 1l10 -17l-5 -28l-11 -10h-1l4 24l-8 11l-9 -35l6 -47l-10 -5l2 -18l-2 -67l-10 -17l14 -49v50l14 -27l-9 -43l5 -27l-12 -29l8 -15l-14 -21l-8 14l-15 -2l-4 -18l-15 33l-9 -12h-2l-7 21l-9 -5l-5 18h-12l-3 25 l2 45l-5 31l4 67l6 38l-7 28l5 12l-5 23l5 57l-6 36l1 46q4 -20 12 -43l2 40l-10 81l1 37l15 -12l7 8l-18 32l1 8l16 30l-3 45l-17 -45l13 106l16 -22l12 3l2 33l1 12h1l8 31l2 1l12 -21l-15 -58l8 -26l35 94l4 -17l-23 -62l2 -14l17 -34v42l4 36zM183 575l-7 7v-19h2z M137 523l-5 18v-21h2zM174 516v16l-4 -16h4zM114 466q-1 4 -17 15l12 -19zM132 462v9l-5 4zM176 439v12l-6 -12h6zM156 182v14l-5 -12v-2h5zM97 77l-9 28l5 -30zM162 30v15l-15 -15h15zM73 190l-3 -8l-10 9l9 12zM93 -41l-12 -15l-1 22l7 8z" />
<glyph unicode="}" horiz-adv-x="343" d="M350 329l-33 -39l-8 5l5 -15l-31 -1l-78 -15l27 -26l10 8l4 -22l-17 -11l-16 17l-18 -12l16 -5l49 -131l-11 -12q9 -22 12 -37l-10 2v-19l-10 13l-20 -33l-31 -16l-18 5l-18 -22l14 6l-6 -15l-28 -15l-44 16l-9 -1l-34 -39l-16 6l-7 -2l12 24l-14 11l2 28l30 12l39 28 l7 16l27 -26l1 1l15 30l33 15l21 39l-30 48l-9 21l-10 -6l-2 7l2 26l-23 22l4 5l2 33l-5 23l111 46l-5 8l13 5l-91 41l18 43l13 73l-6 14l-5 -31l-8 22l13 24l-66 56l1 4l22 2l-3 7l-17 -3l-53 20l-34 -5l-11 7l6 19l-13 14l15 41l-10 36l1 3q17 -15 33 -33l10 4l22 -7l9 6 l2 -24l17 5l-10 24l8 1l17 -14l-1 -8l19 -28v22l8 10l18 -13l11 6l25 -31h-2l-10 -7l7 -8l16 25h8l-4 -10l17 -31l-8 -12l7 -26l12 7l-3 -23l9 -13l8 18l-5 8l5 16l-11 8l7 16l21 -51l-17 -15l17 -19l-18 -117l-8 -15l26 -23zM55 666l-13 7h-3l4 -21zM224 507l-8 24l-10 -53 l18 12v17zM242 379l-9 33l-7 -27l16 -11v5zM72 -45l-20 -5v-11l14 7zM76 711l-7 -10l-8 1l-1 9l8 9zM292 120l-11 -16l-10 1h-7l21 15h7zM298 71l-27 -16v16l18 31z" />
<glyph unicode="~" horiz-adv-x="516" d="M438 431l-9 -7l-7 16zM425 396l-17 -47l5 -15l-69 -76l-35 -3l-10 9l-23 -6q-12 8 -22 20l-14 -12l-30 57l-10 -22l-30 20l-28 -12l-101 -79l-16 3l18 22l-4 26l21 19l-9 24l3 7v1l31 12l-19 -26l38 37l-3 6l41 29l16 25l22 -17l33 23l36 -61l21 -23l25 16l20 -21l8 5 l13 -6l32 26l8 -11l30 71zM181 349l-2 1l-23 -23l19 2zM117 328l-12 13l-4 -12l12 -7l3 1zM193 324l-6 8v-15zM81 282l-15 15l-18 -17l21 -15l1 1zM475 373l-6 -9l-18 4l-7 -23l-16 12l4 4l-8 12l32 11l-5 19z" />
<glyph unicode="&#xa1;" horiz-adv-x="281" d="M225 541l-20 -5l3 -19l-25 -5l-64 38l1 53q4 2 7 4q3 1 5 2l2 1l-3 -1l-8 8l3 14l19 38l9 -11l16 4l7 -7t8 -4l6 13h2v-5l18 -25l-16 -23l11 -17l-1 -5l-12 -12v-20l8 -10h23zM202 633v4l-7 -12h4zM185 617l-2 3l-9 1v-14l2 -1zM241 368l-3 -36l-6 1l-13 -12l6 -38l11 11 l-2 -24l-7 5l-17 -3l-5 -9l16 -3v-3l-14 -23l8 -9h10l2 -14l-30 -84l2 -15l-39 -109l-36 -20l-15 12l-9 -3l-1 4l3 14l-35 10l1 -6l-8 -8l-2 1l-14 44l24 -25l6 6l-6 16l-13 4l12 21l-15 2l-1 8l12 33q9 -1 13.5 1.5t8.5 5.5l-1 5l7 19l-3 7l-17 -19l-2 10l28 118l-2 9l4 29 q0 7 -6 17l11 23l-12 10l8 13l12 -8l7 9l-16 12l-9 60l32 21l7 -13l3 5l9 -16l12 8l-3 -11q0 -1 3 -5l3 -1l9 12q5 -31 10 -50q-4 0 -6 -2q-2 -1 -5 -3l3 -15l-8 -8l9 -20l27 48v-4l25 -24q1 1 -3 11l-10 23l8 4l6 -14zM116 400l-4 9v-14zM127 339l-1 5l-17 -10l11 -2z M210 326l-5 13l-18 -12l-5 3l-8 -7h26zM112 204q-13 -15 -15 -26l12 -10zM97 105l-20 -8l8 -13l8 7l-7 6zM160 37v2h-6l-9 -20l2 -6v2zM195 400h-10v9zM230 240l-5 2v8h5v-10z" />
<glyph unicode="&#xa2;" horiz-adv-x="543" d="M526 214l-39 -17l-7 -8q3 -7 5 -15q0 -1 -1 -5l-33 -26l-9 2l2 17l-13 26q-7 0 -5 -7l7 -34l-6 -14q-15 1 -17 0t-6 -7q-14 -19 -30 -33l-20 -16q-3 -3 -4 -3q-6 0 -20 11q-12 -3 -14 -4t-8 -12q-6 -10 -22 -29l7 -10q4 -6 5 -11l2 -13l-18 -60l3 -16l-41 -20l-15 10 q0 8 2.5 13l6.5 13l-15 51l18 55l-4 18q-56 3 -89.5 19t-71.5 67q-7 -1 -11 2q-3 3 -7 6l3 18q-6 14 -10 17t-10 12l4 10l6 -2l15 20l-15 15l-18 -21l-8 69l18 60l-2 -41l19 57l17 25l16 -13l13 16l-13 20h20l13 -11l35 40l85 25l-12 21l5 26l-10 18l29 71l47 -29 q-3 -14 -11 -32l12 -23l-9 -45l16 -25l12 11l22 -5q4 -1 17 -10l24 8l16 -22l-17 -41l-22 -5l-3 24l-22 -9q-5 5 -21 17h-2l-25 -45l2 -13l-9 -10l6 -88l10 -60l-10 -33l12 -29l84 58l32 16l-7 -20l55 22l17 -7l23 34q-1 -3 19 -41zM317 452v7h-4zM237 286l-16 55l12 57 l-36 -11l-51 -102l6 -32l3 -42l74 -66l-12 63l5 25q-14 17 -16 26zM74 274l-5 11l-17 -15l10 -18zM398 148v25l-7 17l-5 -15zM147 452l-58 -19l33 31z" />
<glyph unicode="&#xa3;" horiz-adv-x="591" d="M583 168l-3 -15q-1 -6 -1 -21q0 -6 -10 -18q-10 -11 -28 -43l-15 4l8 5l-15 11l-31 -21l23 3l-18 -15l-36 -9l8 19l-26 -17l-12 4l-7 -20l-33 20l-29 -18l-67 9l-18 15l-41 -23l-6 2q-22 -7 -34 -7q-15 0 -29 11q-13 12 -30 26l-11 -13l2 -16l-9 -11q-8 14 -18 14 q-2 0 -6 -1t-6 -1q-12 0 -18 46l13 21l1 21q-4 5 -4 9q0 2 3 9q13 27 16 75l4 68l-9 7l-51 -10l-20 7l10 17l-8 26l12 18q11 3 21 1t32 -4l6 43l-7 19l14 28l-12 19l-15 -4l22 34l-9 13v6l-3 35l3 16l-4 30l19 59l47 23l19 -12l27 24l13 -7l31 27l12 -5l6 5l18 -7l-24 -5 l44 -14q-4 20 -11 26v14q30 0 35 -10q5 -9 14 -9v-21l7 -2l32 24l17 -12l33 4l-25 -14l5 -24l18 21l27 -14l-23 -100l-9 24l-43 -4l-19 26l-3 -24l-20 40q-18 -3 -28 -10l-39 23l-3 1q-11 -11 -25 -16l-32 23l-28 -36l3 -11l-5 -25l2 -9l22 35l8 -12l-20 -21l7 -47l9 5 l17 -30l-3 -34l20 -51l-2 1l-13 -49l74 -16l7 -13l-21 -30l12 -12l-70 -4q0 -5 -7 -7q-6 -1 -10 -2l15 -20l-7 -31l12 -6l-25 -13l19 -36l-14 -32q1 -5 2.5 -5.5t12.5 -0.5l29 5l101 -30l87 5l39 13l33 75l12 -7l34 23l-5 14l10 12zM391 656l-12 21v13q-8 -3 -20 -5z M381 653l-23 9v-18zM414 622l-3 5l-8 -21h5zM174 521l-11 13l-4 -7l9 -9l5 1zM161 495l-1 10h-8l6 -16h1zM191 472l-7 12l-15 -25v-1l13 -19h2l-3 27zM211 412l-12 7l-6 -9l3 -6zM181 375v15h-7zM202 229l-3 13l-8 6h-2l-11 -34v-27l11 -39l2 19l-5 46zM569 187l-14 22 l-13 -13l14 -29l-1 27zM124 158l-7 11l-15 -21l1 -6h18zM572 158q-9 -6 -19 -25l8 -16zM283 100v3h-1l-9 -6l6 -3h2zM114 73l-3 28l-8 -19l2 -9h9zM214 93l-4 6l-3 -6h7z" />
<glyph unicode="&#xa4;" horiz-adv-x="432" d="M335 136q64 -48 64 -89q0 -37 -6 -49t-18 -12q-26 0 -51.5 26t-38.5 68q-36 -17 -58 -17q-24 0 -62 20q-49 -86 -86 -86q-18 0 -28 10t-10 26q0 35 70 109q-45 34 -45 174q0 66 17 114q-26 10 -42 38.5t-16 47.5q0 37 6.5 49t18.5 12q20 0 29 -7.5t21 -29.5 q13 -22 28 -36q31 30 77 30q35 0 62 -18q9 8 28 33q20 25 30.5 32t20.5 7q17 0 26.5 -14t9.5 -36q0 -11 -26 -44q-25 -32 -29 -42q39 -75 39 -166q0 -82 -31 -150zM218 170q29 0 44.5 29t15.5 101q0 136 -68 136q-64 0 -64 -117q0 -149 72 -149z" />
<glyph unicode="&#xa5;" horiz-adv-x="546" d="M529 644l-35 -61l3 -11l-22 -42l3 -10l-35 -48l2 -4l-1 -6l-19 -13l5 -17l-36 -81l-29 -56l9 -2l12 8v2l28 -19q13 13 15 14l13 -18l-14 -31l4 -11l-115 -19l4 -26q0 -3 -2 -3q-3 12 -7 12l-10 -28l17 -16l42 8l88 -18l-17 -34l-21 -17l31 3l-48 -44l13 25l-38 -29 l-27 40l-15 -26l-20 15l-29 -16l4 26l-15 -23v-17l-35 -46l-19 28l1 -28l-23 14l8 -14l-3 -5l-24 25l-22 8h-4l-15 -24l-7 8l3 17l43 29l-1 7l-34 16l-12 -9l-26 21q-5 -5 -7 -9q-2 -3 -7 -4l-14 16l18 34l-4 11l86 6l35 49l-7 4l-64 -12l-63 10l16 16l-4 22l19 16 q-1 5 -1 8q0 12 16 23q17 11 23 17l30 -37l14 28q-8 12 -15 39l4 13l-20 10l-17 50l-37 86l-10 11l3 16l-61 139l22 25q40 0 52.5 -5t9.5 -29l17 -20l-7 -19v-2l8 1l24 -41l35 -73l-3 -20l6 -2l21 9l-2 -13l29 -76l-15 -12l30 -45h3l18 58l28 -34l9 14l-29 32l26 19l24 31 h-21v5l21 21l-7 5l29 45l-4 12h14l-1 -2l8 -10h6l2 5l-9 19l1 4l19 20l-6 33l23 16l-12 23v2h4l8 -3l38 29l11 -2zM463 522l-1 7h-6l4 -12zM202 440l-3 16l-5 -18l2 -6h4zM292 329l-11 13v-19l5 -1zM197 303l-18 29l10 -39l1 -1zM217 292l-7 1l-4 12l-2 -22zM168 225l-9 13 l-4 -11l10 -6h2zM208 214l-3 15l-22 -19zM119 214l-14 13l-15 -14l20 -12l-2 13h11zM312 147l-6 14l-5 -2v-1zM334 152l-23 -17l20 6zM426 140l-4 4l-8 -7l-17 4l13 -14zM361 132l-12 7l-1 -5l8 -12zM487 269v-8l-6 -6l-16 2l-5 -6l26 -29l-28 15l-14 12l5 3l-8 10l30 8 l-6 16zM534 275l-38 -26l1 26l11 -6zM72 123l-13 -10l-16 3l4 -17l-29 19q7 8 16 15l14 -4l6 18l4 1l12 -12l-4 -4zM150 58l-15 -8l-4 18z" />
<glyph unicode="&#xa6;" horiz-adv-x="268" d="M201 663l-16 -62l14 -21l-8 -72l3 -66l-13 -54l-19 23l-29 7l-4 11l-25 3l-17 19l-9 65l15 -12l7 8l-18 32l1 8l16 30l-6 8l-14 -8l20 115l5 -11l-5 -8l9 -12l12 3l2 33l1 12h2l7 9v22l2 1l12 -21l9 -4l-13 -79l31 93h2l3 -17l-9 -64l-12 -12l17 -34v42l4 36zM200 284 l-5 -29l-10 -10l2 23l-8 12l-9 -34l6 -25v-9l-10 -5l2 -18l-2 -67l-10 -17l14 -49l11 38l3 -15l-9 -43l5 -27l-12 -29l-6 -36l-8 14l-15 -2l-4 -24l-15 39l-9 -12h-2l-7 21l-9 -5l-5 18h-12l-3 25l2 45l-5 31l4 67l6 38l-7 28l5 12l-5 16q0 1 2 13q2 13 2 19q0 16 -5 31 l12 9l39 -10l17 14l29 -42l22 32zM162 30v15l-3 1l-12 -16h15z" />
<glyph unicode="&#xa7;" horiz-adv-x="480" d="M465 664l-16 -54l-31 -25l-105 21l-18 10l-15 -9l-70 -10l-21 -23l-11 4l-27 -7l29 -41v26l18 -14q4 -2 10 -17l20 -5l17 7l52 -18v-7l9 -21l32 9l18 -8l62 -55l10 -3l11 2v-12l18 -47l-13 -13l-1 -8l-15 -31l-10 9l-33 -21l-16 -20l-11 10l-65 -41l-17 21l-9 -3v-9 l8 -18l32 9l19 -8l35 -25l26 -31l22 -1l1 -14l16 -46l-11 -12l-18 -38l-10 7l-32 -19l-17 -21l-11 10l-57 -38l-8 -3l-20 14l-21 -30l-5 25l-8 3l-18 -9l-11 -20l-24 11l-17 -15l-26 22l-22 -17l-14 49l19 9l19 42l11 9l26 -14h31l48 -13l15 4l-2 11l15 21l13 -10l5 16l19 3 l-25 16l-24 44v-18l-14 -4l-43 33l-6 -6l-51 16l-4 -9l-57 64l-14 58l-10 -45l-32 86l16 -20l35 70l4 -15l21 36l26 10l19 -5l25 14l-60 46l-13 62l-10 -45l-45 78l27 -12l37 69v-10l4 -4l21 36l35 10l33 -3l34 14l13 -15l-5 -5l8 -8l49 46l33 -17l28 16l10 -20l11 -4l36 27 l38 -32l14 5zM327 362l-26 18l-51 53l-18 -17l24 -6l2 -18l-3 -4l-37 4l-39 -34l-20 -22l-19 13l25 -42l17 25l3 1l19 -3l9 1l46 -13l15 5l-1 8l16 22l13 -8l4 14zM78 617l-16 -18l-27 6l20 12h23zM45 383l-14 -26l-11 11z" />
<glyph unicode="&#xa8;" horiz-adv-x="416" d="M357 623l-12 -82l-10 -7l-21 8v14q-21 31 -33 42l-11 -2l-3 33q-10 32 -6 37l37 46l5 11l18 -17l6 15l15 -7l-1 -15l4 -9l-6 -22zM336 687l-21 7l6 -20l11 1zM295 686l-10 -8l6 -3zM202 552l-6 -8l-14 5l-1 16l-13 -4l-43 19l-13 -8l-29 40l-21 14q11 -4 19 -4q6 0 8.5 2 t8.5 14l-17 5l-6 -11l-2 17l13 50q7 1 11 4q5 3 15 8l12 -17l5 2l13 -28l36 -34zM146 654q-16 18 -26 27l1 -17zM104 642l-10 23l-5 -13zM134 590l-11 8l-10 -1v-10zM75 693l-9 -39l-8 10l2 13zM185 642q-18 9 -24 18v4l11 -2z" />
<glyph unicode="&#xa9;" horiz-adv-x="784" d="M740 238l-20 -15l-21 23l-22 -17l20 -6v-5l-44 -45l16 -47l-16 -17v-5l12 -20l-13 -16l-20 4l-8 -22l-7 1l-31 -24l-4 -29l-7 -1l-24 7l-8 -11l4 -8l-8 -20l-34 -19l-58 20l-9 -1l-44 -49l-98 19l-7 -5l-19 20l-7 -23l-13 7l-14 -9l-26 7l-17 -10l2 7l-50 17l-73 89l4 27 l-23 15l-11 29l5 45l-9 26l8 3l15 -11l5 10l-25 46l6 17l10 -8l20 41l-10 70l2 34l6 -6h2l4 7l-9 21l5 10l23 -23h4l12 25l-10 50l6 17l-16 8l1 5h7l31 17l-1 5l-19 11l-22 -15l-4 13l50 51l50 152l21 -12l11 9v15l18 -1l11 7v28l28 -38l10 18l-3 11l12 -4l51 30l26 -22 q8 0 10 -4q5 -8 14 -19l14 6l27 -9l12 7q12 -24 17 -24q2 0 2 3q0 6 -8 29l7 1l23 -19v-7l19 -36h5l3 9l-2 18l8 12l21 -17q12 7 16 7l31 -38l-3 1l-12 -9q5 -9 8 -11l21 31l32 -8l-27 -4l21 -38l-9 -16l21 -15l2 -10l-4 -27l13 -18l18 17l-7 30l-17 18l8 18l20 -17l35 -179 l-7 -14l17 -32l-10 -12l-15 -51l23 -54l-6 -23l8 -11l12 10zM347 755l-1 2h-10l6 -8zM316 730l-13 12v-12h13zM207 668v18l-14 5zM621 215q14 30 14 65q0 97 -24.5 165.5t-62.5 97.5l-30 22l11 22l-32 31l3 10l35 3l-6 10l-24 -4l-84 33h-38l-33 16l-50 5l-44 -26l-86 -145 l2 -14l-26 -93l5 -23l-40 -134l12 -40l15 -27l-16 -60l20 -24l4 -42l-10 -48l66 -38l4 17l175 -20l25 -1l49 11l140 103l13 38l-5 52l19 37zM524 181l-2 -16l-75 -64v-7l-16 12l-19 -9l-81 23l-17 26l-6 -3l-2 1l-10 -4l-4 6l-41 19l4 11l-15 36l-8 -30l-11 32l1 17l-6 28 q-3 14 -6 33l-5 36q-7 -12 -10 -15.5t-5 -1.5l10 32l5 -2q-3 40 18 96l15 5q5 13 19 17l7 13l3 1l11 -12q3 6 19 19q16 14 22 23l14 2q7 2 11 5l12 9q8 6 12 13l7 -6h2l6 8l21 -21l25 25l11 -8h3l1 4l2 -8l-7 -23h10l1 -5l-11 -14h-4l-6 10l-8 -9q-2 0 -26 10l-30 -7 l-87 -115l-6 1l-9 -27l1 -13q0 -5 -3 -22t-3 -20q0 -6 6.5 -22.5t17.5 -30.5l26 -38l50 -46l2 -1l5 7l62 -26l61 66l7 -4l14 21v3l5 7zM593 633v10l-15 22l-1 -7zM669 514l-11 32l-13 -66l24 15v19zM689 423l-11 42l-9 -35l19 -14zM664 238l-10 4h-1v-16zM92 170l-4 7 l-7 -11l7 -1zM67 111v3l-10 6zM92 88v15h-11l7 -16zM212 -28l-30 -10l17 -28zM262 -44l-16 9l-2 -6l16 -8zM422 -45q-24 -16 -28 -14v-16zM76 437l-3 -7h-4v26zM752 369l-7 -66h-5l-1 41l-8 35h20zM717 111l-5 1l-29 -20v19l19 37v-4z" />
<glyph unicode="&#xaa;" horiz-adv-x="268" d="M266 432l-6 -11l-4 1l-30 -2l8 4l-6 6l-18 -22l-14 16l-16 -15l-6 6l-15 -11q-6 5 -23 8l-7 -6l-45 7l-14 5q-5 3 -28 21l-7 -4l-17 28l6 31l6 -6l14 12l5 -2l22 17l17 -10l3 5l-3 8l16 4l7 9l10 -8l25 34q4 -12 4 -18l-4 -16l9 18l-14 41l5 15l-6 15v10l-8 1l13 14 l-33 -22l-53 -49l-7 -14l-7 -4l2 9l-5 4l-4 -4l-9 11l-4 -7l-2 6l3 20l-11 11l10 15l9 -5l22 30l16 10l-7 -15l51 50l3 -12l7 -6l-5 24l11 -4l-9 7l8 -3l19 17q5 -7 13 -12h-7l29 -25l-1 -25l4 -22l7 2l9 -14v-6l-9 13l1 -20l-13 -15l7 -8l-1 9l15 -6q14 -32 13 -43l-2 -36 l12 -35l4 -1l-6 16q16 -10 30 -13l1 -27zM182 470l-11 24v7l-43 -12l-41 -17l28 -13l6 2l13 -10l22 15l1 -4l6 3l1 -2l-17 -9l24 5zM169 479l-3 -4h-3l-1 3l5 3zM38 468l-5 4h-1l-1 -12h3zM281 436l-6 1l3 -7l-17 10q7 12 18 18z" />
<glyph unicode="&#xab;" horiz-adv-x="635" d="M600 429l-55 -13l-1 -20l-127 -100l-6 -24l52 -38l8 9l22 -45l-8 -7l49 -73l-27 17l-6 -8l39 -35l15 5l5 -2l-10 -9l3 -20l-24 4l13 -18l-27 4l-47 41l2 12l-13 23l-7 -6l-24 31l-51 25l-18 32l-20 27l-7 -8l20 -19l1 -25l-68 57l-3 26l20 34l15 -4l20 12l-18 14l45 79 l54 17l19 34l15 -4l20 20l-4 6l34 24l31 8l13 -6l17 9l14 -30l21 16l1 -32l-15 -5zM555 495l-32 1l-45 -18l23 -5zM415 408q-16 -1 -37 -5l-21 -22zM532 396q-20 -6 -33 -12l2 -12zM429 380q-24 -7 -32 -10l-7 -22zM424 185l-15 16h-6l18 -25zM375 498l-46 -67l-41 -9 l-6 -26l-50 -39l-85 -85l60 -26v-2l23 -46l-7 -7l52 -92l-26 18l16 -23l22 -7l-6 33l30 -57l-19 5l3 -21l-24 4l13 -11l-27 -2l-47 40l2 11l-14 24l-4 -26l-4 23l-27 47l-51 25l-18 33l-19 26l-7 -9l5 -23l-2 -5l-51 42l-3 28l19 32l16 -4l19 12l-17 14l45 79l53 17h-4 l23 34l5 1l10 -5l21 19l-4 7l34 24l31 8l14 -6l17 9l13 -30l20 16l4 -41l32 38h7zM265 488l-3 2l-39 -6l19 -12zM147 408l-20 1q-10 0 -24 -19zM151 374l-16 6l-5 -11q-3 -4 -4 -21zM191 143l-13 15l-5 -1l18 -34v20zM510 48l-7 -7l-6 9l4 7zM237 32l-9 -7l-25 14l20 -3l4 6 z" />
<glyph unicode="&#xac;" horiz-adv-x="526" d="M500 246l-7 -20l-9 10l-21 -10l23 38l5 -18h9zM443 233l2 -5l16 -7l-39 2l60 -14l19 -22l-18 8l-24 -22l31 -6l-30 -6l29 -34l-24 -5l13 -8l-27 -12l23 -21l5 -9l-14 5l-35 -9l-14 38l-6 -8l4 101l-11 14l-5 16l30 11l-6 19zM400 251l-15 -37l5 -14l-115 -22l-8 10 l-22 -8l-9 8l-18 -10l1 2l-5 8l-24 -26l-10 -21l-4 1l-20 18l-66 -14l-63 12l16 20l-3 26l19 19l-12 9l-7 13l17 -3l37 43l33 -48l15 35l19 -18l29 25l4 -11l32 17l13 -23l6 -1l27 18l3 -11h5l18 15l10 -4l25 -13l12 11v2h1l26 -24l10 13v4h4zM193 174l-24 -2v-14zM162 182 l-37 4l-9 14l-4 -12l10 -8zM68 156l8 17l-13 15l-14 -17zM473 257l-11 -18h-11l-2 13l-3 19l11 -12zM489 158l15 -12l-15 -6l-16 20z" />
<glyph unicode="&#xad;" horiz-adv-x="509" d="M399 251l-14 -37l5 -14l-115 -22l-8 9l-21 -7l-10 7l-18 -9l1 1l-5 8l-24 -25q0 -7 -2.5 -11t-7.5 -11q-2 1 -8 6t-16 14l-66 -15l-63 13l16 20l-3 26l19 19l-8 6q-4 2 -11 16q0 -2 1 -2t5 2t6 2q3 0 5 -4q13 3 17 10q7 14 20 32l33 -48l15 34l19 -17l29 25l4 -11l32 17 l13 -23l6 -1l27 18l3 -11l6 -1l17 16l35 -17l12 10v3h1l26 -24l10 13v3l4 1zM162 182l-37 4l-9 14l-4 -13l10 -7zM76 173l-13 14l-14 -16l19 -15zM193 174l-24 -2v-14q1 1 12 7t12 9zM473 257l-11 -18h-11q-1 12 -5 31l11 -11zM500 246l-7 -20l-9 10l-21 -10l23 38l6 -18h8z M445 228l-6 -8l-17 3q-1 -25 -7 -24q-13 14 -17 29l30 12l-6 19z" />
<glyph unicode="&#xae;" horiz-adv-x="784" d="M740 238l-20 -15l-21 23l-22 -17l20 -6v-5l-44 -45l16 -47q-7 -8 -12 -11q-4 -3 -4 -11l12 -20l-13 -16l-20 4l-8 -22l-7 1l-31 -24l26 10l-37 -40l-24 7l-8 -11l4 -8l-8 -20l-34 -19l-58 20l-9 -1l-44 -49l-98 19l-7 -5l-1 -18l-70 18q-8 2 -33 15l10 -16l-50 17l-73 89 l4 27l-23 15l-11 29l5 45l-9 26l8 3l15 -11l5 10l-25 46l6 17l10 -8l20 41l-10 70l2 34l6 -6h2l4 7l-9 21l5 10q10 -11 16 -20q3 -4 11 -3l12 25l-10 50l6 17l-31 1l16 12q12 -1 37 22h-14l-16 -12l-5 16l42 44l-6 24l55 126l20 2l11 9v15l18 -1l11 7v28l28 -38l10 18l-3 11 l12 -4l51 30q12 -10 18 -18q3 -4 12 -4l20 -23l14 6l27 -9l12 7q2 -19 5 -21t3 -9l14 6l-11 32l7 1l23 -19v-7l19 -36h4l4 9l-2 18l8 12l21 -17q12 7 16 7q11 -13 17 -21t8 -11q3 -3 3 -5l-12 -9q5 -9 8 -11l21 31h9l-4 -12l21 -38l-9 -16l21 -15l2 -10l-4 -27l13 -18l18 17 l-7 30l-17 18l8 18l20 -17l35 -179l-7 -14l17 -32l-10 -12l-15 -51l23 -54l-6 -23l8 -11l12 10zM396 733l-18 26l-4 -9l-4 -1l4 -25zM347 755l-1 2h-10l6 -8zM316 730l-13 12v-12h13zM207 668v18l-14 5zM643 230l-12 10q4 25 4 40q0 94 -22.5 168.5t-58.5 114.5l-6 -20 l-30 22l11 22l-32 31l3 10l35 3l-6 10l-24 -4l-84 33h-38l-33 16l-50 5l-44 -26l-86 -145l2 -14l-26 -93l5 -23l-40 -134l12 -40l15 -27l-16 -60l20 -24l4 -42l-10 -48l88 -28l68 -18l89 5l25 -1l88 15l101 99zM535 369l-19 -7l9 -27l-42 37l32 -46l-19 -30l-8 4l-16 -25 l-1 13l-5 7l-90 -49q-1 14 -27 18q2 4 4 36l31 3l10 -8h1l13 14l13 -4l6 20l6 -4q4 4 13 17q10 14 18 20l-8 10l5 6q-3 11 -8 22t-10 35q-8 -1 -11 3q-14 16 -38 27l-6 -6l-5 7l-15 -17l-4 1l-14 14l-5 -1l-10 -16l1 18q-14 -14 -20 -26q-3 -4 -12 -4l-2 8l11 38q5 5 9 6 q4 2 9 13l55 4l7 11l9 -23l10 7l63 -49l48 -20l-45 5l22 -18q21 -16 16 -25zM308 237q-19 -50 -23 -86h-1l-2 15l-7 -26l6 -6l12 6l4 -29l-4 -14l-34 -16q-10 2 -14 4l3 15l-6 5l-10 -13l-18 69q10 12 10 19q0 2 -2 3q3 2 3 5q0 4 -4 9l2 14l-9 11v78q3 1 3 5q0 7 -8 21 l23 9l-6 -13l26 20l30 -3l-39 89q-3 -1 -6 -5q-3 -3 -5 -3t-7 4l7 19q0 19 3 22.5t15 3.5l17 -6l19 -28q-2 -8 1 -31l3 -20l-5 -26l12 -46l-10 -22q5 -10 5 -12q0 -4 -4 -14q-4 -9 -4 -12q0 -5 6 -5l11 3zM237 240l-3 5q-2 -1 -12 -13l3 -1zM282 123v3h-1l-2 -3h3zM243 361 l-3 -8l-8 3l6 12zM541 116l-30 10l4 -20l13 3q-1 0 -1 -5t2 -14l-26 -14l-113 83q-31 31 -47 51q2 5 10 12l21 2h1q-1 -4 12 -5q14 -1 19 -16l79 -56l-6 -12l5 -6l27 13q7 -5 30 -26zM593 633l-1 23l-14 9l-1 -7zM669 514l-11 32l-13 -66l24 15v19zM689 423l-11 42l-9 -35 l19 -14zM92 170l-4 7l-12 -4l-5 -23zM92 88v15h-11l7 -16zM232 -27l-31 8l-18 1l-41 22l39 -34zM261 -45l-5 7l-10 3l-1 -6v-2q4 -8 10 -8q4 0 6 6zM422 -44q-14 -13 -28 -15v-16zM437 751l-22 11l-3 12q0 7 3 8l6 2l10 -11zM91 418q-16 12 -22 12v26zM752 369l-7 -66h-5 l-1 41l-8 35h20zM709 172l-25 -43l-1 23l-16 10l33 10h9zM717 111l-5 1l-29 -20v19l19 37v-4z" />
<glyph unicode="&#xaf;" horiz-adv-x="509" d="M534 828l-16 -36l1 -22q-138 -16 -244 -14l-8 9l-22 -8l-9 7l-37 -22q5 12 15 22l-58 -27l-63 14l-4 -15l-29 25l12 -23l-92 25l15 12l-7 16l6 16l-8 17l12 10l-13 16l15 -2l14 -12l-5 -16l38 21l47 -16l48 13l19 -8l29 26l4 -10l57 5l-25 -11l19 -3l27 19l9 -11l17 15 l3 -12l70 -19l47 13l27 -7l32 21l22 -13l2 19l18 -13z" />
<glyph unicode="&#xb0;" horiz-adv-x="303" d="M286 543l-2 -2l-12 9l-3 -13l12 -9l-15 -38l-2 -13l-5 15l-8 -10q-3 -5 -7 -21h-1l-13 10l-5 -5l10 -13l-6 -16l-5 14l-16 -21l-6 8q-7 -9 -9 -14l-3 -5q-5 0 -21 -7v3l-14 8l-4 -7l-19 10l-10 -5l-31 7q-24 20 -28 22q-3 2 -15 17l-12 15l-8 48q-3 18 -3 24q0 15 16 42 l9 -14l13 38l17 7l-1 8q8 10 8 27q43 5 59 23l9 -10l13 -30l1 33l14 -27l14 31l-17 -5l10 16l18 -2q14 -24 29 -28q15 -3 19.5 -12.5t6.5 -44.5q11 -1 18 -17t7 -27q0 -9 -2 -19zM143 632v19l-7 -19h7zM145 621l-24 -13l5 -8zM202 568l-6 3q-2 1 -17 24q-2 1 -3 1 q-4 0 -7 -3q-3 -1 -8 -5l-23 -25q-8 -10 -8 -11l-6 -24q0 -3 4.5 -16.5t10.5 -13.5q3 0 6 5l3 -5l4 1q3 0 10 -3q13 0 25 23l7 44zM101 546l-19 21l5 -26l-3 -14l12 -25l-2 10zM58 538v2l-7 5l-5 -6l4 -10zM211 505l-5 5l-5 -7l7 -13zM249 498l-10 7l-13 -20zM135 451l-37 7 l-14 16l5 -12q3 -7 9 -13l17 -13zM193 469l-9 -4q-4 -1 -20 -16l25 5zM154 450l-22 -4l4 -11z" />
<glyph unicode="&#xb1;" horiz-adv-x="509" d="M246 519l-5 4l-13 -7l-10 29l-19 -6l26 21l13 -5l-4 -16zM399 387l-14 -37l5 -14l-107 -20l13 -10h6l15 -8l-1 -5l-19 -22l15 -66l-12 -62l-20 16l-25 -2l-78 57l44 31l-34 13l18 20l-15 16l-9 -18l-91 6l-63 12l16 20l-3 26l-10 39l67 39l30 -45l15 35l19 -18l21 18 l-6 7q3 7 17 34l-13 12v1l22 28l-17 9v2l20 16l38 -15l15 5l20 -103l3 -1l18 16q6 -2 35 -20l11 16h1l28 -18l8 11l4 1zM76 308l-13 16l-14 -18l19 -14zM300 286l-4 5h-2l-8 -5h14zM293 258l-23 24l-1 -1zM279 240v1l-7 1l-14 -10l12 -5zM303 183l-17 10l-16 -14l18 -14z M444 369l-5 -13l-17 3q-2 -20 -3 -23l-4 -1l-12 14l4 4l-9 12l30 11l-6 19zM399 36l-14 -37l5 -14l-115 -22l-8 9l-21 -8l-10 8l-18 -9l1 1l-5 8l-24 -25v-4l-11 -19l-3 1l-86 5l-63 13l16 20q-3 16 -3 26q0 65 54 81l33 -48l15 34l19 -18l29 25l4 -10l32 17l13 -23l7 -2 l26 18l3 -10l6 -1l17 16l36 -17l11 9v3h1l26 -23l10 16l4 1zM76 -43l-13 15l-14 -17l19 -14zM445 12l-6 -8l-17 4l-19 -10l4 4l-9 11l30 12l-6 19z" />
<glyph unicode="&#xb2;" horiz-adv-x="357" d="M339 339l-68 -24l-10 3l-192 -39l-36 3l2 6l-8 13l69 71l-1 5l101 138l7 29l14 39l-2 27l10 24l-14 13l3 6l-27 18l-48 -47l-17 -36l2 -10l-47 -13l-8 2q-3 0 -26 17l43 59l38 39l57 16l56 -6l29 -21l10 4l7 -19l-4 -9l8 -17l13 7l8 -10l-5 -22l-15 -8l5 -18l-17 1l8 -37 l-3 -13l-26 -9l13 -2l12 -11l-24 -7l-10 -16q-1 -3 -13 -9l21 -11l-7 -10l-21 -10l7 -13l-39 -46l-13 -4l9 -10l-4 -26l48 13l24 21l11 -1l53 21h11l-2 -7l5 -24l-14 -9l-11 5l-5 -5zM135 339v2l-7 5v-14z" />
<glyph unicode="&#xb3;" horiz-adv-x="394" d="M352 609l-21 -50l-53 -58l2 -7l24 -15l9 4q15 -22 27 -32v-2l-8 -47l-6 19h-8v-11l13 -39l-47 -58l-9 6l-12 -2l-5 -21l-8 13l-4 -6l3 -12l-16 -10l-18 23l-21 -35l-13 11h-2l-13 -10l-15 7q-7 3 -24 19l-9 -18l-5 12l3 20l-16 13l-4 -7l3 -15l-4 -7l-34 45v3l-9 18 l-9 -6l-4 5l4 14l29 47l11 -3l17 -59l85 -41l44 37l19 82l-36 -7l-8 4l-19 -17q-4 -3 -13 -5l-21 10l4 46l22 22l-5 8l36 21l2 1l13 -3q2 11 19 37l-2 8l7 5l9 -11h2l14 33l1 13h-14l-2 8l14 38l-2 8l-8 -7l-23 9l-117 -56l1 -4l-11 -9l-26 -30l-20 6l-7 -5l-5 25l5 45l12 1 l6 -36l12 7l-8 34l25 10h6l5 -6l4 1l7 27h2l10 -10l21 16l-5 6q20 6 30 17v-3l26 7l14 -4h2l5 11l13 -13l17 2l51 -27l9 2l26 -31l-1 -7zM79 580l-18 11v-2l5 -10h6zM100 434l-7 -13l-2 4l6 12z" />
<glyph unicode="&#xb4;" horiz-adv-x="292" d="M237 724l-8 -5l-5 9l7 2l3 -1zM267 711l-7 3l-19 -12l16 -37l-31 3l-2 -6l9 -18v-2q-18 -1 -27 -4v-15l-73 -53l-18 4l8 -10l-41 -25l-7 18l-15 -28l-11 23l-13 7l5 -11l-17 20l1 3l41 44q21 -5 23 -6l8 2v27l5 12l18 -8v14l14 -2l37 30l-2 13l10 -4l20 20l23 -16l35 21z " />
<glyph unicode="&#xb5;" horiz-adv-x="425" d="M419 296l-3 -1l-16 4l-6 -44l-18 -56l6 1l8 -26l-24 17l5 -22l-11 -7l-11 -26l-18 -32l-6 -1l-10 8q-15 -28 -24 -41l-12 17l-6 -25l-11 6l-4 -15l-12 2l-5 -11l45 4l-24 -17l-2 6l-30 -7l10 -1l-25 -16l-8 24l-20 -24l-14 14l10 9l-6 4l-10 -5l-7 -20l-27 15l-13 -6 l7 -19l-24 -48l-17 17h-1l-15 -12l-7 3l-4 -7l11 -10l-1 -24l-28 -9l-1 -2l10 -6l-19 -19h-1l5 13l-6 6l-5 -11l-8 8q-10 -5 -17 -6t-27 -18l-3 9l20 39l-1 6l35 89l29 51l7 41l-7 4l-8 42l4 16l-11 21l6 44l-4 18l13 6l-12 13l1 5l7 -2l19 16l-4 8l8 35l-8 60l3 19l12 -9 l2 -9l13 12l68 -22l2 -15l-5 2l-6 -9q-4 -4 -5 -11q0 -7 -2 -17l3 -41l-17 15l-4 -12l9 -1l4 -18l6 4l5 -17l-19 -39l-6 -27l17 8l4 -7v-2l-5 -23l-20 -24l2 -7l13 22l10 -11l-9 1l-4 -4l21 -19v-3l-23 13l-2 -6l7 -10q-5 -26 -8 -34l5 -3l10 15h6l5 -20l10 8l31 -20l11 35 l-14 -14l-4 14l51 23l-8 -16l31 28l32 41l-16 14h17l9 19l-11 17l2 30l4 10l2 -18l9 18l-8 8l-1 7l2 27l-6 17l4 33l-47 85l14 -6l3 9l13 -29l15 12l15 -7l8 9l6 -11l6 5l-5 13h1l19 -18l-31 -9h21l29 -9l-2 -6l3 -18l-26 -14l15 3l5 -6l6 3l16 -11l-2 -10l2 -18l4 -8 l-1 -50q10 23 12 33q2 11 3 12.5t12 6.5q0 -4 -5 -27zM337 399l-12 9l-7 -14zM101 357l-1 10l-11 4l8 -24zM378 349l-10 13l-8 -14l4 -17zM105 218v37l-7 3h-1l-4 -28zM109 144l-8 6l-6 -21v-1zM244 66l-25 -25l10 -3zM60 -60l-10 6h-4l11 -12l2 1zM394 396l-6 -7l-6 6l4 11 l-25 48l20 -24zM42 354l-7 -3q-2 6 -19 34v1zM37 333q-19 5 -22 10l3 13zM61 335l-6 -42l-9 24q8 17 12 32zM416 281l-8 -36l-5 19zM154 241l-14 -7l8 18zM402 205l-4 -25l-9 30zM95 -57l-14 -32l-20 -24l25 48l-4 11l1 5l4 1z" />
<glyph unicode="&#xb6;" horiz-adv-x="488" d="M427 723l-12 -38l9 -22l-15 -62l14 -21l-8 -66l3 -54l-9 -39l-8 -92l-9 -51l6 -66l-8 -5l2 -17l-4 -50l2 -18l-11 -17l15 -49l-4 47l18 -24l-9 -42l11 -50l-18 -18l15 -11l-45 1l-20 10l6 6l-6 18h-12l-4 25l3 49l-4 27l3 65l7 39l-8 30l4 11l-4 23q0 2 2 19q3 17 3 26 q0 7 -1 12l-6 35l-3 56l5 35l7 -65l6 18l-9 88v30l16 -12l6 8l-16 29l1 11l15 30l-6 72l-5 24l1 7l-9 11l-38 -17l-9 11l-19 -27l-15 -62l13 -21l-7 -69l2 -53l-29 -150l1 -101l3 -18l-3 -67l-10 -17l15 -49l11 38l3 -15l-8 -43l10 -51l-14 -24l-21 8l-1 -12q-20 11 -30 23 l-9 -5l-6 18h-12l-3 24l3 48l-5 29l3 67l7 37l-8 29l5 12l-4 23l2 31l20 120l-88 64l-4 33l-14 6l-2 19l-18 4l-9 14l-5 53l-10 15l26 55l20 -8l24 22l18 -9l3 13l21 5l-6 10l41 33l45 -23l30 4l25 -5l-6 12l21 5l113 -5l-26 -15l20 -3zM416 660l-8 21v-23zM409 443l-8 14 l-9 -44zM212 201l-14 6l7 -29l5 1zM385 165l-4 22l-8 -17l2 -39zM183 44l-18 36l3 -55l11 6zM453 687l-3 -36l-18 43l9 24zM303 588l-14 -17l-8 24z" />
<glyph unicode="&#xb7;" d="M172 240l-5 -10l-9 12l-13 -3l-20 12l34 9l-20 -1l-45 7l-12 -7l-29 41l-19 4l14 8l10 -5l16 6l-12 1l-6 10l-17 2v14l17 47l3 -14l23 24l13 -17l5 3l13 -30l35 -32zM66 339v12l-7 -12h7zM100 281l-13 2h-4v-11zM47 358l-17 -9l2 13l9 9zM156 359q-13 -18 -17 -21l-8 7 l-3 14l11 3z" />
<glyph unicode="&#x2219;" d="M172 240l-5 -10l-9 12l-13 -3l-20 12l34 9l-20 -1l-45 7l-12 -7l-29 41l-19 4l14 8l10 -5l16 6l-12 1l-6 10l-17 2v14l17 47l3 -14l23 24l13 -17l5 3l13 -30l35 -32zM66 339v12l-7 -12h7zM100 281l-13 2h-4v-11zM47 358l-17 -9l2 13l9 9zM156 359q-13 -18 -17 -21l-8 7 l-3 14l11 3z" />
<glyph unicode="&#xb8;" d="M201 -76l-5 -23l-9 -2l-4 5l-4 -20l-111 -36q-17 -5 -38 -6q-3 3 -6 14l-10 -2l-5 5q105 64 105 85q0 4 -37 7l1 8l-48 30q4 7 9 13l-6 9l-13 1l60 71l21 12l14 -17l5 2l16 -32l-7 -31l-27 -7l91 -73zM131 -35l-12 22l-16 -7l15 -6z" />
<glyph unicode="&#xb9;" horiz-adv-x="286" d="M210 696l-43 -417l-4 -1l-15 15l-2 -15l-4 -2l-14 20l-23 -3l-4 9l4 13l5 58l-4 8l8 12l-4 10l23 58l-8 8l-11 -18q-1 -5 9 -21l-2 -6l-19 6l1 30l14 16l-9 16l4 9l-11 36l16 34v12l16 53l-13 18l14 42l13 -14l14 21l19 -10l19 14zM143 568l-5 15l-5 -9l7 -9zM123 521 l-15 9l-3 -1l7 -8l9 -1z" />
<glyph unicode="&#xba;" horiz-adv-x="300" d="M292 567q-6 -21 -7 -22l-14 11l-3 -5l2 -9l-4 -5l14 -8l-12 -36l-1 -13l-8 14l-10 -14q-21 -9 -24 -13l12 -14l-7 -16q-1 9 -6 14l-17 -21l-6 8l-8 -25l-8 6l-17 -6l-13 11l-5 -8l-19 9l-12 -6l-33 9l-30 23q-14 17 -29 33l-13 59l1 18l-2 9h4l5 3l-3 12l12 17l10 -13v3 l12 37l17 7l-1 8l21 6q3 1 16 13l-2 3q6 12 14 23l3 -8l-6 -7l3 -1l20 22l12 -9l-2 -8l4 -4h4l1 17l6 -2v-3l15 -23l2 7l-7 17l11 20l20 -4l8 -25l3 1v2l-6 11l3 4h1l9 5l-3 2h5l2 -5h-1l-5 -6l3 -5l2 -1l4 9h5l-2 -7l23 -20l-4 -11h6l10 6v-3l-3 -19l2 -7l-4 -8l1 -11 l15 -3v-4l3 -25v-3l-12 3l-10 -4q2 -4 22 -15v6h10zM236 601l-15 5l4 4l-15 43q-4 1 -29 2l-8 -17l-5 15l-4 1l-8 -8h2l-7 -8q10 -7 11 -9l-7 -5l-9 5l-22 -19l-32 -37l1 -7l-5 -36l-5 8l-1 -14l4 -32l7 3l24 -41l6 15l5 -11q16 4 18 5l12 -9h1l29 21l3 -3l-3 -5l2 -3 q3 19 10 28l1 -4l10 11v7l12 83zM56 567l-11 12l1 -11l1 -8q0 -3 8 -15l-2 7zM37 553l-4 3l-1 -3l2 -5zM98 667l-6 -12l-4 2l2 12l-4 5l2 1zM281 638l-7 -9v7z" />
<glyph unicode="&#xbb;" horiz-adv-x="635" d="M600 274l-3 -28l-50 -42l-3 5l6 23l-7 9l-20 -26l-17 -33l-51 -25l-28 -47l-3 -23l-4 26l-14 -24l2 -11l-48 -40l-26 2l12 11l-23 -4l2 21l-19 -5l31 57l-6 -33l21 7l17 23l-27 -18l52 92l-7 7l24 46v2l59 26l-85 85l-49 39l-6 26l-41 9l-46 67h7l32 -38l4 41l19 -16 l13 30l18 -9l13 6l32 -8l34 -24l-4 -7l20 -19l10 5l5 -1l23 -34h-3l52 -17l45 -79l-16 -14l18 -12l17 4zM394 484l-39 6l-3 -2l24 -16zM514 390q-13 19 -24 19l-20 -1zM492 348l-1 11q-1 6 -9 21l-15 -6zM444 157l-5 1l-13 -15v-20zM337 272l-2 -26l-69 -57l1 25l21 19l-7 8 l-22 -27l-16 -32l-52 -25l-23 -31l-7 6l-14 -23l3 -12l-48 -41l-26 -4l12 18l-23 -4l3 20l-11 9l5 2l16 -5l39 35l-6 8l-27 -17l48 73l-7 7l21 45l9 -9l52 38l-6 24l-127 100l-1 20l-56 13l19 35l-16 5l2 32l20 -16l14 30l18 -9l12 6l32 -8l34 -24l-5 -6l21 -20l14 4l20 -34 l53 -17l45 -79l-17 -14l19 -12l15 4zM139 478l-45 18l-32 -1l55 -22zM260 381l-20 22q-22 4 -37 5zM119 384q-15 6 -34 12l32 -24zM227 348l-7 22q-8 3 -32 10zM214 201h-6l-14 -16l3 -9zM121 50l-6 -9l-7 7l9 9zM415 39l-26 -14l-8 7l9 10l4 -6z" />
<glyph unicode="&#xbc;" horiz-adv-x="786" d="M210 696l-43 -417l-4 -1l-15 15l-2 -15l-4 -2l-14 20l-23 -3l-4 9l4 13l5 58l-4 8l8 12l-4 10l23 58l-8 8l-11 -18q-1 -5 9 -21l-2 -6l-19 6l1 30l14 16l-9 16l4 9l-11 36l16 34v12l16 53l-13 18l14 42l13 -14l14 21l19 -10l19 14zM143 568l-5 15l-5 -9l7 -9zM123 521 l-15 9l-3 -1l7 -8l9 -1zM603 725l-23 -29l9 -11l-45 -88l-18 -9l-38 -81l-9 7l-9 -33l-11 -8l16 57l-78 -178l-10 -37l-16 -23l-2 -26l-18 -8l1 -7l-26 -21l-25 -64l-33 -73l-13 -5l-11 -40l-25 -29l-11 1l-24 -19l-31 24l10 28l47 86l19 43l66 84l-2 12l-29 -34l-1 -8 q-1 -3 -12 -20l-10 1l2 16l28 46h10l8 11l-8 3l11 32l-7 -6l33 49l11 35l11 -11l15 38l-9 9v3l44 68l4 13l20 26l-1 11l62 81l1 8l-3 18l43 58l7 -17l29 28l16 -14l3 1l26 19zM413 532l-11 -10l-2 -12l12 5zM736 192l-17 -23l-8 5l-12 -8l-6 15l-27 -26l-10 4l7 -33l-7 -26 l3 -20l-3 -53q-2 -34 -4 -42l-18 -14l-10 9l-45 5l9 13l-10 28l7 11l-2 11l11 32l-3 32l6 29l-7 4l-19 -3l-120 -36h-9l-4 -3l-17 3l-13 26l22 20l-4 7l55 101l13 11l13 47l8 14l30 -6l3 -13l-33 -104l-28 -53l9 -2l30 10l71 17l11 25l-3 31l11 47l-3 52v26l7 -6l15 5l8 -8 l35 -14l-2 -21l2 -45l-8 -38l6 -51l18 15q3 3 18 6l19 -12l4 2z" />
<glyph unicode="&#xbd;" horiz-adv-x="786" d="M210 696l-43 -417l-4 -1l-15 15l-2 -15l-4 -2l-14 20l-23 -3l-4 9l4 13l5 58l-4 8l8 12l-4 10l23 58l-8 8l-11 -18q-1 -5 9 -21l-2 -6l-19 6l1 30l14 16l-9 16l4 9l-11 36l16 34v12l16 53l-13 18l14 42l13 -14l14 21l19 -10l19 14zM143 568l-5 15l-5 -9l7 -9zM123 521 l-15 9l-3 -1l7 -8l9 -1zM611 725l-23 -29l9 -11l-45 -88l-18 -9l-38 -81l-9 7l-9 -33l-11 -8l16 57l-78 -178l-10 -37l-16 -23l-2 -26l-18 -8l1 -7l-26 -21l-25 -64l-33 -73l-13 -5l-11 -40l-25 -29l-11 1l-24 -19l-31 24l10 28l47 86l19 43l66 84l-2 12l-29 -34l-1 -8 q-1 -3 -12 -20l-10 1l2 16l28 46h10l8 11l-8 3l11 32l-7 -6l33 49l11 35l11 -11l15 38l-9 9v3l44 68l4 13l20 26l-1 11l62 81l1 8l-3 18l43 58l7 -17l29 28l16 -14l3 1l26 19zM421 532l-11 -10l-2 -12l12 5zM745 47l-68 -24l-10 3l-192 -39l-36 3l2 6l-8 13l69 71l-1 5 l101 138l7 29l14 39l-2 27l10 24l-14 13l3 6l-27 18l-48 -47l-17 -36l2 -10l-47 -13l-8 2q-3 0 -26 17l43 59l38 39l57 16l56 -6l29 -21l10 4l7 -19l-4 -9l8 -17l13 7l8 -10l-5 -22l-15 -8l5 -18l-17 1l8 -37l-3 -13l-26 -9l13 -2l12 -11l-24 -7l-10 -16q-1 -3 -13 -9 l21 -11l-7 -10l-21 -10l7 -13l-39 -46l-13 -4l9 -10l-4 -26l48 13l24 21l11 -1l53 21h11l-2 -7l5 -24l-14 -9l-11 5l-5 -5zM541 47v2l-7 5v-14z" />
<glyph unicode="&#xbe;" horiz-adv-x="786" d="M352 609l-21 -50l-53 -58l2 -7l24 -15l9 4q15 -22 27 -32v-2l-8 -47l-6 19h-8v-11l13 -39l-47 -58l-9 6l-12 -2l-5 -21l-8 13l-4 -6l3 -12l-16 -10l-18 23l-21 -35l-13 11h-2l-13 -10l-15 7q-7 3 -24 19l-9 -18l-5 12l3 20l-16 13l-4 -7l3 -15l-4 -7l-34 45v3l-9 18 l-9 -6l-4 5l4 14l29 47l11 -3l17 -59l85 -41l44 37l19 82l-36 -7l-8 4l-19 -17q-4 -3 -13 -5l-21 10l4 46l22 22l-5 8l36 21l2 1l13 -3q2 11 19 37l-2 8l7 5l9 -11h2l14 33l1 13h-14l-2 8l14 38l-2 8l-8 -7l-23 9l-117 -56l1 -4l-11 -9l-26 -30l-20 6l-7 -5l-5 25l5 45l12 1 l6 -36l12 7l-8 34l25 10h6l5 -6l4 1l7 27h2l10 -10l21 16l-5 6q20 6 30 17v-3l26 7l14 -4h2l5 11l13 -13l17 2l51 -27l9 2l26 -31l-1 -7zM79 580l-18 11v-2l5 -10h6zM100 434l-7 -13l-2 4l6 12zM687 725l-23 -29l9 -11l-45 -88l-18 -9l-38 -81l-9 7l-9 -33l-11 -8l16 57 l-78 -178l-10 -37l-16 -23l-2 -26l-18 -8l1 -7l-26 -21l-25 -64l-33 -73l-13 -5l-11 -40l-25 -29l-11 1l-24 -19l-31 24l10 28l47 86l19 43l66 84l-2 12l-29 -34l-1 -8q-1 -3 -12 -20l-10 1l2 16l28 46h10l8 11l-8 3l11 32l-7 -6l33 49l11 35l11 -11l15 38l-9 9v3l44 68 l4 13l20 26l-1 11l62 81l1 8l-3 18l43 58l7 -17l29 28l16 -14l3 1l26 19zM497 532l-11 -10l-2 -12l12 5zM778 192l-17 -23l-8 5l-12 -8l-6 15l-27 -26l-10 4l7 -33l-7 -26l3 -20l-3 -53q-2 -34 -4 -42l-18 -14l-10 9l-45 5l9 13l-10 28l7 11l-2 11l11 32l-3 32l6 29l-7 4 l-19 -3l-120 -36h-9l-4 -3l-17 3l-13 26l22 20l-4 7l55 101l13 11l13 47l8 14l30 -6l3 -13l-33 -104l-28 -53l9 -2l30 10l71 17l11 25l-3 31l11 47l-3 52v26l7 -6l15 5l8 -8l35 -14l-2 -21l2 -45l-8 -38l6 -51l18 15q3 3 18 6l19 -12l4 2z" />
<glyph unicode="&#xbf;" horiz-adv-x="336" d="M275 589l-26 -16l-4 6v10l-29 -5l-30 5l-19 23l3 5l-8 17l8 14h2l58 -24l22 10l3 -7l-10 -18l21 -4v-2l-6 -8zM314 427l-7 -29l-9 3l-27 -24l8 -10l28 13l-28 -48l-34 -13l3 -7l-5 -22l-26 13l1 18l15 12l-10 6l-14 -22l1 -21l23 -12l-15 -20l-8 5l-24 -43q-1 10 -3 10 q-3 0 -7 9l4 14l-6 7l-24 -25l16 4l12 -20l-4 -32l-16 7l2 -22q-13 -13 -21 -28l-4 15l-12 -29l-12 -14l12 -8l-5 -9l-6 3l-25 -34l27 -15l7 15l9 -11l8 7l6 -13l7 26q9 -4 6 -20l5 -3l7 25l11 -7l31 18l11 -5l7 11l40 -51l17 8v-12l-5 -9l-9 3l-36 -13l-40 -28l-34 1 l-101 34l-19 25l-16 60l7 21l6 -1l8 6l-7 14h-11l-1 5l14 11l4 -4l13 27q-11 14 -11 18q0 1 2 3q3 3 7 9l-5 7l42 36l11 -6l16 23q-6 1 -8 1q-5 0 -12 -8l-4 2l-1 3l9 17q1 4 9 9l8 -4l40 46l6 -18l3 19l15 9l-4 11q16 11 29 17l-15 5l19 23l1 7l-62 62l11 18h4l55 -20 l23 -31l1 19zM287 437l-27 10l-10 -9l26 -8zM265 384h-16l-9 -28l13 22zM212 375h-10l-7 -10l7 -8zM153 299v9h-9v-9h9zM78 228v15l-19 -1zM72 215l-7 10q1 -17 2 -17zM94 201v11h-7v-2zM102 112v9l-8 4l-7 -17zM201 420l-18 -9l12 22zM33 183l-4 -9l-9 19zM117 83l-8 -13 l-7 16z" />
<glyph unicode="&#xc0;" horiz-adv-x="596" d="M568 -32l-16 -24l-11 28l-22 -24l-10 -3l-34 43l-10 78l-4 -24l-37 61l-44 84l-6 -1l-21 13l-20 -4l-49 7l-24 -7l-5 13l-47 -93l-9 21q4 -2 5 -2q3 6 6 9v2l-16 38l14 16l-3 9q-7 1 -11 -5t-15 -16l5 -18l-11 -53l18 -30l-35 -82l-14 12l-28 -14l-14 8l-8 -12h-5v20 l-12 -18l-24 26l17 12l-20 30l23 32l10 -7h2l9 15l-14 35q0 3 1 5t-1 2l34 68l-16 29l4 13l-19 30l2 7l17 -4l29 37v11l4 1l15 -4l14 27q-8 23 -12 30q-3 8 -3 13v15l11 -4q4 0 4 1l2 4l-8 14l20 17l-25 17l5 38h6q7 -7 7 -15l30 12q4 9 12 10l-14 7l-19 -10l-5 2l6 37 l-3 15l5 2l10 -8q-3 -6 -3 -10t8 -12l8 25l-10 35l8 17v7l-7 10l-10 -14l-1 11l54 57l7 11l26 -3l29 -18l13 3v-2l-7 -12l22 -28l-10 -47l32 -41l-3 -19l25 -80l4 3l-4 -17l10 -46l-6 -19l23 -59l15 9h3l1 -9l-20 -33l21 -3l38 -36l14 15l34 -44v-5l-32 26l-15 -11l14 -23 l-8 -9h-6v4l-5 13h-7l-2 -9l14 -23l3 3l9 -9l-6 -19l8 -11l10 19l31 -60l-8 -7l47 -64q-1 -13 4 -24t12 -36zM266 659q-15 -3 -22 -11l11 -10zM217 644l-3 3l-8 -9l3 -5h3zM257 504v24h-3l-24 -24l1 -3l-3 -11l6 -4zM365 417l-3 21l-21 61l-8 -10l10 -27l-4 -9l22 -36h4z M196 476l-11 13l-3 -1v-18zM334 294l-41 123l-20 41l-14 -33l1 -5q8 -5 15 -8q4 -1 4 -10l-24 -5q-3 -3 -4.5 -5t-1.5 -5q2 -2 14 3l5 -8l-23 -17l15 -18l-18 -11l15 -9l-18 -15v-4l13 -25h13l65 -15zM244 437l-21 13l-13 -11l22 -3zM211 394l-1 12l-7 6l-8 -16l13 -9z M371 391v6l-4 2l-6 -5l1 -3h9zM223 339l-4 6l-9 -8zM159 327l-19 -27l10 -14h2v2zM177 221l-12 9l-6 -5l7 -11q9 -1 11 7zM143 195v21h-6l-5 -8l1 -13h10zM118 179l-4 28l-12 -21q3 -3 4 -7q2 -3 8 -4zM173 171l-14 10v-38h6zM220 157l-5 20l-7 -8zM115 115v14l-3 1l-7 -13 v-2h10zM143 68l-6 41q1 -8 -4 -20t-5 -18l1 -6zM130 380q-2 -5 -2 -14q0 -7 -3 -8l-4 14l5 15zM400 361l-2 -3l-4 15h1zM78 162l-19 -1h-3l9 8zM50 129h-3v11h3v-11zM57 113l-1 -4h-13l2 12zM43 35l-9 -10l-7 6l10 8zM195 35l-8 -23l-4 10zM46 17l-7 -10v-1l-4 -4h-3v8z M389 801l-19 -31l-4 27q-4 -8 -15 -36l-16 28l-7 -19l-40 27l9 11l-18 -6l-75 53v16l-16 -6l-10 9v2l9 18l-18 -4l-15 8l16 37l-19 12l-1 24l12 -17l33 -16l17 8l21 -21l9 4l-2 -13l37 -29l15 2l-18 -14q19 0 35 7l4 -30l1 -5q1 -3 14 -20l-4 16l23 5l12 -22l4 11l25 -34z M187 960l-6 -8l-6 5l5 5z" />
<glyph unicode="&#xc1;" horiz-adv-x="596" d="M568 -32l-16 -24l-11 28l-22 -24l-10 -3l-34 43l-10 78l-4 -24l-37 61l-44 84l-6 -1l-21 13l-20 -4l-49 7l-24 -7l-5 13l-47 -93l-9 21q4 -2 5 -2q3 6 6 9v2l-16 38l14 16l-3 9q-7 1 -11 -5t-15 -16l5 -18l-11 -53l18 -30l-35 -82l-14 12l-28 -14l-14 8l-8 -12h-5v20 l-12 -18l-24 26l17 12l-20 30l23 32l10 -7h2l9 15l-14 35q0 3 1 5t-1 2l34 68l-16 29l4 13l-19 30l2 7l17 -4l29 37v11l4 1l15 -4l14 27q-8 23 -12 30q-3 8 -3 13v15l11 -4q4 0 4 1l2 4l-8 14l20 17l-25 17l5 38h6q7 -7 7 -15l30 12q4 9 12 10l-14 7l-19 -10l-5 2l6 37 l-3 15l5 2l10 -8q-3 -6 -3 -10t8 -12l8 25l-10 35l8 17v7l-7 10l-10 -14l-1 11l54 57l7 11l26 -3l29 -18l13 3v-2l-7 -12l22 -28l-10 -47l32 -41l-3 -19l25 -80l4 3l-4 -17l10 -46l-6 -19l23 -59l15 9h3l1 -9l-20 -33l21 -3l38 -36l14 15l34 -44v-5l-32 26l-15 -11l14 -23 l-8 -9h-6v4l-5 13h-7l-2 -9l14 -23l3 3l9 -9l-6 -19l8 -11l10 19l31 -60l-8 -7l47 -64q-1 -13 4 -24t12 -36zM266 659q-15 -3 -22 -11l11 -10zM217 644l-3 3l-8 -9l3 -5h3zM257 504v24h-3l-24 -24l1 -3l-3 -11l6 -4zM365 417l-3 21l-21 61l-8 -10l10 -27l-4 -9l22 -36h4z M196 476l-11 13l-3 -1v-18zM334 294l-41 123l-20 41l-14 -33l1 -5q8 -5 15 -8q4 -1 4 -10l-24 -5q-3 -3 -4.5 -5t-1.5 -5q2 -2 14 3l5 -8l-23 -17l15 -18l-18 -11l15 -9l-18 -15v-4l13 -25h13l65 -15zM244 437l-21 13l-13 -11l22 -3zM211 394l-1 12l-7 6l-8 -16l13 -9z M371 391v6l-4 2l-6 -5l1 -3h9zM223 339l-4 6l-9 -8zM159 327l-19 -27l10 -14h2v2zM177 221l-12 9l-6 -5l7 -11q9 -1 11 7zM143 195v21h-6l-5 -8l1 -13h10zM118 179l-4 28l-12 -21q3 -3 4 -7q2 -3 8 -4zM173 171l-14 10v-38h6zM220 157l-5 20l-7 -8zM115 115v14l-3 1l-7 -13 v-2h10zM143 68l-6 41q1 -8 -4 -20t-5 -18l1 -6zM130 380q-2 -5 -2 -14q0 -7 -3 -8l-4 14l5 15zM400 361l-2 -3l-4 15h1zM78 162l-19 -1h-3l9 8zM50 129h-3v11h3v-11zM57 113l-1 -4h-13l2 12zM43 35l-9 -10l-7 6l10 8zM195 35l-8 -23l-4 10zM46 17l-7 -10v-1l-4 -4h-3v8z M379 966l-8 -5l-5 9l7 2l3 -1zM409 953l-7 3l-19 -12l16 -37l-31 3l-2 -6l9 -18v-2q-18 -1 -27 -4v-15l-73 -53l-18 4l8 -10l-41 -25l-7 18l-15 -28l-11 23l-13 7l5 -11l-17 20l1 3l41 44q21 -5 23 -6l8 2v27l5 12l18 -8v14l14 -2l37 30l-2 13l10 -4l20 20l23 -16l35 21z " />
<glyph unicode="&#xc2;" horiz-adv-x="596" d="M568 -32l-16 -24l-11 28l-22 -24l-10 -3l-34 43l-10 78l-4 -24l-37 61l-44 84l-6 -1l-21 13l-20 -4l-49 7l-24 -7l-5 13l-47 -93l-9 21q4 -2 5 -2q3 6 6 9v2l-16 38l14 16l-3 9q-7 1 -11 -5t-15 -16l5 -18l-11 -53l18 -30l-35 -82l-14 12l-28 -14l-14 8l-8 -12h-5v20 l-12 -18l-24 26l17 12l-20 30l23 32l10 -7h2l9 15l-14 35q0 3 1 5t-1 2l34 68l-16 29l4 13l-19 30l2 7l17 -4l29 37v11l4 1l15 -4l14 27q-8 23 -12 30q-3 8 -3 13v15l11 -4q4 0 4 1l2 4l-8 14l20 17l-25 17l5 38h6q7 -7 7 -15l30 12q4 9 12 10l-14 7l-19 -10l-5 2l6 37 l-3 15l5 2l10 -8q-3 -6 -3 -10t8 -12l8 25l-10 35l8 17v7l-7 10l-10 -14l-1 11l54 57l7 11l26 -3l29 -18l13 3v-2l-7 -12l22 -28l-10 -47l32 -41l-3 -19l25 -80l4 3l-4 -17l10 -46l-6 -19l23 -59l15 9h3l1 -9l-20 -33l21 -3l38 -36l14 15l34 -44v-5l-32 26l-15 -11l14 -23 l-8 -9h-6v4l-5 13h-7l-2 -9l14 -23l3 3l9 -9l-6 -19l8 -11l10 19l31 -60l-8 -7l47 -64q-1 -13 4 -24t12 -36zM266 659q-15 -3 -22 -11l11 -10zM217 644l-3 3l-8 -9l3 -5h3zM257 504v24h-3l-24 -24l1 -3l-3 -11l6 -4zM365 417l-3 21l-21 61l-8 -10l10 -27l-4 -9l22 -36h4z M196 476l-11 13l-3 -1v-18zM334 294l-41 123l-20 41l-14 -33l1 -5q8 -5 15 -8q4 -1 4 -10l-24 -5q-3 -3 -4.5 -5t-1.5 -5q2 -2 14 3l5 -8l-23 -17l15 -18l-18 -11l15 -9l-18 -15v-4l13 -25h13l65 -15zM244 437l-21 13l-13 -11l22 -3zM211 394l-1 12l-7 6l-8 -16l13 -9z M371 391v6l-4 2l-6 -5l1 -3h9zM223 339l-4 6l-9 -8zM159 327l-19 -27l10 -14h2v2zM177 221l-12 9l-6 -5l7 -11q9 -1 11 7zM143 195v21h-6l-5 -8l1 -13h10zM118 179l-4 28l-12 -21q3 -3 4 -7q2 -3 8 -4zM173 171l-14 10v-38h6zM220 157l-5 20l-7 -8zM115 115v14l-3 1l-7 -13 v-2h10zM143 68l-6 41q1 -8 -4 -20t-5 -18l1 -6zM130 380q-2 -5 -2 -14q0 -7 -3 -8l-4 14l5 15zM400 361l-2 -3l-4 15h1zM78 162l-19 -1h-3l9 8zM50 129h-3v11h3v-11zM57 113l-1 -4h-13l2 12zM43 35l-9 -10l-7 6l10 8zM195 35l-8 -23l-4 10zM46 17l-7 -10v-1l-4 -4h-3v8z M459 812l-2 -9l-16 5l-19 -27l3 -35l-11 -25l-40 54l-14 -14l-10 16l-16 -7l-42 42l-16 45l-5 2l-40 -39l-36 -57l-46 -43h1l21 45l-7 14l-37 -60l-38 38l-3 7l19 34h11l9 -17l8 10l-8 26l6 -2l33 21l38 76l9 -1l54 21l13 22l38 -61l3 6l-3 14l7 6l40 -10l4 8q10 -12 13 -25 l-14 1l-1 -6l11 -21l29 -19l11 5l14 -9l-13 -1l-9 -10l41 -12zM202 843l-11 12l-5 -3l4 -10zM220 820l-8 10l-13 -4l7 -9zM361 820l-4 6l-5 -11zM401 786l-7 7l-5 -4l4 -15zM148 853l-2 -17l-6 11l2 4z" />
<glyph unicode="&#xc3;" horiz-adv-x="596" d="M568 -32l-16 -24l-11 28l-22 -24l-10 -3l-34 43l-10 78l-4 -24l-37 61l-44 84l-6 -1l-21 13l-20 -4l-49 7l-24 -7l-5 13l-47 -93l-9 21q4 -2 5 -2q3 6 6 9v2l-16 38l14 16l-3 9q-7 1 -11 -5t-15 -16l5 -18l-11 -53l18 -30l-35 -82l-14 12l-28 -14l-14 8l-8 -12h-5v20 l-12 -18l-24 26l17 12l-20 30l23 32l10 -7h2l9 15l-14 35q0 3 1 5t-1 2l34 68l-16 29l4 13l-19 30l2 7l17 -4l29 37v11l4 1l15 -4l14 27q-8 23 -12 30q-3 8 -3 13v15l11 -4q4 0 4 1l2 4l-8 14l20 17l-25 17l5 38h6q7 -7 7 -15l30 12q4 9 12 10l-14 7l-19 -10l-5 2l6 37 l-3 15l5 2l10 -8q-3 -6 -3 -10t8 -12l8 25l-10 35l8 17v7l-7 10l-10 -14l-1 11l54 57l7 11l26 -3l29 -18l13 3v-2l-7 -12l22 -28l-10 -47l32 -41l-3 -19l25 -80l4 3l-4 -17l10 -46l-6 -19l23 -59l15 9h3l1 -9l-20 -33l21 -3l38 -36l14 15l34 -44v-5l-32 26l-15 -11l14 -23 l-8 -9h-6v4l-5 13h-7l-2 -9l14 -23l3 3l9 -9l-6 -19l8 -11l10 19l31 -60l-8 -7l47 -64q-1 -13 4 -24t12 -36zM266 659q-15 -3 -22 -11l11 -10zM217 644l-3 3l-8 -9l3 -5h3zM257 504v24h-3l-24 -24l1 -3l-3 -11l6 -4zM365 417l-3 21l-21 61l-8 -10l10 -27l-4 -9l22 -36h4z M196 476l-11 13l-3 -1v-18zM334 294l-41 123l-20 41l-14 -33l1 -5q8 -5 15 -8q4 -1 4 -10l-24 -5q-3 -3 -4.5 -5t-1.5 -5q2 -2 14 3l5 -8l-23 -17l15 -18l-18 -11l15 -9l-18 -15v-4l13 -25h13l65 -15zM244 437l-21 13l-13 -11l22 -3zM211 394l-1 12l-7 6l-8 -16l13 -9z M371 391v6l-4 2l-6 -5l1 -3h9zM223 339l-4 6l-9 -8zM159 327l-19 -27l10 -14h2v2zM177 221l-12 9l-6 -5l7 -11q9 -1 11 7zM143 195v21h-6l-5 -8l1 -13h10zM118 179l-4 28l-12 -21q3 -3 4 -7q2 -3 8 -4zM173 171l-14 10v-38h6zM220 157l-5 20l-7 -8zM115 115v14l-3 1l-7 -13 v-2h10zM143 68l-6 41q1 -8 -4 -20t-5 -18l1 -6zM130 380q-2 -5 -2 -14q0 -7 -3 -8l-4 14l5 15zM400 361l-2 -3l-4 15h1zM78 162l-19 -1h-3l9 8zM50 129h-3v11h3v-11zM57 113l-1 -4h-13l2 12zM43 35l-9 -10l-7 6l10 8zM195 35l-8 -23l-4 10zM46 17l-7 -10v-1l-4 -4h-3v8z M494 967l-9 -9l2 9h7zM481 933l-17 -49l5 -15l-69 -76l-35 -3l-10 10l-23 -7l-12 8l-17 -8l-37 60l-11 -16l-29 19l-28 -11l-101 -79l-16 3l18 21l-4 25l21 20l-12 29l6 4v-9l12 -5l38 38l-3 5l41 28l16 26l22 -17l33 24l50 -84l7 -1l25 17l12 -21l6 -1l10 6l13 -7l32 26 l8 -11l27 71h3l18 -13zM240 880l-5 6l-23 -24zM173 862l-12 15l-4 -12l15 -8zM251 853l-8 15v-14zM137 818l-15 15l-18 -18l22 -14zM531 910l-6 -11l-18 5l-7 -24l-5 -1l-11 14l4 4l-8 12l32 11l-5 20z" />
<glyph unicode="&#xc4;" horiz-adv-x="596" d="M568 -32l-16 -24l-11 28l-22 -24l-10 -3l-34 43l-10 78l-4 -24l-37 61l-44 84l-6 -1l-21 13l-20 -4l-49 7l-24 -7l-5 13l-47 -93l-9 21q4 -2 5 -2q3 6 6 9v2l-16 38l14 16l-3 9q-7 1 -11 -5t-15 -16l5 -18l-11 -53l18 -30l-35 -82l-14 12l-28 -14l-14 8l-8 -12h-5v20 l-12 -18l-24 26l17 12l-20 30l23 32l10 -7h2l9 15l-14 35q0 3 1 5t-1 2l34 68l-16 29l4 13l-19 30l2 7l17 -4l29 37v11l4 1l15 -4l14 27q-8 23 -12 30q-3 8 -3 13v15l11 -4q4 0 4 1l2 4l-8 14l20 17l-25 17l5 38h6q7 -7 7 -15l30 12q4 9 12 10l-14 7l-19 -10l-5 2l6 37 l-3 15l5 2l10 -8q-3 -6 -3 -10t8 -12l8 25l-10 35l8 17v7l-7 10l-10 -14l-1 11l54 57l7 11l26 -3l29 -18l13 3v-2l-7 -12l22 -28l-10 -47l32 -41l-3 -19l25 -80l4 3l-4 -17l10 -46l-6 -19l23 -59l15 9h3l1 -9l-20 -33l21 -3l38 -36l14 15l34 -44v-5l-32 26l-15 -11l14 -23 l-8 -9h-6v4l-5 13h-7l-2 -9l14 -23l3 3l9 -9l-6 -19l8 -11l10 19l31 -60l-8 -7l47 -64q-1 -13 4 -24t12 -36zM266 659q-15 -3 -22 -11l11 -10zM217 644l-3 3l-8 -9l3 -5h3zM257 504v24h-3l-24 -24l1 -3l-3 -11l6 -4zM365 417l-3 21l-21 61l-8 -10l10 -27l-4 -9l22 -36h4z M196 476l-11 13l-3 -1v-18zM334 294l-41 123l-20 41l-14 -33l1 -5q8 -5 15 -8q4 -1 4 -10l-24 -5q-3 -3 -4.5 -5t-1.5 -5q2 -2 14 3l5 -8l-23 -17l15 -18l-18 -11l15 -9l-18 -15v-4l13 -25h13l65 -15zM244 437l-21 13l-13 -11l22 -3zM211 394l-1 12l-7 6l-8 -16l13 -9z M371 391v6l-4 2l-6 -5l1 -3h9zM223 339l-4 6l-9 -8zM159 327l-19 -27l10 -14h2v2zM177 221l-12 9l-6 -5l7 -11q9 -1 11 7zM143 195v21h-6l-5 -8l1 -13h10zM118 179l-4 28l-12 -21q3 -3 4 -7q2 -3 8 -4zM173 171l-14 10v-38h6zM220 157l-5 20l-7 -8zM115 115v14l-3 1l-7 -13 v-2h10zM143 68l-6 41q1 -8 -4 -20t-5 -18l1 -6zM130 380q-2 -5 -2 -14q0 -7 -3 -8l-4 14l5 15zM400 361l-2 -3l-4 15h1zM78 162l-19 -1h-3l9 8zM50 129h-3v11h3v-11zM57 113l-1 -4h-13l2 12zM43 35l-9 -10l-7 6l10 8zM195 35l-8 -23l-4 10zM46 17l-7 -10v-1l-4 -4h-3v8z M389 844l-12 -82l-10 -7l-21 8v14q-21 31 -33 42l-11 -2l-3 33q-10 32 -6 37l37 46l5 11l18 -17l6 15l15 -7l-1 -15l4 -9l-6 -22zM368 908l-21 7l6 -20l11 1zM327 907l-10 -8l6 -3zM234 773l-6 -8l-14 5l-1 16l-13 -4l-43 19l-13 -8l-29 40l-21 14q11 -4 19 -4q6 0 8.5 2 t8.5 14l-17 5l-6 -11l-2 17l13 50q7 1 11 4q5 3 15 8l12 -17l5 2l13 -28l36 -34zM178 875q-16 18 -26 27l1 -17zM136 863l-10 23l-5 -13zM166 811l-11 8l-10 -1v-10zM107 914l-9 -39l-8 10l2 13zM217 863q-18 9 -24 18v4l11 -2z" />
<glyph unicode="&#xc5;" horiz-adv-x="596" d="M568 -32l-16 -24l-11 28l-22 -24l-10 -3l-34 43l-10 78l-4 -24l-37 61l-44 84l-6 -1l-21 13l-20 -4l-49 7l-24 -7l-5 13l-47 -93l-9 21q4 -2 5 -2q3 6 6 9v2l-16 38l14 16l-3 9q-7 1 -11 -5t-15 -16l5 -18l-11 -53l18 -30l-35 -82l-14 12l-28 -14l-14 8l-8 -12h-5v20 l-12 -18l-24 26l17 12l-20 30l23 32l10 -7h2l9 15l-14 35q0 3 1 5t-1 2l34 68l-16 29l4 13l-19 30l2 7l17 -4l29 37v11l4 1l15 -4l14 27q-8 23 -12 30q-3 8 -3 13v15l11 -4q4 0 4 1l2 4l-8 14l20 17l-25 17l5 38h6q7 -7 7 -15l30 12q4 9 12 10l-14 7l-19 -10l-5 2l6 37 l-3 15l5 2l10 -8q-3 -6 -3 -10t8 -12l8 25l-10 35l8 17v7l-7 10l-10 -14l-1 11l54 57l7 11l26 -3l29 -18l13 3v-2l-7 -12l22 -28l-10 -47l32 -41l-3 -19l25 -80l4 3l-4 -17l10 -46l-6 -19l23 -59l15 9h3l1 -9l-20 -33l21 -3l38 -36l14 15l34 -44v-5l-32 26l-15 -11l14 -23 l-8 -9h-6v4l-5 13h-7l-2 -9l14 -23l3 3l9 -9l-6 -19l8 -11l10 19l31 -60l-8 -7l47 -64q-1 -13 4 -24t12 -36zM266 659q-15 -3 -22 -11l11 -10zM217 644l-3 3l-8 -9l3 -5h3zM257 504v24h-3l-24 -24l1 -3l-3 -11l6 -4zM365 417l-3 21l-21 61l-8 -10l10 -27l-4 -9l22 -36h4z M196 476l-11 13l-3 -1v-18zM334 294l-41 123l-20 41l-14 -33l1 -5q8 -5 15 -8q4 -1 4 -10l-24 -5q-3 -3 -4.5 -5t-1.5 -5q2 -2 14 3l5 -8l-23 -17l15 -18l-18 -11l15 -9l-18 -15v-4l13 -25h13l65 -15zM244 437l-21 13l-13 -11l22 -3zM211 394l-1 12l-7 6l-8 -16l13 -9z M371 391v6l-4 2l-6 -5l1 -3h9zM223 339l-4 6l-9 -8zM159 327l-19 -27l10 -14h2v2zM177 221l-12 9l-6 -5l7 -11q9 -1 11 7zM143 195v21h-6l-5 -8l1 -13h10zM118 179l-4 28l-12 -21q3 -3 4 -7q2 -3 8 -4zM173 171l-14 10v-38h6zM220 157l-5 20l-7 -8zM115 115v14l-3 1l-7 -13 v-2h10zM143 68l-6 41q1 -8 -4 -20t-5 -18l1 -6zM130 380q-2 -5 -2 -14q0 -7 -3 -8l-4 14l5 15zM400 361l-2 -3l-4 15h1zM78 162l-19 -1h-3l9 8zM50 129h-3v11h3v-11zM57 113l-1 -4h-13l2 12zM43 35l-9 -10l-7 6l10 8zM195 35l-8 -23l-4 10zM46 17l-7 -10v-1l-4 -4h-3v8z M399 853l-12 2l-10 -4l3 -3l4 -79l-2 -13l-5 14l-8 -10q-3 -4 -7 -20h-1l-13 10l-5 -5l10 -14l-6 -15l-5 13l-69 -27l-4 -8l-19 11l-10 -5l-31 7l-55 54l-11 58v23l6 14l19 4l13 38l17 7l-1 9l7 9l5 -8l11 5l25 37l19 7l9 -10l8 5l6 -2l14 -27l1 8l-4 18l10 16l18 -2l49 -34 l-4 -9h7l6 3l1 -4l-1 -22l10 -21v-3zM320 847l-6 3q-2 1 -17 24l-8 3l-2 -3h-1l-9 -9l5 -1l1 -3l-3 -3l-4 3q-12 -8 -13 -10l-13 -16q-2 -3 -8 -28l2 -14l4 3q26 -20 32 -22l25 24l7 44zM219 825l-19 21l5 -27l-3 -13l12 -26l-2 11zM176 816v2l-7 5l-5 -6l4 -9zM269 702 l-19 23l-1 -14zM399 907l-4 -7l-3 -1v2l5 6h2z" />
<glyph unicode="&#xc6;" horiz-adv-x="833" d="M828 148l-10 -24l-32 -6l15 16l-36 -15l-3 -9l-31 -10l-22 18l10 -26l-35 -15l-112 -24l-67 -53l-46 9q-15 6 -21 8q-6 3 -14 5l-17 -17l-41 28l-14 -21h-3l-32 26l-8 -5l-5 7l4 20l13 -7l6 21v8l-34 29l-9 16l17 -6l7 6l-25 33l23 51l-15 -8l-57 28l-26 -116l-9 21l4 -1 l7 8v2l-16 38l14 16l-3 9h-2l-24 -21l5 -18l-11 -53l18 -30l-35 -82l-14 12l-28 -14l-14 8q-6 -10 -28 -32l15 26l-12 -4l-19 34l30 19l-38 15l23 32l10 -7h2l9 15l-14 35l1 7h-1l34 68l-16 29l33 83v11l4 1l15 -4l14 27l-19 57l4 1l11 -4l4 1l2 4l-8 14l20 17l-25 17l5 38 h6q-2 -5 -2 -8q0 -7 7 -7q5 0 32 12l3 6v8l-5 3q-8 -4 -12 -8q-4 -3 -5 -3t-7 3q34 102 54 131.5t43 41.5l48 -2q5 -4 29 -14l15 10v8l56 -35l4 -5l39 39v17l26 -45l15 18l-5 17l20 5l-1 -10l3 -5l34 16l12 -7l9 6l31 -23l26 28l10 -16l6 11l37 -18l29 23l11 -11l21 6 l24 -29l22 3l10 -12l14 1l-25 -33l-28 9l4 -10l-24 20q-6 -20 -10 -27l-22 14l-10 -14l-150 4l-86 -213l3 -11l33 17l46 -6l27 4l10 -4l85 -8l7 -18l-16 -39l6 -14l-115 -22l-9 10l-22 -8l-10 8h-22l-23 -26l2 -22l-9 -96l7 -37q-6 -9 -10 -14q-4 -4 -2 -11l26 -15 q47 13 87 43l7 -2l39 21l10 -2l133 40l21 -1l29 -14zM403 653l-28 23l19 -33zM462 585l-42 37l-9 -5l19 -22l9 3v-10l3 1l10 -14l9 7zM348 510l-8 22q-51 -14 -66.5 -49.5t-13.5 -62.5l19 -12v-6l-34 -37l15 -18l-18 -11l15 -9l-18 -15v-1l56 -28l17 49l22 27l-7 29v4l7 -13 l3 1l3 21l-4 25l-20 6l22 24zM257 504v24h-3l-24 -24l1 -3l-3 -11l6 -4zM159 327l-19 -27l10 -14h2v2zM350 304l-13 20l-2 -17l8 -13zM177 221l-12 9l-6 -5l7 -11h2l8 4zM143 195v21h-6l-5 -8l1 -13h10zM118 179l-1 29l-28 -51l20 19l-8 -22zM215 190l-13 -9l8 -16zM176 172 l-17 9v-38h6zM115 115v14l-3 1l-7 -13v-2h10zM143 68l-6 41v-4l-9 -34l1 -6zM89 41l-13 -8l-10 1l12 -19zM784 690h-9v9h2l7 -3v-6zM720 365l-7 -9l-17 3l-4 -23q-4 -1 -5 -1t-4 4q-2 4 -6 10l4 4l-7 12l28 11l-6 19l23 -26zM130 380l-4 -10l-3 -1l-2 3l5 15zM43 35l-9 -10 l-7 6l10 8zM39 10v-4l-4 -4h-3v8h7z" />
<glyph unicode="&#xc7;" horiz-adv-x="719" d="M705 131l-14 -7l-28 -88l-16 3l8 6l-13 10l-32 -20l-5 -12l-18 10l-26 -17l-12 4l-7 -9v-11h-11l-50 11v-27l-9 -38l3 -48l-20 -10l-83 17l-6 -14l-45 -6l-20 33l18 9l-6 13l16 -20l8 14l67 -17v31l17 22l-25 29l-2 28l-12 -20l-81 32l-37 41l-12 -4l-5 2l-21 -7l-7 10 l-84 30l6 15l-30 56l-18 -14l2 -22l-2 -9l-23 48l17 17l-33 6l-1 10l6 40l-15 28l14 -12l-11 39l-14 15l14 7l-13 26l-26 -35l-3 11l20 49l20 -22l-5 50q15 19 23 39l-11 9l-14 -3l40 57l1 14l22 -44l23 37l-4 40l-2 -7l29 -36l30 48l-11 18l21 -18l11 13q6 7 7 14l4 19 l10 10l4 -39l17 26l14 -1l21 14l-3 12l29 17l13 -12l7 23l16 10v3l29 -10l19 29v-12l10 -14l13 9l27 -9l38 37l19 -30l14 10l21 -10l12 2l4 -8l-19 -39l21 -1l3 -7l-23 -19h-9l-10 12l-20 -12l-51 17l-65 -11l-152 -91l-43 -84l-16 -46l3 -20l-14 -71l17 -36v-7l31 -32 l46 -60l10 2l104 -74l32 -13l-18 25l130 -44l97 32l33 74l12 -7l30 32l-1 6l9 11zM480 667l-14 16l-2 -9l13 -8zM79 400v1l-29 9l25 -20zM83 227v7l-13 18l7 -28zM327 40l-11 30l-3 -1l-10 -18zM445 -12l-3 19l-29 -14l14 -18l2 18zM430 -57l-8 3h-2v-3l-10 -3l5 -14z M51 255l-13 -5l-4 13zM123 129h-3v11h3v-11z" />
<glyph unicode="&#xc8;" horiz-adv-x="598" d="M563 148l-1 -47l-7 -3l-4 21q-6 7 -9 11q-2 5 -7 4l-6 -19l-5 -1l-36 18l6 -14l-24 -17l-23 24l-7 -7l-22 -41q-15 22 -21 26q-2 0 -4 -1t-3 -4l-15 -38l-10 6v2l3 13l-3 6l-16 -34l-15 6l-28 -6l-67 -53l-46 9l-30 1l-5 12l-18 -17l-40 28l-13 -21h-4l-31 26l-8 -5l-6 7 l5 20l12 -7l5 21v8l-32 29l-10 16l18 -6l7 11l-11 59l11 27l-15 20l21 41l-14 15l16 20l-3 26l20 19l-21 33h13q0 -15 31 -15l-17 19l-14 34l15 14l16 -36l8 7l4 43l-7 6q-14 -3 -16 -2l33 59l-7 18l5 4l18 -21l10 35l-2 53l-17 28l-18 -7l-14 3l-8 17l-9 -5l-15 36l2 9 l10 5l-1 -5l15 -18l15 10v8l56 -35l4 -5l38 39v17l26 -45l15 17l-6 18l21 5v-8l4 -7l33 16l12 -7l9 6l30 -23l26 28l10 -16l7 11l37 -18l28 23l12 -11l21 6l14 -26l6 10l21 -9q3 -1 14 -13h-24l-12 -8q4 -11 12 -30l-35 25l7 -21l-17 -6l-23 14l-8 -14l-151 4l-29 -62 l-11 -40l-21 -5l10 -16l-34 -90l3 -11l32 17l20 -24l27 18l3 -11l5 -1l18 16l6 -11l28 -6q5 5 8 7t3 6h1l27 -24l4 34l14 -29l11 -8l-16 -38l5 -14l-114 -22l-10 10l-20 -8l-9 8l-18 -10v1l-5 9l-23 -26l2 -22l-10 -96l8 -37l-15 -21l1 -4l28 -15l26 8l61 35l7 -2l38 21 l9 -2l133 40l22 -1l19 -18l11 4zM137 653l-25 24l17 -34zM204 662l-15 -9l2 -7zM244 634q-22 -15 -26 -19l21 -1zM206 567q-15 26 -21 31l-29 24l-10 -5l18 -22l9 3l-6 -13l10 4l8 -14zM183 560l-7 14l-10 -13l-4 -31zM158 508l-3 16q-1 7 -9 19v-24zM140 480l-7 -9l5 -14z M157 430l-10 33l-6 -25zM134 322l-10 14l-4 -12l11 -8h2zM84 305l-13 19l-1 -15l8 -15zM190 285q1 3 -7 6q-7 3 -10 7v-14zM146 291l-6 3l-3 -8h1zM88 252v18l-17 -20zM113 218l-13 -8v-2l6 -7zM100 118h-9v-7zM265 101l-4 15l-22 -15l11 -8l7 1zM268 57v13l-10 5h-1v-2 l8 -16h3zM518 690h-9v9h2l7 -3v-6zM459 378q-4 -14 -12 -22l-17 3l12 -30l-14 16l-4 -10l-13 14l4 4l-7 12l29 11l-7 19zM500 382q0 -3 -19 -26l-9 22l11 -3zM324 37l-5 -7h-6l10 15zM422 825l-19 -31l-4 27q-4 -8 -15 -36l-16 28l-7 -19l-40 27l9 11l-18 -6l-75 53v16 l-16 -6l-10 9v2l9 18l-18 -4l-15 8l16 37l-19 12l-1 24l12 -17l33 -16l17 8l21 -21l9 4l-2 -13l37 -29l15 2l-18 -14q19 0 35 7l4 -30l1 -5q1 -3 14 -20l-4 16l23 5l12 -22l4 11l25 -34zM220 984l-6 -8l-6 5l5 5z" />
<glyph unicode="&#xc9;" horiz-adv-x="598" d="M563 148l-1 -47l-7 -3l-4 21q-6 7 -9 11q-2 5 -7 4l-6 -19l-5 -1l-36 18l6 -14l-24 -17l-23 24l-7 -7l-22 -41q-15 22 -21 26q-2 0 -4 -1t-3 -4l-15 -38l-10 6v2l3 13l-3 6l-16 -34l-15 6l-28 -6l-67 -53l-46 9l-30 1l-5 12l-18 -17l-40 28l-13 -21h-4l-31 26l-8 -5l-6 7 l5 20l12 -7l5 21v8l-32 29l-10 16l18 -6l7 11l-11 59l11 27l-15 20l21 41l-14 15l16 20l-3 26l20 19l-21 33h13q0 -15 31 -15l-17 19l-14 34l15 14l16 -36l8 7l4 43l-7 6q-14 -3 -16 -2l33 59l-7 18l5 4l18 -21l10 35l-2 53l-17 28l-18 -7l-14 3l-8 17l-9 -5l-15 36l2 9 l10 5l-1 -5l15 -18l15 10v8l56 -35l4 -5l38 39v17l26 -45l15 17l-6 18l21 5v-8l4 -7l33 16l12 -7l9 6l30 -23l26 28l10 -16l7 11l37 -18l28 23l12 -11l21 6l14 -26l6 10l21 -9q3 -1 14 -13h-24l-12 -8q4 -11 12 -30l-35 25l7 -21l-17 -6l-23 14l-8 -14l-151 4l-29 -62 l-11 -40l-21 -5l10 -16l-34 -90l3 -11l32 17l20 -24l27 18l3 -11l5 -1l18 16l6 -11l28 -6q5 5 8 7t3 6h1l27 -24l4 34l14 -29l11 -8l-16 -38l5 -14l-114 -22l-10 10l-20 -8l-9 8l-18 -10v1l-5 9l-23 -26l2 -22l-10 -96l8 -37l-15 -21l1 -4l28 -15l26 8l61 35l7 -2l38 21 l9 -2l133 40l22 -1l19 -18l11 4zM137 653l-25 24l17 -34zM204 662l-15 -9l2 -7zM244 634q-22 -15 -26 -19l21 -1zM206 567q-15 26 -21 31l-29 24l-10 -5l18 -22l9 3l-6 -13l10 4l8 -14zM183 560l-7 14l-10 -13l-4 -31zM158 508l-3 16q-1 7 -9 19v-24zM140 480l-7 -9l5 -14z M157 430l-10 33l-6 -25zM134 322l-10 14l-4 -12l11 -8h2zM84 305l-13 19l-1 -15l8 -15zM190 285q1 3 -7 6q-7 3 -10 7v-14zM146 291l-6 3l-3 -8h1zM88 252v18l-17 -20zM113 218l-13 -8v-2l6 -7zM100 118h-9v-7zM265 101l-4 15l-22 -15l11 -8l7 1zM268 57v13l-10 5h-1v-2 l8 -16h3zM518 690h-9v9h2l7 -3v-6zM459 378q-4 -14 -12 -22l-17 3l12 -30l-14 16l-4 -10l-13 14l4 4l-7 12l29 11l-7 19zM500 382q0 -3 -19 -26l-9 22l11 -3zM324 37l-5 -7h-6l10 15zM413 970l-8 -5l-5 9l7 2l3 -1zM443 957l-7 3l-19 -12l16 -37l-31 3l-2 -6l9 -18v-2 q-18 -1 -27 -4v-15l-73 -53l-18 4l8 -10l-41 -25l-7 18l-15 -28l-11 23l-13 7l5 -11l-17 20l1 3l41 44q21 -5 23 -6l8 2v27l5 12l18 -8v14l14 -2l37 30l-2 13l10 -4l20 20l23 -16l35 21z" />
<glyph unicode="&#xca;" horiz-adv-x="598" d="M563 148l-1 -47l-7 -3l-4 21q-6 7 -9 11q-2 5 -7 4l-6 -19l-5 -1l-36 18l6 -14l-24 -17l-23 24l-7 -7l-22 -41q-15 22 -21 26q-2 0 -4 -1t-3 -4l-15 -38l-10 6v2l3 13l-3 6l-16 -34l-15 6l-28 -6l-67 -53l-46 9l-30 1l-5 12l-18 -17l-40 28l-13 -21h-4l-31 26l-8 -5l-6 7 l5 20l12 -7l5 21v8l-32 29l-10 16l18 -6l7 11l-11 59l11 27l-15 20l21 41l-14 15l16 20l-3 26l20 19l-21 33h13q0 -15 31 -15l-17 19l-14 34l15 14l16 -36l8 7l4 43l-7 6q-14 -3 -16 -2l33 59l-7 18l5 4l18 -21l10 35l-2 53l-17 28l-18 -7l-14 3l-8 17l-9 -5l-15 36l2 9 l10 5l-1 -5l15 -18l15 10v8l56 -35l4 -5l38 39v17l26 -45l15 17l-6 18l21 5v-8l4 -7l33 16l12 -7l9 6l30 -23l26 28l10 -16l7 11l37 -18l28 23l12 -11l21 6l14 -26l6 10l21 -9q3 -1 14 -13h-24l-12 -8q4 -11 12 -30l-35 25l7 -21l-17 -6l-23 14l-8 -14l-151 4l-29 -62 l-11 -40l-21 -5l10 -16l-34 -90l3 -11l32 17l20 -24l27 18l3 -11l5 -1l18 16l6 -11l28 -6q5 5 8 7t3 6h1l27 -24l4 34l14 -29l11 -8l-16 -38l5 -14l-114 -22l-10 10l-20 -8l-9 8l-18 -10v1l-5 9l-23 -26l2 -22l-10 -96l8 -37l-15 -21l1 -4l28 -15l26 8l61 35l7 -2l38 21 l9 -2l133 40l22 -1l19 -18l11 4zM137 653l-25 24l17 -34zM204 662l-15 -9l2 -7zM244 634q-22 -15 -26 -19l21 -1zM206 567q-15 26 -21 31l-29 24l-10 -5l18 -22l9 3l-6 -13l10 4l8 -14zM183 560l-7 14l-10 -13l-4 -31zM158 508l-3 16q-1 7 -9 19v-24zM140 480l-7 -9l5 -14z M157 430l-10 33l-6 -25zM134 322l-10 14l-4 -12l11 -8h2zM84 305l-13 19l-1 -15l8 -15zM190 285q1 3 -7 6q-7 3 -10 7v-14zM146 291l-6 3l-3 -8h1zM88 252v18l-17 -20zM113 218l-13 -8v-2l6 -7zM100 118h-9v-7zM265 101l-4 15l-22 -15l11 -8l7 1zM268 57v13l-10 5h-1v-2 l8 -16h3zM518 690h-9v9h2l7 -3v-6zM459 378q-4 -14 -12 -22l-17 3l12 -30l-14 16l-4 -10l-13 14l4 4l-7 12l29 11l-7 19zM500 382q0 -3 -19 -26l-9 22l11 -3zM324 37l-5 -7h-6l10 15zM472 886l-2 -9l-16 5l-19 -27l3 -35l-11 -25l-40 54l-14 -14l-10 16l-16 -7l-42 42 l-16 45l-5 2l-40 -39l-36 -57l-46 -43h1l21 45l-7 14l-37 -60l-38 38l-3 7l19 34h11l9 -17l8 10l-8 26l6 -2l33 21l38 76l9 -1l54 21l13 22l38 -61l3 6l-3 14l7 6l40 -10l4 8q10 -12 13 -25l-14 1l-1 -6l11 -21l29 -19l11 5l14 -9l-13 -1l-9 -10l41 -12zM215 917l-11 12 l-5 -3l4 -10zM233 894l-8 10l-13 -4l7 -9zM374 894l-4 6l-5 -11zM414 860l-7 7l-5 -4l4 -15zM161 927l-2 -17l-6 11l2 4z" />
<glyph unicode="&#xcb;" horiz-adv-x="598" d="M563 148l-1 -47l-7 -3l-4 21q-6 7 -9 11q-2 5 -7 4l-6 -19l-5 -1l-36 18l6 -14l-24 -17l-23 24l-7 -7l-22 -41q-15 22 -21 26q-2 0 -4 -1t-3 -4l-15 -38l-10 6v2l3 13l-3 6l-16 -34l-15 6l-28 -6l-67 -53l-46 9l-30 1l-5 12l-18 -17l-40 28l-13 -21h-4l-31 26l-8 -5l-6 7 l5 20l12 -7l5 21v8l-32 29l-10 16l18 -6l7 11l-11 59l11 27l-15 20l21 41l-14 15l16 20l-3 26l20 19l-21 33h13q0 -15 31 -15l-17 19l-14 34l15 14l16 -36l8 7l4 43l-7 6q-14 -3 -16 -2l33 59l-7 18l5 4l18 -21l10 35l-2 53l-17 28l-18 -7l-14 3l-8 17l-9 -5l-15 36l2 9 l10 5l-1 -5l15 -18l15 10v8l56 -35l4 -5l38 39v17l26 -45l15 17l-6 18l21 5v-8l4 -7l33 16l12 -7l9 6l30 -23l26 28l10 -16l7 11l37 -18l28 23l12 -11l21 6l14 -26l6 10l21 -9q3 -1 14 -13h-24l-12 -8q4 -11 12 -30l-35 25l7 -21l-17 -6l-23 14l-8 -14l-151 4l-29 -62 l-11 -40l-21 -5l10 -16l-34 -90l3 -11l32 17l20 -24l27 18l3 -11l5 -1l18 16l6 -11l28 -6q5 5 8 7t3 6h1l27 -24l4 34l14 -29l11 -8l-16 -38l5 -14l-114 -22l-10 10l-20 -8l-9 8l-18 -10v1l-5 9l-23 -26l2 -22l-10 -96l8 -37l-15 -21l1 -4l28 -15l26 8l61 35l7 -2l38 21 l9 -2l133 40l22 -1l19 -18l11 4zM137 653l-25 24l17 -34zM204 662l-15 -9l2 -7zM244 634q-22 -15 -26 -19l21 -1zM206 567q-15 26 -21 31l-29 24l-10 -5l18 -22l9 3l-6 -13l10 4l8 -14zM183 560l-7 14l-10 -13l-4 -31zM158 508l-3 16q-1 7 -9 19v-24zM140 480l-7 -9l5 -14z M157 430l-10 33l-6 -25zM134 322l-10 14l-4 -12l11 -8h2zM84 305l-13 19l-1 -15l8 -15zM190 285q1 3 -7 6q-7 3 -10 7v-14zM146 291l-6 3l-3 -8h1zM88 252v18l-17 -20zM113 218l-13 -8v-2l6 -7zM100 118h-9v-7zM265 101l-4 15l-22 -15l11 -8l7 1zM268 57v13l-10 5h-1v-2 l8 -16h3zM518 690h-9v9h2l7 -3v-6zM459 378q-4 -14 -12 -22l-17 3l12 -30l-14 16l-4 -10l-13 14l4 4l-7 12l29 11l-7 19zM500 382q0 -3 -19 -26l-9 22l11 -3zM324 37l-5 -7h-6l10 15zM439 889l-12 -82l-10 -7l-21 8v14q-21 31 -33 42l-11 -2l-3 33q-10 32 -6 37l37 46l5 11 l18 -17l6 15l15 -7l-1 -15l4 -9l-6 -22zM418 953l-21 7l6 -20l11 1zM377 952l-10 -8l6 -3zM284 818l-6 -8l-14 5l-1 16l-13 -4l-43 19l-13 -8l-29 40l-21 14q11 -4 19 -4q6 0 8.5 2t8.5 14l-17 5l-6 -11l-2 17l13 50q7 1 11 4q5 3 15 8l12 -17l5 2l13 -28l36 -34zM228 920 q-16 18 -26 27l1 -17zM186 908l-10 23l-5 -13zM216 856l-11 8l-10 -1v-10zM157 959l-9 -39l-8 10l2 13zM267 908q-18 9 -24 18v4l11 -2z" />
<glyph unicode="&#xcc;" horiz-adv-x="286" d="M257 494l-13 -60l4 -19l-28 -18l10 -9l20 5l4 -12l-9 -35l5 -15l-20 -13l-3 -27l-28 37l-8 -13l14 -35l-10 -18l29 -34q15 -26 17 -37l-11 -7l-12 35l-13 -54l27 -24l-11 -23l-6 1l-27 -27l8 -50l-12 5l-2 -4l18 -38l-23 -33q-7 2 -29 20l-15 -10l-28 29l5 2l17 -4l8 9 l-3 11l10 14l-11 9l-5 -2l-10 -16l-36 65l3 15l-14 145l20 36l-24 36l24 5l7 57l-15 71l8 67l-16 18l-5 -1l-14 39l21 -3l-22 68l7 12l-19 24v47l10 13l-3 -19l5 -11l-1 -21l34 42l16 -20l37 11l17 -11l17 6l26 -7l17 -24l-6 -12l20 -12v-32h-3l-2 -7l16 -48l-27 -34l9 -10 l24 14h1l1 -6l-5 -33zM176 687v7l-11 9l-6 -6l13 -11zM153 542l-23 23l-15 -44l16 26zM252 470l-7 27l-18 12l-6 -15l20 -18zM105 461v10l-11 5h-1l-1 -5l8 -12zM208 464l-15 -12l-11 9v-16l6 -10zM89 246v13h-3v-13h3zM180 85q1 2 -9 23l-3 -20l5 -36zM75 503l-15 26l11 8z M245 170l-4 -15l-3 15h7zM214 -39l-13 9l4 6l9 -7v-8zM281 866l-19 -31l-4 27q-4 -8 -15 -36l-16 28l-7 -19l-40 27l9 11l-18 -6l-75 53v16l-16 -6l-10 9v2l9 18l-18 -4l-15 8l16 37l-19 12l-1 24l12 -17l33 -16l17 8l21 -21l9 4l-2 -13l37 -29l15 2l-18 -14q19 0 35 7 l4 -30l1 -5q1 -3 14 -20l-4 16l23 5l12 -22l4 11l25 -34zM79 1025l-6 -8l-6 5l5 5z" />
<glyph unicode="&#xcd;" horiz-adv-x="286" d="M257 494l-13 -60l4 -19l-28 -18l10 -9l20 5l4 -12l-9 -35l5 -15l-20 -13l-3 -27l-28 37l-8 -13l14 -35l-10 -18l29 -34q15 -26 17 -37l-11 -7l-12 35l-13 -54l27 -24l-11 -23l-6 1l-27 -27l8 -50l-12 5l-2 -4l18 -38l-23 -33q-7 2 -29 20l-15 -10l-28 29l5 2l17 -4l8 9 l-3 11l10 14l-11 9l-5 -2l-10 -16l-36 65l3 15l-14 145l20 36l-24 36l24 5l7 57l-15 71l8 67l-16 18l-5 -1l-14 39l21 -3l-22 68l7 12l-19 24v47l10 13l-3 -19l5 -11l-1 -21l34 42l16 -20l37 11l17 -11l17 6l26 -7l17 -24l-6 -12l20 -12v-32h-3l-2 -7l16 -48l-27 -34l9 -10 l24 14h1l1 -6l-5 -33zM176 687v7l-11 9l-6 -6l13 -11zM153 542l-23 23l-15 -44l16 26zM252 470l-7 27l-18 12l-6 -15l20 -18zM105 461v10l-11 5h-1l-1 -5l8 -12zM208 464l-15 -12l-11 9v-16l6 -10zM89 246v13h-3v-13h3zM180 85q1 2 -9 23l-3 -20l5 -36zM75 503l-15 26l11 8z M245 170l-4 -15l-3 15h7zM214 -39l-13 9l4 6l9 -7v-8zM251 1015l-8 -5l-5 9l7 2l3 -1zM281 1002l-7 3l-19 -12l16 -37l-31 3l-2 -6l9 -18v-2q-18 -1 -27 -4v-15l-73 -53l-18 4l8 -10l-41 -25l-7 18l-15 -28l-11 23l-13 7l5 -11l-17 20l1 3l41 44q21 -5 23 -6l8 2v27l5 12 l18 -8v14l14 -2l37 30l-2 13l10 -4l20 20l23 -16l35 21z" />
<glyph unicode="&#xce;" horiz-adv-x="286" d="M258 494l-13 -60l4 -19l-28 -18l10 -9l20 5l4 -12l-9 -35l5 -15l-20 -13l-3 -27l-28 37l-8 -13l14 -35l-10 -18l29 -34q15 -26 17 -37l-11 -7l-12 35l-13 -54l27 -24l-11 -23l-6 1l-27 -27l8 -50l-12 5l-2 -4l18 -38l-23 -33q-7 2 -29 20l-15 -10l-28 29l5 2l17 -4l8 9 l-3 11l10 14l-11 9l-5 -2l-10 -16l-36 65l3 15l-14 145l20 36l-24 36l24 5l7 57l-15 71l8 67l-16 18l-5 -1l-14 39l21 -3l-22 68l7 12l-19 24v47l10 13l-3 -19l5 -11l-1 -21l34 42l16 -20l37 11l17 -11l17 6l26 -7l17 -24l-6 -12l20 -12v-32h-3l-2 -7l16 -48l-27 -34l9 -10 l24 14h1l1 -6l-5 -33zM177 687v7l-11 9l-6 -6l13 -11zM154 542l-23 23l-15 -44l16 26zM253 470l-7 27l-18 12l-6 -15l20 -18zM106 461v10l-11 5h-1l-1 -5l8 -12zM209 464l-15 -12l-11 9v-16l6 -10zM90 246v13h-3v-13h3zM181 85q1 2 -9 23l-3 -20l5 -36zM76 503l-15 26l11 8z M246 170l-4 -15l-3 15h7zM215 -39l-13 9l4 6l9 -7v-8zM413 914l-2 -9l-16 5l-19 -27l3 -35l-11 -25l-40 54l-14 -14l-10 16l-16 -7l-42 42l-16 45l-5 2l-40 -39l-36 -57l-46 -43h1l21 45l-7 14l-37 -60l-38 38l-3 7l19 34h11l9 -17l8 10l-8 26l6 -2l33 21l38 76l9 -1l54 21 l13 22l38 -61l3 6l-3 14l7 6l40 -10l4 8q10 -12 13 -25l-14 1l-1 -6l11 -21l29 -19l11 5l14 -9l-13 -1l-9 -10l41 -12zM156 945l-11 12l-5 -3l4 -10zM174 922l-8 10l-13 -4l7 -9zM315 922l-4 6l-5 -11zM355 888l-7 7l-5 -4l4 -15zM102 955l-2 -17l-6 11l2 4z" />
<glyph unicode="&#xcf;" horiz-adv-x="286" d="M257 494l-13 -60l4 -19l-28 -18l10 -9l20 5l4 -12l-9 -35l5 -15l-20 -13l-3 -27l-28 37l-8 -13l14 -35l-10 -18l29 -34q15 -26 17 -37l-11 -7l-12 35l-13 -54l27 -24l-11 -23l-6 1l-27 -27l8 -50l-12 5l-2 -4l18 -38l-23 -33q-7 2 -29 20l-15 -10l-28 29l5 2l17 -4l8 9 l-3 11l10 14l-11 9l-5 -2l-10 -16l-36 65l3 15l-14 145l20 36l-24 36l24 5l7 57l-15 71l8 67l-16 18l-5 -1l-14 39l21 -3l-22 68l7 12l-19 24v47l10 13l-3 -19l5 -11l-1 -21l34 42l16 -20l37 11l17 -11l17 6l26 -7l17 -24l-6 -12l20 -12v-32h-3l-2 -7l16 -48l-27 -34l9 -10 l24 14h1l1 -6l-5 -33zM176 687v7l-11 9l-6 -6l13 -11zM153 542l-23 23l-15 -44l16 26zM252 470l-7 27l-18 12l-6 -15l20 -18zM105 461v10l-11 5h-1l-1 -5l8 -12zM208 464l-15 -12l-11 9v-16l6 -10zM89 246v13h-3v-13h3zM180 85q1 2 -9 23l-3 -20l5 -36zM75 503l-15 26l11 8z M245 170l-4 -15l-3 15h7zM214 -39l-13 9l4 6l9 -7v-8zM332 922l-12 -82l-10 -7l-21 8v14q-21 31 -33 42l-11 -2l-3 33q-10 32 -6 37l37 46l5 11l18 -17l6 15l15 -7l-1 -15l4 -9l-6 -22zM311 986l-21 7l6 -20l11 1zM270 985l-10 -8l6 -3zM177 851l-6 -8l-14 5l-1 16l-13 -4 l-43 19l-13 -8l-29 40l-21 14q11 -4 19 -4q6 0 8.5 2t8.5 14l-17 5l-6 -11l-2 17l13 50q7 1 11 4q5 3 15 8l12 -17l5 2l13 -28l36 -34zM121 953q-16 18 -26 27l1 -17zM79 941l-10 23l-5 -13zM109 889l-11 8l-10 -1v-10zM50 992l-9 -39l-8 10l2 13zM160 941q-18 9 -24 18v4 l11 -2z" />
<glyph unicode="&#xd0;" horiz-adv-x="606" d="M588 331l-21 -49l-13 -12l-32 -65l-27 -27l-11 -33l-44 12l-2 -37l-13 -27h-3l-21 30l-23 -52l-20 11l-19 -20l-30 7l-18 -19l-70 17l-16 -11l12 -32l-15 4l-17 -6v-14l-15 11l-12 -19l-10 44l-33 -12l-23 18l-4 -13l-16 -3l-4 7l13 12l-16 33l3 7l-8 52l16 12l7 -7l6 11 l-19 17l-14 -6l-1 29l6 11l4 71l-8 17l-40 -3l-62 9l16 17l-3 19l20 16l-1 16l80 23l6 15l-4 19l18 8l14 39l-3 15l-19 25l32 64l-8 5l-31 -22l-20 47q14 1 20 5l-36 24l11 14l18 -17l27 53l19 -9l35 7l12 -2l31 12l16 -21l9 29l54 -28l35 6l26 -17l21 3l12 -7l-1 -16l14 -4 l15 -27l16 12l-4 15q12 -13 29 -35l11 3l38 -30l-2 -11l9 -16h2l15 9l6 -2l-7 -12l16 -18l37 -62l-8 -14q-5 -7 -7 -15l-3 -21l16 -30l5 27l3 -20l24 -45l-7 -6l9 -12v-3zM135 632l-6 6l-6 -13l3 -4zM443 306l-8 43l-36 147l3 11l-23 16l-48 71l-107 43l-40 -8l-19 9 l-19 -41l13 1l6 -8l-4 -22l-26 9v-18l16 6l16 -10l13 42l16 -3l-7 -24h2l11 8l7 -13l-13 -10l12 -12l-2 -27l8 -73l-19 -16l7 -10l3 4h1l55 -28l11 10l27 -19l13 13l16 -17l-15 -29l4 -11l-113 -17l4 -115l-15 -11l28 -69l16 6l9 -1l71 15l18 -2l74 70l29 46l-13 18z M373 362l-5 -6l-18 2l-3 -18l-4 -1l-12 10l3 4l-7 9l29 10l-6 15zM77 587l-9 10l-8 -10h17zM385 594h-16l3 -9zM167 398v9l-14 9l-10 -8zM163 352l-12 30l-5 -14zM567 332l-12 22l-7 -4l-1 -16l7 -15zM205 339l-6 11l-4 -11h10zM53 328l-9 12l-5 -10l11 -6l2 1zM4 317 l-13 13l-15 -14l19 -12h1zM199 259l-17 16l2 -9l-4 -27l9 -16l-1 5zM118 241v7l-14 9l-9 -9v-3zM115 194l-14 29l-3 -10zM173 219l-22 -11l12 -7zM497 201l-5 -13h3zM193 157l-17 6l-9 -9l11 -10l4 1zM428 120l-9 6h-1l7 -11zM135 101l-15 14l-2 -15zM369 108l-4 5l-7 -10 l4 -10l7 7v8zM199 46l-10 33l-7 -14l3 -31zM579 433l-14 6l4 16zM551 227l-8 -22h-12l17 31z" />
<glyph unicode="&#xd1;" horiz-adv-x="680" d="M653 492q-1 -6 -2 -6l-9 4q-4 2 -24 20l-12 -13l6 -4l12 7l6 -26l-14 2l-10 -10l15 -44v-2l-13 -25l7 -10l21 12h2l-26 -28q-12 4 -14 4t-2 -8l5 -20l3 -1l13 8l4 -7l-15 -16l15 -37l-20 -11l-5 -10l3 -15l-30 -47l3 -10l-20 -27l3 -12l-8 -39l12 -19l34 85v-20l-28 -62 l-24 -80l2 -32l-27 19l-32 -12l-24 10l-1 6l4 23l-9 11v68l11 13l-7 9l-15 -15l-12 38l2 5l-20 12l-42 83l-113 177l-12 -12l4 10l-12 31l-16 -45l-21 -30l4 1l24 -24l12 8l-1 22l6 15l4 -18l-12 -49q-10 -7 -16 -9t-6 -5v-5l-5 -17l7 -9l12 1l-8 -30l-49 -91l4 -32l-14 -51 l18 -59l-9 -26l15 -4l-3 -19l-21 44l6 17l-9 7l-15 -5l-11 -32l-26 -31l-10 5h-15v13l-4 9h-2l-12 -10l-5 3q-8 -1 -9 -6q-1 -10 -6 -21l-5 10l25 43v2l-9 6l-26 -24l-5 1l-2 9l22 26l-19 19l7 9l7 -5l5 4l-9 26l7 23l-1 16l19 35l7 33l-16 -32l27 149l15 11l-3 6l23 20 l-20 3v18l20 3l-12 27l9 38l13 17l-1 5l-12 3l20 47l-9 28l7 34h4l12 5l-8 16h-11v6l-6 34l3 17h11l11 -14l18 14h6l-7 -16l18 -41l7 -7l8 21q0 15 -8 20h2l14 -14l13 -39l-6 -15l4 -2l16 12l20 -36l40 13l14 -27l-7 -16l37 -21l37 -63l2 29q8 -15 10 -27l-13 -22l7 -10 l11 9l2 -17q1 -11 5 -16l9 -16l11 8l7 -5l-2 -21l7 -77l1 -6l19 17l-14 53h17l9 -21l-4 -34l3 -16l-15 7v-3l4 -34l21 -9l5 1l6 11l-7 18l28 16l-6 11l-10 -5l5 50l13 -18l4 1l3 7l-13 30l4 12l-2 15l6 47l8 10v91l13 91l-13 80l10 16l-10 25l28 -34l8 3v-21l25 -16l5 -14 l4 1q1 30 2 31h6l25 -56l-3 -25l-5 30l-1 -33l9 -27h2l16 8l7 -13v-18l-10 5l17 -43l-7 -11zM166 608l-11 23q-1 4 -14 16l6 -14zM183 598l-3 3l-4 -15h2zM606 580v3h-9v-3h9zM189 574l-11 -12l2 -7zM622 560l-5 5l-9 -8l9 -2zM633 528l-3 9h-9l-1 -3l9 -7zM185 513l-5 7h-4 l2 -26zM311 503v9h-7v-9h7zM134 475q-15 -24 -23 -45l13 17zM147 459v10l-9 -8l2 -3zM184 451l-9 16l-6 -25v-2h3zM334 466h-10v-7h7zM210 443l-3 16l-11 -31h7zM608 423l-7 7l5 -14zM154 413l-14 12l7 -17zM210 358v11h-7v-11h7zM181 348l-1 5l-6 1l-16 -20l2 -7zM212 281 l-16 61l-7 -34l6 -30l10 -2zM582 327l-10 11l6 -15zM98 284v2l-5 26l-5 -23v-5h10zM602 299l-18 12l-3 -8l17 -11zM166 139l-1 11q0 6 -3 9l-6 11l3 21l-11 14l13 36l-5 43l-10 -24l6 -38l-23 -26l25 -2l1 -5l-10 -11l-1 -7l10 -19l-16 -11l-5 2l-5 -9l12 -32l15 10l-21 13 l7 7l15 -5zM184 267l-6 14v-25h6v11zM473 205v13h-3v-13h3zM528 182l-8 14v-16zM463 148v42l-6 -21l3 -21h3zM89 144l-10 19l-9 -23h18zM490 85l-30 26l15 -32h9zM549 106l-30 -13l-9 -9q1 -2 1 -4q1 -1 5 -1zM154 75l-14 12v-12h14zM120 63v7h-4zM79 63v4l-3 3zM520 49v1 q-5 -2 -31 -9l23 -3zM500 24l-4 2l-23 -12l24 2zM663 685l-19 -11l-15 2l-15 -13q8 18 19 28zM643 635l-5 19h5v-19zM270 611l-13 -6l-11 30zM645 412l-23 -10l17 29l1 -1zM218 191l-3 -9h-3l3 12zM154 -11l-6 6h6v-6zM505 -8l-11 -29h-5v7zM573 969l-9 -9l2 9h7zM560 935 l-17 -49l5 -15l-69 -76l-35 -3l-10 10l-23 -7l-12 8l-17 -8l-37 60l-11 -16l-29 19l-28 -11l-101 -79l-16 3l18 21l-4 25l21 20l-12 29l6 4v-9l12 -5l38 38l-3 5l41 28l16 26l22 -17l33 24l50 -84l7 -1l25 17l12 -21l6 -1l10 6l13 -7l32 26l8 -11l27 71h3l18 -13zM319 882 l-5 6l-23 -24zM252 864l-12 15l-4 -12l15 -8zM330 855l-8 15v-14zM216 820l-15 15l-18 -18l22 -14zM610 912l-6 -11l-18 5l-7 -24l-5 -1l-11 14l4 4l-8 12l32 11l-5 20z" />
<glyph unicode="&#xd2;" horiz-adv-x="597" d="M330 694q-4 -6 -4 -19q-11 10 -12 19l-22 13l30 -4zM577 266l-16 -11l-9 16h-6l-20 -12l17 -4v-5l-35 -36l12 -39l-12 -13l8 -20l-9 -12l-17 3l-6 -17l-4 1l-29 -42l-7 -1l-18 5l-7 -9l3 -7l-5 -16l-29 -15l-43 16l-9 -1l-35 -39l-78 17l-8 -5l15 -19l-6 -1l-39 24 l-12 -9l-16 4l-18 -7l1 6l-39 14l-58 71l3 22l-18 11l-10 25l5 35l-8 20l7 3l12 -9l3 9l-20 37q4 10 9 10q3 0 6 -3l14 33l-8 56l1 25l5 -4l3 1l2 5l-6 17l4 8l20 -19h2l8 21l-7 38l5 16l-14 8v2l12 -1l20 12l-1 5l-15 11l-8 -20l-4 13l32 47l36 118l5 2l15 -10l8 7v13 l15 -1l8 26l23 -28l8 15l-2 8l10 -3l41 23l20 -17h2l18 -18l10 4l22 -7l10 6l2 -15l-8 3l2 -9l-13 -14q26 11 33 15l-9 26l7 1l19 -15v-5l18 -30v21l7 11l22 -13l9 4l24 -30l-3 1l-10 -8l16 -10l9 27h6l-3 -10l18 -30l-8 -12l17 -13l1 -8l-2 -21l11 -15l12 14l-5 23l-13 15 l6 15l16 -14l28 -144l-6 -11l14 -25l-8 -9l-11 -42l16 -44l-3 -17l6 -9l10 8zM262 680v1h-7l4 -6zM290 654v6l-6 16l-3 -1l3 -21h6zM238 660l-11 9v-9h11zM151 610v14l-12 5zM470 597l-23 11l-2 -6l14 -19zM388 595v3l-3 3zM459 285l-8 6l3 24l-57 169l-18 13l15 6l1 3 l-7 11l-9 -6l-15 21l2 8l22 3l-3 6l-16 -3l-77 21l-22 11l-31 3l-29 -18l-55 -92l1 -8l-18 -61l4 -17l-27 -85q9 -27 19 -42l-10 -39l12 -14l3 -31l-6 -28l49 -33l126 -26l27 8l93 96zM520 487l-9 25l-10 -52l19 11l-8 7zM537 411l-10 36l-7 -27l17 -12v3zM516 266l-8 3v-13 zM58 212l-3 4l-5 -8l5 -1zM38 163v4l-5 4l-1 -1zM58 146v13h-8l5 -14zM195 39l-13 8l-1 -3q2 -2 13 -9zM136 44h-7l4 -3zM315 24l-9 5l-5 -1v-13zM46 426l-3 -6h-4v20zM586 369l-4 -52h-5v34l-7 26h15zM556 203l-26 -4h-7l22 14h7zM557 163l-5 1l-22 -16v15l18 32l-1 -7z M23 87l-8 6h8v-6zM47 56l-14 22l12 11zM418 809l-19 -31l-4 27q-4 -8 -15 -36l-16 28l-7 -19l-40 27l9 11l-18 -6l-75 53v16l-16 -6l-10 9v2l9 18l-18 -4l-15 8l16 37l-19 12l-1 24l12 -17l33 -16l17 8l21 -21l9 4l-2 -13l37 -29l15 2l-18 -14q19 0 35 7l4 -30l1 -5 q1 -3 14 -20l-4 16l23 5l12 -22l4 11l25 -34zM216 968l-6 -8l-6 5l5 5z" />
<glyph unicode="&#xd3;" horiz-adv-x="597" d="M330 694q-4 -6 -4 -19q-11 10 -12 19l-22 13l30 -4zM577 266l-16 -11l-9 16h-6l-20 -12l17 -4v-5l-35 -36l12 -39l-12 -13l8 -20l-9 -12l-17 3l-6 -17l-4 1l-29 -42l-7 -1l-18 5l-7 -9l3 -7l-5 -16l-29 -15l-43 16l-9 -1l-35 -39l-78 17l-8 -5l15 -19l-6 -1l-39 24 l-12 -9l-16 4l-18 -7l1 6l-39 14l-58 71l3 22l-18 11l-10 25l5 35l-8 20l7 3l12 -9l3 9l-20 37q4 10 9 10q3 0 6 -3l14 33l-8 56l1 25l5 -4l3 1l2 5l-6 17l4 8l20 -19h2l8 21l-7 38l5 16l-14 8v2l12 -1l20 12l-1 5l-15 11l-8 -20l-4 13l32 47l36 118l5 2l15 -10l8 7v13 l15 -1l8 26l23 -28l8 15l-2 8l10 -3l41 23l20 -17h2l18 -18l10 4l22 -7l10 6l2 -15l-8 3l2 -9l-13 -14q26 11 33 15l-9 26l7 1l19 -15v-5l18 -30v21l7 11l22 -13l9 4l24 -30l-3 1l-10 -8l16 -10l9 27h6l-3 -10l18 -30l-8 -12l17 -13l1 -8l-2 -21l11 -15l12 14l-5 23l-13 15 l6 15l16 -14l28 -144l-6 -11l14 -25l-8 -9l-11 -42l16 -44l-3 -17l6 -9l10 8zM262 680v1h-7l4 -6zM290 654v6l-6 16l-3 -1l3 -21h6zM238 660l-11 9v-9h11zM151 610v14l-12 5zM470 597l-23 11l-2 -6l14 -19zM388 595v3l-3 3zM459 285l-8 6l3 24l-57 169l-18 13l15 6l1 3 l-7 11l-9 -6l-15 21l2 8l22 3l-3 6l-16 -3l-77 21l-22 11l-31 3l-29 -18l-55 -92l1 -8l-18 -61l4 -17l-27 -85q9 -27 19 -42l-10 -39l12 -14l3 -31l-6 -28l49 -33l126 -26l27 8l93 96zM520 487l-9 25l-10 -52l19 11l-8 7zM537 411l-10 36l-7 -27l17 -12v3zM516 266l-8 3v-13 zM58 212l-3 4l-5 -8l5 -1zM38 163v4l-5 4l-1 -1zM58 146v13h-8l5 -14zM195 39l-13 8l-1 -3q2 -2 13 -9zM136 44h-7l4 -3zM315 24l-9 5l-5 -1v-13zM46 426l-3 -6h-4v20zM586 369l-4 -52h-5v34l-7 26h15zM556 203l-26 -4h-7l22 14h7zM557 163l-5 1l-22 -16v15l18 32l-1 -7z M23 87l-8 6h8v-6zM47 56l-14 22l12 11zM404 982l-8 -5l-5 9l7 2l3 -1zM434 969l-7 3l-19 -12l16 -37l-31 3l-2 -6l9 -18v-2q-18 -1 -27 -4v-15l-73 -53l-18 4l8 -10l-41 -25l-7 18l-15 -28l-11 23l-13 7l5 -11l-17 20l1 3l41 44q21 -5 23 -6l8 2v27l5 12l18 -8v14l14 -2 l37 30l-2 13l10 -4l20 20l23 -16l35 21z" />
<glyph unicode="&#xd4;" horiz-adv-x="597" d="M330 694q-4 -6 -4 -19q-11 10 -12 19l-22 13l30 -4zM577 266l-16 -11l-9 16h-6l-20 -12l17 -4v-5l-35 -36l12 -39l-12 -13l8 -20l-9 -12l-17 3l-6 -17l-4 1l-29 -42l-7 -1l-18 5l-7 -9l3 -7l-5 -16l-29 -15l-43 16l-9 -1l-35 -39l-78 17l-8 -5l15 -19l-6 -1l-39 24 l-12 -9l-16 4l-18 -7l1 6l-39 14l-58 71l3 22l-18 11l-10 25l5 35l-8 20l7 3l12 -9l3 9l-20 37q4 10 9 10q3 0 6 -3l14 33l-8 56l1 25l5 -4l3 1l2 5l-6 17l4 8l20 -19h2l8 21l-7 38l5 16l-14 8v2l12 -1l20 12l-1 5l-15 11l-8 -20l-4 13l32 47l36 118l5 2l15 -10l8 7v13 l15 -1l8 26l23 -28l8 15l-2 8l10 -3l41 23l20 -17h2l18 -18l10 4l22 -7l10 6l2 -15l-8 3l2 -9l-13 -14q26 11 33 15l-9 26l7 1l19 -15v-5l18 -30v21l7 11l22 -13l9 4l24 -30l-3 1l-10 -8l16 -10l9 27h6l-3 -10l18 -30l-8 -12l17 -13l1 -8l-2 -21l11 -15l12 14l-5 23l-13 15 l6 15l16 -14l28 -144l-6 -11l14 -25l-8 -9l-11 -42l16 -44l-3 -17l6 -9l10 8zM262 680v1h-7l4 -6zM290 654v6l-6 16l-3 -1l3 -21h6zM238 660l-11 9v-9h11zM151 610v14l-12 5zM470 597l-23 11l-2 -6l14 -19zM388 595v3l-3 3zM459 285l-8 6l3 24l-57 169l-18 13l15 6l1 3 l-7 11l-9 -6l-15 21l2 8l22 3l-3 6l-16 -3l-77 21l-22 11l-31 3l-29 -18l-55 -92l1 -8l-18 -61l4 -17l-27 -85q9 -27 19 -42l-10 -39l12 -14l3 -31l-6 -28l49 -33l126 -26l27 8l93 96zM520 487l-9 25l-10 -52l19 11l-8 7zM537 411l-10 36l-7 -27l17 -12v3zM516 266l-8 3v-13 zM58 212l-3 4l-5 -8l5 -1zM38 163v4l-5 4l-1 -1zM58 146v13h-8l5 -14zM195 39l-13 8l-1 -3q2 -2 13 -9zM136 44h-7l4 -3zM315 24l-9 5l-5 -1v-13zM46 426l-3 -6h-4v20zM586 369l-4 -52h-5v34l-7 26h15zM556 203l-26 -4h-7l22 14h7zM557 163l-5 1l-22 -16v15l18 32l-1 -7z M23 87l-8 6h8v-6zM47 56l-14 22l12 11zM505 861l-2 -9l-16 5l-19 -27l3 -35l-11 -25l-40 54l-14 -14l-10 16l-16 -7l-42 42l-16 45l-5 2l-40 -39l-36 -57l-46 -43h1l21 45l-7 14l-37 -60l-38 38l-3 7l19 34h11l9 -17l8 10l-8 26l6 -2l33 21l38 76l9 -1l54 21l13 22l38 -61 l3 6l-3 14l7 6l40 -10l4 8q10 -12 13 -25l-14 1l-1 -6l11 -21l29 -19l11 5l14 -9l-13 -1l-9 -10l41 -12zM248 892l-11 12l-5 -3l4 -10zM266 869l-8 10l-13 -4l7 -9zM407 869l-4 6l-5 -11zM447 835l-7 7l-5 -4l4 -15zM194 902l-2 -17l-6 11l2 4z" />
<glyph unicode="&#xd5;" horiz-adv-x="597" d="M330 694q-4 -6 -4 -19q-11 10 -12 19l-22 13l30 -4zM577 266l-16 -11l-9 16h-6l-20 -12l17 -4v-5l-35 -36l12 -39l-12 -13l8 -20l-9 -12l-17 3l-6 -17l-4 1l-29 -42l-7 -1l-18 5l-7 -9l3 -7l-5 -16l-29 -15l-43 16l-9 -1l-35 -39l-78 17l-8 -5l15 -19l-6 -1l-39 24 l-12 -9l-16 4l-18 -7l1 6l-39 14l-58 71l3 22l-18 11l-10 25l5 35l-8 20l7 3l12 -9l3 9l-20 37q4 10 9 10q3 0 6 -3l14 33l-8 56l1 25l5 -4l3 1l2 5l-6 17l4 8l20 -19h2l8 21l-7 38l5 16l-14 8v2l12 -1l20 12l-1 5l-15 11l-8 -20l-4 13l32 47l36 118l5 2l15 -10l8 7v13 l15 -1l8 26l23 -28l8 15l-2 8l10 -3l41 23l20 -17h2l18 -18l10 4l22 -7l10 6l2 -15l-8 3l2 -9l-13 -14q26 11 33 15l-9 26l7 1l19 -15v-5l18 -30v21l7 11l22 -13l9 4l24 -30l-3 1l-10 -8l16 -10l9 27h6l-3 -10l18 -30l-8 -12l17 -13l1 -8l-2 -21l11 -15l12 14l-5 23l-13 15 l6 15l16 -14l28 -144l-6 -11l14 -25l-8 -9l-11 -42l16 -44l-3 -17l6 -9l10 8zM262 680v1h-7l4 -6zM290 654v6l-6 16l-3 -1l3 -21h6zM238 660l-11 9v-9h11zM151 610v14l-12 5zM470 597l-23 11l-2 -6l14 -19zM388 595v3l-3 3zM459 285l-8 6l3 24l-57 169l-18 13l15 6l1 3 l-7 11l-9 -6l-15 21l2 8l22 3l-3 6l-16 -3l-77 21l-22 11l-31 3l-29 -18l-55 -92l1 -8l-18 -61l4 -17l-27 -85q9 -27 19 -42l-10 -39l12 -14l3 -31l-6 -28l49 -33l126 -26l27 8l93 96zM520 487l-9 25l-10 -52l19 11l-8 7zM537 411l-10 36l-7 -27l17 -12v3zM516 266l-8 3v-13 zM58 212l-3 4l-5 -8l5 -1zM38 163v4l-5 4l-1 -1zM58 146v13h-8l5 -14zM195 39l-13 8l-1 -3q2 -2 13 -9zM136 44h-7l4 -3zM315 24l-9 5l-5 -1v-13zM46 426l-3 -6h-4v20zM586 369l-4 -52h-5v34l-7 26h15zM556 203l-26 -4h-7l22 14h7zM557 163l-5 1l-22 -16v15l18 32l-1 -7z M23 87l-8 6h8v-6zM47 56l-14 22l12 11zM507 940l-9 -9l2 9h7zM494 906l-17 -49l5 -15l-69 -76l-35 -3l-10 10l-23 -7l-12 8l-17 -8l-37 60l-11 -16l-29 19l-28 -11l-101 -79l-16 3l18 21l-4 25l21 20l-12 29l6 4v-9l12 -5l38 38l-3 5l41 28l16 26l22 -17l33 24l50 -84l7 -1 l25 17l12 -21l6 -1l10 6l13 -7l32 26l8 -11l27 71h3l18 -13zM253 853l-5 6l-23 -24zM186 835l-12 15l-4 -12l15 -8zM264 826l-8 15v-14zM150 791l-15 15l-18 -18l22 -14zM544 883l-6 -11l-18 5l-7 -24l-5 -1l-11 14l4 4l-8 12l32 11l-5 20z" />
<glyph unicode="&#xd6;" horiz-adv-x="597" d="M330 694q-4 -6 -4 -19q-11 10 -12 19l-22 13l30 -4zM577 266l-16 -11l-9 16h-6l-20 -12l17 -4v-5l-35 -36l12 -39l-12 -13l8 -20l-9 -12l-17 3l-6 -17l-4 1l-29 -42l-7 -1l-18 5l-7 -9l3 -7l-5 -16l-29 -15l-43 16l-9 -1l-35 -39l-78 17l-8 -5l15 -19l-6 -1l-39 24 l-12 -9l-16 4l-18 -7l1 6l-39 14l-58 71l3 22l-18 11l-10 25l5 35l-8 20l7 3l12 -9l3 9l-20 37q4 10 9 10q3 0 6 -3l14 33l-8 56l1 25l5 -4l3 1l2 5l-6 17l4 8l20 -19h2l8 21l-7 38l5 16l-14 8v2l12 -1l20 12l-1 5l-15 11l-8 -20l-4 13l32 47l36 118l5 2l15 -10l8 7v13 l15 -1l8 26l23 -28l8 15l-2 8l10 -3l41 23l20 -17h2l18 -18l10 4l22 -7l10 6l2 -15l-8 3l2 -9l-13 -14q26 11 33 15l-9 26l7 1l19 -15v-5l18 -30v21l7 11l22 -13l9 4l24 -30l-3 1l-10 -8l16 -10l9 27h6l-3 -10l18 -30l-8 -12l17 -13l1 -8l-2 -21l11 -15l12 14l-5 23l-13 15 l6 15l16 -14l28 -144l-6 -11l14 -25l-8 -9l-11 -42l16 -44l-3 -17l6 -9l10 8zM262 680v1h-7l4 -6zM290 654v6l-6 16l-3 -1l3 -21h6zM238 660l-11 9v-9h11zM151 610v14l-12 5zM470 597l-23 11l-2 -6l14 -19zM388 595v3l-3 3zM459 285l-8 6l3 24l-57 169l-18 13l15 6l1 3 l-7 11l-9 -6l-15 21l2 8l22 3l-3 6l-16 -3l-77 21l-22 11l-31 3l-29 -18l-55 -92l1 -8l-18 -61l4 -17l-27 -85q9 -27 19 -42l-10 -39l12 -14l3 -31l-6 -28l49 -33l126 -26l27 8l93 96zM520 487l-9 25l-10 -52l19 11l-8 7zM537 411l-10 36l-7 -27l17 -12v3zM516 266l-8 3v-13 zM58 212l-3 4l-5 -8l5 -1zM38 163v4l-5 4l-1 -1zM58 146v13h-8l5 -14zM195 39l-13 8l-1 -3q2 -2 13 -9zM136 44h-7l4 -3zM315 24l-9 5l-5 -1v-13zM46 426l-3 -6h-4v20zM586 369l-4 -52h-5v34l-7 26h15zM556 203l-26 -4h-7l22 14h7zM557 163l-5 1l-22 -16v15l18 32l-1 -7z M23 87l-8 6h8v-6zM47 56l-14 22l12 11zM431 844l-12 -82l-10 -7l-21 8v14q-21 31 -33 42l-11 -2l-3 33q-10 32 -6 37l37 46l5 11l18 -17l6 15l15 -7l-1 -15l4 -9l-6 -22zM410 908l-21 7l6 -20l11 1zM369 907l-10 -8l6 -3zM276 773l-6 -8l-14 5l-1 16l-13 -4l-43 19l-13 -8 l-29 40l-21 14q11 -4 19 -4q6 0 8.5 2t8.5 14l-17 5l-6 -11l-2 17l13 50q7 1 11 4q5 3 15 8l12 -17l5 2l13 -28l36 -34zM220 875q-16 18 -26 27l1 -17zM178 863l-10 23l-5 -13zM208 811l-11 8l-10 -1v-10zM149 914l-9 -39l-8 10l2 13zM259 863q-18 9 -24 18v4l11 -2z" />
<glyph unicode="&#xd7;" horiz-adv-x="509" d="M437 504l-9 -6l-26 12l-5 38l16 3l24 -20l-15 -9zM499 171l-13 3l-41 -32l-15 5l-55 -8l-14 -5l-49 39l6 14l-24 19l9 49l-34 -14l-1 26l-22 1l8 -13l-36 -9l-97 -103l1 5l-62 21l37 44l-27 16v1q2 -2 9 -7l7 5l-1 5l10 51l-3 7l53 -10l-13 33l26 2l2 27l-5 -1l-9 11 l-59 29l-38 28l-1 3l19 44l-1 2l-12 -5l-5 10l51 46l129 -102l5 8l-2 12l13 9l29 12l-5 14l29 40l34 -19l15 32l31 15l39 -48l-122 -134l11 2q7 1 11 4l11 9l10 -36l24 -11zM476 180l-7 17l-18 -11l2 -10zM86 523l-4 -13l-3 1l-6 -14l-23 12h-5l-10 -17l-4 14l21 24l8 -14 l19 14z" />
<glyph unicode="&#xd8;" horiz-adv-x="597" d="M577 266l-16 -11l-9 16h-6l-20 -12l17 -4v-5l-35 -36l12 -39l-12 -13l8 -20l-9 -12l-17 3l-6 -17l-5 1l-25 -20l-3 -22l-7 -1l-18 5l-7 -9l3 -7l-5 -16l-29 -15l-43 16l-9 -1l-35 -39l-78 17l-8 -5l15 -19l-6 -1l-39 24l-12 -9l-19 5l-15 -8l1 6l-48 -3l6 23l-23 -35 l-7 -2l-3 5l3 14l-8 5l-16 -24h-5l-32 16l28 9l-38 1q10 61 46 76l3 22l-18 11l-10 25l5 35l-8 20l7 3l12 -9l3 9l-20 37l6 13l9 -6l14 33l-8 56l1 25l6 -4l2 1l2 5l-6 17l4 8l20 -19h2l8 21l-7 38q-5 13 -5 18t3.5 8t24.5 11l-1 5l-15 11l-8 -20l-4 13l13 94q17 49 45 70.5 t53 21.5l8 16l23 -28l8 15l-2 8l10 -3l41 23q55 0 88 -57l10 5l-9 26l7 1l19 -15l-1 -9l14 -25l6 7l-2 13l3 7l-1 7l55 58l8 -17l37 28l22 1l2 -14l32 19l7 -17l-74 -121l5 -9l-8 -12l17 -13l1 -8l-2 -21l11 -15l12 14l-5 23l-13 15l6 15l16 -14l28 -144l-6 -11l14 -25 l-8 -9l-11 -42l16 -44l-3 -17l6 -9l10 8zM151 610v14l-12 5zM341 571l-14 -11l-35 7l-22 11l-31 3l-29 -18l-55 -92l1 -8l-18 -61l4 -17l-27 -85q9 -28 18 -39l35 29l4 35l19 31l29 27l-14 -45l45 92l41 52zM520 471v16l-9 25l-10 -52zM459 285l-8 6l3 25l-56 160l-94 -124 l-148 -228l26 -11l126 -26l23 6l97 98zM537 411l-10 36l-7 -27l17 -12v3zM176 266l-3 12l-36 -34l4 -12l-15 2l-33 -39l36 12zM516 266l-8 3v-13zM58 212l-3 4l-5 -8l5 -1zM38 163v4l-5 4l-1 -1zM58 146v13h-8l5 -14zM46 426l-3 -6h-4v20zM586 369l-4 -52h-5v34l-7 26h15z M25 278l-2 -4l2 12v-8zM557 163l-5 1l-22 -16v15l17 25z" />
<glyph unicode="&#xd9;" horiz-adv-x="683" d="M653 425l-6 -3l-23 9l-4 -65l-13 -8l-36 -85l10 1l12 -14l-2 -26l-31 24l-5 23l-3 -24l8 -30l-17 -10l-26 -37l3 -3l-16 -27l-28 -21l-12 2l13 17l-6 10l-53 -78l-8 46l-34 -72l-19 14q-14 -4 -26 -6q15 -17 16 -20l-14 1l-6 -5l2 -12l-37 -26l-18 22l-11 3l-15 -21h-3 l-20 21l-1 5l17 12l-11 6l-28 -35l-43 25v16l-13 3l-27 -3l-22 17l1 6l-40 74v4l2 7l-5 21h-11l1 10l-10 60l11 34l-15 30l15 85l-2 19h12l9 7l-20 23l2 7l14 -4l31 21l-5 15l18 73l-5 69l5 38l20 -17l-7 -11l3 -2q3 -2 27 17l96 -45l-3 -22l-8 4l-15 -20l2 -9l-12 -33v-61 l-27 26l-6 -12l13 -10l-1 -14l7 -15l11 5l3 -13v-13l-9 -12l-8 8l-32 -94l12 7l-2 -30l6 -1l13 31l7 -11l-1 -7l-13 -32l-11 9h-1l-11 -38l7 -21l23 33l23 -9l-9 -11l5 -15l-20 18l-6 -6l29 -28l-2 -8l-32 21l-5 -9l10 -15l-22 -63l9 -6l10 1l6 21h7q3 -21 8 -34l22 22 l47 -49l3 6q-9 14 -11 26l34 -2l57 28h4l39 25l16 46l54 41l-25 22l37 34v2l-16 24l11 27l-2 22l6 15l1 -26l19 31l-15 8l-1 6l9 39l-8 39l4 47l-20 42l5 14l-47 67l2 12l13 -1l6 16l32 -33l8 3l26 -14l11 13l9 -20l12 10l-7 21l29 -34l-16 -8l1 -4l43 -17l-10 -6l9 -31 q-19 -17 -20 -20l7 -8l11 5l25 -21l-7 -19q0 -23 7 -37l-13 -44l10 -13l36 53h7l-11 -41zM525 607v1l-8 5l-9 -17h6zM575 602l-1 5l-4 1l-19 -15h10zM156 564v1h-9v-15zM580 537l-14 -30l5 -21zM122 466v17l-7 -12l3 -5h4zM144 440h-3l-11 -8l1 -6h2zM76 421v9h-4v-9h4z M588 392v11l-6 10h-2l-3 -5zM147 399l-11 9h-1l3 -19q-13 -20 -14 -25l18 -22l1 10l-3 29zM594 354l-16 -6l-9 -60zM559 351l-20 2l3 -11zM138 263l-9 4h-2v-12zM525 221l-20 29l-5 -9l22 -20h3zM135 221l-8 13l1 -10l-13 -23zM508 196l-19 -14q2 -5 8 -11l11 20v5zM318 45 l-17 -2l3 -16zM480 687h-9v12h2l7 -3v-9zM630 590l-13 -13l-7 2l-7 13l-2 45l-17 46l26 -41zM58 570l-9 -5l-11 9l2 10l-15 36v4zM92 615l-4 -10l-4 2l4 9zM26 562l-1 -12l-3 -4l-7 7l7 21zM88 537l-16 -66l-11 35l4 10l4 -1l9 11l-3 8l9 22zM651 516v-4l-9 -5h-1v34z M645 408l-18 -32l7 42zM208 374l-23 8l17 10zM613 278v3l-16 26l11 11zM558 199l-7 -25h-12l18 27zM218 163l-10 20l10 -12v-8zM497 133l-10 -19h-3v10zM466 821l-19 -31l-4 27q-4 -8 -15 -36l-16 28l-7 -19l-40 27l9 11l-18 -6l-75 53v16l-16 -6l-10 9v2l9 18l-18 -4l-15 8 l16 37l-19 12l-1 24l12 -17l33 -16l17 8l21 -21l9 4l-2 -13l37 -29l15 2l-18 -14q19 0 35 7l4 -30l1 -5q1 -3 14 -20l-4 16l23 5l12 -22l4 11l25 -34zM264 980l-6 -8l-6 5l5 5z" />
<glyph unicode="&#xda;" horiz-adv-x="683" d="M653 425l-6 -3l-23 9l-4 -65l-13 -8l-36 -85l10 1l12 -14l-2 -26l-31 24l-5 23l-3 -24l8 -30l-17 -10l-26 -37l3 -3l-16 -27l-28 -21l-12 2l13 17l-6 10l-53 -78l-8 46l-34 -72l-19 14q-14 -4 -26 -6q15 -17 16 -20l-14 1l-6 -5l2 -12l-37 -26l-18 22l-11 3l-15 -21h-3 l-20 21l-1 5l17 12l-11 6l-28 -35l-43 25v16l-13 3l-27 -3l-22 17l1 6l-40 74v4l2 7l-5 21h-11l1 10l-10 60l11 34l-15 30l15 85l-2 19h12l9 7l-20 23l2 7l14 -4l31 21l-5 15l18 73l-5 69l5 38l20 -17l-7 -11l3 -2q3 -2 27 17l96 -45l-3 -22l-8 4l-15 -20l2 -9l-12 -33v-61 l-27 26l-6 -12l13 -10l-1 -14l7 -15l11 5l3 -13v-13l-9 -12l-8 8l-32 -94l12 7l-2 -30l6 -1l13 31l7 -11l-1 -7l-13 -32l-11 9h-1l-11 -38l7 -21l23 33l23 -9l-9 -11l5 -15l-20 18l-6 -6l29 -28l-2 -8l-32 21l-5 -9l10 -15l-22 -63l9 -6l10 1l6 21h7q3 -21 8 -34l22 22 l47 -49l3 6q-9 14 -11 26l34 -2l57 28h4l39 25l16 46l54 41l-25 22l37 34v2l-16 24l11 27l-2 22l6 15l1 -26l19 31l-15 8l-1 6l9 39l-8 39l4 47l-20 42l5 14l-47 67l2 12l13 -1l6 16l32 -33l8 3l26 -14l11 13l9 -20l12 10l-7 21l29 -34l-16 -8l1 -4l43 -17l-10 -6l9 -31 q-19 -17 -20 -20l7 -8l11 5l25 -21l-7 -19q0 -23 7 -37l-13 -44l10 -13l36 53h7l-11 -41zM525 607v1l-8 5l-9 -17h6zM575 602l-1 5l-4 1l-19 -15h10zM156 564v1h-9v-15zM580 537l-14 -30l5 -21zM122 466v17l-7 -12l3 -5h4zM144 440h-3l-11 -8l1 -6h2zM76 421v9h-4v-9h4z M588 392v11l-6 10h-2l-3 -5zM147 399l-11 9h-1l3 -19q-13 -20 -14 -25l18 -22l1 10l-3 29zM594 354l-16 -6l-9 -60zM559 351l-20 2l3 -11zM138 263l-9 4h-2v-12zM525 221l-20 29l-5 -9l22 -20h3zM135 221l-8 13l1 -10l-13 -23zM508 196l-19 -14q2 -5 8 -11l11 20v5zM318 45 l-17 -2l3 -16zM480 687h-9v12h2l7 -3v-9zM630 590l-13 -13l-7 2l-7 13l-2 45l-17 46l26 -41zM58 570l-9 -5l-11 9l2 10l-15 36v4zM92 615l-4 -10l-4 2l4 9zM26 562l-1 -12l-3 -4l-7 7l7 21zM88 537l-16 -66l-11 35l4 10l4 -1l9 11l-3 8l9 22zM651 516v-4l-9 -5h-1v34z M645 408l-18 -32l7 42zM208 374l-23 8l17 10zM613 278v3l-16 26l11 11zM558 199l-7 -25h-12l18 27zM218 163l-10 20l10 -12v-8zM497 133l-10 -19h-3v10zM420 982l-8 -5l-5 9l7 2l3 -1zM450 969l-7 3l-19 -12l16 -37l-31 3l-2 -6l9 -18v-2q-18 -1 -27 -4v-15l-73 -53l-18 4 l8 -10l-41 -25l-7 18l-15 -28l-11 23l-13 7l5 -11l-17 20l1 3l41 44q21 -5 23 -6l8 2v27l5 12l18 -8v14l14 -2l37 30l-2 13l10 -4l20 20l23 -16l35 21z" />
<glyph unicode="&#xdb;" horiz-adv-x="683" d="M653 425l-6 -3l-23 9l-4 -65l-13 -8l-36 -85l10 1l12 -14l-2 -26l-31 24l-5 23l-3 -24l8 -30l-17 -10l-26 -37l3 -3l-16 -27l-28 -21l-12 2l13 17l-6 10l-53 -78l-8 46l-34 -72l-19 14q-14 -4 -26 -6q15 -17 16 -20l-14 1l-6 -5l2 -12l-37 -26l-18 22l-11 3l-15 -21h-3 l-20 21l-1 5l17 12l-11 6l-28 -35l-43 25v16l-13 3l-27 -3l-22 17l1 6l-40 74v4l2 7l-5 21h-11l1 10l-10 60l11 34l-15 30l15 85l-2 19h12l9 7l-20 23l2 7l14 -4l31 21l-5 15l18 73l-5 69l5 38l20 -17l-7 -11l3 -2q3 -2 27 17l96 -45l-3 -22l-8 4l-15 -20l2 -9l-12 -33v-61 l-27 26l-6 -12l13 -10l-1 -14l7 -15l11 5l3 -13v-13l-9 -12l-8 8l-32 -94l12 7l-2 -30l6 -1l13 31l7 -11l-1 -7l-13 -32l-11 9h-1l-11 -38l7 -21l23 33l23 -9l-9 -11l5 -15l-20 18l-6 -6l29 -28l-2 -8l-32 21l-5 -9l10 -15l-22 -63l9 -6l10 1l6 21h7q3 -21 8 -34l22 22 l47 -49l3 6q-9 14 -11 26l34 -2l57 28h4l39 25l16 46l54 41l-25 22l37 34v2l-16 24l11 27l-2 22l6 15l1 -26l19 31l-15 8l-1 6l9 39l-8 39l4 47l-20 42l5 14l-47 67l2 12l13 -1l6 16l32 -33l8 3l26 -14l11 13l9 -20l12 10l-7 21l29 -34l-16 -8l1 -4l43 -17l-10 -6l9 -31 q-19 -17 -20 -20l7 -8l11 5l25 -21l-7 -19q0 -23 7 -37l-13 -44l10 -13l36 53h7l-11 -41zM525 607v1l-8 5l-9 -17h6zM575 602l-1 5l-4 1l-19 -15h10zM156 564v1h-9v-15zM580 537l-14 -30l5 -21zM122 466v17l-7 -12l3 -5h4zM144 440h-3l-11 -8l1 -6h2zM76 421v9h-4v-9h4z M588 392v11l-6 10h-2l-3 -5zM147 399l-11 9h-1l3 -19q-13 -20 -14 -25l18 -22l1 10l-3 29zM594 354l-16 -6l-9 -60zM559 351l-20 2l3 -11zM138 263l-9 4h-2v-12zM525 221l-20 29l-5 -9l22 -20h3zM135 221l-8 13l1 -10l-13 -23zM508 196l-19 -14q2 -5 8 -11l11 20v5zM318 45 l-17 -2l3 -16zM480 687h-9v12h2l7 -3v-9zM630 590l-13 -13l-7 2l-7 13l-2 45l-17 46l26 -41zM58 570l-9 -5l-11 9l2 10l-15 36v4zM92 615l-4 -10l-4 2l4 9zM26 562l-1 -12l-3 -4l-7 7l7 21zM88 537l-16 -66l-11 35l4 10l4 -1l9 11l-3 8l9 22zM651 516v-4l-9 -5h-1v34z M645 408l-18 -32l7 42zM208 374l-23 8l17 10zM613 278v3l-16 26l11 11zM558 199l-7 -25h-12l18 27zM218 163l-10 20l10 -12v-8zM497 133l-10 -19h-3v10zM517 881l-2 -9l-16 5l-19 -27l3 -35l-11 -25l-40 54l-14 -14l-10 16l-16 -7l-42 42l-16 45l-5 2l-40 -39l-36 -57 l-46 -43h1l21 45l-7 14l-37 -60l-38 38l-3 7l19 34h11l9 -17l8 10l-8 26l6 -2l33 21l38 76l9 -1l54 21l13 22l38 -61l3 6l-3 14l7 6l40 -10l4 8q10 -12 13 -25l-14 1l-1 -6l11 -21l29 -19l11 5l14 -9l-13 -1l-9 -10l41 -12zM260 912l-11 12l-5 -3l4 -10zM278 889l-8 10 l-13 -4l7 -9zM419 889l-4 6l-5 -11zM459 855l-7 7l-5 -4l4 -15zM206 922l-2 -17l-6 11l2 4z" />
</font>
</defs>
</svg>
